<svg width="498" height="509" viewBox="0 0 498 509" fill="none" xmlns="http://www.w3.org/2000/svg">
<g clip-path="url(#clip0_8_4048)">
<path d="M221.723 489.655C220.044 488.212 216.281 483.627 219.176 478.298C220.247 476.348 222.5 475.379 224.551 474.523C226.656 473.814 228.64 472.784 230.432 471.47C233.621 468.766 234.499 464.259 236.618 460.631C239.051 456.473 243.581 453.364 248.38 453.578C253.867 453.837 258.442 458.31 260.515 463.425C262.588 468.54 262.667 474.208 262.768 479.728C262.768 482.782 262.656 486.229 260.413 488.291C258.171 490.353 255.231 490.207 252.436 490.128L222.444 489.204" fill="#F5F5F5"/>
<path d="M279.094 407.18H200.225L214.433 491.897C214.728 493.666 215.521 495.316 216.718 496.652C217.915 497.989 219.467 498.957 221.193 499.446L221.475 499.524C221.7 499.581 221.925 499.66 222.173 499.705C222.701 499.805 223.236 499.865 223.773 499.885V499.986L224.156 499.93H259.321C259.968 499.93 260.613 499.866 261.247 499.739C263.301 499.421 265.193 498.439 266.636 496.943C268.079 495.448 268.992 493.521 269.235 491.457L276.041 433.061L276.345 430.74L279.049 407.597L279.094 407.18ZM264.21 461.262H256.121L256.932 436.677H266.317L264.21 461.262ZM267.106 436.677H274.846L271.962 461.262H264.999L267.106 436.677ZM243.975 488.505L243.479 467.098H255.14L254.431 488.505H243.975ZM231.367 467.098H242.702L243.186 488.505H233.046L231.367 467.098ZM232.246 488.505H222.748C221.847 482.737 220.675 475.244 219.368 467.098H230.556L232.246 488.505ZM230.973 461.217L229.057 436.632H242.048L242.623 461.217H230.973ZM243.367 461.217L242.803 436.632H256.177L255.355 461.217H243.367ZM242.668 430.796L242.138 408.014H257.123L256.369 430.796H242.668ZM241.879 430.796H228.55L226.77 408.014H241.338L241.879 430.796ZM227.784 430.796H213.667C213.171 427.641 212.698 424.667 212.27 421.985C210.805 412.78 210.253 409.321 209.937 408.014H225.993L227.784 430.796ZM228.246 436.689L230.15 461.273H218.478C218.083 458.783 217.689 456.259 217.351 453.736C216.438 447.933 215.515 442.131 214.658 436.689H228.246ZM217.712 461.273H210.095L205.971 436.689H213.858C215.008 444.226 216.326 452.665 217.689 461.217L217.712 461.273ZM218.636 467.177C219.762 474.568 220.889 481.824 222.016 488.584H214.703L211.12 467.177H218.636ZM255.242 488.584L255.952 467.177H263.737L261.912 488.584H255.242ZM257.157 430.841L257.912 408.059H268.785L266.847 430.841H257.157ZM209.216 408.059C209.532 409.715 210.974 418.673 212.901 430.841H205.014L201.194 408.059H209.216ZM268.796 488.584H262.689L264.515 467.177H271.275L268.796 488.584ZM275.556 430.841H267.613L269.562 408.059H278.227L275.556 430.841Z" fill="#E0E0E0"/>
<path d="M282.936 323.433L240.381 336.694C238.969 337.12 237.446 336.974 236.14 336.29C234.834 335.605 233.849 334.436 233.395 333.032L215.041 274.129C214.616 272.717 214.761 271.194 215.446 269.888C216.13 268.582 217.3 267.597 218.703 267.143L245.688 258.738L273.292 273.757L286.598 316.447C287.023 317.859 286.878 319.382 286.193 320.688C285.509 321.994 284.339 322.98 282.936 323.433Z" fill="#EBEBEB"/>
<path d="M245.688 258.738L250.859 275.312C251.273 276.619 252.189 277.709 253.406 278.343C254.622 278.976 256.04 279.102 257.349 278.692L273.292 273.723L245.688 258.738Z" fill="#E0E0E0"/>
<path d="M247.073 275.774C247.141 275.988 242.792 277.531 237.35 279.222C231.908 280.912 227.458 282.117 227.39 281.903C227.322 281.689 231.683 280.145 237.113 278.455C242.544 276.765 247.017 275.537 247.073 275.774Z" fill="#FAFAFA"/>
<path d="M262.712 281.159C262.78 281.373 255.58 283.807 246.634 286.59C237.688 289.373 230.376 291.469 230.308 291.255C230.241 291.04 237.44 288.607 246.397 285.824C255.355 283.041 262.644 280.945 262.712 281.159Z" fill="#FAFAFA"/>
<path d="M268.075 288.077C268.143 288.291 260.29 290.928 250.532 293.97C240.775 297.012 232.821 299.299 232.753 299.085C232.685 298.871 240.539 296.235 250.296 293.193C260.053 290.15 268.007 287.863 268.075 288.077Z" fill="#FAFAFA"/>
<path d="M270.407 295.457C270.475 295.671 262.622 298.308 252.865 301.35C243.107 304.392 235.153 306.679 235.085 306.465C235.018 306.251 242.871 303.614 252.628 300.572C262.385 297.53 270.306 295.243 270.407 295.457Z" fill="#FAFAFA"/>
<path d="M272.661 302.814C272.728 303.029 264.875 305.665 255.129 308.707C245.383 311.749 237.406 314.036 237.339 313.822C237.271 313.608 245.124 310.983 254.881 307.941C264.639 304.899 272.661 302.634 272.661 302.814Z" fill="#FAFAFA"/>
<path d="M274.97 310.228C275.038 310.442 267.185 313.079 257.439 316.121C247.693 319.163 239.727 321.45 239.66 321.236C239.592 321.022 247.445 318.385 257.191 315.343C266.937 312.301 274.914 310.014 274.97 310.228Z" fill="#FAFAFA"/>
<path d="M463.501 93.5982L421.959 77.4751C420.591 76.925 419.494 75.8606 418.902 74.5104C418.31 73.1602 418.271 71.6317 418.793 70.253L441.158 12.7915C441.422 12.1089 441.819 11.4851 442.324 10.9559C442.83 10.4266 443.435 10.0023 444.105 9.70714C444.774 9.41201 445.496 9.25189 446.227 9.23594C446.959 9.21999 447.687 9.34853 448.369 9.61419L474.722 19.8671L486.936 48.7444L470.723 90.4322C470.173 91.7999 469.108 92.8976 467.758 93.4895C466.408 94.0814 464.879 94.1204 463.501 93.5982Z" fill="#EBEBEB"/>
<path d="M474.722 19.7996L468.424 35.9789C468.17 36.6162 468.044 37.2976 468.055 37.9838C468.066 38.6699 468.213 39.3471 468.487 39.976C468.762 40.6048 469.159 41.1729 469.655 41.6473C470.151 42.1216 470.736 42.4927 471.376 42.7391L486.936 48.7895L474.722 19.7996Z" fill="#E0E0E0"/>
<path d="M465.191 33.9621C465.112 34.1762 460.751 32.6664 455.445 30.582C450.138 28.4976 445.901 26.6724 445.98 26.4695C446.059 26.2667 450.431 27.7652 455.738 29.8496C461.044 31.934 465.326 33.7593 465.191 33.9621Z" fill="#FAFAFA"/>
<path d="M474.046 47.9444C473.968 48.1472 466.824 45.5671 458.092 42.1644C449.361 38.7618 442.319 35.8437 442.42 35.6409C442.521 35.438 449.642 38.0407 458.385 41.4208C467.129 44.8009 474.125 47.7303 474.046 47.9444Z" fill="#FAFAFA"/>
<path d="M473.923 56.6875C473.844 56.9016 466.036 54.0623 456.538 50.3554C447.04 46.6486 439.412 43.4826 439.412 43.2798C439.412 43.077 447.299 45.905 456.797 49.6118C466.295 53.3187 474.001 56.4847 473.923 56.6875Z" fill="#FAFAFA"/>
<path d="M471.117 63.9547C471.038 64.1575 463.23 61.3295 453.732 57.6227C444.234 53.9158 436.561 50.7498 436.64 50.5357C436.719 50.3217 444.527 53.1722 454.025 56.8678C463.523 60.5633 471.207 63.6843 471.117 63.9547Z" fill="#FAFAFA"/>
<path d="M468.323 71.1093C468.233 71.3121 460.436 68.4841 450.938 64.7772C441.44 61.0704 433.756 57.9044 433.835 57.6903C433.913 57.4762 441.721 60.3155 451.231 64.0223C460.74 67.7292 468.402 70.8952 468.323 71.1093Z" fill="#FAFAFA"/>
<path d="M465.517 78.3089C465.427 78.5229 457.63 75.6837 448.132 71.9881C438.634 68.2925 430.95 65.0814 431.04 64.9012C431.131 64.7209 438.927 67.5264 448.425 71.2332C457.923 74.94 465.596 78.1061 465.517 78.3089Z" fill="#FAFAFA"/>
<path d="M73.2353 258.085C74.0994 258.229 74.8737 258.703 75.3949 259.407C75.9162 260.111 76.1437 260.99 76.0295 261.859C75.8605 262.986 75.6915 264.112 75.6239 264.653L71.7931 289.79C71.696 290.36 71.3833 290.871 70.9198 291.217C70.4563 291.563 69.8775 291.718 69.3031 291.649L11.774 282.894C11.227 282.796 10.7358 282.498 10.3948 282.06C10.0537 281.621 9.88681 281.071 9.9262 280.517L12.8669 247.944C12.8991 247.649 12.9895 247.362 13.1328 247.102C13.2762 246.841 13.4697 246.612 13.7023 246.426C13.9348 246.241 14.2017 246.103 14.4876 246.022C14.7735 245.94 15.0728 245.916 15.3681 245.95L28.3815 247.933C29.6081 248.128 30.7279 248.746 31.5475 249.679L33.8798 252.372L73.2353 258.085Z" fill="#E0E0E0"/>
<path d="M77.0019 262.126L14.1344 252.562L8.36287 290.501L71.2303 300.065L77.0019 262.126Z" fill="#F5F5F5"/>
<path d="M8.61923 255.212L7.4024 295.502C7.39259 295.847 7.50834 296.183 7.72807 296.448C7.94781 296.713 8.25653 296.89 8.5967 296.944L69.8552 306.262C70.2124 306.312 70.5751 306.223 70.8686 306.013C71.162 305.804 71.3639 305.49 71.4326 305.135L80.5363 266.039C80.5807 265.852 80.5865 265.657 80.5533 265.467C80.5201 265.277 80.4486 265.096 80.3432 264.935C80.2378 264.774 80.1007 264.636 79.9402 264.529C79.7797 264.423 79.5991 264.35 79.4096 264.315L10.2642 253.803C10.0608 253.77 9.85264 253.782 9.65428 253.838C9.45593 253.894 9.27211 253.992 9.11558 254.126C8.95905 254.26 8.83357 254.427 8.74786 254.614C8.66215 254.802 8.61826 255.005 8.61923 255.212Z" fill="#EBEBEB"/>
<path d="M155.822 261.42C143.429 267.864 133.863 278.94 127.013 291.153C120.162 303.367 115.746 316.74 111.374 330.047L107.543 398.584C121.999 373.988 133.615 345.066 136.747 316.707L127.125 315.839C133.581 314.859 138.989 310.206 142.437 304.64C145.885 299.074 147.654 292.708 149.389 286.41L137.649 288.167C146.921 281.921 153.43 272.341 155.822 261.42Z" fill="#455A64"/>
<g opacity="0.3">
<path d="M155.822 261.42C143.429 267.864 133.863 278.94 127.013 291.153C120.162 303.367 115.746 316.74 111.374 330.047L107.543 398.584C121.999 373.988 133.615 345.066 136.747 316.707L127.125 315.839C133.581 314.859 138.989 310.206 142.437 304.64C145.885 299.074 147.654 292.708 149.389 286.41L137.649 288.167C146.921 281.921 153.43 272.341 155.822 261.42Z" fill="black"/>
</g>
<path d="M105.403 414.673C105.403 414.673 74.0127 377.109 74.362 341.246H87.0486C87.0486 341.246 73.2353 332.187 74.362 327.117C75.4887 322.047 75.8267 302.814 75.8267 302.814L87.4204 305.721C87.4204 305.721 78.7223 301.372 77.6407 294.454C76.5591 287.536 80.1758 255.696 80.1758 255.696C80.1758 255.696 94.3045 270.546 98.6536 285.756C103.003 300.967 114.427 318.723 111.047 365.098C107.667 411.473 105.403 414.673 105.403 414.673Z" fill="#455A64"/>
<path d="M121.311 418.222C121.311 418.222 155.326 395.564 162.875 366.653L152.679 363.881C152.679 363.881 165.737 359.611 165.974 355.296C166.21 350.981 170.131 335.489 170.131 335.489L160.183 335.286C160.183 335.286 168.069 333.686 170.503 328.39C172.937 323.095 176.891 296.651 176.891 296.651C176.891 296.651 162.244 305.507 155.484 316.785C148.724 328.064 135.609 339.838 128.151 377.852C120.692 415.867 121.311 418.222 121.311 418.222Z" fill="#455A64"/>
<path d="M88.7499 288.505C88.7995 288.629 88.8373 288.758 88.8626 288.888L89.133 290.015L90.1245 294.522C90.5639 296.449 91.0709 298.826 91.623 301.586C92.1751 304.347 92.8286 307.49 93.4595 310.983C94.8116 317.946 96.2312 326.284 97.6846 335.545C99.1381 344.806 100.513 355.037 101.775 365.786C103.036 376.534 103.96 386.81 104.693 396.206C105.425 405.603 105.91 413.997 106.191 421.084C106.36 424.633 106.45 427.844 106.529 430.649C106.608 433.455 106.676 435.9 106.698 437.883C106.721 439.866 106.698 441.364 106.698 442.446V443.629C106.716 443.764 106.716 443.9 106.698 444.035C106.684 443.904 106.684 443.771 106.698 443.64C106.698 443.336 106.698 442.942 106.698 442.446C106.698 441.319 106.608 439.843 106.54 437.883C106.473 435.922 106.405 433.477 106.27 430.661C106.135 427.844 106.045 424.644 105.842 421.106C105.504 414.019 104.941 405.603 104.219 396.251C103.498 386.9 102.484 376.647 101.256 365.898C100.028 355.149 98.6085 344.942 97.2227 335.669C95.8369 326.396 94.4172 318.081 93.1215 311.107C92.5131 307.614 91.8934 304.471 91.3639 301.699C90.8343 298.927 90.3724 296.55 89.978 294.612C89.5837 292.674 89.2907 291.232 89.0879 290.105C88.9978 289.621 88.9189 289.226 88.8739 288.979C88.8155 288.826 88.7739 288.667 88.7499 288.505Z" fill="#263238"/>
<path d="M101.053 437.68C101.053 437.68 72.3227 405.096 63.4105 385.39L70.1707 382.517C65.2921 383.317 60.2896 381.221 56.5039 378.01C52.7182 374.799 49.9465 370.641 47.2199 366.506L56.087 365.008C47.9396 362.68 41.0004 357.306 36.7078 350C47.1748 351.724 56.6503 357.47 64.4471 364.647C70.6447 370.599 76.2726 377.118 81.2574 384.117C83.7664 387.482 85.9507 391.077 87.781 394.854C92.5807 404.859 101.065 425.714 101.053 437.68Z" fill="#455A64"/>
<path d="M163.371 315.625C163.34 315.739 163.295 315.849 163.236 315.952L162.796 316.898L161.05 320.515C159.506 323.647 157.332 328.199 154.684 333.844C152.036 339.488 148.994 346.237 145.671 353.82C142.347 361.403 138.967 369.774 135.53 378.607C132.094 387.441 129.029 396.015 126.337 403.811C123.644 411.608 121.368 418.673 119.576 424.622C117.785 430.57 116.286 435.415 115.317 438.762L114.191 442.615C114.056 443.032 113.954 443.359 113.875 443.618C113.796 443.877 113.763 443.956 113.751 443.944C113.756 443.845 113.771 443.747 113.796 443.651C113.864 443.392 113.943 443.066 114.056 442.637C114.303 441.714 114.641 440.384 115.081 438.762C115.982 435.382 117.334 430.537 119.171 424.565C121.007 418.594 123.216 411.507 125.852 403.688C128.489 395.868 131.587 387.339 135.012 378.461C138.437 369.582 141.941 361.2 145.152 353.673C148.363 346.147 151.552 339.364 154.245 333.731C156.938 328.097 159.18 323.591 160.78 320.481L162.627 316.909C162.83 316.538 162.988 316.233 163.123 315.997C163.258 315.76 163.371 315.614 163.371 315.625Z" fill="#263238"/>
<path d="M103.487 451.651C103.415 451.459 103.37 451.258 103.352 451.054C103.273 450.592 103.183 450.017 103.07 449.319C102.845 447.82 102.473 445.646 101.944 442.987C101.414 440.328 100.693 437.162 99.7578 433.703C98.8226 430.244 97.5945 426.481 96.1411 422.594C94.6876 418.706 93.0652 415.112 91.5103 411.879C89.9555 408.645 88.4007 405.795 87.0035 403.451C85.6064 401.107 84.4797 399.237 83.6235 397.964L82.6883 396.477C82.5611 396.314 82.4621 396.131 82.3954 395.936C82.5419 396.077 82.6706 396.236 82.7784 396.409C83.0601 396.792 83.3981 397.254 83.8037 397.829C84.6938 399.068 85.9107 400.916 87.3303 403.248C88.7499 405.58 90.3273 408.408 91.9385 411.631C93.5497 414.853 95.1496 418.492 96.6368 422.391C98.124 426.289 99.3296 430.131 100.276 433.511C101.222 436.891 101.887 440.17 102.36 442.863C102.834 445.556 103.149 447.73 103.296 449.24C103.363 449.95 103.42 450.524 103.465 450.986C103.504 451.206 103.511 451.43 103.487 451.651Z" fill="#263238"/>
<path d="M141.389 443.978H78.5195V456.8H141.389V443.978Z" fill="#DF0031"/>
<path d="M84.5135 456.811L91.3075 499.941H129.3L135.632 456.811H84.5135Z" fill="#DF0031"/>
<path d="M137.536 456.811C137.536 456.969 125.638 457.104 110.968 457.104C96.2988 457.104 84.4121 456.969 84.4121 456.811C84.4121 456.653 96.2988 456.518 110.968 456.518C125.638 456.518 137.536 456.642 137.536 456.811Z" fill="#263238"/>
<path d="M346.842 25.8612H66.1033V201.705H346.842V25.8612Z" fill="white"/>
<path d="M346.842 25.8612H66.1033V41.973H346.842V25.8612Z" fill="#455A64"/>
<path d="M346.842 198.223H66.0019V229.929H346.842V198.223Z" fill="#F5F5F5"/>
<path d="M123.734 213.558H126.246L127.035 215.203H127.576L125.063 209.964H124.917L122.404 215.203H122.945L123.734 213.558ZM124.996 210.944L126.01 213.073H123.937L124.996 210.944Z" fill="#263238"/>
<path d="M127.948 216.329H121.999V216.746H127.948V216.329Z" fill="#263238"/>
<path d="M86.7557 209.659H86.3613C85.7914 209.699 85.258 209.954 84.8689 210.373C84.4799 210.791 84.2643 211.341 84.2657 211.913C84.546 213.576 85.27 215.133 86.3613 216.419C86.3613 216.419 86.5078 216.69 86.7557 216.419C87.847 215.133 88.571 213.576 88.8513 211.913C88.8527 211.341 88.6371 210.791 88.248 210.373C87.859 209.954 87.3255 209.699 86.7557 209.659ZM86.5529 213.231C86.3073 213.231 86.0672 213.158 85.8631 213.021C85.6591 212.885 85.5003 212.69 85.4068 212.463C85.3133 212.236 85.2895 211.986 85.3382 211.746C85.3869 211.505 85.5061 211.284 85.6806 211.111C85.855 210.938 86.0769 210.821 86.318 210.775C86.5592 210.728 86.8087 210.754 87.035 210.85C87.2613 210.945 87.454 211.106 87.5888 211.311C87.7237 211.517 87.7945 211.757 87.7922 212.003C87.7922 212.327 87.6644 212.637 87.4365 212.867C87.2086 213.097 86.8991 213.228 86.5754 213.231H86.5529Z" fill="#263238"/>
<path d="M114.63 214.932C114.63 215.27 114.496 215.594 114.257 215.832C114.018 216.071 113.695 216.205 113.357 216.205C113.019 216.205 112.695 216.071 112.457 215.832C112.218 215.594 112.084 215.27 112.084 214.932V210.82C112.084 210.602 112.17 210.392 112.325 210.238C112.479 210.084 112.688 209.997 112.906 209.997C113.124 209.997 113.334 210.084 113.488 210.238C113.642 210.392 113.729 210.602 113.729 210.82V214.301C113.706 214.405 113.649 214.498 113.568 214.565C113.486 214.632 113.384 214.67 113.278 214.673C113.171 214.671 113.067 214.633 112.984 214.566C112.9 214.499 112.841 214.406 112.816 214.301V211.552H112.512V214.121V214.245C112.539 214.427 112.629 214.594 112.767 214.716C112.906 214.838 113.083 214.906 113.267 214.91C113.45 214.904 113.626 214.835 113.764 214.713C113.902 214.592 113.993 214.426 114.022 214.245V214.177C114.023 214.158 114.023 214.14 114.022 214.121V210.741C114.022 210.442 113.903 210.155 113.692 209.944C113.48 209.733 113.194 209.614 112.895 209.614C112.596 209.614 112.31 209.733 112.098 209.944C111.887 210.155 111.768 210.442 111.768 210.741V215.045C111.807 215.436 111.99 215.799 112.282 216.064C112.573 216.328 112.952 216.475 113.346 216.476C113.739 216.477 114.118 216.331 114.408 216.066C114.698 215.801 114.878 215.436 114.912 215.045V211.552H114.608L114.63 214.932Z" fill="#263238"/>
<path d="M101.087 211.8L99.9606 209.411L98.7775 211.8L96.1523 212.183L98.0564 214.042L97.6058 216.656L99.9606 215.417L102.315 216.656L101.865 214.042L103.769 212.183L101.087 211.8ZM101.763 215.957L99.9155 214.989L98.0677 215.957L98.4057 214.008V213.907L96.8959 212.453L98.9578 212.149L99.8817 210.279L100.806 212.149L102.867 212.453L101.482 213.805L101.403 213.884L101.763 215.957Z" fill="#263238"/>
<path d="M147.451 206.482H147.068V218.707H147.451V206.482Z" fill="#263238"/>
<path d="M139.981 210.808H135.113V215.991H139.981V210.808Z" fill="#263238"/>
<path d="M136.646 209.592V209.986H138.437V209.592H139.97V210.392H135.113V209.592H136.646Z" fill="#263238"/>
<path d="M138.437 209.186H136.646V209.58H138.437V209.186Z" fill="#263238"/>
<path d="M138.437 209.592H136.646V209.986H138.437V209.592Z" fill="#263238"/>
<path d="M158.47 213.58L159.957 212.093L160.137 212.273L158.47 213.941L156.791 212.273L156.971 212.093L158.47 213.58Z" fill="#263238"/>
<path d="M331.362 87.6154C330.933 87.618 330.521 87.7856 330.213 88.0836C329.904 88.3815 329.723 88.7868 329.705 89.2153V95.5023C329.746 96.0855 330.007 96.6316 330.434 97.0303C330.862 97.4291 331.425 97.6508 332.009 97.6508C332.594 97.6508 333.157 97.4291 333.585 97.0303C334.012 96.6316 334.273 96.0855 334.314 95.5023V90.4321H333.863V95.2882C333.826 95.7577 333.614 96.1962 333.268 96.516C332.923 96.8358 332.469 97.0135 331.998 97.0135C331.527 97.0135 331.074 96.8358 330.728 96.516C330.382 96.1962 330.17 95.7577 330.133 95.2882V89.2717C330.133 88.9519 330.26 88.6453 330.487 88.4192C330.713 88.1931 331.019 88.0661 331.339 88.0661C331.659 88.0661 331.965 88.1931 332.191 88.4192C332.418 88.6453 332.545 88.9519 332.545 89.2717V94.3756C332.509 94.5256 332.424 94.6594 332.304 94.7554C332.183 94.8515 332.034 94.9042 331.88 94.9051C331.732 94.8951 331.591 94.8384 331.478 94.7433C331.365 94.6481 331.284 94.5193 331.249 94.3756V90.4434H330.798V94.2066V94.3756C330.798 94.6744 330.917 94.961 331.128 95.1723C331.339 95.3836 331.626 95.5023 331.925 95.5023C332.224 95.5023 332.51 95.3836 332.722 95.1723C332.933 94.961 333.052 94.6744 333.052 94.3756V94.2742C333.052 94.2742 333.052 94.2178 333.052 94.1953V89.2153C333.034 88.781 332.848 88.3706 332.532 88.0718C332.216 87.7729 331.796 87.6092 331.362 87.6154Z" fill="#263238"/>
<path d="M75.3422 50.9528H73.4268V50.2543H78.0576V50.9528H76.1309V55.854H75.3422V50.9528Z" fill="#263238"/>
<path d="M77.9787 53.7357C77.9607 53.2867 78.0774 52.8425 78.3139 52.4602C78.5503 52.078 78.8956 51.7752 79.3055 51.5907C79.7153 51.4063 80.171 51.3486 80.6138 51.4251C81.0567 51.5016 81.4666 51.7088 81.7908 52.02C82.1151 52.3313 82.3388 52.7324 82.4333 53.1718C82.5278 53.6112 82.4888 54.0688 82.3212 54.4858C82.1536 54.9029 81.8651 55.2602 81.4929 55.5121C81.1206 55.7639 80.6815 55.8986 80.2321 55.899C79.9389 55.9178 79.6451 55.8755 79.3691 55.7746C79.0932 55.6738 78.8413 55.5166 78.6294 55.3132C78.4175 55.1098 78.2502 54.8645 78.1382 54.5929C78.0261 54.3213 77.9718 54.0294 77.9787 53.7357ZM81.6067 53.7357C81.5956 53.4549 81.5021 53.1836 81.3378 52.9556C81.1735 52.7276 80.9457 52.553 80.6828 52.4536C80.4199 52.3543 80.1336 52.3345 79.8595 52.3968C79.5855 52.4592 79.3359 52.6008 79.1418 52.8041C78.9478 53.0074 78.8179 53.2633 78.7684 53.54C78.7188 53.8166 78.7519 54.1017 78.8633 54.3597C78.9748 54.6177 79.1598 54.8371 79.3952 54.9906C79.6306 55.1442 79.906 55.225 80.187 55.223C80.3807 55.2282 80.5733 55.1928 80.7524 55.119C80.9316 55.0452 81.0933 54.9347 81.227 54.7945C81.3608 54.6544 81.4637 54.4878 81.5291 54.3054C81.5945 54.123 81.6209 53.929 81.6067 53.7357Z" fill="#263238"/>
<path d="M85.2234 52.1133C85.2233 52.0413 85.2377 51.9701 85.2656 51.9037C85.2935 51.8374 85.3343 51.7772 85.3857 51.7269C85.4371 51.6765 85.4981 51.6369 85.565 51.6104C85.6319 51.5839 85.7035 51.571 85.7754 51.5725C85.9248 51.5725 86.0681 51.6319 86.1738 51.7375C86.2794 51.8432 86.3388 51.9864 86.3388 52.1359C86.3388 52.2853 86.2794 52.4286 86.1738 52.5342C86.0681 52.6398 85.9248 52.6992 85.7754 52.6992C85.6995 52.7011 85.6241 52.6869 85.554 52.6576C85.4839 52.6284 85.4208 52.5847 85.3687 52.5294C85.3166 52.4742 85.2767 52.4085 85.2517 52.3369C85.2267 52.2652 85.217 52.189 85.2234 52.1133ZM85.2234 55.3469C85.2233 55.275 85.2377 55.2037 85.2656 55.1373C85.2935 55.071 85.3343 55.0109 85.3857 54.9605C85.4371 54.9101 85.4981 54.8705 85.565 54.844C85.6319 54.8175 85.7035 54.8046 85.7754 54.8061C85.8454 54.8061 85.9147 54.8202 85.9791 54.8476C86.0435 54.8751 86.1017 54.9153 86.1501 54.9658C86.1986 55.0163 86.2363 55.0762 86.2609 55.1417C86.2856 55.2072 86.2968 55.277 86.2937 55.3469C86.2967 55.4174 86.2856 55.4878 86.2611 55.5539C86.2365 55.62 86.199 55.6806 86.1507 55.732C86.1025 55.7835 86.0444 55.8247 85.9799 55.8534C85.9155 55.8821 85.846 55.8976 85.7754 55.899C85.7025 55.9006 85.63 55.8873 85.5624 55.8601C85.4947 55.8329 85.4332 55.7923 85.3816 55.7407C85.3301 55.6892 85.2895 55.6277 85.2623 55.56C85.2351 55.4923 85.2218 55.4199 85.2234 55.3469Z" fill="#263238"/>
<path d="M74.5648 71.8416C74.5598 71.4557 74.6337 71.0729 74.7822 70.7167C74.9306 70.3605 75.1504 70.0385 75.428 69.7704C75.7056 69.5023 76.0351 69.2938 76.3962 69.1579C76.7574 69.0219 77.1426 68.9613 77.528 68.9798C77.9244 68.9636 78.3196 69.0327 78.687 69.1823C79.0543 69.332 79.3853 69.5588 79.6575 69.8474L79.1392 70.3544C78.8946 70.086 78.5867 69.8832 78.2435 69.7644C77.9004 69.6456 77.533 69.6147 77.1748 69.6743C76.8166 69.734 76.4791 69.8824 76.193 70.106C75.9069 70.3296 75.6814 70.6213 75.537 70.9545C75.3926 71.2877 75.3339 71.6517 75.3663 72.0134C75.3987 72.375 75.5212 72.7228 75.7225 73.025C75.9238 73.3272 76.1976 73.5741 76.5189 73.7433C76.8402 73.9125 77.1987 73.9986 77.5618 73.9936C77.8578 74.0001 78.1517 73.9431 78.4237 73.8265C78.6958 73.7099 78.9398 73.5364 79.1392 73.3176L79.6575 73.8246C79.3841 74.1155 79.0516 74.3444 78.6824 74.496C78.3131 74.6476 77.9156 74.7184 77.5168 74.7034C77.1322 74.7203 76.7483 74.6586 76.3884 74.5219C76.0286 74.3852 75.7005 74.1765 75.4241 73.9086C75.1478 73.6407 74.929 73.3192 74.7812 72.9638C74.6335 72.6083 74.5598 72.2265 74.5648 71.8416Z" fill="#263238"/>
<path d="M80.1194 72.5514C80.1124 72.2582 80.1667 71.9667 80.2789 71.6957C80.391 71.4247 80.5585 71.1801 80.7706 70.9775C80.9827 70.7749 81.2348 70.6189 81.5107 70.5193C81.7866 70.4198 82.0802 70.379 82.3728 70.3994C82.715 70.3784 83.0564 70.4512 83.3603 70.61C83.6641 70.7689 83.9187 71.0077 84.0967 71.3008L83.522 71.6726C83.4014 71.4838 83.2347 71.3288 83.0375 71.2224C82.8404 71.1159 82.6194 71.0615 82.3953 71.0642C82.0218 71.0967 81.674 71.268 81.4206 71.5444C81.1672 71.8208 81.0267 72.1821 81.0267 72.5571C81.0267 72.932 81.1672 73.2933 81.4206 73.5697C81.674 73.8461 82.0218 74.0174 82.3953 74.0499C82.6194 74.0526 82.8404 73.9982 83.0375 73.8917C83.2347 73.7852 83.4014 73.6303 83.522 73.4415L84.0967 73.8133C83.9202 74.1084 83.6661 74.3495 83.3622 74.5104C83.0583 74.6713 82.7161 74.7459 82.3728 74.7259C82.0787 74.7449 81.7838 74.7022 81.5071 74.6007C81.2304 74.4992 80.978 74.341 80.7659 74.1363C80.5538 73.9317 80.3867 73.685 80.2754 73.4121C80.1641 73.1392 80.111 72.846 80.1194 72.5514Z" fill="#263238"/>
<path d="M86.8571 70.9403C86.8555 70.8689 86.8685 70.7979 86.8951 70.7316C86.9217 70.6653 86.9615 70.605 87.0121 70.5545C87.0626 70.504 87.1228 70.4642 87.1891 70.4376C87.2554 70.4109 87.3264 70.398 87.3979 70.3995C87.4684 70.3995 87.5382 70.4136 87.6032 70.4409C87.6682 70.4682 87.7271 70.5082 87.7764 70.5586C87.8257 70.609 87.8645 70.6687 87.8904 70.7342C87.9163 70.7998 87.9289 70.8699 87.9274 70.9403C87.9305 71.0118 87.919 71.0831 87.8938 71.1499C87.8685 71.2168 87.83 71.2779 87.7805 71.3295C87.731 71.381 87.6716 71.4221 87.6059 71.4501C87.5401 71.4781 87.4694 71.4925 87.3979 71.4924C87.3259 71.4924 87.2546 71.4781 87.1883 71.4502C87.1219 71.4223 87.0618 71.3815 87.0114 71.3301C86.9611 71.2786 86.9215 71.2177 86.895 71.1508C86.8685 71.0838 86.8556 71.0123 86.8571 70.9403ZM86.8571 74.174C86.8555 74.1025 86.8685 74.0315 86.8951 73.9652C86.9217 73.8989 86.9615 73.8387 87.0121 73.7881C87.0626 73.7376 87.1228 73.6978 87.1891 73.6712C87.2554 73.6446 87.3264 73.6316 87.3979 73.6332C87.4688 73.6315 87.5393 73.6445 87.6051 73.6713C87.6708 73.698 87.7303 73.738 87.78 73.7887C87.8296 73.8394 87.8683 73.8998 87.8937 73.966C87.9191 74.0323 87.9305 74.1031 87.9274 74.174C87.9305 74.2454 87.919 74.3167 87.8938 74.3835C87.8685 74.4504 87.83 74.5115 87.7805 74.5631C87.731 74.6147 87.6716 74.6557 87.6059 74.6837C87.5401 74.7117 87.4694 74.7261 87.3979 74.726C87.3259 74.7261 87.2546 74.7117 87.1883 74.6838C87.1219 74.656 87.0618 74.6151 87.0114 74.5637C86.9611 74.5123 86.9215 74.4513 86.895 74.3844C86.8685 74.3175 86.8556 74.2459 86.8571 74.174Z" fill="#263238"/>
<path d="M73.7198 93.1024L74.0127 92.4827C74.536 92.9038 75.1889 93.1307 75.8605 93.1249C76.8295 93.1249 77.2463 92.7531 77.2463 92.2686C77.2463 90.894 73.8663 91.7616 73.8663 89.6885C73.8663 88.8209 74.5423 88.0886 76.007 88.0886C76.6435 88.0734 77.2704 88.2458 77.8097 88.5843L77.5393 89.2153C77.0801 88.926 76.5496 88.77 76.007 88.7646C75.0606 88.7646 74.6549 89.1589 74.6549 89.6547C74.6549 91.018 78.035 90.1617 78.035 92.2123C78.035 93.0686 77.3477 93.8122 75.8718 93.8122C75.0933 93.8359 74.3314 93.5846 73.7198 93.1024Z" fill="#263238"/>
<path d="M83.0263 89.5083V93.7447H82.3052V93.1025C82.1375 93.3242 81.9189 93.5024 81.6679 93.622C81.4169 93.7416 81.1409 93.7991 80.863 93.7898C80.6152 93.8149 80.3648 93.7842 80.1304 93.6999C79.8959 93.6156 79.6833 93.4799 79.5083 93.3026C79.3332 93.1254 79.2 92.9111 79.1186 92.6757C79.0372 92.4402 79.0096 92.1895 79.0378 91.942V89.5083H79.8039V91.8631C79.8039 92.6856 80.2208 93.1025 80.9306 93.1025C81.1151 93.116 81.3003 93.0881 81.4726 93.0208C81.6449 92.9535 81.8 92.8484 81.9264 92.7134C82.0528 92.5783 82.1474 92.4167 82.2032 92.2403C82.259 92.0639 82.2746 91.8773 82.2489 91.6941V89.5083H83.0263Z" fill="#263238"/>
<path d="M88.8739 91.6265C88.8882 91.9125 88.8428 92.1982 88.7405 92.4657C88.6383 92.7331 88.4815 92.9763 88.2801 93.1798C88.0788 93.3833 87.8372 93.5427 87.5709 93.6477C87.3045 93.7527 87.0192 93.8011 86.7331 93.7898C86.4417 93.8025 86.1515 93.7434 85.8883 93.6177C85.625 93.4919 85.3967 93.3034 85.2234 93.0687V93.7447H84.5023V87.807H85.2797V90.1505C85.4539 89.9275 85.6785 89.749 85.9351 89.6295C86.1916 89.5101 86.4728 89.4531 86.7557 89.4633C87.0399 89.4551 87.3227 89.5059 87.5864 89.6123C87.85 89.7188 88.0888 89.8786 88.2878 90.0817C88.4867 90.2849 88.6414 90.527 88.7423 90.7928C88.8432 91.0587 88.888 91.3425 88.8739 91.6265ZM88.0964 91.6265C88.0832 91.3468 87.9882 91.077 87.8231 90.8508C87.6581 90.6245 87.4302 90.4517 87.1679 90.3537C86.9055 90.2557 86.6202 90.2368 86.3472 90.2994C86.0743 90.362 85.8257 90.5034 85.6323 90.7059C85.4388 90.9085 85.3091 91.1633 85.2592 91.4389C85.2092 91.7145 85.2412 91.9986 85.3512 92.2562C85.4612 92.5137 85.6444 92.7333 85.878 92.8878C86.1117 93.0422 86.3855 93.1247 86.6655 93.125C86.8607 93.1303 87.0548 93.0945 87.2353 93.0202C87.4158 92.9458 87.5787 92.8345 87.7135 92.6933C87.8483 92.5521 87.952 92.3842 88.018 92.2005C88.0839 92.0167 88.1107 91.8212 88.0964 91.6265Z" fill="#263238"/>
<path d="M88.4682 95.0854L88.7161 94.4995C88.8954 94.631 89.1136 94.6985 89.3358 94.6911C89.7527 94.6911 89.9667 94.4432 89.9667 93.9474V89.5083H90.7442V93.9362C90.7664 94.1216 90.7472 94.3097 90.688 94.4868C90.6288 94.6639 90.5309 94.8257 90.4016 94.9605C90.2722 95.0952 90.1146 95.1995 89.94 95.266C89.7655 95.3324 89.5783 95.3592 89.3921 95.3445C89.0639 95.3635 88.7387 95.2723 88.4682 95.0854ZM89.8316 88.2013C89.8315 88.1337 89.845 88.0669 89.8712 88.0046C89.8974 87.9424 89.9357 87.886 89.984 87.8387C90.0323 87.7915 90.0895 87.7544 90.1523 87.7296C90.2152 87.7048 90.2823 87.6928 90.3498 87.6943C90.4168 87.6897 90.484 87.6987 90.5473 87.7209C90.6107 87.743 90.6689 87.7778 90.7184 87.8231C90.7679 87.8684 90.8077 87.9233 90.8354 87.9844C90.863 88.0455 90.878 88.1117 90.8794 88.1788C90.881 88.2482 90.8683 88.3173 90.8421 88.3816C90.8159 88.446 90.7768 88.5043 90.7271 88.5529C90.6775 88.6015 90.6184 88.6393 90.5535 88.6641C90.4885 88.6889 90.4192 88.7001 90.3498 88.697C90.2832 88.6985 90.217 88.6869 90.1549 88.6628C90.0928 88.6387 90.0361 88.6026 89.988 88.5565C89.9399 88.5105 89.9013 88.4554 89.8744 88.3945C89.8476 88.3335 89.833 88.2679 89.8316 88.2013Z" fill="#263238"/>
<path d="M96.0171 91.8856H92.5694C92.62 92.2501 92.808 92.5815 93.095 92.812C93.382 93.0424 93.7461 93.1543 94.113 93.125C94.3415 93.1341 94.5693 93.0924 94.7797 93.0028C94.9902 92.9131 95.1781 92.7779 95.3298 92.6067L95.758 93.1024C95.4452 93.4215 95.0466 93.6429 94.6106 93.74C94.1745 93.8371 93.7196 93.8056 93.3011 93.6494C92.8825 93.4932 92.5182 93.2189 92.2524 92.8599C91.9866 92.5008 91.8305 92.0724 91.8033 91.6265C91.7924 91.3423 91.8399 91.059 91.9426 90.7939C92.0453 90.5288 92.2012 90.2875 92.4007 90.0849C92.6002 89.8822 92.839 89.7225 93.1024 89.6156C93.3659 89.5087 93.6485 89.4569 93.9327 89.4632C94.218 89.4546 94.5019 89.5059 94.7661 89.6139C95.0303 89.722 95.2689 89.8842 95.4664 90.0903C95.664 90.2963 95.8161 90.5415 95.9129 90.81C96.0097 91.0785 96.049 91.3643 96.0284 91.649C96.0284 91.7166 96.0171 91.8067 96.0171 91.8856ZM92.5694 91.3335H95.296C95.2533 91.0021 95.0914 90.6976 94.8405 90.477C94.5896 90.2563 94.2669 90.1346 93.9327 90.1346C93.5986 90.1346 93.2759 90.2563 93.025 90.477C92.7741 90.6976 92.6121 91.0021 92.5694 91.3335Z" fill="#263238"/>
<path d="M96.6931 91.6265C96.6863 91.3328 96.7406 91.0409 96.8526 90.7693C96.9646 90.4978 97.1319 90.2525 97.3438 90.049C97.5558 89.8456 97.8077 89.6884 98.0836 89.5876C98.3595 89.4867 98.6534 89.4444 98.9465 89.4632C99.2896 89.4445 99.6314 89.5196 99.935 89.6804C100.239 89.8412 100.493 90.0816 100.67 90.3758L100.084 90.7477C99.9639 90.5589 99.7971 90.4039 99.6 90.2975C99.4028 90.191 99.1818 90.1365 98.9578 90.1392C98.5842 90.1717 98.2364 90.3431 97.9831 90.6194C97.7297 90.8958 97.5891 91.2572 97.5891 91.6321C97.5891 92.0071 97.7297 92.3684 97.9831 92.6448C98.2364 92.9212 98.5842 93.0925 98.9578 93.125C99.1818 93.1277 99.4028 93.0732 99.6 92.9668C99.7971 92.8603 99.9639 92.7054 100.084 92.5166L100.67 92.8771C100.493 93.1714 100.239 93.4118 99.935 93.5726C99.6314 93.7333 99.2896 93.8084 98.9465 93.7897C98.6534 93.8086 98.3595 93.7662 98.0836 93.6654C97.8077 93.5645 97.5558 93.4074 97.3438 93.2039C97.1319 93.0005 96.9646 92.7552 96.8526 92.4836C96.7406 92.2121 96.6863 91.9202 96.6931 91.6265Z" fill="#263238"/>
<path d="M104.084 93.4969C103.819 93.6982 103.493 93.8017 103.16 93.7898C102.98 93.8113 102.797 93.7917 102.626 93.7327C102.454 93.6736 102.298 93.5766 102.169 93.4488C102.04 93.3209 101.942 93.1657 101.881 92.9945C101.821 92.8234 101.8 92.6407 101.82 92.4603V90.1393H101.099V89.5084H101.82V88.5845H102.586V89.5084H103.803V90.1393H102.586V92.3927C102.572 92.4852 102.579 92.5797 102.607 92.6691C102.635 92.7584 102.682 92.8403 102.746 92.9086C102.81 92.9769 102.889 93.0298 102.976 93.0634C103.063 93.097 103.157 93.1104 103.251 93.1025C103.466 93.1009 103.676 93.0298 103.848 92.8997L104.084 93.4969Z" fill="#263238"/>
<path d="M106.8 90.0152C106.798 89.9433 106.811 89.8717 106.837 89.8048C106.864 89.7379 106.904 89.6769 106.954 89.6255C107.004 89.5741 107.064 89.5332 107.131 89.5054C107.197 89.4775 107.268 89.4631 107.34 89.4631C107.412 89.4631 107.483 89.4775 107.548 89.5055C107.614 89.5335 107.674 89.5745 107.723 89.6261C107.773 89.6777 107.811 89.7388 107.836 89.8056C107.862 89.8725 107.873 89.9438 107.87 90.0152C107.873 90.0866 107.862 90.1579 107.836 90.2248C107.811 90.2917 107.773 90.3527 107.723 90.4043C107.674 90.4559 107.614 90.4969 107.548 90.5249C107.483 90.553 107.412 90.5674 107.34 90.5673C107.268 90.5673 107.197 90.553 107.131 90.5251C107.064 90.4972 107.004 90.4564 106.954 90.4049C106.904 90.3535 106.864 90.2926 106.837 90.2256C106.811 90.1587 106.798 90.0872 106.8 90.0152ZM106.8 93.2376C106.798 93.1661 106.811 93.0951 106.838 93.0288C106.864 92.9625 106.904 92.9023 106.955 92.8517C107.005 92.8012 107.065 92.7614 107.132 92.7348C107.198 92.7082 107.269 92.6952 107.34 92.6968C107.49 92.6968 107.633 92.7561 107.739 92.8618C107.844 92.9674 107.904 93.1107 107.904 93.2601C107.904 93.4095 107.844 93.5528 107.739 93.6585C107.633 93.7641 107.49 93.8235 107.34 93.8235C107.266 93.8236 107.193 93.8086 107.125 93.7793C107.057 93.75 106.996 93.7072 106.946 93.6533C106.895 93.5994 106.856 93.5358 106.831 93.4662C106.806 93.3966 106.795 93.3226 106.8 93.2488V93.2376Z" fill="#263238"/>
<path d="M176.948 54.851C176.948 55.0088 159.011 55.144 136.882 55.144C114.754 55.144 96.8171 55.0088 96.8171 54.851C96.8171 54.6933 114.754 54.5581 136.882 54.5581C159.011 54.5581 176.948 54.682 176.948 54.851Z" fill="#263238"/>
<path d="M212.732 73.1261C212.732 73.2951 186.818 73.419 154.774 73.419C122.731 73.419 96.8171 73.2951 96.8171 73.1261C96.8171 72.9571 122.731 72.8331 154.774 72.8331C186.818 72.8331 212.732 72.9683 212.732 73.1261Z" fill="#263238"/>
<path d="M169.872 91.2771C169.696 91.2939 169.519 91.2939 169.343 91.2771H167.81L162.177 91.3673C157.433 91.3673 150.91 91.4574 143.676 91.4574C136.443 91.4574 129.908 91.4574 125.176 91.3673L119.543 91.2771H118.022C117.842 91.2932 117.661 91.2932 117.481 91.2771C117.656 91.227 117.839 91.2042 118.022 91.2095H119.543L125.176 91.1194C129.908 91.1194 136.443 91.0405 143.676 91.0405C150.91 91.0405 157.433 91.0405 162.177 91.1194L167.81 91.2095H169.343C169.522 91.2033 169.7 91.2261 169.872 91.2771Z" fill="#263238"/>
<path d="M343.812 101.136C343.812 101.293 281.64 101.429 204.969 101.429C128.297 101.429 66.1033 101.305 66.1033 101.136C66.1033 100.967 128.263 100.843 204.969 100.843C281.674 100.843 343.812 100.978 343.812 101.136Z" fill="#E0E0E0"/>
<path d="M343.812 81.351C343.812 81.5201 281.618 81.644 204.912 81.644C128.207 81.644 66.0019 81.5201 66.0019 81.351C66.0019 81.182 128.184 81.0581 204.912 81.0581C281.64 81.0581 343.812 81.1933 343.812 81.351Z" fill="#E0E0E0"/>
<path d="M343.812 63.9547C343.812 64.1124 281.64 64.2476 204.969 64.2476C128.297 64.2476 66.1033 64.1462 66.1033 63.9547C66.1033 63.7631 128.263 63.6617 204.969 63.6617C281.674 63.6617 343.812 63.8308 343.812 63.9547Z" fill="#E0E0E0"/>
<path d="M103.386 125.281C100.213 125.571 97.0266 125.669 93.8426 125.574C90.6548 125.669 87.4642 125.571 84.2882 125.281C87.4642 124.991 90.6548 124.893 93.8426 124.988C97.0266 124.893 100.213 124.991 103.386 125.281Z" fill="#263238"/>
<path d="M212.123 136.334C212.123 136.492 183.212 136.627 147.575 136.627C111.937 136.627 83.015 136.492 83.015 136.334C83.015 136.176 111.915 136.063 147.597 136.063C183.28 136.063 212.123 136.176 212.123 136.334Z" fill="#263238"/>
<path d="M190.705 144.063C190.705 144.198 166.593 144.311 136.86 144.311C107.126 144.311 83.015 144.198 83.015 144.063C83.015 143.928 107.115 143.815 136.86 143.815C166.605 143.815 190.705 143.95 190.705 144.063Z" fill="#263238"/>
<path d="M73.9677 35.6634C74.9322 35.6634 75.714 34.8815 75.714 33.917C75.714 32.9525 74.9322 32.1707 73.9677 32.1707C73.0032 32.1707 72.2213 32.9525 72.2213 33.917C72.2213 34.8815 73.0032 35.6634 73.9677 35.6634Z" fill="white"/>
<path d="M80.1758 35.6634C81.1403 35.6634 81.9221 34.8815 81.9221 33.917C81.9221 32.9525 81.1403 32.1707 80.1758 32.1707C79.2113 32.1707 78.4294 32.9525 78.4294 33.917C78.4294 34.8815 79.2113 35.6634 80.1758 35.6634Z" fill="white"/>
<path d="M86.3839 35.6634C87.3484 35.6634 88.1302 34.8815 88.1302 33.917C88.1302 32.9525 87.3484 32.1707 86.3839 32.1707C85.4194 32.1707 84.6375 32.9525 84.6375 33.917C84.6375 34.8815 85.4194 35.6634 86.3839 35.6634Z" fill="white"/>
<path d="M347.969 229.917C347.969 227.957 347.868 149.606 347.732 25.8612L347.969 26.0978L66.1258 26.1541L66.4188 25.8612C66.4188 99.0176 66.4188 168.4 66.4188 229.917L66.1484 229.658L348.014 229.917L66.1484 230.188H65.8892V229.917C65.8892 168.4 65.8892 99.0176 65.8892 25.8612V25.5682H66.2047H348.048H348.285V25.8048C348.059 149.584 347.969 227.957 347.969 229.917Z" fill="#263238"/>
<path d="M434.285 434.784H427.773V438.288H434.285V434.784Z" fill="#E0E0E0"/>
<path d="M432.054 346.474H417.013V421.073H432.054V346.474Z" fill="#EBEBEB"/>
<path d="M458.667 350.406H388.068C384.461 350.406 381.003 348.973 378.452 346.423C375.902 343.873 374.469 340.414 374.469 336.807C374.468 335.02 374.818 333.251 375.501 331.599C376.184 329.948 377.185 328.448 378.448 327.184C379.711 325.92 381.211 324.917 382.861 324.233C384.512 323.549 386.281 323.197 388.068 323.197H458.667C460.454 323.197 462.223 323.549 463.874 324.233C465.525 324.917 467.024 325.92 468.287 327.184C469.55 328.448 470.552 329.948 471.234 331.599C471.917 333.251 472.268 335.02 472.266 336.807C472.266 338.593 471.915 340.361 471.231 342.011C470.548 343.661 469.546 345.16 468.283 346.423C467.02 347.686 465.521 348.688 463.871 349.371C462.221 350.055 460.453 350.406 458.667 350.406Z" fill="#455A64"/>
<path d="M429.35 421.073H419.819V474.027H429.35V421.073Z" fill="#E0E0E0"/>
<path d="M386.356 499.84C384.485 500.077 466.678 499.84 466.678 499.84C466.678 499.84 431.615 495.919 429.35 474.027H419.819C419.819 474.027 417.419 495.885 386.356 499.84Z" fill="#E0E0E0"/>
<path d="M461.461 350.406C461.461 350.564 445.135 350.699 425.001 350.699C404.867 350.699 388.541 350.564 388.541 350.406C388.541 350.248 404.867 350.113 425.001 350.113C445.135 350.113 461.461 350.248 461.461 350.406Z" fill="#263238"/>
<path d="M432.043 421.118C426.996 421.508 421.925 421.508 416.878 421.118C421.929 420.727 427.003 420.727 432.054 421.118H432.043Z" fill="#263238"/>
<path d="M434.285 442.209C433.776 442.209 433.288 442.008 432.927 441.649C432.566 441.29 432.362 440.803 432.359 440.294V432.779C432.362 432.269 432.566 431.781 432.926 431.42C433.287 431.059 433.775 430.855 434.285 430.852C434.795 430.855 435.284 431.059 435.644 431.42C436.005 431.781 436.209 432.269 436.212 432.779V440.271C436.213 440.525 436.165 440.777 436.069 441.012C435.972 441.247 435.831 441.461 435.652 441.641C435.473 441.821 435.26 441.964 435.025 442.062C434.791 442.159 434.539 442.209 434.285 442.209Z" fill="#E0E0E0"/>
<path d="M284.063 133.472C284.063 133.472 287.364 129.855 288.367 129.776C289.37 129.698 299.634 132.773 299.634 132.773C300.824 132.999 301.935 133.531 302.856 134.317C303.78 135.444 313.932 146.429 313.932 146.429L302.665 156.366C302.665 156.366 289.437 153.989 288.288 152.603C287.139 151.217 286.215 148.998 287.06 148.299C286.491 147.325 286.224 146.203 286.294 145.077C286.479 144.284 286.708 143.501 286.981 142.733C286.981 142.733 284.987 141.303 284.908 140.311C284.884 139.776 284.753 139.252 284.525 138.767L284.063 138.001V133.472Z" fill="#FFBE9D"/>
<path d="M288.671 135.624C288.727 135.624 288.671 135.973 288.491 136.48C288.231 137.157 287.8 137.755 287.24 138.215C286.945 138.444 286.604 138.605 286.24 138.689C285.876 138.773 285.499 138.776 285.133 138.7C284.57 138.553 284.344 138.249 284.39 138.215C284.435 138.182 284.705 138.328 285.19 138.373C285.824 138.403 286.449 138.211 286.958 137.832C287.456 137.413 287.873 136.905 288.187 136.334C288.434 135.883 288.603 135.601 288.671 135.624Z" fill="#EB996E"/>
<path d="M243.479 109.823C241.85 109.814 240.284 110.45 239.123 111.592C237.962 112.734 237.3 114.289 237.282 115.918L236.753 183.869C236.744 185.498 237.38 187.064 238.522 188.225C239.664 189.386 241.22 190.048 242.848 190.066L291.938 190.449C293.567 190.458 295.133 189.822 296.294 188.68C297.456 187.538 298.117 185.982 298.135 184.354L298.462 116.369C298.468 115.541 298.31 114.721 297.999 113.954C297.687 113.188 297.227 112.49 296.645 111.902C296.063 111.314 295.37 110.846 294.607 110.526C293.844 110.206 293.025 110.04 292.198 110.037L243.479 109.823Z" fill="#E0E0E0"/>
<path d="M270.407 130.43C270.407 130.678 265.326 130.836 259.05 130.79C252.774 130.745 247.693 130.497 247.693 130.25C247.693 130.002 252.786 129.844 259.061 129.9C265.337 129.957 270.407 130.216 270.407 130.43Z" fill="#E0E0E0"/>
<path d="M284.942 139.308C284.942 139.556 276.559 139.691 266.238 139.601C255.918 139.511 247.558 139.263 247.558 139.015C247.558 138.767 255.929 138.632 266.25 138.711C276.57 138.79 284.942 139.06 284.942 139.308Z" fill="#E0E0E0"/>
<path d="M288.232 148.367C288.232 148.615 279.105 148.739 267.85 148.649C256.594 148.558 247.479 148.288 247.479 148.04C247.479 147.792 256.605 147.668 267.861 147.758C279.117 147.849 288.232 148.119 288.232 148.367Z" fill="#E0E0E0"/>
<path d="M288.164 156.885C288.164 157.133 279.038 157.257 267.793 157.166C256.549 157.076 247.411 156.806 247.411 156.558C247.411 156.31 256.538 156.186 267.793 156.276C279.049 156.366 288.164 156.637 288.164 156.885Z" fill="#E0E0E0"/>
<path d="M288.096 165.358C288.096 165.605 278.97 165.729 267.726 165.639C256.481 165.549 247.344 165.279 247.344 165.031C247.344 164.783 256.47 164.659 267.726 164.749C278.981 164.839 288.096 165.155 288.096 165.358Z" fill="#E0E0E0"/>
<path d="M288.029 173.92C288.029 174.168 278.903 174.292 267.658 174.202C256.414 174.112 247.276 173.841 247.287 173.605C247.299 173.368 256.402 173.222 267.658 173.312C278.914 173.402 288.029 173.672 288.029 173.92Z" fill="#E0E0E0"/>
<path d="M241.203 107.795C240.397 107.789 239.597 107.942 238.85 108.245C238.103 108.548 237.422 108.995 236.848 109.561C236.274 110.127 235.816 110.801 235.502 111.544C235.188 112.286 235.024 113.084 235.018 113.89L234.477 181.841C234.468 183.47 235.104 185.036 236.246 186.197C237.388 187.358 238.944 188.02 240.572 188.038L289.674 188.421C290.48 188.427 291.28 188.274 292.027 187.971C292.774 187.668 293.455 187.22 294.029 186.654C294.603 186.088 295.061 185.415 295.375 184.672C295.689 183.929 295.853 183.132 295.859 182.326L296.197 114.329C296.203 112.661 295.547 111.058 294.373 109.873C293.198 108.688 291.601 108.018 289.933 108.009L241.203 107.795Z" fill="white"/>
<path d="M241.203 107.795C241.203 107.795 241.451 107.795 241.913 107.795H243.975H251.918H281.133H288.311C289.153 107.765 289.996 107.792 290.834 107.873C291.718 107.995 292.567 108.3 293.328 108.767C294.088 109.235 294.743 109.855 295.251 110.589C295.788 111.337 296.154 112.195 296.321 113.101C296.442 114.005 296.48 114.917 296.434 115.828C296.434 123.084 296.378 130.835 296.344 138.981C296.31 147.127 296.276 155.69 296.231 164.569C296.231 168.997 296.231 173.515 296.175 178.089C296.175 179.216 296.175 180.342 296.175 181.548C296.26 182.75 296.043 183.955 295.544 185.052C295.015 186.163 294.179 187.099 293.135 187.75C292.09 188.401 290.882 188.739 289.651 188.725L262.171 188.5L249.113 188.387H242.781C241.728 188.405 240.675 188.367 239.626 188.274C238.562 188.112 237.56 187.673 236.719 187.001C235.89 186.355 235.231 185.517 234.799 184.559C234.368 183.601 234.176 182.552 234.24 181.503C234.24 179.509 234.24 177.548 234.297 175.622C234.297 171.757 234.364 168.005 234.398 164.355C234.466 157.099 234.533 150.35 234.59 144.176C234.725 131.861 234.837 121.889 234.916 114.972C234.886 114.152 234.951 113.332 235.108 112.527C235.277 111.819 235.571 111.148 235.975 110.544C236.608 109.596 237.489 108.84 238.522 108.358C239.155 108.069 239.834 107.89 240.527 107.828C240.76 107.811 240.993 107.811 241.226 107.828C240.308 107.866 239.408 108.088 238.578 108.482C237.577 108.965 236.728 109.714 236.122 110.645C235.735 111.236 235.46 111.893 235.311 112.583C235.166 113.374 235.109 114.179 235.142 114.983C235.142 121.901 235.063 131.883 235.006 144.198C235.006 150.361 234.928 157.121 234.883 164.366C234.883 167.994 234.883 171.746 234.815 175.633C234.815 177.571 234.815 179.531 234.815 181.514C234.75 182.48 234.922 183.448 235.314 184.333C235.707 185.218 236.309 185.995 237.068 186.596C237.848 187.193 238.767 187.581 239.739 187.722C240.758 187.808 241.781 187.842 242.803 187.824H249.135L262.205 187.914L289.674 188.128C290.798 188.141 291.903 187.829 292.854 187.23C293.806 186.63 294.564 185.768 295.037 184.748C295.499 183.728 295.7 182.609 295.623 181.492C295.623 180.365 295.623 179.238 295.623 178.044C295.623 173.47 295.645 168.963 295.69 164.524C295.69 155.657 295.792 147.094 295.837 138.948C295.882 130.802 295.938 123.05 295.983 115.794C296.024 114.91 295.99 114.024 295.882 113.146C295.724 112.312 295.389 111.521 294.902 110.825C294.429 110.142 293.822 109.563 293.116 109.125C292.41 108.687 291.622 108.399 290.801 108.279C290.012 108.178 289.167 108.223 288.344 108.2H285.899H281.167L251.952 107.975L244.009 107.885H241.947L241.203 107.795Z" fill="#263238"/>
<path d="M268.086 128.436C268.086 128.683 262.994 128.841 256.718 128.796C250.442 128.751 245.372 128.503 245.372 128.255C245.372 128.007 250.453 127.85 256.729 127.906C263.005 127.962 268.086 128.176 268.086 128.436Z" fill="#263238"/>
<path d="M282.666 137.28C282.666 137.528 274.294 137.663 263.974 137.573C253.653 137.483 245.282 137.235 245.282 136.987C245.282 136.739 253.653 136.604 263.985 136.683C274.317 136.762 282.666 137.032 282.666 137.28Z" fill="#263238"/>
<path d="M285.967 146.339C285.967 146.587 276.841 146.711 265.585 146.62C254.329 146.53 245.214 146.26 245.214 146.012C245.214 145.764 254.341 145.64 265.596 145.73C276.852 145.821 285.967 146.091 285.967 146.339Z" fill="#263238"/>
<path d="M285.899 154.857C285.899 155.105 276.773 155.229 265.517 155.138C254.262 155.048 245.147 154.778 245.147 154.53C245.147 154.282 254.273 154.158 265.529 154.248C276.784 154.338 285.899 154.609 285.899 154.857Z" fill="#263238"/>
<path d="M285.832 163.374C285.832 163.622 276.706 163.746 265.45 163.656C254.194 163.566 245.079 163.296 245.079 163.048C245.079 162.8 254.205 162.676 265.461 162.766C276.717 162.856 285.832 163.104 285.832 163.374Z" fill="#263238"/>
<path d="M285.764 171.892C285.764 172.14 276.638 172.264 265.382 172.174C254.127 172.084 245.012 171.814 245.012 171.577C245.012 171.34 254.138 171.194 265.393 171.284C276.649 171.374 285.764 171.644 285.764 171.892Z" fill="#263238"/>
<path d="M247.378 120.47C246.538 120.47 245.733 120.136 245.139 119.543C244.545 118.949 244.212 118.144 244.212 117.304V109.417C244.212 108.852 244.436 108.311 244.835 107.911C245.235 107.512 245.776 107.288 246.341 107.288C246.906 107.288 247.447 107.512 247.847 107.911C248.246 108.311 248.47 108.852 248.47 109.417V115.051C248.481 115.112 248.477 115.175 248.461 115.234C248.444 115.294 248.414 115.35 248.374 115.397C248.334 115.444 248.284 115.482 248.228 115.508C248.171 115.534 248.11 115.548 248.048 115.548C247.986 115.548 247.925 115.534 247.868 115.508C247.812 115.482 247.762 115.444 247.722 115.397C247.681 115.35 247.652 115.294 247.635 115.234C247.619 115.175 247.615 115.112 247.625 115.051V109.417C247.625 109.076 247.49 108.75 247.249 108.509C247.008 108.268 246.682 108.133 246.341 108.133C246 108.133 245.674 108.268 245.433 108.509C245.192 108.75 245.057 109.076 245.057 109.417V117.304C245.057 117.92 245.301 118.51 245.736 118.945C246.172 119.38 246.762 119.625 247.378 119.625C247.993 119.625 248.584 119.38 249.019 118.945C249.454 118.51 249.699 117.92 249.699 117.304V108.212C249.719 107.406 249.452 106.62 248.944 105.994C248.436 105.369 247.722 104.945 246.93 104.8C246.137 104.654 245.319 104.797 244.623 105.201C243.926 105.606 243.396 106.246 243.13 107.006V107.378C243.114 107.478 243.062 107.569 242.985 107.635C242.907 107.701 242.809 107.737 242.707 107.737C242.606 107.737 242.508 107.701 242.43 107.635C242.353 107.569 242.301 107.478 242.285 107.378V106.927C242.274 106.883 242.274 106.836 242.285 106.792C242.615 105.845 243.271 105.046 244.135 104.537C244.999 104.028 246.016 103.843 247.004 104.013C247.993 104.183 248.888 104.699 249.532 105.468C250.176 106.236 250.527 107.209 250.521 108.212V117.304C250.521 118.14 250.191 118.942 249.602 119.535C249.013 120.128 248.213 120.464 247.378 120.47Z" fill="#263238"/>
<path d="M307.34 141.269L301.955 137.889L288.164 130.61C288.164 130.61 285.426 133.269 290.057 137.1L295.758 141.607C295.758 141.607 300.828 150.902 301.91 151.578C303.886 152.512 305.909 153.343 307.971 154.068L307.34 141.269Z" fill="#FFBE9D"/>
<path d="M308.501 154.327C308.312 154.314 308.125 154.273 307.949 154.203C307.588 154.102 307.059 153.955 306.383 153.719C305.707 153.482 304.895 153.2 303.972 152.784C303.477 152.569 302.995 152.324 302.529 152.051C301.986 151.745 301.511 151.331 301.132 150.834C299.405 148.416 297.85 145.878 296.479 143.24L295.848 142.114C295.641 141.759 295.365 141.448 295.037 141.201C294.395 140.638 293.674 140.074 292.964 139.534C291.434 138.426 289.97 137.23 288.581 135.951C287.822 135.245 287.329 134.3 287.185 133.274C287.042 132.248 287.256 131.204 287.792 130.317L287.905 130.148L288.096 130.261C293.606 133.371 298.361 136.21 301.955 137.877C303.701 138.835 305.031 139.691 305.943 140.266L306.991 140.953C307.115 141.033 307.232 141.123 307.34 141.224C307.201 141.176 307.069 141.112 306.946 141.032L305.819 140.412C304.873 139.872 303.51 139.049 301.763 138.159C298.135 136.57 293.336 133.765 287.826 130.678L288.119 130.61C287.649 131.374 287.473 132.283 287.623 133.168C287.773 134.097 288.211 134.956 288.874 135.624C290.255 136.876 291.699 138.057 293.2 139.162C293.921 139.725 294.631 140.288 295.296 140.852C295.466 141.001 295.627 141.159 295.78 141.325C295.94 141.493 296.08 141.678 296.197 141.877C296.4 142.26 296.614 142.621 296.817 143.004C298.151 145.631 299.657 148.168 301.324 150.598C302.045 151.452 302.966 152.114 304.005 152.524C304.907 152.953 305.707 153.268 306.371 153.527L307.892 154.091C308.1 154.157 308.303 154.236 308.501 154.327Z" fill="#EB996E"/>
<path d="M457.259 115.039C457.067 111.659 456.65 95.4122 456.447 92.9335C456.241 89.5475 454.783 86.3592 452.358 83.9875C449.901 81.7341 446.082 80.7201 443.074 82.1961C442.095 82.445 441.199 82.948 440.477 83.6543C439.754 84.3606 439.232 85.2451 438.961 86.2184C432.111 110.578 433.192 136.514 430.162 161.707C439.108 163.161 451.141 162.563 460.188 162.09C460.188 141.979 458.487 136.762 457.259 115.039Z" fill="#263238"/>
<path d="M453.484 149.392C453.433 149.178 453.41 148.958 453.417 148.739C453.417 148.243 453.36 147.612 453.326 146.868C453.27 145.167 453.203 142.835 453.112 139.995C452.988 134.125 452.819 126.137 452.639 117.315C452.572 112.898 452.504 108.685 452.448 104.831C452.448 102.916 452.448 101.091 452.38 99.3893C452.411 97.8166 452.302 96.2442 452.053 94.691C451.915 93.5729 451.53 92.4993 450.929 91.5469C450.327 90.5945 449.522 89.7868 448.572 89.1814C447.842 88.7893 447.042 88.5443 446.217 88.4603H446.375C446.54 88.4442 446.706 88.4442 446.871 88.4603C447.505 88.5134 448.121 88.6935 448.685 88.9899C449.575 89.4737 450.345 90.1514 450.938 90.9729C451.711 92.0622 452.234 93.3087 452.47 94.6234C452.741 96.1973 452.873 97.7921 452.865 99.3893C452.865 101.102 452.943 102.916 452.988 104.831C453.067 108.685 453.146 112.898 453.225 117.326C453.349 126.137 453.45 134.125 453.529 139.995C453.529 142.846 453.529 145.167 453.529 146.88C453.529 147.634 453.529 148.254 453.529 148.75C453.54 148.965 453.525 149.181 453.484 149.392Z" fill="#455A64"/>
<path d="M445.349 140.153C445.267 139.67 445.233 139.179 445.248 138.688C445.248 137.742 445.192 136.367 445.192 134.677C445.192 131.297 445.259 126.633 445.383 121.484C445.507 116.335 445.654 111.783 445.755 108.279C445.755 106.69 445.845 105.35 445.89 104.29C445.882 103.796 445.919 103.302 446.003 102.814C446.094 103.301 446.132 103.796 446.116 104.29C446.116 105.237 446.116 106.544 446.172 108.29C446.172 111.67 446.104 116.335 445.969 121.495C445.834 126.655 445.699 131.185 445.609 134.689C445.552 136.277 445.507 137.618 445.473 138.688C445.483 139.18 445.441 139.671 445.349 140.153Z" fill="#455A64"/>
<path d="M415.469 63.459C422.23 62.7605 427.863 65.7124 433.204 69.8023C438.553 74.0143 442.484 79.7625 444.471 86.2746C446.6 93.0348 446.634 102.668 444.212 109.349C443.128 112.513 441.292 115.367 438.863 117.665C436.433 119.963 433.482 121.637 430.263 122.543C420.923 125.179 410.399 124.109 403.053 117.766C395.707 111.422 391.933 101.474 392.192 91.7729C392.276 85.0302 394.484 78.4856 398.501 73.0697C400.522 70.3962 403.071 68.1672 405.99 66.5215C408.909 64.8758 412.136 63.8487 415.469 63.5041" fill="#263238"/>
<path d="M432.877 87.2661C432.066 84.6634 432.629 81.8467 432.426 79.1314C431.964 73.1486 427.503 68.0897 422.128 65.4082C417.126 62.9295 410.861 62.9858 404.507 64.5857C400.123 65.604 396.121 67.8514 392.969 71.0642C390.957 73.2548 389.498 75.8951 388.714 78.7646C387.93 81.6341 387.844 84.6495 388.463 87.559L419.075 85.1254C421.756 87.6605 424.517 90.2406 427.874 91.7729C428.84 92.2772 429.918 92.5255 431.007 92.494C431.548 92.4631 432.069 92.278 432.508 91.9605C432.947 91.6431 433.286 91.2066 433.485 90.7025C433.778 89.5646 433.226 88.3928 432.877 87.2661Z" fill="#263238"/>
<path d="M403.358 72.9684L429.463 80.3145C430.692 80.4769 431.816 81.0951 432.611 82.0466C433.406 82.9982 433.814 84.2136 433.756 85.4522L429.688 142.722C429.415 146.638 427.854 150.354 425.249 153.291L422.511 156.344C416.269 163.386 404.653 161.876 400.8 153.291C400.566 152.8 400.396 152.281 400.293 151.747C400.214 151.315 400.157 150.878 400.124 150.44C399.856 147.541 399.894 144.622 400.237 141.731C400.315 136.615 400.372 134.52 400.36 134.565C400.349 134.61 389.623 132.492 387.753 118.34C386.829 111.31 387.494 99.8401 388.327 90.466C389.037 81.982 394.919 71.8417 403.358 72.9684Z" fill="#FFBE9D"/>
<path d="M391.606 101.463C391.587 101.933 391.754 102.393 392.07 102.742C392.386 103.092 392.826 103.304 393.296 103.333C393.525 103.356 393.756 103.334 393.976 103.267C394.197 103.2 394.401 103.09 394.578 102.943C394.756 102.796 394.902 102.616 395.009 102.412C395.115 102.208 395.18 101.985 395.2 101.756C395.219 101.285 395.052 100.825 394.736 100.476C394.421 100.126 393.98 99.9143 393.51 99.8852C393.281 99.862 393.05 99.8845 392.83 99.9514C392.61 100.018 392.405 100.128 392.228 100.275C392.051 100.422 391.904 100.603 391.798 100.806C391.691 101.01 391.626 101.233 391.606 101.463Z" fill="#263238"/>
<path d="M390.615 96.4825C390.829 96.7304 392.226 95.7501 394.175 95.8065C396.124 95.8628 397.555 96.9332 397.735 96.6402C397.916 96.3473 397.623 96.1107 397.014 95.6375C396.187 95.0376 395.197 94.7036 394.175 94.6798C393.164 94.6502 392.17 94.9421 391.336 95.5135C390.727 95.953 390.513 96.3811 390.615 96.4825Z" fill="#263238"/>
<path d="M408.991 102.161C408.972 102.632 409.139 103.091 409.455 103.441C409.771 103.79 410.211 104.002 410.681 104.031C410.91 104.056 411.142 104.035 411.363 103.968C411.584 103.902 411.789 103.792 411.966 103.645C412.144 103.498 412.29 103.317 412.396 103.112C412.503 102.908 412.567 102.684 412.585 102.454C412.601 101.984 412.433 101.526 412.118 101.177C411.803 100.828 411.364 100.616 410.895 100.584C410.666 100.56 410.435 100.583 410.215 100.65C409.995 100.717 409.79 100.827 409.613 100.974C409.436 101.121 409.289 101.301 409.183 101.505C409.076 101.709 409.011 101.932 408.991 102.161Z" fill="#263238"/>
<path d="M409.059 97.215C409.273 97.4628 410.67 96.4826 412.608 96.5389C414.546 96.5953 415.988 97.6656 416.168 97.3727C416.348 97.0798 416.067 96.8432 415.447 96.3699C414.62 95.7687 413.63 95.4346 412.608 95.4122C411.597 95.3842 410.603 95.676 409.768 96.246C409.16 96.6854 408.991 97.1136 409.059 97.215Z" fill="#263238"/>
<path d="M402.231 111.58C401.214 111.233 400.158 111.013 399.087 110.927C398.592 110.859 398.13 110.758 398.051 110.409C398.019 109.897 398.149 109.388 398.423 108.955C398.918 107.761 399.437 106.51 399.989 105.214C402.174 99.8852 403.763 95.5023 403.549 95.4122C403.335 95.322 401.386 99.5697 399.211 104.899C398.682 106.217 398.175 107.468 397.701 108.662C397.375 109.252 397.267 109.938 397.397 110.6C397.462 110.778 397.567 110.938 397.704 111.069C397.841 111.2 398.006 111.298 398.186 111.355C398.461 111.433 398.745 111.479 399.031 111.49C400.089 111.656 401.165 111.687 402.231 111.58Z" fill="#263238"/>
<path d="M400.315 134.542C406.943 134.83 413.52 133.269 419.312 130.036C419.312 130.036 414.309 139.658 400.248 137.922L400.315 134.542Z" fill="#EB996E"/>
<path d="M402.974 116.29C403.353 115.832 403.844 115.48 404.398 115.267C404.953 115.054 405.553 114.987 406.14 115.073C406.568 115.121 406.981 115.256 407.355 115.469C407.729 115.682 408.056 115.969 408.315 116.312C408.568 116.642 408.713 117.042 408.731 117.457C408.749 117.872 408.639 118.283 408.416 118.633C408.094 118.974 407.677 119.211 407.22 119.313C406.762 119.416 406.284 119.379 405.847 119.208C404.939 118.86 404.108 118.335 403.403 117.664C403.188 117.5 403.005 117.297 402.862 117.067C402.79 116.961 402.751 116.835 402.751 116.707C402.751 116.578 402.79 116.453 402.862 116.346" fill="#EB996E"/>
<path d="M407.954 113.079C407.639 113.079 407.583 115.163 405.701 116.605C403.819 118.048 401.622 117.732 401.589 118.059C401.555 118.386 402.084 118.487 403.031 118.532C404.255 118.565 405.451 118.166 406.411 117.405C407.353 116.683 407.973 115.618 408.135 114.442C408.326 113.597 408.101 113.068 407.954 113.079Z" fill="#263238"/>
<path d="M409.543 91.4688C409.712 92.0096 411.661 91.8068 413.937 92.1448C416.213 92.4828 418.038 93.1475 418.354 92.6856C418.489 92.4603 418.185 91.9532 417.452 91.4237C416.484 90.7591 415.372 90.3342 414.208 90.1843C413.042 90.0162 411.853 90.1242 410.737 90.4998C409.892 90.8153 409.464 91.2209 409.543 91.4688Z" fill="#263238"/>
<path d="M391.403 87.9985C391.741 88.4492 393.082 87.9985 394.693 87.9985C396.304 87.9985 397.668 88.3703 397.983 87.9196C398.13 87.6943 397.927 87.2549 397.341 86.793C396.563 86.2594 395.637 85.9835 394.693 86.0043C393.747 85.9901 392.821 86.2739 392.045 86.8155C391.46 87.3338 391.257 87.7844 391.403 87.9985Z" fill="#263238"/>
<path d="M437.992 83.4917C435.739 75.2555 424.472 63.4815 415.977 63.6843L402.028 71.2219C402.364 73.5586 403.326 75.7608 404.812 77.5954C406.297 79.4301 408.251 80.8289 410.467 81.6439C412.833 82.4889 415.717 82.7706 417.047 84.9564C418.376 87.1422 417.419 90.1617 418.681 92.3926C420.416 95.491 425.565 95.5811 426.827 98.9162C427.379 100.358 426.984 102.048 427.559 103.491C428.336 105.417 432.99 107.997 434.984 107.479C436.978 106.961 437.147 103.592 437.868 101.846C438.77 99.9003 438.973 97.7037 438.443 95.6262C437.767 91.6152 439.051 87.4238 437.992 83.4917Z" fill="#263238"/>
<path d="M429.091 108.876C429.091 107.828 430.409 105.395 431.446 105.26C434.218 104.899 439.198 105.26 439.063 112.279C438.871 121.878 429.271 119.704 429.26 119.433C429.249 119.163 428.99 112.504 429.091 108.876Z" fill="#FFBE9D"/>
<path d="M432.257 115.85C432.257 115.85 432.426 115.974 432.708 116.11C433.102 116.288 433.55 116.308 433.959 116.166C434.984 115.805 435.863 114.217 435.942 112.482C435.983 111.661 435.841 110.841 435.525 110.082C435.441 109.781 435.286 109.504 435.072 109.277C434.858 109.049 434.592 108.877 434.297 108.775C434.104 108.717 433.898 108.73 433.714 108.81C433.531 108.891 433.382 109.034 433.294 109.214C433.159 109.473 433.215 109.665 433.17 109.687C433.125 109.71 432.967 109.518 433.046 109.124C433.109 108.887 433.247 108.678 433.44 108.527C433.711 108.333 434.046 108.253 434.375 108.302C434.766 108.39 435.128 108.576 435.427 108.842C435.726 109.108 435.954 109.445 436.088 109.823C436.484 110.663 436.666 111.588 436.618 112.515C436.516 114.453 435.491 116.245 434.094 116.617C433.835 116.684 433.565 116.693 433.302 116.645C433.039 116.596 432.79 116.49 432.573 116.335C432.28 116.087 432.223 115.873 432.257 115.85Z" fill="#EB996E"/>
<path d="M445.857 96.8092C446.197 95.8965 446.379 94.9326 446.397 93.9587C446.757 89.228 445.506 84.5146 442.848 80.5848C442.353 79.7328 441.717 78.9708 440.967 78.3314C440.775 78.4441 443.783 81.8354 445.135 87.0859C446.487 92.3363 445.642 96.798 445.857 96.8092Z" fill="#DF0031"/>
<path d="M405.002 68.4615C403.876 72.3035 397.611 76.9117 394.862 79.7285C389.522 85.1929 388.53 85.9929 387.46 103.389C385.231 97.8059 384.247 91.8039 384.575 85.8014C385.037 80.7653 387.307 76.0667 390.964 72.5739C392.822 70.8431 395.059 69.57 397.496 68.8561C399.934 68.1421 402.504 68.007 405.002 68.4615Z" fill="#263238"/>
<path d="M442.882 83.6832C442.341 83.8386 441.786 83.9405 441.226 83.9874C440.696 84.0663 440.043 84.1564 439.265 84.2015C438.488 84.2466 437.632 84.3367 436.663 84.3254C434.403 84.3696 432.144 84.2453 429.902 83.9536C427.143 83.5808 424.418 82.9816 421.756 82.1622C419.107 81.3091 416.53 80.2466 414.05 78.9849C412.035 77.9328 410.099 76.7353 408.259 75.402C407.459 74.8612 406.794 74.2753 406.197 73.8134C405.6 73.3514 405.07 72.8895 404.71 72.5177C404.279 72.1531 403.88 71.7536 403.515 71.3234C403.992 71.6246 404.44 71.9677 404.856 72.3487C405.262 72.6979 405.769 73.1148 406.388 73.5542C407.008 73.9936 407.684 74.557 408.495 75.0753C410.352 76.3306 412.29 77.4598 414.298 78.4554C416.758 79.6827 419.308 80.7222 421.925 81.565C424.56 82.3629 427.248 82.9691 429.97 83.379C432.21 83.6896 434.469 83.8515 436.73 83.8635C437.688 83.8635 438.556 83.8635 439.322 83.8635C440.088 83.8635 440.741 83.8072 441.271 83.7508C441.805 83.6844 442.344 83.6618 442.882 83.6832Z" fill="#455A64"/>
<path d="M443.434 90.6237C443.067 90.7304 442.689 90.7946 442.307 90.8152C441.271 90.9373 440.23 91.0013 439.186 91.0068C432.268 91.0768 425.459 89.2743 419.481 85.7902C418.584 85.2692 417.715 84.7014 416.878 84.0889C416.549 83.8862 416.25 83.6398 415.988 83.3565C416.044 83.2776 417.385 84.2015 419.683 85.4409C425.687 88.6832 432.376 90.4519 439.198 90.6012C441.8 90.6688 443.423 90.5223 443.434 90.6237Z" fill="#455A64"/>
<path d="M445.834 90.9955C445.976 91.4675 446.056 91.9562 446.071 92.4489C446.161 93.4066 446.217 94.7812 446.206 96.4825C446.179 98.4782 446.051 100.471 445.823 102.454C445.563 104.89 445.077 107.297 444.369 109.642C442.958 113.945 440.079 117.615 436.234 120.008C435.074 120.7 433.842 121.267 432.561 121.698C432.1 121.879 431.62 122.007 431.131 122.081C431.562 121.84 432.014 121.64 432.483 121.484C433.711 120.975 434.894 120.365 436.02 119.659C437.675 118.599 439.141 117.27 440.358 115.726C441.885 113.874 443.054 111.753 443.806 109.473C444.506 107.159 445 104.788 445.282 102.386C445.564 100.133 445.71 98.1613 445.789 96.4712C445.868 94.7812 445.868 93.4066 445.789 92.4715C445.767 91.979 445.782 91.4857 445.834 90.9955Z" fill="#455A64"/>
<path d="M313.965 146.429L341.817 174.596C345.479 173.751 390.423 146.891 390.423 146.891L397.532 181.458C397.532 181.458 351.529 202.64 338.877 200.071C336.804 199.654 333.412 199.384 331.271 196.691C321.109 183.633 301.955 156.231 301.955 156.231L313.965 146.429Z" fill="#FFBE9D"/>
<path d="M350.493 404.882L364.239 434.683L386.423 424.43L372.204 387.553L350.493 404.882Z" fill="#FFBE9D"/>
<path d="M361.67 432.689L369.703 448.012C369.703 448.012 349.107 469.273 351.045 474.072L399.38 450.896L386.097 420.171L361.67 432.689Z" fill="#455A64"/>
<path d="M383.618 438.75C384.149 438.683 384.687 438.807 385.135 439.1C385.583 439.394 385.912 439.837 386.063 440.35C386.165 440.88 386.059 441.428 385.767 441.881C385.476 442.334 385.021 442.658 384.497 442.784C383.931 442.883 383.348 442.762 382.869 442.445C382.389 442.129 382.049 441.642 381.916 441.083C381.868 440.52 382.04 439.961 382.395 439.522C382.75 439.083 383.261 438.799 383.821 438.728" fill="#E0E0E0"/>
<g opacity="0.6">
<path d="M399.38 450.851L397.363 447.032L351.777 470.692C351.777 470.692 350.076 472.664 351.045 474.072L399.38 450.851Z" fill="white"/>
</g>
<path d="M368.768 448.158C368.892 448.395 370.12 447.933 371.652 448.158C373.185 448.384 374.266 449.06 374.435 448.857C374.604 448.654 373.601 447.471 371.754 447.257C369.906 447.043 368.61 447.944 368.768 448.158Z" fill="#263238"/>
<path d="M364.701 452.665C364.757 452.924 365.974 452.834 367.258 453.454C368.543 454.074 369.275 455.009 369.511 454.885C369.748 454.761 369.252 453.352 367.652 452.631C366.053 451.91 364.599 452.44 364.701 452.665Z" fill="#263238"/>
<path d="M364.734 460.113C364.971 460.113 364.734 458.727 363.506 457.724C362.278 456.721 360.937 456.744 360.926 456.98C360.915 457.217 361.94 457.589 362.932 458.434C363.923 459.279 364.486 460.203 364.734 460.113Z" fill="#263238"/>
<path d="M366.469 442.243C366.672 442.412 367.596 441.567 368.971 441.015C370.345 440.463 371.585 440.384 371.618 440.125C371.652 439.866 370.244 439.505 368.621 440.125C366.999 440.745 366.255 442.108 366.469 442.243Z" fill="#263238"/>
<path d="M349.4 421.118L315.16 328.019C315.16 328.019 315.971 312.549 318.821 307.659C321.672 302.769 407.999 274.264 407.999 274.264C407.999 274.264 429.993 268.969 444.651 274.264C459.309 279.56 474.204 286.094 472.739 296.37C472.503 297.94 472.126 299.486 471.613 300.989C469.147 308.225 464.522 314.53 458.361 319.055C452.2 323.58 444.8 326.107 437.158 326.295L425.689 327.602L367.495 338.711C366.888 338.835 366.314 339.083 365.807 339.439C365.3 339.795 364.872 340.251 364.55 340.78C364.227 341.308 364.017 341.898 363.933 342.511C363.848 343.124 363.891 343.748 364.058 344.345L382.852 406.978C382.852 406.978 362.323 416.994 349.4 421.118Z" fill="#263238"/>
<path d="M319.159 356.693L318.348 389.503L342.775 390.1L346.302 350.733L319.159 356.693Z" fill="#FFBE9D"/>
<path d="M318.348 385.131L317.334 403.857C317.334 403.857 289.505 413.862 289.167 418.977L342.775 419.518L344.42 386.089L318.348 385.131Z" fill="#455A64"/>
<path d="M317.086 393.299C317.006 392.985 317.006 392.656 317.086 392.342C317.267 391.454 317.653 390.62 318.213 389.908C318.389 389.639 318.605 389.4 318.855 389.198C319.021 389.063 319.218 388.97 319.428 388.926C319.638 388.883 319.855 388.892 320.061 388.95C320.18 388.987 320.289 389.049 320.38 389.133C320.472 389.217 320.544 389.32 320.59 389.435C320.67 389.645 320.67 389.878 320.59 390.088C320.435 390.433 320.246 390.761 320.027 391.069C319.61 391.7 319.261 392.331 318.731 393.04C318.56 393.248 318.339 393.41 318.089 393.51C317.839 393.61 317.568 393.646 317.3 393.615C316.802 393.547 316.327 393.362 315.915 393.074C315.173 392.59 314.489 392.023 313.875 391.384C313.59 391.089 313.323 390.777 313.075 390.449C312.791 390.123 312.583 389.738 312.467 389.322C312.419 389.091 312.456 388.851 312.569 388.645C312.683 388.438 312.866 388.279 313.087 388.196C313.302 388.138 313.527 388.131 313.746 388.174C313.965 388.217 314.171 388.309 314.348 388.443C314.861 388.84 315.319 389.302 315.712 389.818C316.265 390.523 316.712 391.305 317.041 392.139C317.182 392.432 317.262 392.75 317.278 393.074C316.732 392.013 316.087 391.006 315.351 390.066C314.966 389.603 314.527 389.187 314.044 388.826C313.939 388.74 313.815 388.68 313.682 388.648C313.549 388.617 313.411 388.616 313.278 388.646C313.167 388.694 313.078 388.782 313.03 388.893C312.981 389.004 312.978 389.13 313.019 389.243C313.14 389.563 313.319 389.858 313.549 390.111C313.792 390.421 314.051 390.718 314.326 391.001C314.914 391.594 315.564 392.123 316.264 392.578C316.599 392.815 316.985 392.969 317.391 393.029C317.554 393.053 317.721 393.033 317.874 392.969C318.027 392.906 318.16 392.802 318.258 392.669C318.709 392.094 319.137 391.373 319.543 390.776C319.749 390.503 319.93 390.213 320.083 389.908C320.196 389.626 320.083 389.457 319.914 389.379C319.43 389.198 318.957 389.694 318.63 390.111C317.902 391.056 317.376 392.142 317.086 393.299Z" fill="#263238"/>
<path d="M333.942 401.705C334.448 401.879 334.875 402.227 335.147 402.687C335.42 403.148 335.52 403.69 335.429 404.217C335.283 404.735 334.946 405.178 334.486 405.456C334.025 405.735 333.476 405.827 332.95 405.716C332.398 405.555 331.927 405.189 331.636 404.692C331.345 404.195 331.255 403.606 331.384 403.045C331.587 402.517 331.987 402.089 332.5 401.851C333.014 401.614 333.599 401.585 334.133 401.772" fill="#E0E0E0"/>
<g opacity="0.6">
<path d="M342.741 419.518L342.64 415.169L291.285 416.295C291.285 416.295 288.885 417.309 289.133 418.999L342.741 419.518Z" fill="white"/>
</g>
<path d="M316.478 403.575C316.478 403.834 317.785 403.969 319.069 404.826C320.354 405.682 321.018 406.786 321.266 406.685C321.514 406.583 321.131 405.074 319.565 404.06C317.999 403.045 316.422 403.338 316.478 403.575Z" fill="#263238"/>
<path d="M310.822 405.84C310.766 406.099 311.892 406.55 312.771 407.665C313.65 408.78 313.898 409.918 314.157 409.918C314.416 409.918 314.596 408.431 313.481 407.068C312.365 405.704 310.833 405.592 310.822 405.84Z" fill="#263238"/>
<path d="M307.588 412.544C307.825 412.6 308.208 411.293 307.588 409.851C306.969 408.409 305.718 407.834 305.605 408.048C305.493 408.262 306.236 409.04 306.732 410.234C307.228 411.428 307.307 412.51 307.588 412.544Z" fill="#263238"/>
<path d="M317.007 397.265C317.12 397.502 318.326 397.153 319.802 397.265C321.278 397.378 322.427 397.863 322.562 397.637C322.697 397.412 321.604 396.511 319.858 396.364C318.112 396.218 316.884 397.051 317.007 397.265Z" fill="#263238"/>
<path d="M333.435 265.633C333.435 265.633 318.788 264.507 317.165 280.337C315.543 296.167 307.892 369.83 307.892 369.83L348.138 373.211L353.434 297.463L407.999 274.253C407.999 274.253 343.203 263.583 333.435 265.633Z" fill="#263238"/>
<path d="M393.758 244.226C393.758 244.226 384.88 269.126 386.57 271.898C388.26 274.67 411.109 286.106 411.109 286.106L468.266 308.054C468.266 308.054 474.137 298.713 474.137 284.393C474.137 270.073 454.262 244.226 454.262 244.226H393.758Z" fill="#263238"/>
<path d="M410.704 272.957C410.618 273.011 410.528 273.056 410.433 273.092L409.622 273.475L406.456 274.884L394.581 280.055L353.557 297.711L353.738 297.451C353.219 304.933 352.611 313.022 352.082 321.382C350.696 340.919 349.411 358.935 348.397 373.211V373.47H348.138L323.227 371.284L316.365 370.642L314.574 370.461C314.365 370.448 314.158 370.417 313.954 370.371C314.16 370.354 314.368 370.354 314.574 370.371L316.376 370.484L323.249 370.991L348.149 372.918L347.879 373.154C348.859 358.901 350.132 340.874 351.439 321.326C352.025 312.966 352.566 304.876 353.118 297.406V297.181L353.287 297.102L394.4 279.661L406.377 274.647L409.588 273.329L410.422 273.002L410.704 272.957Z" fill="#455A64"/>
<path d="M456.166 275.447C455.621 275.345 455.086 275.198 454.566 275.008L450.262 273.622C445.563 272.026 440.744 270.809 435.851 269.983C430.967 269.176 425.978 269.237 421.114 270.163C417.385 270.94 415.244 271.999 415.199 271.876C415.664 271.57 416.163 271.321 416.686 271.132C418.084 270.535 419.532 270.064 421.013 269.724C425.924 268.653 430.994 268.527 435.953 269.352C440.877 270.177 445.713 271.463 450.397 273.194C452.2 273.825 453.653 274.377 454.645 274.771C455.174 274.944 455.683 275.17 456.166 275.447Z" fill="#455A64"/>
<path d="M448.087 262.31C446.421 262.215 444.751 262.215 443.085 262.31C441.553 262.411 439.705 262.648 437.677 262.884C435.649 263.121 433.406 263.403 431.097 263.842C427.126 264.474 423.319 265.887 419.897 268C418.524 268.943 417.224 269.99 416.01 271.132C416.223 270.715 416.5 270.335 416.833 270.005C417.678 269.099 418.619 268.287 419.638 267.583C423.059 265.32 426.923 263.814 430.973 263.166C433.316 262.727 435.57 262.468 437.609 262.253C439.648 262.039 441.496 261.859 443.062 261.814C444.3 261.757 445.541 261.813 446.769 261.983C447.223 262.023 447.667 262.133 448.087 262.31Z" fill="#455A64"/>
<path d="M365.05 439.145C364.833 438.857 364.679 438.527 364.599 438.176C364.325 437.229 364.248 436.236 364.374 435.258C364.406 434.919 364.482 434.586 364.599 434.266C364.679 434.063 364.81 433.885 364.98 433.749C365.15 433.612 365.353 433.523 365.568 433.489C365.699 433.474 365.832 433.489 365.957 433.532C366.081 433.574 366.195 433.645 366.289 433.737C366.453 433.923 366.555 434.155 366.582 434.401C366.616 434.81 366.616 435.221 366.582 435.63C366.515 436.441 366.515 437.229 366.391 438.176C366.347 438.45 366.231 438.707 366.055 438.921C365.879 439.135 365.648 439.298 365.388 439.393C364.894 439.54 364.37 439.559 363.867 439.449C362.955 439.296 362.066 439.031 361.219 438.66C360.814 438.492 360.419 438.3 360.036 438.086C359.629 437.89 359.265 437.614 358.966 437.274C358.797 437.072 358.705 436.817 358.705 436.553C358.705 436.29 358.797 436.035 358.966 435.832C359.136 435.676 359.343 435.565 359.567 435.51C359.792 435.455 360.027 435.457 360.25 435.517C360.916 435.697 361.556 435.962 362.154 436.306C363.016 436.766 363.806 437.35 364.498 438.041C364.765 438.274 364.99 438.552 365.162 438.863C364.161 438.044 363.086 437.32 361.951 436.7C361.383 436.42 360.786 436.201 360.171 436.046C359.856 436.046 359.518 436.046 359.394 436.204C359.319 436.311 359.285 436.441 359.298 436.571C359.31 436.701 359.368 436.823 359.461 436.914C359.718 437.181 360.024 437.396 360.363 437.545C360.726 437.75 361.102 437.931 361.489 438.086C362.3 438.426 363.147 438.671 364.013 438.818C364.405 438.915 364.815 438.915 365.208 438.818C365.367 438.762 365.507 438.663 365.613 438.532C365.718 438.4 365.785 438.242 365.805 438.074C365.917 437.297 365.951 436.384 366.03 435.607C366.076 435.233 366.095 434.857 366.086 434.48C366.086 434.154 365.906 434.007 365.669 434.018C365.151 434.018 364.96 434.762 364.87 435.325C364.684 436.598 364.745 437.895 365.05 439.145Z" fill="#263238"/>
<path d="M392.35 146.057C388.321 147.618 384.962 150.535 382.852 154.305C379.291 160.625 380.249 163.735 381.173 167.464C382.097 171.194 383.753 178.596 383.843 178.123C383.933 177.65 392.35 146.057 392.35 146.057Z" fill="#FFBE9D"/>
<path d="M452.605 157.313C452.605 157.313 447.941 146.046 446.972 145.009L429.756 140.66L418.996 145.933C415.892 147.507 412.415 148.196 408.946 147.928C405.093 147.567 401.713 146.012 400.011 143.162L393.251 144.987C393.251 144.987 382.57 177.222 382.784 186.145C382.998 195.069 386.716 220.419 386.288 225.422C385.86 230.424 387.674 244.226 393.758 244.226H454.262C454.262 244.226 467.917 240.441 468.514 232.227C469.112 224.013 452.605 157.313 452.605 157.313Z" fill="#DF0031"/>
<path d="M433.328 206.234C433.032 206.566 432.69 206.854 432.314 207.09C431.33 207.796 430.281 208.408 429.181 208.916C427.544 209.676 425.806 210.195 424.021 210.459C421.822 210.777 419.583 210.681 417.419 210.178C413.509 209.178 409.952 207.115 407.143 204.217C406.293 203.363 405.506 202.448 404.788 201.479C404.505 201.136 404.266 200.757 404.079 200.353C404.169 200.285 405.262 201.829 407.459 203.891C410.293 206.616 413.787 208.558 417.599 209.524C421.427 210.394 425.432 210.023 429.035 208.465C431.773 207.316 433.26 206.121 433.328 206.234Z" fill="#263238"/>
<g opacity="0.3">
<path d="M405.093 201.75C405.51 206.377 407.742 210.65 411.301 213.636C413.085 215.09 415.188 216.103 417.437 216.592C419.686 217.082 422.019 217.034 424.246 216.453C426.461 215.82 428.457 214.59 430.018 212.896C431.578 211.203 432.641 209.112 433.091 206.854C430.044 208.42 426.794 209.557 423.435 210.234C419.809 210.719 416.12 210.144 412.813 208.579C409.506 207.013 406.723 204.524 404.8 201.412L405.284 201.93" fill="black"/>
</g>
<g opacity="0.3">
<path d="M455.997 211.552C449.608 199.158 442.848 186.314 431.671 177.977C434.15 186.449 436.37 194.415 439.108 202.764C439.885 205.141 441.113 207.913 443.614 208.307C444.527 208.454 445.462 208.228 446.364 208.409C447.918 208.713 448.977 210.099 449.811 211.439C450.489 212.872 451.554 214.086 452.887 214.943C454.307 215.642 456.47 214.943 456.605 213.411C456.581 212.747 456.37 212.103 455.997 211.552Z" fill="black"/>
</g>
<path d="M474.137 187.891L443.659 202.178C443.659 202.178 430.139 175.137 429.091 171.385C428.043 167.633 425.711 161.245 429.17 153.358C430.718 150.008 433.42 147.328 436.782 145.807C440.144 144.287 443.941 144.027 447.479 145.077C460.92 149.877 474.137 187.891 474.137 187.891Z" fill="#DF0031"/>
<path d="M385.759 187.891C384.339 187.891 367.99 196.443 367.99 196.443L357.163 165.042C371.213 157.425 386.829 146.677 394.952 144.491L387.888 169.008L385.759 187.891Z" fill="#DF0031"/>
<path d="M446.645 200.285C452.414 209.772 456.447 215.225 456.447 215.225L404.676 246.773L410.704 260.789L473.641 234.875C475.757 234.034 477.644 232.703 479.147 230.991C480.649 229.279 481.724 227.235 482.283 225.027C482.801 222.953 482.75 220.777 482.136 218.729L471.433 189.187L446.645 200.285Z" fill="#FFBE9D"/>
<path d="M469.044 220.047C467.064 218.817 464.992 217.74 462.847 216.825C459.23 215.462 456.031 215.428 456.087 215.225C458.473 215.055 460.867 215.397 463.11 216.229C465.353 217.061 467.391 218.363 469.089 220.047H469.044Z" fill="#EB996E"/>
<path d="M387.64 159.961C387.293 160.406 386.998 160.89 386.761 161.403C386.088 162.748 385.527 164.146 385.082 165.583C383.678 170.249 382.82 175.062 382.525 179.926C382.154 184.751 382.211 189.6 382.694 194.415C382.838 195.88 383.064 197.336 383.37 198.775C383.451 199.316 383.595 199.845 383.798 200.353C383.812 199.811 383.759 199.27 383.64 198.742C383.505 197.716 383.325 196.229 383.201 194.393C382.856 189.588 382.856 184.764 383.201 179.96C383.508 175.136 384.289 170.355 385.533 165.684C385.936 164.256 386.421 162.853 386.987 161.482C387.26 161 387.479 160.49 387.64 159.961Z" fill="#263238"/>
<path d="M364.498 256.361L377.443 250.187L402.636 248.181L404.698 246.761L410.726 260.777C410.726 260.777 404.124 263.932 400.665 264.214L379.472 263.572L368.396 264.698L364.498 256.361Z" fill="#FFBE9D"/>
<path d="M474.137 187.891C473.929 187.937 473.729 188.009 473.539 188.105L471.849 188.815L465.686 191.553L445.406 200.781L442.938 201.908L443.321 202.043C439.806 194.798 436.73 188.308 434.544 183.621C433.485 181.368 432.629 179.464 431.998 178.089L431.311 176.591C431.241 176.409 431.146 176.239 431.029 176.084C431.07 176.272 431.127 176.457 431.198 176.636C431.333 176.985 431.525 177.503 431.795 178.168C432.325 179.509 433.136 181.424 434.184 183.801C436.268 188.534 439.288 195.068 442.803 202.313L442.927 202.572L443.186 202.448L445.654 201.322L465.81 191.948L471.894 189.041L473.539 188.218C473.75 188.132 473.95 188.022 474.137 187.891Z" fill="#263238"/>
<path d="M446.093 145.156C446.093 145.269 444.662 145.223 442.454 145.753C439.584 146.429 436.937 147.832 434.767 149.827C432.596 151.822 430.975 154.342 430.06 157.144C429.328 159.296 429.249 160.727 429.136 160.716C429.085 160.383 429.085 160.045 429.136 159.713C429.226 158.801 429.4 157.9 429.655 157.02C430.5 154.089 432.139 151.448 434.389 149.389C436.639 147.329 439.415 145.931 442.409 145.347C443.277 145.174 444.16 145.083 445.045 145.077C445.397 145.044 445.751 145.071 446.093 145.156Z" fill="#263238"/>
<path d="M463.613 164.794C463.535 165.26 463.399 165.714 463.208 166.146C462.796 167.368 462.212 168.526 461.472 169.583L460.673 170.585L460.233 171.126L459.715 171.611L458.588 172.613L457.281 173.503C455.278 174.723 453.112 175.653 450.848 176.264C446.071 177.605 441.643 178.236 438.578 179.193C436.922 179.712 435.297 180.325 433.711 181.03C434.077 180.731 434.478 180.477 434.905 180.275C435.38 179.997 435.877 179.759 436.392 179.565L437.35 179.159L438.477 178.799C441.553 177.672 445.992 177.019 450.713 175.7C452.926 175.104 455.049 174.209 457.022 173.041L458.306 172.196L459.433 171.25C459.602 171.092 459.782 170.957 459.94 170.799L460.368 170.292L461.18 169.346C461.927 168.326 462.551 167.222 463.039 166.056C463.187 165.617 463.38 165.194 463.613 164.794Z" fill="white"/>
<path d="M459.602 157.617C459.167 157.667 458.74 157.769 458.329 157.921C457.257 158.435 456.371 159.27 455.794 160.31C455.388 160.952 454.983 161.685 454.442 162.439C453.853 163.228 453.164 163.937 452.391 164.546C450.592 165.89 448.554 166.88 446.386 167.464C444.133 168.152 441.879 168.591 439.953 169.031C438.211 169.425 436.51 169.979 434.871 170.687C433.387 171.388 432.004 172.286 430.759 173.357C430.759 173.357 430.815 173.244 430.962 173.075C431.174 172.82 431.404 172.579 431.649 172.354C432.561 171.525 433.59 170.834 434.702 170.304C436.344 169.529 438.062 168.928 439.829 168.512C441.8 167.994 443.997 167.577 446.217 166.901C448.314 166.331 450.291 165.388 452.053 164.118C452.802 163.551 453.472 162.888 454.048 162.146C454.577 161.448 455.005 160.716 455.456 160.085C456.096 159.003 457.08 158.166 458.25 157.707C458.571 157.591 458.912 157.537 459.253 157.55C459.478 157.561 459.602 157.595 459.602 157.617Z" fill="white"/>
<path d="M435.018 184.714C434.872 184.824 434.713 184.915 434.544 184.985L433.114 185.649C431.874 186.213 430.06 187.013 427.784 187.903C425.115 188.96 422.369 189.811 419.571 190.449C416.125 191.262 412.565 191.471 409.047 191.069C405.567 190.497 402.165 189.525 398.907 188.173C396.267 187.126 393.52 186.37 390.716 185.92C388.826 185.639 386.902 185.681 385.026 186.044C383.697 186.325 382.998 186.641 382.987 186.585C382.976 186.528 383.145 186.483 383.471 186.325C383.958 186.12 384.458 185.95 384.97 185.818C386.865 185.363 388.828 185.256 390.761 185.503C393.611 185.904 396.405 186.634 399.087 187.677C402.317 188.98 405.679 189.925 409.115 190.494C412.566 190.884 416.058 190.694 419.447 189.931C422.226 189.321 424.959 188.519 427.627 187.531C429.88 186.697 431.75 185.965 433.012 185.458L434.477 184.895C434.646 184.805 434.829 184.744 435.018 184.714Z" fill="white"/>
<path d="M385.004 174.371C385.004 174.371 385.128 174.247 385.398 174.056C385.801 173.791 386.232 173.572 386.682 173.402C388.36 172.771 390.173 172.585 391.944 172.861C394.553 173.261 397.06 174.164 399.324 175.52C402.019 177.194 404.828 178.677 407.729 179.96C410.709 181.017 413.865 181.491 417.024 181.357C419.61 181.26 422.184 180.951 424.72 180.433C426.894 180.016 428.652 179.599 429.857 179.306C430.478 179.133 431.111 179.009 431.75 178.934C431.154 179.178 430.54 179.378 429.914 179.531C428.719 179.881 426.984 180.354 424.81 180.827C422.255 181.409 419.653 181.764 417.036 181.886C413.806 182.055 410.574 181.584 407.526 180.5C404.597 179.211 401.769 177.705 399.065 175.994C396.864 174.646 394.429 173.725 391.888 173.278C390.177 172.971 388.417 173.087 386.761 173.616C385.601 173.988 385.037 174.371 385.004 174.371Z" fill="white"/>
<path d="M379.201 190.393C379.201 190.393 379.077 190.393 378.852 190.393C378.524 190.328 378.203 190.229 377.894 190.1C376.739 189.599 375.722 188.826 374.931 187.846C373.746 186.435 372.884 184.782 372.407 183.002C371.883 180.836 371.611 178.616 371.596 176.388C371.578 174.196 371.405 172.009 371.078 169.842C370.764 168.092 370.138 166.413 369.23 164.884C368.359 163.489 367.16 162.329 365.737 161.504C365.737 161.504 365.861 161.504 366.075 161.606C366.388 161.725 366.69 161.872 366.976 162.045C368.016 162.728 368.896 163.627 369.557 164.682C370.549 166.227 371.238 167.948 371.585 169.752C371.952 171.945 372.144 174.164 372.159 176.388C372.173 178.575 372.422 180.755 372.903 182.889C373.345 184.605 374.135 186.212 375.224 187.61C375.968 188.545 376.901 189.313 377.962 189.863C378.739 190.235 379.212 190.336 379.201 190.393Z" fill="white"/>
<path d="M382.288 182.393C381.673 181.203 381.131 179.976 380.666 178.72L376.891 169.864C375.382 166.405 373.985 163.284 372.914 161.065C371.844 158.845 371.1 157.504 371.168 157.459C371.429 157.713 371.65 158.006 371.821 158.327C372.193 158.913 372.7 159.78 373.286 160.873C374.413 163.059 375.922 166.157 377.432 169.628C378.942 173.098 380.193 176.275 381.049 178.641C381.477 179.768 381.804 180.748 382.018 181.413C382.15 181.727 382.241 182.056 382.288 182.393Z" fill="white"/>
<path d="M291.815 206.617L364.464 207.214C366.819 207.214 369.072 208.341 369.421 210.673L377.365 263.628H414.782C415.362 263.628 415.918 263.858 416.328 264.268C416.738 264.678 416.968 265.234 416.968 265.814C416.968 266.393 416.738 266.949 416.328 267.359C415.918 267.769 415.362 268 414.782 268H295.319L287.15 212.115C287.045 211.439 287.086 210.749 287.272 210.09C287.457 209.432 287.782 208.821 288.225 208.3C288.668 207.778 289.217 207.358 289.836 207.067C290.456 206.777 291.13 206.623 291.815 206.617Z" fill="#E0E0E0"/>
<path d="M291.815 206.617C291.436 206.601 291.056 206.639 290.688 206.73C289.574 206.991 288.591 207.643 287.916 208.566C287.418 209.248 287.107 210.048 287.015 210.887C286.998 211.889 287.089 212.89 287.285 213.873L288.333 221.253C289.933 232.351 292.231 248.294 295.093 268.022V268.214H295.296L411.233 268.281H414.354C414.925 268.335 415.499 268.225 416.01 267.966C416.395 267.751 416.715 267.437 416.938 267.056C417.161 266.676 417.279 266.243 417.279 265.802C417.279 265.362 417.161 264.929 416.938 264.549C416.715 264.168 416.395 263.854 416.01 263.639C415.505 263.386 414.94 263.277 414.377 263.324H377.443L377.725 263.572C374.863 244.609 372.193 226.92 369.838 211.045C369.767 209.986 369.286 208.996 368.497 208.285C367.705 207.62 366.74 207.194 365.715 207.056C364.741 206.962 363.763 206.928 362.785 206.955H359.935L348.994 206.876L329.559 206.764L301.887 206.617H291.815C291.815 206.617 292.029 206.617 292.468 206.617H294.372L301.775 206.718L329.446 207.023L348.882 207.214L359.822 207.327H362.672C363.628 207.304 364.583 207.338 365.534 207.428C366.469 207.556 367.348 207.947 368.069 208.555C368.751 209.209 369.155 210.101 369.196 211.045C371.573 226.909 374.21 244.609 377.083 263.572V263.819H414.264C414.728 263.77 415.196 263.852 415.616 264.056C416.009 264.277 416.311 264.631 416.468 265.054C416.625 265.477 416.626 265.942 416.472 266.366C416.319 266.787 416.019 267.139 415.627 267.357C415.202 267.571 414.725 267.657 414.253 267.605H411.244L295.307 267.673L295.521 267.864C292.614 248.203 290.237 232.216 288.592 221.118C288.175 218.357 287.803 215.89 287.465 213.76C287.253 212.791 287.155 211.8 287.173 210.808C287.247 209.997 287.534 209.219 288.006 208.555C288.653 207.636 289.609 206.98 290.699 206.707C291.069 206.659 291.441 206.629 291.815 206.617Z" fill="#263238"/>
<path d="M328.049 241.184C330.563 241.184 332.601 239.146 332.601 236.632C332.601 234.118 330.563 232.08 328.049 232.08C325.535 232.08 323.497 234.118 323.497 236.632C323.497 239.146 325.535 241.184 328.049 241.184Z" fill="white"/>
<path d="M374.469 267.493C374.356 267.493 372.047 254.028 369.297 237.387C366.548 220.746 364.408 207.226 364.509 207.214C364.61 207.203 366.92 220.678 369.669 237.32C372.418 253.961 374.57 267.481 374.469 267.493Z" fill="#263238"/>
<path d="M11.267 499.986C11.267 499.829 120.252 499.693 254.633 499.693C389.015 499.693 498 499.784 498 499.986C498 500.189 389.037 500.279 254.633 500.279C120.23 500.279 11.267 500.099 11.267 499.986Z" fill="#263238"/>
</g>
<defs>
<clipPath id="clip0_8_4048">
<rect width="498" height="508.14" fill="white" transform="translate(0 0.859619)"/>
</clipPath>
</defs>
</svg>
