<svg width="25" height="25" viewBox="0 0 25 25" fill="none" xmlns="http://www.w3.org/2000/svg">
<g clip-path="url(#clip0_114_61)">
<path d="M9.11182 3.60337C9.04848 3.56464 8.99749 3.50867 8.96483 3.442C8.93216 3.37534 8.91916 3.30075 8.92736 3.22697C8.93556 3.15318 8.96461 3.08327 9.01111 3.0254C9.05762 2.96754 9.11965 2.92412 9.18994 2.90024C10.6133 2.40785 12.1285 2.23914 13.6253 2.40639C15.1221 2.57363 16.5627 3.07263 17.8423 3.86704C17.8899 3.89545 17.9309 3.93367 17.9626 3.97916C17.9943 4.02465 18.0159 4.07637 18.0261 4.13087C18.0363 4.18537 18.0347 4.24141 18.0215 4.29526C18.0084 4.34912 17.9839 4.39955 17.9497 4.44321C16.8143 5.88402 15.4281 7.10807 13.8579 8.05649C12.5871 6.27181 10.9737 4.75801 9.11182 3.60337ZM12.4614 8.78891C11.0316 6.84626 9.1561 5.2755 6.99268 4.20883C6.9288 4.1799 6.85869 4.16742 6.78875 4.17254C6.71881 4.17765 6.65127 4.2002 6.59229 4.23813C4.84183 5.49889 3.53313 7.27914 2.85205 9.32602C2.83594 9.37798 2.83085 9.43272 2.83712 9.48676C2.84338 9.54079 2.86087 9.59292 2.88845 9.6398C2.91603 9.68669 2.95309 9.7273 2.99728 9.75903C3.04146 9.79076 3.09178 9.81291 3.14502 9.82407C4.16552 10.0443 5.2065 10.1556 6.25049 10.1561C8.39574 10.1588 10.5156 9.69217 12.4614 8.78891ZM22.5981 11.3963C22.3484 9.13115 21.344 7.01581 19.7466 5.39048C19.7071 5.35206 19.6602 5.32219 19.6087 5.30274C19.5572 5.28328 19.5022 5.27466 19.4472 5.27741C19.3922 5.28016 19.3384 5.29422 19.2891 5.31872C19.2398 5.34321 19.1961 5.37761 19.1606 5.41977C17.9257 6.99573 16.4133 8.33279 14.6978 9.36508C15.2329 10.2937 15.6776 11.2714 16.0259 12.285C17.4235 11.9071 18.8652 11.7166 20.313 11.7186C20.933 11.72 21.5524 11.7559 22.1685 11.826C22.2264 11.8322 22.285 11.8253 22.3399 11.8059C22.3948 11.7865 22.4447 11.755 22.4859 11.7138C22.5271 11.6726 22.5586 11.6227 22.578 11.5678C22.5974 11.5128 22.6043 11.4543 22.5981 11.3963ZM16.4556 13.7889C16.7425 15.0215 16.8867 16.2831 16.8853 17.5487C16.8845 18.7577 16.7503 19.9629 16.4849 21.1424C16.4675 21.215 16.4712 21.291 16.4956 21.3614C16.52 21.4319 16.5641 21.4939 16.6227 21.5401C16.6812 21.5864 16.7518 21.6149 16.826 21.6223C16.9002 21.6297 16.975 21.6156 17.0415 21.5819C18.5233 20.8407 19.8016 19.7486 20.7649 18.4006C21.7283 17.0526 22.3476 15.4895 22.5688 13.8475C22.5757 13.7961 22.5722 13.7439 22.5587 13.6939C22.5451 13.6439 22.5218 13.5971 22.49 13.5562C22.4582 13.5153 22.4185 13.4812 22.3734 13.4557C22.3283 13.4303 22.2785 13.4141 22.2271 13.4081C21.5927 13.3214 20.9532 13.279 20.313 13.2811C19.0104 13.2795 17.7133 13.4502 16.4556 13.7889ZM14.5317 12.7733C14.2223 11.8479 13.8164 10.9576 13.3208 10.117C11.1138 11.1739 8.69749 11.7213 6.25049 11.7186C5.1049 11.718 3.96254 11.5969 2.84229 11.3573C2.78802 11.346 2.73198 11.3464 2.67789 11.3585C2.6238 11.3706 2.5729 11.394 2.52856 11.4273C2.48422 11.4605 2.44747 11.5028 2.42074 11.5514C2.39401 11.5999 2.37792 11.6536 2.37354 11.7088C2.354 11.9693 2.34424 12.2329 2.34424 12.4999C2.34374 13.8904 2.62962 15.2661 3.18407 16.5413C3.73851 17.8166 4.54963 18.9639 5.5669 19.912C5.60882 19.9522 5.65939 19.9823 5.71475 20C5.77012 20.0177 5.82879 20.0225 5.88629 20.014C5.94379 20.0056 5.99858 19.984 6.04648 19.9511C6.09437 19.9182 6.13409 19.8747 6.1626 19.8241C8.06804 16.5894 11.0205 14.102 14.5317 12.7733ZM7.39307 20.8202C7.36701 20.8649 7.35012 20.9145 7.34339 20.9658C7.33665 21.0172 7.34021 21.0694 7.35384 21.1194C7.36747 21.1694 7.39091 21.2162 7.42279 21.257C7.45468 21.2978 7.49437 21.3319 7.53955 21.3573C9.05304 22.212 10.7623 22.6595 12.5005 22.6561C13.0932 22.6587 13.685 22.6064 14.2681 22.4999C14.3356 22.4886 14.3986 22.459 14.4503 22.4142C14.502 22.3694 14.5404 22.3112 14.561 22.2459C15.0676 20.7318 15.3248 19.1453 15.3228 17.5487C15.3222 16.4483 15.201 15.3512 14.9614 14.2772C11.7626 15.5251 9.09027 17.8353 7.39307 20.8202Z" fill="#DF0031"/>
</g>
<defs>
<clipPath id="clip0_114_61">
<rect width="25" height="25" fill="white"/>
</clipPath>
</defs>
</svg>
