<svg width="25" height="25" viewBox="0 0 25 25" fill="none" xmlns="http://www.w3.org/2000/svg">
<g clip-path="url(#clip0_114_58)">
<path d="M15.6245 7.8125C15.6245 7.6053 15.7068 7.40659 15.8533 7.26007C15.9998 7.11356 16.1986 7.03125 16.4058 7.03125H22.6558C22.863 7.03125 23.0617 7.11356 23.2082 7.26007C23.3547 7.40659 23.437 7.6053 23.437 7.8125C23.437 8.0197 23.3547 8.21841 23.2082 8.36493C23.0617 8.51144 22.863 8.59375 22.6558 8.59375H16.4058C16.1986 8.59375 15.9998 8.51144 15.8533 8.36493C15.7068 8.21841 15.6245 8.0197 15.6245 7.8125ZM24.2183 14.8437C24.2183 15.051 24.136 15.2497 23.9894 15.3962C23.8429 15.5427 23.6442 15.625 23.437 15.625H16.5034C16.6782 16.2952 17.07 16.8887 17.6177 17.3127C18.1654 17.7367 18.8381 17.9674 19.5308 17.9687C19.9413 17.9707 20.348 17.8906 20.7271 17.7329C21.1061 17.5752 21.4498 17.3433 21.7378 17.0508C21.8843 16.9047 22.0827 16.8226 22.2896 16.8226C22.4964 16.8226 22.6948 16.9047 22.8413 17.0508C22.9148 17.1226 22.9733 17.2085 23.0131 17.3032C23.053 17.398 23.0736 17.4997 23.0736 17.6025C23.0736 17.7053 23.053 17.8071 23.0131 17.9019C22.9733 17.9966 22.9148 18.0824 22.8413 18.1543C22.4088 18.5924 21.8932 18.9399 21.3248 19.1763C20.7563 19.4128 20.1464 19.5334 19.5308 19.5312C18.6037 19.5312 17.6974 19.2563 16.9265 18.7413C16.1557 18.2262 15.5549 17.4941 15.2001 16.6376C14.8453 15.781 14.7525 14.8385 14.9333 13.9293C15.1142 13.02 15.5606 12.1847 16.2162 11.5292C16.8718 10.8736 17.707 10.4272 18.6163 10.2463C19.5256 10.0655 20.4681 10.1583 21.3246 10.5131C22.1811 10.8679 22.9132 11.4687 23.4283 12.2395C23.9433 13.0104 24.2183 13.9166 24.2183 14.8437ZM22.5581 14.0625C22.386 13.3903 21.9951 12.7945 21.4469 12.369C20.8988 11.9436 20.2246 11.7126 19.5308 11.7126C18.8369 11.7126 18.1627 11.9436 17.6146 12.369C17.0665 12.7945 16.6755 13.3903 16.5034 14.0625H22.5581ZM13.6714 15.4297C13.6714 16.5175 13.2393 17.5607 12.4701 18.3299C11.7009 19.0991 10.6576 19.5312 9.56982 19.5312H3.12451C2.91731 19.5312 2.7186 19.4489 2.57208 19.3024C2.42557 19.1559 2.34326 18.9572 2.34326 18.75V6.25C2.34326 6.0428 2.42557 5.84409 2.57208 5.69757C2.7186 5.55106 2.91731 5.46875 3.12451 5.46875H8.39795C9.1135 5.46975 9.81351 5.67761 10.4137 6.06729C11.0138 6.45697 11.4885 7.01184 11.7805 7.66508C12.0726 8.31833 12.1695 9.04207 12.0597 9.74915C11.9499 10.4562 11.638 11.1165 11.1616 11.6504C11.9054 11.9636 12.5402 12.4892 12.9866 13.1614C13.433 13.8337 13.6712 14.6227 13.6714 15.4297ZM3.90576 11.3281H8.39795C8.96775 11.3281 9.51421 11.1018 9.91712 10.6989C10.32 10.296 10.5464 9.74949 10.5464 9.17969C10.5464 8.60989 10.32 8.06342 9.91712 7.66051C9.51421 7.2576 8.96775 7.03125 8.39795 7.03125H3.90576V11.3281ZM12.1089 15.4297C12.1063 14.7571 11.838 14.1128 11.3624 13.6371C10.8868 13.1615 10.2424 12.8932 9.56982 12.8906H3.90576V17.9687H9.56982C10.2424 17.9662 10.8868 17.6978 11.3624 17.2222C11.838 16.7466 12.1063 16.1023 12.1089 15.4297Z" fill="#DF0031"/>
</g>
<defs>
<clipPath id="clip0_114_58">
<rect width="25" height="25" fill="white"/>
</clipPath>
</defs>
</svg>
