<svg width="542" height="512" viewBox="0 0 542 512" fill="none" xmlns="http://www.w3.org/2000/svg">
<path d="M85.6222 125.475L104.555 160.538L88.5231 169.2L69.595 134.123L85.6222 125.475Z" fill="#EBEBEB"/>
<path d="M47.374 146.129L44.3218 147.777L63.2544 182.84L66.3066 181.192L47.374 146.129Z" fill="#EBEBEB"/>
<path d="M210.998 123.514L202.531 107.821L111.655 156.714L92.7081 121.647L183.58 72.7682L175.113 57.075L250.584 59.2488L210.998 123.514Z" fill="#EBEBEB"/>
<path d="M63.2529 137.549L82.1854 172.612L71.8093 178.219L52.8819 143.165L63.2529 137.549Z" fill="#EBEBEB"/>
<path d="M297.574 161.434L316.506 196.497L300.475 205.159L281.546 170.082L297.574 161.434Z" fill="#EBEBEB"/>
<path d="M259.326 182.089L256.273 183.737L275.206 218.8L278.258 217.151L259.326 182.089Z" fill="#EBEBEB"/>
<path d="M392.281 175.886L383.814 160.192L323.607 192.673L304.66 157.606L364.862 125.139L356.395 109.446L431.866 111.62L392.281 175.886Z" fill="#EBEBEB"/>
<path d="M275.204 173.509L294.137 208.572L283.761 214.178L264.833 179.124L275.204 173.509Z" fill="#EBEBEB"/>
<path d="M61.7596 312.554L53.5711 325.755L57.614 328.259C58.803 328.996 59.4474 330.34 59.3283 331.734C59.2622 332.504 59.2375 333.279 59.2546 334.056C59.2852 335.451 58.5565 336.749 57.3275 337.408L53.1367 339.655L60.4814 353.35L64.6715 351.103C65.9007 350.443 67.3852 350.555 68.5298 351.351C69.1678 351.795 69.8273 352.204 70.5052 352.575C71.7321 353.247 72.4952 354.527 72.4512 355.925L72.3005 360.679L87.8277 361.161L87.9715 356.391C88.0138 354.992 88.8709 353.774 90.1367 353.177C90.4802 353.015 90.8208 352.843 91.1583 352.662C91.4956 352.481 91.827 352.292 92.1519 352.096C93.3442 351.376 94.8249 351.334 96.009 352.067L100.081 354.59L108.27 341.389L104.22 338.875C103.031 338.137 102.387 336.791 102.509 335.397C102.575 334.63 102.601 333.858 102.585 333.084C102.556 331.691 103.284 330.395 104.512 329.737L108.704 327.488L101.36 313.794L97.1678 316.042C95.9399 316.7 94.4568 316.59 93.3125 315.795C92.6768 315.353 92.0196 314.947 91.3436 314.579C90.1156 313.908 89.3505 312.628 89.3936 311.229L89.5401 306.465L74.0134 305.982L73.8653 310.749C73.822 312.143 72.9671 313.356 71.7059 313.952C71.3608 314.115 71.0177 314.288 70.6767 314.471C70.3393 314.651 70.0078 314.84 69.6825 315.037C68.4841 315.761 66.996 315.802 65.8061 315.064L61.7596 312.554ZM74.9064 322.357C81.099 319.036 88.8051 321.362 92.1261 327.555C95.4475 333.748 93.1274 341.465 86.9344 344.786C80.7415 348.107 73.0189 345.776 69.6977 339.583C66.3765 333.39 68.7136 325.679 74.9064 322.357Z" fill="#EBEBEB"/>
<path d="M450.223 126.95L455.662 136.376L458.547 134.709C459.395 134.219 460.439 134.266 461.259 134.801C461.713 135.097 462.183 135.369 462.669 135.615C463.54 136.058 464.1 136.938 464.1 137.915V141.246H474.986V137.915C474.986 136.938 475.546 136.058 476.417 135.615C476.903 135.369 477.373 135.097 477.827 134.801C478.647 134.266 479.691 134.219 480.539 134.709L483.424 136.376L488.863 126.95L485.965 125.281C485.116 124.792 484.648 123.86 484.698 122.88C484.712 122.614 484.718 122.347 484.718 122.079C484.718 121.811 484.712 121.544 484.698 121.278C484.648 120.303 485.113 119.376 485.958 118.887L488.863 117.209L483.424 107.782L480.531 109.451C479.682 109.94 478.638 109.892 477.818 109.355C477.366 109.06 476.898 108.789 476.415 108.543C475.546 108.099 474.986 107.22 474.986 106.244V102.912H464.1V106.244C464.1 107.22 463.541 108.099 462.671 108.543C462.188 108.789 461.72 109.06 461.268 109.355C460.448 109.892 459.404 109.94 458.555 109.451L455.662 107.782L450.223 117.209L453.117 118.878C453.963 119.366 454.429 120.296 454.379 121.272C454.366 121.539 454.359 121.808 454.359 122.079C454.359 122.347 454.366 122.614 454.379 122.88C454.429 123.86 453.962 124.792 453.113 125.282L450.223 126.95ZM460.628 122.079C460.628 117.156 464.616 113.169 469.539 113.169C474.462 113.169 478.458 117.156 478.458 122.079C478.458 127.002 474.462 130.998 469.539 130.998C464.616 130.998 460.628 127.002 460.628 122.079Z" fill="#EBEBEB"/>
<path d="M139.03 284.461H123.533L122.705 273.815C117.32 272.733 112.255 270.638 107.639 267.582L100.012 274.114L89.0505 263.153L95.5619 255.547C92.3824 250.809 90.2271 245.563 89.1511 239.944L79.7465 239.2V223.704L89.2691 222.959C90.4521 217.26 92.7476 211.961 96.0981 207.197L90.0943 200.182L101.055 189.222L108.362 195.475C113.232 192.376 118.579 190.336 124.265 189.408L125.007 179.917H140.504L141.291 190.022C146.721 191.307 151.764 193.607 156.291 196.864L164.025 190.266L174.986 201.226L167.948 209.443C170.763 214.043 172.649 219.05 173.558 224.337L184.29 225.164V240.675L173.075 241.545C171.897 246.659 169.789 251.469 166.807 255.855L173.943 264.182L162.982 275.143L154.48 267.875C149.975 270.782 145.059 272.779 139.857 273.815L139.03 284.461ZM124.536 283.377H138.026L138.84 272.907L139.248 272.829C144.591 271.82 149.631 269.773 154.226 266.747L154.566 266.523L162.924 273.667L172.466 264.125L165.441 255.926L165.679 255.582C168.784 251.109 170.946 246.176 172.105 240.919L172.192 240.526L183.206 239.672V226.167L172.626 225.353L172.558 224.931C171.68 219.501 169.749 214.369 166.82 209.678L166.608 209.341L173.51 201.283L163.967 191.74L156.344 198.245L155.998 197.991C151.394 194.608 146.234 192.253 140.661 190.989L140.272 190.901L139.501 181.001H126.01L125.279 190.347L124.854 190.412C119.028 191.304 113.564 193.387 108.612 196.604L108.272 196.825L101.112 190.697L91.5699 200.24L97.4732 207.137L97.2255 207.482C93.7517 212.32 91.4053 217.733 90.2509 223.573L90.171 223.976L80.8305 224.706V238.198L90.0667 238.929L90.1414 239.339C91.1867 245.1 93.3902 250.462 96.6898 255.279L96.9248 255.622L90.5262 263.096L100.069 272.638L107.392 266.366H107.758L107.91 266.459C112.608 269.633 117.792 271.776 123.315 272.83L123.722 272.907L124.536 283.377ZM131.281 252.094C120.068 252.094 110.946 242.971 110.946 231.758C110.946 220.545 120.068 211.423 131.281 211.423C142.502 211.423 151.63 220.545 151.63 231.758C151.63 242.971 142.502 252.094 131.281 252.094ZM131.281 212.507C120.666 212.507 112.03 221.143 112.03 231.758C112.03 242.374 120.666 251.01 131.281 251.01C141.904 251.01 150.546 242.374 150.546 231.758C150.546 221.143 141.904 212.507 131.281 212.507Z" fill="#EBEBEB"/>
<path d="M343.397 27.0811C343.397 37.9059 334.617 46.6859 323.792 46.6859C319.417 46.6859 315.378 45.2513 312.113 42.8198L302.509 45.2717L306.507 36.3289C305.022 33.5719 304.187 30.4182 304.187 27.0811C304.187 16.2562 312.967 7.47632 323.792 7.47632C334.617 7.47632 343.397 16.2562 343.397 27.0811Z" fill="white"/>
<path d="M343.397 27.0811C343.612 38.3416 333.278 47.8702 322.082 46.8686C318.433 46.6065 314.859 45.2959 311.882 43.1298L312.208 43.1942C309.017 44.0515 305.826 44.9099 302.626 45.7328L301.677 45.977L302.074 45.0773L306.03 36.116L306.047 36.5763C299.773 25.404 306.461 10.5359 318.956 7.79612C331.145 4.68078 343.598 14.5269 343.397 27.0811ZM343.397 27.0811C343.48 14.6045 331.145 4.99728 319.1 8.37237C307.132 11.3535 301.016 25.583 307.088 36.3114L306.983 36.542L302.943 45.4659L302.391 44.8105C305.655 43.9834 308.928 43.1931 312.201 42.4009C315.042 44.6137 318.517 46.0108 322.126 46.357C333.303 47.5993 343.476 38.3065 343.397 27.0811Z" fill="#263238"/>
<path d="M323.693 47.211C323.147 47.2116 322.602 47.1872 322.057 47.1385C318.443 46.8792 314.966 45.6343 311.982 43.5351L311.895 43.5589C308.996 44.3375 306.001 45.142 303.042 45.9058L303.013 45.9698L302.974 45.9233C302.881 45.9471 302.787 45.9714 302.694 45.9952L301.204 46.3779L301.945 44.6995L301.906 44.6535L301.972 44.6371L305.623 36.3657C302.773 31.0394 302.618 24.7043 305.213 18.9201C307.864 13.0079 312.852 8.8566 318.897 7.53124C324.779 6.02856 331.011 7.4185 335.99 11.3491C340.966 15.277 343.765 21.0108 343.668 27.0808C343.77 32.4918 341.431 37.8298 337.252 41.7259C333.461 45.26 328.596 47.211 323.693 47.211ZM312.672 43.3503C315.134 44.9928 318.006 46.0789 320.925 46.4758C318.088 46.0212 315.318 44.9118 312.94 43.2778L312.672 43.3503ZM312.264 42.1065L312.367 42.187C315.163 44.365 318.638 45.7502 322.151 46.0868C327.371 46.6664 332.686 44.9023 336.743 41.2459C340.836 37.5551 343.163 32.3939 343.126 27.084V27.0782C343.165 21.1607 340.4 15.6374 335.538 11.9255C330.743 8.26326 324.777 7.06229 319.172 8.63324C313.543 10.0359 308.955 14.0125 306.577 19.5463C304.2 25.0774 304.472 31.1395 307.324 36.1778L307.391 36.298L303.827 44.1697C306.417 43.5224 309.031 42.8893 311.572 42.2743L312.264 42.1065ZM302.333 45.1616L302.15 45.5755L302.559 45.4702L302.586 45.4633L302.333 45.1616ZM303.542 44.7996L303.328 45.2717C306.033 44.5709 308.762 43.8389 311.416 43.1259L311.151 42.9338C308.648 43.5398 306.081 44.1628 303.542 44.7996ZM306.003 36.8464L302.639 44.4682C302.812 44.4243 302.983 44.3809 303.156 44.3375L306.784 36.3239C306.603 35.999 306.432 35.6697 306.272 35.3368L306.301 36.1059C306.301 36.1059 306.31 36.3758 306.316 36.4997L306.511 36.8474H306.048L306.003 36.8464ZM311.663 42.8099L312.518 42.9793C312.39 42.8862 312.263 42.7914 312.138 42.6951L311.699 42.8009L311.663 42.8099ZM321.175 7.64187C320.454 7.73767 319.736 7.87635 319.022 8.05843C313.137 9.34886 308.288 13.3879 305.707 19.1419C303.244 24.6344 303.325 30.6335 305.904 35.7306L306.172 35.124C303.888 30.2196 303.839 24.545 306.079 19.3319C308.524 13.6415 313.246 9.55104 319.034 8.10924C319.743 7.91075 320.457 7.75514 321.175 7.64187Z" fill="#263238"/>
<path d="M320.616 38.7463L311.83 29.8529L314.782 26.937L319.914 32.1315L330.577 15.4158L334.075 17.647L320.616 38.7463Z" fill="#DF0031"/>
<path d="M431.069 165.603L495.245 135.422L489.305 206.093L431.069 165.603Z" fill="#DF0031"/>
<path d="M476.885 185.191L374.011 326.095L214.111 283.594L46.7552 427.983V393.188L207.479 254.694L363.408 296.134L455.716 169.73L476.885 185.191Z" fill="#DF0031"/>
<path d="M471.081 328.859H375.798V504.268H471.081V328.859Z" fill="#455A64"/>
<path d="M471.077 504.271H495.245V328.907H471.077V504.271Z" fill="#DF0031"/>
<path d="M471.077 504.271H495.245V328.907H471.077V504.271Z" fill="#37474F"/>
<path d="M142.039 393.197H46.7552V504.284H142.039V393.197Z" fill="#455A64"/>
<path d="M142.034 504.286H166.202V393.227H142.034V504.286Z" fill="#DF0031"/>
<path d="M142.034 504.286H166.202V393.227H142.034V504.286Z" fill="#37474F"/>
<path d="M271.802 54.1622C271.258 54.3501 270.749 54.6349 270.313 55.02C268.346 56.7626 267.988 59.5511 268.15 62.0184C268.332 64.6574 269.136 67.4384 268.427 70.0532C268.151 71.0764 267.618 72.0637 266.721 72.6528C265.707 73.3181 264.496 73.2245 263.379 72.9216C262.201 72.6089 260.872 71.9762 259.65 72.4625C258.636 72.8598 258.036 73.914 257.786 74.9291C257.143 77.5632 258.844 80.1573 259.258 82.7061C259.707 85.4309 259.31 88.2473 258.137 90.7503C257.044 93.0874 255.223 95.0542 253.033 96.4006C251.965 97.0583 250.788 97.5813 249.581 97.9065C248.223 98.2662 246.81 98.3263 245.437 98.6267C244.164 98.909 242.785 99.4754 242.114 100.667C241.592 101.587 241.745 105.481 244.778 109.163C244.995 109.427 244.505 109.8 244.189 109.613C243.575 109.261 242.986 108.875 242.424 108.451C237.727 104.942 234.924 99.2909 235.056 93.4172C235.13 90.2778 236.005 87.2304 237.536 84.501C238.387 82.9917 239.374 81.5302 239.964 79.8894C240.486 78.426 240.553 76.9008 240.355 75.3686C239.968 72.457 238.889 69.6745 239.01 66.6986C239.124 64.0436 239.975 61.4545 241.334 59.1792C244.19 54.4249 249.064 51.2613 254.5 50.3276C259.86 49.4108 272.102 54.0527 271.802 54.1622Z" fill="#263238"/>
<path d="M271.632 54.223C270.61 54.7175 269.618 55.3279 268.911 56.2345C268.274 57.0512 267.903 58.0443 267.738 59.0605C267.366 61.3477 267.952 63.5723 268.461 65.7863C268.94 67.8675 269.338 70.0952 268.51 72.142C268.159 73.0076 267.603 73.8405 266.833 74.3858C265.959 75.0045 264.924 75.1216 263.884 74.961C261.992 74.669 259.698 73.6972 258.026 75.1591C256.413 76.5706 256.864 79.127 257.175 80.9782C257.936 85.4959 259.593 91.2384 255.963 95.0114C254.126 96.9203 251.433 98.1278 248.948 98.9228C247.155 99.4966 244.88 100.208 244.122 102.125C244.094 102.196 244.208 102.225 244.236 102.155C245.068 100.139 247.473 99.8229 249.33 99.3126C251.509 98.7138 253.7 97.769 255.499 96.3828C257.352 94.9546 258.422 92.9319 258.776 90.6347C259.136 88.3003 258.807 85.9638 258.366 83.6647C258.139 82.4861 257.887 81.3121 257.696 80.1269C257.524 79.0599 257.39 77.925 257.7 76.8692C258.029 75.7435 258.937 75.0857 260.092 75.007C261.224 74.93 262.302 75.291 263.402 75.4899C264.385 75.6676 265.391 75.7097 266.33 75.3214C267.082 75.0106 267.72 74.4791 268.218 73.8407C269.36 72.3758 269.741 70.4897 269.594 68.6675C269.386 66.0833 268.326 63.6459 268.164 61.0573C268.082 59.7361 268.21 58.3435 268.832 57.1536C269.487 55.9036 270.62 55.2015 271.774 54.4685C271.93 54.3697 271.795 54.1439 271.632 54.223Z" fill="#263238"/>
<path d="M252.427 49.0707C246.936 49.9132 242.494 54.0887 240.585 59.1919C239.515 62.0537 239.253 65.1267 239.602 68.1484C239.929 70.9689 240.65 73.8054 240.36 76.6613C240.039 79.8217 238.044 82.2429 236.467 84.8705C235.19 86.9998 234.39 89.355 234.117 91.8248C233.595 96.5613 235.009 101.49 238.018 105.19C238.401 105.662 238.803 106.115 239.231 106.546C239.285 106.6 239.368 106.517 239.315 106.462C235.97 103.027 234.395 98.1099 234.647 93.3634C234.771 91.027 235.346 88.7179 236.391 86.6222C237.683 84.0326 239.724 81.8546 240.673 79.0882C241.562 76.4952 241.202 73.7054 240.779 71.0607C240.318 68.172 239.88 65.3195 240.405 62.403C241.38 56.9896 245.053 52.152 250.322 50.305C256.198 48.2449 262.358 50.2638 267.74 52.7767C268.459 53.1128 269.177 53.4532 269.893 53.7972C269.974 53.8363 270.046 53.7177 269.964 53.6746C264.616 50.8476 258.634 48.1186 252.427 49.0707Z" fill="#263238"/>
<path d="M273.558 51.4254C272.839 50.8205 271.471 50.599 270.961 50.971C270.451 51.3428 269.165 56.0764 269.83 57.0983C270.495 58.1202 272.541 57.1852 272.541 57.1852L273.558 51.4254Z" fill="#DF0031"/>
<path d="M268.251 382.792C267.016 382.98 250.372 386.077 233.11 382.921C216.869 379.951 198.896 375.558 197.835 374.589C196.99 373.843 212.256 311.566 212.256 311.566L254.513 319.916L243.897 360.555L243.756 361.262C243.756 361.262 247.071 363.907 254.156 368.389C255.421 369.189 268.508 372.958 269.428 373.995C271.586 376.437 270.646 382.436 268.251 382.792Z" fill="#D3766A"/>
<path d="M268.256 382.789C267.022 382.976 250.38 386.075 233.117 382.928C216.865 379.954 198.889 375.566 197.838 374.581C197.572 374.355 198.84 368.288 200.717 360.008C211.097 363.791 243.138 373.712 247.881 374.279C253.347 374.955 261.606 375.734 260.963 373.646C260.413 371.825 255.616 369.157 254.422 368.53C256.67 369.536 268.563 373.008 269.424 374.002C271.581 376.43 270.645 382.434 268.256 382.789Z" fill="#263238"/>
<path d="M282.63 122.646C282.63 122.646 285.693 151.936 279.575 158.524C279.575 158.524 272.954 233.48 270.817 253.141C267.784 281.034 250.678 351.586 250.678 351.586L204.458 339.811C204.458 339.811 224.792 252.294 224.982 250.622C225.612 245.087 233.449 163.96 232.894 162.329C225.72 141.277 235.854 122.079 235.854 122.079L282.63 122.646Z" fill="#263238"/>
<path d="M246.93 339.936C240.873 338.183 242.642 338.574 236.561 336.91C233.585 336.096 214.024 330.771 211.077 330.651C211.012 330.649 210.976 330.785 211.034 330.814C213.666 332.146 233.344 337.023 236.34 337.761C242.461 339.271 240.726 338.75 246.869 340.169C246.985 340.196 247.043 339.969 246.93 339.936Z" fill="#37474F"/>
<path d="M232.042 330.652C237.492 306.025 243.67 281.484 247.666 256.575C248.614 238.583 250.064 220.57 251.593 202.622C252.833 188.606 253.968 172.852 255.415 159.71C252.205 154.775 251.55 148.696 251.876 142.959C252.224 137.214 253.433 131.535 255.282 126.095C253.566 131.558 252.491 137.256 252.278 142.977C252.109 148.635 252.815 154.658 256.055 159.425C254.897 173.861 251.976 210.335 250.901 224.284C250.166 234.103 249.212 244.089 248.852 253.938C247.75 265.66 244.633 277.071 242.204 288.56C239.015 302.639 235.558 316.654 232.042 330.652Z" fill="#37474F"/>
<path d="M273.319 227.592L235.847 122.077L282.624 122.652C282.624 122.652 285.697 151.929 279.581 158.53C279.581 158.53 276.371 200.339 273.319 227.592Z" fill="#37474F"/>
<path d="M375.474 329.195C373.18 329.918 307.943 328.616 305.493 326.987C304.551 326.385 306.012 271.587 306.012 271.587L347.003 270.81L346.143 306.08C346.143 306.08 370.891 317.747 373.399 319.821C375.885 321.888 377.769 328.483 375.474 329.195Z" fill="#D3766A"/>
<path d="M375.477 329.195C374.467 329.513 361.311 329.438 346.662 329.122C345.7 329.097 344.727 329.074 343.754 329.05C341.254 329.001 338.731 328.93 336.23 328.858C335.256 328.823 334.282 328.788 333.32 328.764L333.275 328.767C332.313 328.731 331.351 328.696 330.411 328.67C328.951 328.629 327.525 328.575 326.132 328.519C325.226 328.48 324.331 328.441 323.459 328.412L323.425 328.413C322.553 328.373 321.692 328.331 320.866 328.3L320.832 328.302C319.575 328.249 318.374 328.193 317.229 328.123C316.458 328.088 315.699 328.052 314.973 328.003C313.557 327.926 312.264 327.841 311.117 327.748C310.539 327.714 309.994 327.666 309.494 327.615C308.245 327.506 307.244 327.393 306.56 327.274C306.001 327.182 305.633 327.078 305.492 326.985C305.164 326.777 305.348 319.26 305.348 310.552C311.628 312.103 323.753 314.554 341.344 317.302C370.266 321.821 361.726 313.925 356.837 311.22C356.79 311.189 356.744 311.169 356.697 311.138C356.999 311.279 357.313 311.431 357.615 311.583C357.661 311.603 357.719 311.622 357.766 311.654C358.324 311.927 358.882 312.2 359.44 312.473C360.044 312.766 360.66 313.07 361.265 313.375C362.276 313.871 363.287 314.366 364.254 314.865C365.23 315.34 366.161 315.818 367.046 316.276C367.57 316.551 368.082 316.816 368.571 317.059C368.815 317.181 369.049 317.314 369.281 317.437C369.596 317.6 369.91 317.762 370.202 317.927C370.854 318.273 371.426 318.591 371.917 318.879C372.034 318.941 372.15 319.002 372.256 319.075C372.782 319.384 373.17 319.644 373.395 319.823C375.885 321.884 377.764 328.477 375.477 329.195Z" fill="#263238"/>
<path d="M348.217 297.341L304.287 296.641C304.287 296.641 307.048 205.605 306.012 201.995C305.608 200.585 268.3 180.875 247.281 165.063C230.583 152.501 235.854 122.079 235.854 122.079L282.63 122.646C282.63 122.646 282.314 125.944 284.473 128.946C287.997 133.845 341.927 169.32 347.243 183.891C353.916 202.179 348.217 297.341 348.217 297.341Z" fill="#263238"/>
<path d="M235.787 138.201C235.894 143.615 235.932 149.244 238.385 154.179C243.27 164.09 253.648 169.607 262.462 175.613C267.084 178.563 271.774 181.411 276.489 184.229C271.572 181.778 266.763 179.112 262.042 176.292C252.91 170.488 242.357 164.807 237.583 154.545C235.271 149.401 235.398 143.684 235.787 138.201Z" fill="#37474F"/>
<path d="M275.22 126.095C275.762 129.902 276.221 133.825 277.594 137.428C279.367 140.853 282.481 143.4 285.267 145.998C296.919 156.213 309.596 165.182 321.652 174.921C324.677 177.351 327.68 179.813 330.577 182.415C333.045 184.79 335.893 187.062 337.333 190.27C338.374 194.593 338.303 199.06 338.498 203.428C338.936 230.566 337.526 257.696 336.069 284.784C336.86 261.55 337.587 238.31 337.648 215.065C337.567 207.382 337.72 199.54 336.659 191.945C336.038 188.291 332.342 185.744 329.857 183.21C321.208 175.465 311.855 168.545 302.777 161.301C296.724 156.459 290.639 151.637 284.932 146.366C282.181 143.658 279.137 141.036 277.422 137.503C276.093 133.837 275.706 129.937 275.22 126.095Z" fill="#37474F"/>
<path d="M344.941 287.379C338.937 287.134 340.663 287.088 334.657 286.935C331.718 286.861 312.402 286.395 309.648 286.988C309.587 287.001 309.585 287.142 309.646 287.156C312.385 287.816 331.706 287.818 334.646 287.815C340.655 287.808 338.93 287.72 344.938 287.62C345.051 287.618 345.054 287.384 344.941 287.379Z" fill="#37474F"/>
<path d="M287.525 128.911L234.716 125.154C234.716 125.154 249.18 83.4665 262.401 72.5227C268.418 67.5428 273.482 69.0682 277.402 73.267C278.379 74.316 289.743 93.264 290.126 99.4107C290.463 104.843 285.402 110.178 285.402 110.178L287.525 128.911Z" fill="#EBEBEB"/>
<path d="M275.765 84.1445L278.152 80.3933L281.082 83.8646L280.433 87.1354L277.114 87.075L275.765 84.1445Z" fill="#263238"/>
<path d="M277.114 87.0747L275.765 115.72L284.641 127.061L285.515 113.137L280.433 87.1351L277.114 87.0747Z" fill="#263238"/>
<path d="M277.297 73.0578C277.297 73.0578 283.831 88.806 283.761 93.0867C283.685 97.6821 282.743 111.164 282.743 111.164C282.743 111.164 273.069 94.9456 271.584 89.5277C269.278 81.1124 269.62 69.4012 269.62 69.4012C269.62 69.4012 265.777 68.0487 258.269 76.3894C251.608 83.7905 238.744 109.832 233.169 126.095L282.04 135.422L284.942 128.518L286.819 133.802L289.508 129.967L285.402 110.178C285.402 110.178 291.317 105.676 290.176 98.1564C288.936 89.9786 277.297 73.0578 277.297 73.0578Z" fill="#DF0031"/>
<path d="M282.743 111.164L287.995 94.6351L284.627 89.3423L288.168 89.1064C288.168 89.1064 278.094 74.2959 277.297 73.0579C277.441 73.6788 283.917 89.1053 283.761 93.087C283.602 97.0258 282.939 110.364 282.743 111.164Z" fill="#DF0031"/>
<path opacity="0.2" d="M282.743 111.164L287.995 94.6351L284.627 89.3423L288.168 89.1064C288.168 89.1064 278.094 74.2959 277.297 73.0579C277.441 73.6788 283.917 89.1053 283.761 93.087C283.602 97.0258 282.939 110.364 282.743 111.164Z" fill="black"/>
<path d="M270.045 88.6929L267.561 94.5289L282.722 111.188C282.521 110.672 273.044 94.8593 271.582 89.526C269.275 81.1156 269.62 69.4014 269.62 69.4014L266.192 87.056L270.045 88.6929Z" fill="#DF0031"/>
<path opacity="0.2" d="M270.045 88.6929L267.561 94.5289L282.722 111.188C282.521 110.672 273.044 94.8593 271.582 89.526C269.275 81.1156 269.62 69.4014 269.62 69.4014L266.192 87.056L270.045 88.6929Z" fill="black"/>
<path d="M282.743 111.164C284.022 116.864 284.764 122.679 284.942 128.518C283.658 122.819 282.925 117.003 282.743 111.164Z" fill="#263238"/>
<path d="M279.326 117.114C279.424 118.308 281.109 118.121 281.029 117.029C280.998 115.938 279.306 115.917 279.326 117.114ZM279.326 117.114C279.234 115.5 281.709 115.267 281.84 116.989C281.877 118.713 279.393 118.726 279.326 117.114Z" fill="#263238"/>
<path d="M279.981 123.685C280.08 124.88 281.764 124.693 281.684 123.601C281.653 122.51 279.962 122.489 279.981 123.685ZM279.981 123.685C279.889 122.072 282.365 121.838 282.495 123.561C282.533 125.285 280.048 125.298 279.981 123.685Z" fill="#263238"/>
<path opacity="0.1" d="M265.183 118.102L251.506 113.778L250.831 115.529L264.619 119.89L265.183 118.102Z" fill="black"/>
<g opacity="0.1">
<path d="M283.993 109.665C282.193 110.096 280.394 110.614 278.672 111.412C277.816 111.808 276.98 112.258 276.148 112.735C275.733 112.972 275.315 113.189 274.893 113.404C274.46 113.624 273.993 113.836 273.527 113.9C273.484 113.906 273.493 113.993 273.536 113.991C273.993 113.966 274.431 113.939 274.88 113.829C275.307 113.726 275.725 113.557 276.135 113.374C277.007 112.983 277.863 112.536 278.732 112.132C280.484 111.318 282.236 110.506 284.035 109.871C284.117 109.842 284.078 109.645 283.993 109.665Z" fill="black"/>
<path d="M285.379 111.067C284.61 110.939 283.834 110.906 283.08 111.011C282.701 111.064 282.331 111.176 281.961 111.316C281.785 111.382 281.609 111.458 281.435 111.539C281.243 111.629 281.06 111.791 280.867 111.873C280.847 111.881 280.854 111.969 280.875 111.962C281.059 111.9 281.254 111.922 281.441 111.89C281.629 111.858 281.816 111.822 282.004 111.789C282.381 111.724 282.758 111.67 283.134 111.595C283.886 111.445 284.636 111.316 285.394 111.237C285.435 111.233 285.419 111.074 285.379 111.067Z" fill="black"/>
</g>
<path d="M269.62 71.3178C269.674 72.3702 273.313 79.7908 277.967 80.4052C279.483 80.6024 280.93 72.3766 280.93 72.3766L281.176 71.7937L284.608 63.6327L275.773 55.4254L274.483 54.3171C274.483 54.3171 273.691 56.6118 272.733 59.479C272.688 59.6122 272.643 59.7447 272.597 59.8873C272.538 60.0481 272.481 60.1993 272.434 60.3517C272.285 60.7781 272.136 61.2143 271.995 61.652C271.887 61.9843 271.781 62.3072 271.68 62.6607C271.57 63.0126 271.47 63.3562 271.36 63.7082C270.349 67.2005 269.603 70.8721 269.62 71.3178Z" fill="#D3766A"/>
<path d="M272.733 59.479C273.951 66.6854 278.861 70.4176 281.176 71.7937L284.608 63.6327L275.773 55.4254L274.483 54.3171C274.483 54.3171 273.691 56.6118 272.733 59.479Z" fill="#263238"/>
<path d="M297.555 50.2638C300.447 65.5304 291.63 68.9866 288.337 69.6066C285.348 70.1693 275.098 71.7056 270.644 56.8197C266.19 41.9335 272.374 35.7627 279.142 34.1138C285.911 32.4647 294.663 34.9967 297.555 50.2638Z" fill="#D3766A"/>
<path d="M295.018 47.424C294.652 47.45 294.309 47.4127 293.944 47.4006C293.532 47.3873 293.203 47.4188 292.854 47.1678C292.667 47.0332 292.616 46.6979 292.73 46.504C292.995 46.0518 293.503 45.9428 294 45.9388C294.538 45.9347 294.954 46.0693 295.374 46.4055C295.781 46.7316 295.501 47.39 295.018 47.424Z" fill="#263238"/>
<path d="M285.101 50.978C285.466 50.9378 285.796 50.8398 286.153 50.7627C286.556 50.6758 286.886 50.6479 287.184 50.3386C287.345 50.1731 287.334 49.834 287.187 49.6637C286.846 49.2657 286.327 49.2496 285.837 49.3345C285.307 49.4267 284.921 49.6336 284.568 50.0393C284.227 50.4326 284.619 51.0307 285.101 50.978Z" fill="#263238"/>
<path d="M287.801 52.3731C287.786 52.3346 287.727 52.4357 287.735 52.4787C287.938 53.5181 287.994 54.7429 287.105 55.243C287.077 55.2584 287.088 55.3106 287.123 55.2999C288.25 54.9509 288.159 53.3258 287.801 52.3731Z" fill="#263238"/>
<path d="M286.691 51.4326C284.99 51.5763 285.403 54.9693 286.979 54.8356C288.531 54.7043 288.117 51.3115 286.691 51.4326Z" fill="#263238"/>
<path d="M286.047 51.6931C285.774 51.9211 285.525 52.2955 285.172 52.374C284.764 52.4653 284.408 52.1482 284.097 51.8396C284.064 51.8075 284.039 51.8408 284.043 51.8857C284.113 52.5371 284.444 53.1735 285.153 53.1853C285.799 53.1963 286.186 52.565 286.268 51.8919C286.284 51.7672 286.157 51.6012 286.047 51.6931Z" fill="#263238"/>
<path d="M293.639 51.3977C293.641 51.3566 293.729 51.4337 293.735 51.4768C293.873 52.5267 294.208 53.7065 295.21 53.8984C295.241 53.9043 295.247 53.9573 295.211 53.9581C294.031 53.9852 293.602 52.4148 293.639 51.3977Z" fill="#263238"/>
<path d="M294.393 50.1535C296.053 49.7504 296.737 53.0991 295.2 53.4726C293.686 53.8399 293.002 50.4912 294.393 50.1535Z" fill="#263238"/>
<path d="M295.137 50.2312C295.437 50.3545 295.765 50.6235 296.086 50.5798C296.457 50.5291 296.654 50.1113 296.817 49.7164C296.834 49.6753 296.866 49.6979 296.876 49.7424C297.024 50.3786 296.949 51.0884 296.359 51.3368C295.821 51.5637 295.297 51.0985 295.014 50.4923C294.962 50.3799 295.015 50.1813 295.137 50.2312Z" fill="#263238"/>
<path d="M288.653 60.715C288.905 60.9639 289.157 61.306 289.541 61.3397C289.909 61.3719 290.342 61.2068 290.68 61.0773C290.713 61.0644 290.747 61.1 290.726 61.1316C290.45 61.537 289.87 61.7894 289.38 61.702C288.901 61.6165 288.665 61.2014 288.551 60.7626C288.534 60.7011 288.616 60.6786 288.653 60.715Z" fill="#263238"/>
<path d="M292.868 56.656C292.868 56.656 293.17 58.2232 293.211 58.9683C293.214 59.0378 293.036 59.0807 292.784 59.109C292.772 59.1135 292.765 59.1187 292.755 59.1114C291.45 59.3871 290.102 59.0044 289.245 57.9736C289.189 57.9035 289.28 57.8219 289.35 57.8645C290.371 58.5329 291.466 58.6606 292.633 58.6172C292.675 58.4082 292.024 55.9506 292.142 55.9352C292.547 55.8785 293.364 56.1124 293.854 56.2275C293.317 52.9444 292.259 49.7742 291.774 46.4972C291.759 46.38 291.926 46.3358 291.966 46.4389C293.31 49.6831 294.01 53.4475 294.652 56.8236C294.736 57.2437 293.172 56.7668 292.868 56.656Z" fill="#263238"/>
<path d="M271.192 57.7017C273.784 57.5417 273.622 52.0825 273.622 52.0825C273.622 52.0825 278.836 51.3702 279.508 43.636C279.508 43.636 279.883 47.1402 278.067 50.1549C278.067 50.1549 287.119 47.8975 289.914 39.6671C289.914 39.6671 288.918 43.7996 287.665 45.3946C287.665 45.3946 291.369 43.7812 292.811 40.3892C292.811 40.3892 295.17 44.7186 296.58 45.7714C296.58 45.7714 296.942 27.0905 279.169 33.4213C279.169 33.4213 269.775 33.9295 267.457 41.7798C265.139 49.6301 271.192 57.7017 271.192 57.7017Z" fill="#263238"/>
<path d="M274.628 55.563C274.628 55.563 270.987 50.8979 268.853 52.2216C266.719 53.5451 269.635 60.4316 272.266 61.2562C274.896 62.0807 275.707 59.6605 275.707 59.6605L274.628 55.563Z" fill="#D3766A"/>
<path d="M269.738 54.1746C269.696 54.1732 269.691 54.2317 269.728 54.2446C271.575 54.8822 272.616 56.5093 273.375 58.2137C272.801 57.5725 272.05 57.2443 271.186 57.9317C271.141 57.9678 271.19 58.0393 271.241 58.0259C271.973 57.8282 272.515 57.9284 273.046 58.4956C273.423 58.897 273.693 59.4158 273.973 59.8877C274.066 60.045 274.353 59.9429 274.282 59.7599L274.265 59.7188C274.189 57.4097 272.226 54.2766 269.738 54.1746Z" fill="#263238"/>
<path d="M274.745 61.7191C274.745 62.4391 274.162 63.0229 273.442 63.0229C272.722 63.0229 272.138 62.4391 272.138 61.7191C272.138 60.9992 272.722 60.4155 273.442 60.4155C274.162 60.4155 274.745 60.9992 274.745 61.7191Z" fill="#DF0031"/>
<path d="M281.208 71.931L277.928 78.7524L269.808 69.3066L267.152 71.9881C267.152 71.9881 274.735 86.6412 274.831 86.0085L278.12 80.1595L282.01 84.639L282.372 74.0658L281.208 71.931Z" fill="#EBEBEB"/>
<path d="M282.484 79.4227C282.486 77.6752 282.536 75.9151 282.456 74.1693C282.454 74.1071 282.359 74.0733 282.339 74.145C281.879 75.802 281.909 82.4859 281.796 84.08L281.779 84.0605C281.617 83.8672 278.16 80.106 278.12 80.1595C277.43 81.077 275.018 85.3351 274.846 85.7257C273.648 83.3986 269.025 74.9206 267.571 72.6991C267.529 72.6352 267.432 72.679 267.463 72.7527C268.496 75.1945 274.601 86.6026 274.708 86.5789C274.776 86.6391 277.769 81.3957 278.152 80.3933C278.726 81.2009 282.187 85.4159 282.217 85.1579C282.419 83.4179 282.483 81.1725 282.484 79.4227Z" fill="#263238"/>
<path d="M322.755 129.37L307.444 157.674C307.021 158.456 306.054 158.753 305.286 158.337L291.536 150.899C290.769 150.484 290.489 149.513 290.913 148.73L306.224 120.427C306.647 119.644 307.613 119.347 308.381 119.763L322.13 127.201C322.898 127.616 323.179 128.587 322.755 129.37Z" fill="#37474F"/>
<path d="M308.644 122.969C308.413 123.397 307.879 123.556 307.451 123.324C307.023 123.093 306.864 122.559 307.096 122.131C307.327 121.704 307.861 121.545 308.289 121.776C308.716 122.007 308.875 122.541 308.644 122.969Z" fill="#263238"/>
<path d="M307.452 125.172C307.221 125.6 306.686 125.759 306.259 125.528C305.831 125.296 305.672 124.762 305.904 124.335C306.135 123.907 306.669 123.748 307.097 123.979C307.524 124.211 307.683 124.745 307.452 125.172Z" fill="#263238"/>
<path d="M311.434 134.448C310.947 135.35 309.82 135.686 308.918 135.198C308.016 134.71 307.681 133.583 308.169 132.681C308.656 131.78 309.783 131.444 310.685 131.932C311.587 132.42 311.922 133.546 311.434 134.448Z" fill="#263238"/>
<path d="M236.038 207.471L285.693 213.237C299.114 214.796 298.206 203.811 296.296 192.17C294.385 180.529 291.599 162.901 279.606 161.508C267.625 160.117 266.717 160.011 266.717 160.011C266.717 160.011 265.798 159.904 253.817 158.513C241.823 157.121 235.073 173.642 230.545 184.536C226.018 195.429 222.617 205.913 236.038 207.471Z" fill="#455A64"/>
<path d="M275.632 167.053C275.368 169.325 276.996 171.382 279.269 171.645C281.542 171.909 283.598 170.281 283.862 168.008C284.126 165.736 282.497 163.68 280.225 163.416C277.952 163.152 275.896 164.78 275.632 167.053Z" fill="#DF0031"/>
<path d="M248.188 163.866C247.924 166.139 249.552 168.195 251.825 168.459C254.097 168.723 256.154 167.094 256.417 164.822C256.681 162.549 255.053 160.493 252.78 160.229C250.508 159.965 248.452 161.594 248.188 163.866Z" fill="#DF0031"/>
<path d="M276.959 167.207C276.78 168.747 277.883 170.14 279.423 170.318C280.963 170.497 282.356 169.394 282.535 167.854C282.713 166.315 281.61 164.922 280.071 164.743C278.531 164.564 277.138 165.667 276.959 167.207Z" fill="#263238"/>
<path d="M249.515 164.02C249.336 165.56 250.439 166.953 251.979 167.132C253.519 167.311 254.912 166.207 255.091 164.668C255.269 163.128 254.166 161.735 252.626 161.556C251.087 161.377 249.693 162.481 249.515 164.02Z" fill="#263238"/>
<path d="M280.299 169.191C280.178 169.197 280.053 169.19 279.928 169.168C279.011 169.01 278.396 168.138 278.554 167.221C280.46 156.186 284.004 126.079 277.593 119.377C276.714 118.458 275.709 118.101 274.444 118.266C273.508 118.377 272.677 117.729 272.56 116.807C272.442 115.884 273.096 115.04 274.018 114.923C276.342 114.63 278.417 115.362 280.029 117.048C283.853 121.046 285.306 130.875 284.347 146.26C283.65 157.448 281.893 167.693 281.876 167.795C281.739 168.587 281.07 169.153 280.299 169.191Z" fill="#455A64"/>
<path d="M258.528 79.985C247.732 102.504 241.652 122.868 245.669 129.369C251.072 138.115 271.291 151.075 281.343 154.224C284.893 155.336 298.732 131.687 295.161 129.935C290.845 127.818 268.344 117.221 267.994 116.888C267.245 116.176 267.665 91.2182 268.011 84.3605C268.588 72.909 263.32 69.9907 258.528 79.985Z" fill="#D3766A"/>
<path d="M317.706 148.361C317.006 151.236 313.949 151.438 313.949 151.438C313.949 151.438 314.756 153.658 313.824 155.728C312.756 158.097 308.571 157.462 308.571 157.462C308.571 157.462 308.923 159.879 307.718 161.966C306.467 164.131 302.154 164.092 302.154 164.092C302.154 164.092 301.244 166.523 298.909 167.579C294.917 169.386 289.345 165.677 285.78 163.356C282.214 161.035 274.275 151.11 272.57 149.373L287.273 126.36C287.273 126.36 306.223 132.221 310.028 135.546C313.233 138.347 318.491 145.133 317.706 148.361Z" fill="#D3766A"/>
<path d="M314.026 150.967C311.333 147.171 307.664 144.379 304.161 141.383C304.083 141.317 303.979 141.44 304.058 141.506C307.578 144.444 310.468 148.043 313.863 151.116C313.957 151.2 314.099 151.069 314.026 150.967Z" fill="#263238"/>
<path d="M308.69 157.114C308.055 156.274 307.144 155.645 306.318 155.007C305.428 154.32 304.526 153.649 303.614 152.991C301.787 151.675 299.931 150.401 298.039 149.182C297.955 149.127 297.851 149.242 297.936 149.304C299.754 150.619 301.552 151.961 303.313 153.351C304.194 154.047 305.069 154.75 305.94 155.459C306.749 156.119 307.549 156.882 308.491 157.349C308.63 157.418 308.786 157.241 308.69 157.114Z" fill="#263238"/>
<path d="M302.078 164.034C301.556 163.282 300.586 162.764 299.842 162.251C298.997 161.669 298.156 161.082 297.318 160.49C295.642 159.307 293.967 158.123 292.333 156.882C292.252 156.821 292.149 156.942 292.231 157.005C293.884 158.274 295.52 159.565 297.185 160.82C298.002 161.436 298.823 162.048 299.647 162.655C300.347 163.171 301.165 163.896 302.023 164.121C302.07 164.133 302.105 164.072 302.078 164.034Z" fill="#263238"/>
<path d="M279.507 121.91L262.961 147.224C262.961 147.224 246.237 134.252 244.646 127.54C243.054 120.829 248.087 98.9852 255.99 83.5032C263.893 68.021 269.331 70.9187 268.609 88.5674C267.886 106.216 268.415 115.932 268.815 116.203C269.215 116.473 279.507 121.91 279.507 121.91Z" fill="#DF0031"/>
<path d="M272.866 120.009C272.913 119.927 272.781 119.844 272.724 119.92C267.58 126.783 262.911 134.037 258.548 141.417C258.499 141.498 258.633 141.583 258.689 141.506C263.755 134.59 268.582 127.439 272.866 120.009Z" fill="#263238"/>
<path d="M279.507 121.91C276.741 120.53 271.333 117.778 268.594 116.347C267.983 106.363 267.686 96.2933 268.88 86.3425C268.266 96.2794 268.57 106.252 269.043 116.188L268.923 116.001C271.573 117.445 276.885 120.415 279.507 121.91Z" fill="#263238"/>
<path d="M255.202 83.9314C252.707 90.8183 250.262 98.1042 248.16 105.113C247.076 108.669 246.096 112.257 245.275 115.879C244.621 119.458 243.483 123.266 244.508 126.866C241.708 118.359 251.523 92.8334 255.202 83.9314Z" fill="#263238"/>
<path d="M254.028 84.72C253.626 86.2037 253.345 87.6677 253.074 89.1825C252.977 87.6531 253.28 86.0643 254.028 84.72Z" fill="#263238"/>
<path d="M252.38 165.888C252.271 165.893 252.16 165.888 252.047 165.871C251.127 165.734 250.492 164.876 250.629 163.956C250.646 163.84 252.394 152.274 255.985 140.625C260.967 124.458 267.035 115.811 274.019 114.923C274.944 114.805 275.785 115.459 275.903 116.382C276.021 117.305 275.367 118.149 274.444 118.266C263.088 119.711 255.809 152.097 253.962 164.453C253.842 165.262 253.166 165.849 252.38 165.888Z" fill="#455A64"/>
<path d="M273.48 461.497C273.448 463.22 273.415 465.431 273.361 468.109V468.131C273.361 468.369 273.35 468.618 273.35 468.868C273.209 476.076 273.003 486.396 272.689 499.057C272.678 499.437 272.667 499.816 272.656 500.195C272.624 501.529 272.592 502.884 272.548 504.271H155.66C154.555 490.851 153.623 479.35 152.885 470.418C152.463 465.215 152.094 460.879 151.79 457.54V457.518C151.498 454.353 151.27 452.077 151.097 450.808C148.972 434.928 273.903 438.115 273.48 461.497Z" fill="#F7A9A0"/>
<path d="M151.85 457.797C147.938 438.943 146.865 405.184 159.637 389.54C166.87 380.68 195.97 367.012 216.434 351.007C253.205 322.246 263.993 325.108 266.261 333.605C269.744 346.656 242.319 378.076 242.319 378.076C242.319 378.076 324.908 350.665 347.671 335.055C364.59 323.454 380.299 329.496 367.248 348.699C367.248 348.699 356.16 341.101 359.756 338.439C380.541 323.053 397.399 332.812 391.9 342.789C379.912 364.541 346.444 385.929 334.029 393.786C305.767 411.671 286.085 428.046 284.349 430.764C276.625 442.855 270.917 482.593 270.917 482.593L151.85 457.797Z" fill="#F7A9A0"/>
<path d="M370.301 332.432C373.606 340.662 366.857 350.252 361.726 356.308C350.106 369.584 334.653 378.44 319.805 387.447C312.355 391.899 304.839 396.245 297.147 400.311C311.011 389.88 325.715 380.628 340.034 370.896C350.395 363.54 373.398 346.739 370.301 332.432Z" fill="#263238"/>
<path d="M242.319 378.076C240.343 382.268 237.623 385.871 235.241 389.719C234.29 391.745 232.846 393.535 231.465 395.122C226.904 400.199 221.769 404.58 216.059 408.288C220.191 403.024 224.802 398.161 229.031 393.056C230.236 391.564 231.397 390.159 232.22 388.562C232.391 388.235 232.649 387.807 232.836 387.556C235.535 383.942 238.684 380.803 242.319 378.076Z" fill="#263238"/>
<path d="M289.699 472.618C289.337 476.347 288.317 486.938 286.572 504.271H144.806C143.775 488.336 143.106 477.084 142.835 472.618H289.699Z" fill="#DF0031"/>
<path d="M43.328 504.273C189.189 503.609 352.812 503.604 498.672 504.273C352.811 504.942 189.188 504.937 43.328 504.273Z" fill="#263238"/>
</svg>
