<svg width="25" height="25" viewBox="0 0 25 25" fill="none" xmlns="http://www.w3.org/2000/svg">
<g clip-path="url(#clip0_139_6958)">
<path d="M23.4648 17.6562C23.4008 17.6055 18.75 14.2531 17.4734 14.4937C16.8641 14.6016 16.5156 15.0172 15.8164 15.8492C15.7039 15.9836 15.4336 16.3055 15.2234 16.5344C14.7816 16.3903 14.3505 16.2148 13.9336 16.0094C11.7817 14.9617 10.043 13.223 8.99531 11.0711C8.78974 10.6542 8.61429 10.2232 8.47031 9.78125C8.7 9.57031 9.02188 9.3 9.15938 9.18437C9.9875 8.48906 10.4039 8.14062 10.5117 7.52969C10.7328 6.26406 7.38281 1.58125 7.34766 1.53906C7.19566 1.32193 6.9973 1.1413 6.76693 1.01024C6.53656 0.879175 6.27994 0.800959 6.01562 0.78125C4.65781 0.78125 0.78125 5.81016 0.78125 6.65703C0.78125 6.70625 0.852344 11.7094 7.02187 17.9852C13.2914 24.1477 18.2938 24.2188 18.343 24.2188C19.1906 24.2188 24.2188 20.3422 24.2188 18.9844C24.1993 18.721 24.1215 18.4652 23.9911 18.2355C23.8608 18.0059 23.681 17.808 23.4648 17.6562Z" fill="#DF0031"/>
</g>
<defs>
<clipPath id="clip0_139_6958">
<rect width="25" height="25" fill="white"/>
</clipPath>
</defs>
</svg>
