<svg width="37" height="33" viewBox="0 0 37 33" fill="none" xmlns="http://www.w3.org/2000/svg">
<path d="M33.894 32.5119L34.5239 27.5663C32.629 26.8013 31.2303 25.8901 30.3279 24.8329C29.3985 23.7722 28.7152 22.4942 28.278 20.9987C27.844 19.4775 27.7583 17.6866 28.0207 15.6259C30.5722 15.9508 32.5407 15.4948 33.9264 14.2577C35.3122 13.0207 36.1051 11.6165 36.3052 10.0452C36.5382 8.21633 36.0636 6.58529 34.8815 5.15206C33.6995 3.71884 32.2087 2.88763 30.4093 2.65844C28.0996 2.36425 25.9892 3.07708 24.078 4.79692C22.1432 6.48756 20.9642 8.99435 20.541 12.3172C20.167 15.2538 20.4739 18.0938 21.4618 20.8373C22.453 23.555 23.9735 25.9738 26.0234 28.0933C28.0497 30.1838 30.6732 31.6567 33.894 32.5119ZM13.7111 29.9412L14.3411 24.9956C12.4462 24.2307 11.034 23.3177 10.1047 22.2571C9.17529 21.1964 8.49217 19.9184 8.05482 18.4229C7.62094 16.9017 7.53504 15.1107 7.79751 13.05C10.3489 13.375 12.3309 12.9207 13.7435 11.687C15.1292 10.45 15.9222 9.04583 16.1223 7.47454C16.3553 5.64566 15.8807 4.01459 14.6987 2.58139C13.5166 1.14815 12.0393 0.318655 10.2668 0.0928964C7.90324 -0.208148 5.76604 0.50127 3.8548 2.2211C1.92011 3.91175 0.741049 6.41853 0.317812 9.74143C-0.056211 12.6779 0.264184 15.5197 1.27881 18.2666C2.26999 20.9843 3.79069 23.4031 5.84055 25.5226C7.86675 27.6131 10.4904 29.086 13.7111 29.9412Z" fill="#DF0031"/>
</svg>
