<svg width="28" height="28" viewBox="0 0 28 28" fill="none" xmlns="http://www.w3.org/2000/svg">
<g clip-path="url(#clip0_114_75)">
<path d="M24.9813 9.767L14.4813 2.767C14.3374 2.67553 14.1705 2.62695 14 2.62695C13.8296 2.62695 13.6626 2.67553 13.5188 2.767L3.01879 9.767C2.89679 9.84615 2.79675 9.95481 2.72792 10.0829C2.65909 10.211 2.6237 10.3544 2.62504 10.4998V21.8748C2.62504 22.3389 2.80941 22.7841 3.1376 23.1123C3.46579 23.4404 3.91091 23.6248 4.37504 23.6248H23.625C24.0892 23.6248 24.5343 23.4404 24.8625 23.1123C25.1907 22.7841 25.375 22.3389 25.375 21.8748V10.4998C25.3764 10.3544 25.341 10.211 25.2722 10.0829C25.2033 9.95481 25.1033 9.84615 24.9813 9.767ZM10.5766 16.6248L4.37504 20.9998V12.1951L10.5766 16.6248ZM12.3703 17.4998H15.6297L21.8203 21.8748H6.17972L12.3703 17.4998ZM17.4235 16.6248L23.625 12.1951V20.9998L17.4235 16.6248Z" fill="#DF0031"/>
</g>
<defs>
<clipPath id="clip0_114_75">
<rect width="28" height="28" fill="white"/>
</clipPath>
</defs>
</svg>
