<svg width="179" height="155" viewBox="0 0 179 155" fill="none" xmlns="http://www.w3.org/2000/svg">
<g clip-path="url(#clip0_56_637)">
<path d="M190.988 140.306H-15.7092V140.41H190.988V140.306Z" fill="#EBEBEB"/>
<path d="M170.277 146.958H156.586V147.061H170.277V146.958Z" fill="#EBEBEB"/>
<path d="M121.215 148.082H117.623V148.186H121.215V148.082Z" fill="#EBEBEB"/>
<path d="M156.172 143.121H148.239V143.225H156.172V143.121Z" fill="#EBEBEB"/>
<path d="M23.8323 143.816H5.97778V143.919H23.8323V143.816Z" fill="#EBEBEB"/>
<path d="M30.1324 143.816H27.5156V143.919H30.1324V143.816Z" fill="#EBEBEB"/>
<path d="M77.367 145.561H38.6401V145.664H77.367V145.561Z" fill="#EBEBEB"/>
<path d="M82.2657 121.869H2.44327C1.81794 121.868 1.21861 121.619 0.776822 121.176C0.335039 120.734 0.0869131 120.134 0.0869141 119.508V7.30063C0.0923576 6.6789 0.342886 6.08441 0.784081 5.64631C1.22528 5.20821 1.82151 4.96188 2.44327 4.96082H82.2657C82.8917 4.96082 83.4921 5.20951 83.9348 5.65219C84.3775 6.09486 84.6262 6.69526 84.6262 7.3213V119.508C84.6262 120.134 84.3775 120.735 83.9348 121.178C83.4921 121.62 82.8917 121.869 82.2657 121.869ZM2.44327 5.04349C1.84535 5.04459 1.2723 5.28288 0.849901 5.70605C0.4275 6.12923 0.190262 6.70272 0.190263 7.30063V119.508C0.190262 120.106 0.4275 120.68 0.849901 121.103C1.2723 121.526 1.84535 121.764 2.44327 121.766H82.2657C82.864 121.764 83.4375 121.526 83.8605 121.103C84.2836 120.68 84.5217 120.107 84.5228 119.508V7.30063C84.5217 6.70234 84.2836 6.12886 83.8605 5.7058C83.4375 5.28274 82.864 5.04459 82.2657 5.04349H2.44327Z" fill="#EBEBEB"/>
<path d="M171.687 121.869H91.8607C91.235 121.868 90.6353 121.619 90.1928 121.176C89.7504 120.734 89.5013 120.134 89.5002 119.508V7.30063C89.5068 6.67852 89.7582 6.08404 90.2001 5.64606C90.6419 5.20807 91.2386 4.96187 91.8607 4.96082H171.687C172.308 4.96297 172.904 5.20978 173.344 5.64777C173.784 6.08575 174.034 6.67961 174.04 7.30063V119.508C174.04 120.133 173.792 120.732 173.351 121.175C172.91 121.617 172.312 121.867 171.687 121.869ZM91.8607 5.04349C91.2624 5.04459 90.689 5.28274 90.2659 5.7058C89.8428 6.12886 89.6047 6.70234 89.6036 7.30063V119.508C89.6047 120.107 89.8428 120.68 90.2659 121.103C90.689 121.526 91.2624 121.764 91.8607 121.766H171.687C172.286 121.764 172.859 121.526 173.282 121.103C173.705 120.68 173.943 120.107 173.944 119.508V7.30063C173.943 6.70234 173.705 6.12886 173.282 5.7058C172.859 5.28274 172.286 5.04459 171.687 5.04349H91.8607Z" fill="#EBEBEB"/>
<path d="M94.9898 140.306H109.5V86.2632H94.9898V140.306Z" fill="#E6E6E6"/>
<path d="M97.404 140.306H94.9897V135.441H99.9381L97.404 140.306Z" fill="#F0F0F0"/>
<path d="M154.047 140.306H168.558V86.2632H154.047V140.306Z" fill="#E6E6E6"/>
<path d="M94.9901 138.438H156.156V86.2632H94.9901V138.438Z" fill="#F0F0F0"/>
<path d="M96.8665 102.882H154.283V88.574H96.8665V102.882Z" fill="#E6E6E6"/>
<path d="M122.861 93.0138H128.285C130.641 93.0138 132.894 91.2486 134.515 88.1316H116.631C118.252 91.2569 120.505 93.0138 122.861 93.0138Z" fill="#F0F0F0"/>
<path d="M153.742 140.306H156.156V135.441H151.208L153.742 140.306Z" fill="#F0F0F0"/>
<path d="M96.8665 119.504H154.283V105.197H96.8665V119.504Z" fill="#E6E6E6"/>
<path d="M122.861 109.641H128.285C130.641 109.641 132.894 107.875 134.515 104.758H116.631C118.252 107.896 120.505 109.641 122.861 109.641Z" fill="#F0F0F0"/>
<path d="M96.8665 136.127H154.283V121.819H96.8665V136.127Z" fill="#E6E6E6"/>
<path d="M122.861 126.263H128.285C130.641 126.263 132.894 124.498 134.515 121.381H116.631C118.252 124.498 120.505 126.263 122.861 126.263Z" fill="#F0F0F0"/>
<path d="M16.5319 74.006H71.9434V17.9372L16.5319 17.9372L16.5319 74.006Z" fill="#E6E6E6"/>
<path d="M12.6828 74.006L70.9219 74.006V17.9372L12.6828 17.9372L12.6828 74.006Z" fill="#F0F0F0"/>
<path d="M66.0479 69.1279V22.8153L17.569 22.8153V69.1279H66.0479Z" fill="white"/>
<path d="M41.4718 28.9377L32.5756 37.8504C30.4258 40.0056 29.2185 42.9254 29.2185 45.9695C29.2185 49.0136 30.4258 51.9334 32.5756 54.0886L41.4718 62.989C41.5152 63.0325 41.5668 63.067 41.6235 63.0905C41.6803 63.1141 41.7411 63.1262 41.8026 63.1262C41.864 63.1262 41.9248 63.1141 41.9816 63.0905C42.0383 63.067 42.0899 63.0325 42.1333 62.989L51.0337 54.0886C53.1835 51.9334 54.3907 49.0136 54.3907 45.9695C54.3907 42.9254 53.1835 40.0056 51.0337 37.8504L42.1374 28.9377C42.0485 28.8505 41.9291 28.8018 41.8046 28.8018C41.6802 28.8018 41.5607 28.8505 41.4718 28.9377ZM33.237 53.4106C31.2632 51.4314 30.1547 48.7503 30.1547 45.9551C30.1547 43.1598 31.2632 40.4787 33.237 38.4995V53.4106ZM50.3722 53.4106V38.516C52.3461 40.4952 53.4545 43.1764 53.4545 45.9716C53.4545 48.7668 52.3461 51.448 50.3722 53.4272V53.4106Z" fill="#F0F0F0"/>
<path d="M152.481 66.97H121.522L119.756 85.2503H150.715L152.481 66.97Z" fill="#E6E6E6"/>
<path d="M150.715 85.2504L150.591 86.2632H119.628L119.756 85.2504H150.715Z" fill="#E6E6E6"/>
<path d="M151.53 66.97H120.571L118.801 85.2503H149.76L151.53 66.97Z" fill="#F0F0F0"/>
<path d="M149.136 84.0596L150.43 68.21C150.434 68.1573 150.426 68.1044 150.409 68.0547C150.391 68.0049 150.363 67.9593 150.327 67.9206C150.291 67.8819 150.248 67.8509 150.199 67.8296C150.151 67.8083 150.099 67.7971 150.046 67.7966H121.584C121.486 67.7963 121.392 67.8327 121.32 67.8985C121.248 67.9644 121.203 68.0549 121.195 68.1522L119.885 83.9976C119.881 84.0507 119.889 84.1039 119.907 84.1539C119.925 84.204 119.953 84.2498 119.989 84.2885C120.026 84.3273 120.07 84.3581 120.119 84.3792C120.167 84.4003 120.22 84.4111 120.273 84.411H148.735C148.835 84.4156 148.932 84.3816 149.007 84.3161C149.081 84.2506 149.128 84.1586 149.136 84.0596Z" fill="white"/>
<path d="M141.695 85.2504L141.571 86.2632H107.479L107.603 85.2504H141.695Z" fill="#F0F0F0"/>
<path d="M100.079 57.1973L158.214 57.1973V18.549L100.079 18.549V57.1973Z" fill="#E6E6E6"/>
<path d="M98.7888 57.1973L156.925 57.1973V18.549L98.7888 18.549V57.1973Z" fill="#F5F5F5"/>
<path d="M154.605 54.593V21.1576L101.108 21.1576V54.593H154.605Z" fill="white"/>
<path d="M102.08 54.5888V21.1534H101.104V54.5888H102.08Z" fill="#E6E6E6"/>
<path d="M99.748 50.1572L155.966 50.1572V46.6599L99.748 46.6599V50.1572Z" fill="#F5F5F5"/>
<path d="M96.2591 14.2413H160.749C160.843 14.2424 160.932 14.2802 160.999 14.3466C161.065 14.4131 161.103 14.5029 161.104 14.5969C161.104 14.6911 161.067 14.7816 161 14.8482C160.933 14.9149 160.843 14.9524 160.749 14.9524H96.2591C96.212 14.9529 96.1654 14.9441 96.1217 14.9265C96.0781 14.9089 96.0384 14.8828 96.005 14.8497C95.9715 14.8167 95.945 14.7773 95.9269 14.7339C95.9087 14.6905 95.8994 14.6439 95.8994 14.5969C95.9005 14.5022 95.9389 14.4118 96.0062 14.3452C96.0735 14.2787 96.1644 14.2413 96.2591 14.2413Z" fill="#E6E6E6"/>
<path d="M95.0105 14.597C95.0105 14.7735 95.0628 14.9459 95.1607 15.0927C95.2586 15.2394 95.3979 15.3539 95.5608 15.4216C95.7237 15.4893 95.903 15.5072 96.0761 15.4731C96.2492 15.439 96.4083 15.3544 96.5334 15.2299C96.6584 15.1054 96.7438 14.9467 96.7787 14.7738C96.8136 14.6008 96.7965 14.4214 96.7296 14.2582C96.6626 14.095 96.5488 13.9552 96.4025 13.8566C96.2562 13.758 96.084 13.7049 95.9076 13.7041C95.79 13.7036 95.6734 13.7263 95.5646 13.7709C95.4558 13.8155 95.3569 13.8812 95.2735 13.9642C95.1901 14.0472 95.124 14.1458 95.0789 14.2544C95.0337 14.363 95.0105 14.4794 95.0105 14.597Z" fill="#E6E6E6"/>
<path d="M157.731 16.5978C157.858 16.5978 157.979 16.548 158.07 16.4591C158.16 16.3701 158.212 16.2492 158.214 16.1224V15.0889C158.214 14.9606 158.163 14.8376 158.073 14.7469C157.982 14.6562 157.859 14.6052 157.731 14.6052C157.667 14.6052 157.605 14.6178 157.546 14.6421C157.488 14.6665 157.435 14.7022 157.39 14.7471C157.346 14.7921 157.31 14.8455 157.287 14.9041C157.263 14.9628 157.251 15.0256 157.251 15.0889V16.1224C157.253 16.2485 157.305 16.3688 157.394 16.4576C157.484 16.5464 157.605 16.5967 157.731 16.5978Z" fill="#E6E6E6"/>
<path d="M101.641 16.5978C101.765 16.5926 101.882 16.5406 101.969 16.4523C102.056 16.364 102.105 16.2461 102.108 16.1224V15.0889C102.108 14.9606 102.058 14.8376 101.967 14.7469C101.876 14.6562 101.753 14.6052 101.625 14.6052C101.561 14.6052 101.499 14.6178 101.44 14.6421C101.382 14.6665 101.329 14.7022 101.284 14.7471C101.24 14.7921 101.204 14.8455 101.181 14.9041C101.157 14.9628 101.145 15.0256 101.145 15.0889V16.1224C101.146 16.1863 101.16 16.2493 101.186 16.3078C101.211 16.3664 101.248 16.4193 101.294 16.4635C101.34 16.5077 101.395 16.5423 101.454 16.5654C101.514 16.5884 101.577 16.5994 101.641 16.5978Z" fill="#E6E6E6"/>
<path opacity="0.4" d="M96.3747 52.1456L155.966 52.1456V14.597L96.3747 14.597V52.1456Z" fill="#E0E0E0"/>
<path d="M151.1 14.597C151.1 14.7736 151.152 14.9463 151.251 15.0931C151.349 15.24 151.488 15.3544 151.651 15.422C151.814 15.4896 151.994 15.5073 152.167 15.4728C152.34 15.4384 152.5 15.3533 152.624 15.2284C152.749 15.1036 152.834 14.9444 152.869 14.7712C152.903 14.598 152.886 14.4185 152.818 14.2553C152.75 14.0922 152.636 13.9527 152.489 13.8546C152.342 13.7565 152.17 13.7041 151.993 13.7041C151.756 13.7041 151.529 13.7982 151.362 13.9656C151.194 14.1331 151.1 14.3602 151.1 14.597Z" fill="#E6E6E6"/>
<path d="M66.7631 137.627H71.542V96.1763H66.7631V137.627Z" fill="#F0F0F0"/>
<path d="M14.9237 140.253H69.7068V137.628H14.9237V140.253Z" fill="#F0F0F0"/>
<path d="M66.7631 96.1764H13.0879V137.628H66.7631V96.1764Z" fill="#F5F5F5"/>
<path d="M60.062 101.278H19.7891C18.1635 101.278 16.8457 102.595 16.8457 104.221V111.927C16.8457 113.552 18.1635 114.87 19.7891 114.87H60.062C61.6876 114.87 63.0054 113.552 63.0054 111.927V104.221C63.0054 102.595 61.6876 101.278 60.062 101.278Z" fill="#F0F0F0"/>
<path d="M60.062 118.929H19.7891C18.1635 118.929 16.8457 120.247 16.8457 121.873V129.578C16.8457 131.204 18.1635 132.522 19.7891 132.522H60.062C61.6876 132.522 63.0054 131.204 63.0054 129.578V121.873C63.0054 120.247 61.6876 118.929 60.062 118.929Z" fill="#F0F0F0"/>
<path d="M29.9257 109.008H49.9258C50.1728 109.008 50.4099 108.91 50.5849 108.736C50.76 108.561 50.859 108.325 50.86 108.078C50.859 107.83 50.7602 107.593 50.5852 107.418C50.4102 107.243 50.1732 107.145 49.9258 107.144H29.9257C29.6783 107.145 29.4413 107.243 29.2663 107.418C29.0913 107.593 28.9925 107.83 28.9915 108.078C28.9925 108.325 29.0915 108.561 29.2666 108.736C29.4416 108.91 29.6787 109.008 29.9257 109.008Z" fill="#F5F5F5"/>
<path d="M29.9257 126.66H49.9258C50.1728 126.66 50.4099 126.562 50.5849 126.388C50.76 126.214 50.859 125.977 50.86 125.73C50.859 125.482 50.7602 125.245 50.5852 125.071C50.4102 124.896 50.1732 124.797 49.9258 124.796H29.9257C29.6783 124.797 29.4413 124.896 29.2663 125.071C29.0913 125.245 28.9925 125.482 28.9915 125.73C28.9925 125.977 29.0915 126.214 29.2666 126.388C29.4416 126.562 29.6787 126.66 29.9257 126.66Z" fill="#F5F5F5"/>
<path d="M105.354 24.163H28.9583L34.8946 128.202H111.286L105.354 24.163Z" fill="#263238"/>
<path d="M106.838 24.163H30.4424L36.3787 128.202H112.774L106.838 24.163Z" fill="#DF0031"/>
<path opacity="0.5" d="M101.575 27.6603H33.9355L38.7847 121.836H108.181L101.575 27.6603Z" fill="black"/>
<path d="M33.9355 27.6603C38.9624 59.0535 35.5147 90.4467 40.5499 121.836H109.938C104.911 90.4467 108.359 59.0535 103.324 27.6603H33.9355Z" fill="white"/>
<g opacity="0.3">
<path d="M48.1234 55.8784C49.6558 55.8907 51.125 56.4906 52.2281 57.5544C53.3311 58.6182 53.9838 60.0647 54.0515 61.5957C54.0824 62.3321 53.9631 63.0671 53.7008 63.756C53.4386 64.4448 53.0389 65.0731 52.5261 65.6025C52.0133 66.132 51.3981 66.5515 50.7179 66.8356C50.0378 67.1197 49.307 67.2624 48.5699 67.255C47.047 67.2424 45.5873 66.6442 44.4936 65.5843C43.3999 64.5245 42.756 63.0844 42.6956 61.5626C42.6637 60.8283 42.7802 60.0952 43.038 59.4069C43.2958 58.7186 43.6897 58.0894 44.1962 57.5568C44.7042 57.029 45.3144 56.6101 45.9896 56.3258C46.6648 56.0415 47.3908 55.8977 48.1234 55.9032M48.0821 54.7085C47.191 54.7029 46.3082 54.8792 45.4876 55.2264C44.6669 55.5737 43.9258 56.0847 43.3094 56.7282C42.693 57.3716 42.2143 58.1341 41.9026 58.9689C41.591 59.8037 41.4528 60.6933 41.4967 61.5833C41.5689 63.4206 42.3455 65.1596 43.6656 66.4397C44.9856 67.7197 46.7478 68.4424 48.5864 68.458C49.4816 68.4654 50.3689 68.2911 51.1946 67.9455C52.0204 67.5999 52.7674 67.0903 53.3905 66.4476C54.0135 65.8048 54.4996 65.0423 54.8193 64.2062C55.139 63.37 55.2856 62.4777 55.2504 61.5833C55.1616 59.7379 54.369 57.9968 53.0356 56.718C51.7022 55.4393 49.9295 54.7201 48.0821 54.7085Z" fill="#DF0031"/>
</g>
<path d="M86.4903 107.45H64.5804C64.4165 107.447 64.2539 107.479 64.1034 107.544C63.9529 107.609 63.818 107.705 63.7077 107.827C63.5974 107.948 63.5142 108.091 63.4636 108.247C63.4131 108.403 63.3964 108.568 63.4146 108.731C63.4545 109.08 63.6193 109.402 63.8785 109.638C64.1376 109.874 64.4736 110.009 64.8243 110.017H86.7342C86.8982 110.02 87.061 109.987 87.2115 109.922C87.3619 109.857 87.4966 109.76 87.6063 109.638C87.7161 109.516 87.7984 109.372 87.8476 109.216C87.8969 109.059 87.9119 108.894 87.8917 108.731C87.8528 108.384 87.6893 108.063 87.4316 107.827C87.1739 107.592 86.8395 107.457 86.4903 107.45Z" fill="#E0E0E0"/>
<path d="M98.2101 102.055H64.1381C63.9732 102.052 63.8095 102.083 63.6578 102.148C63.5061 102.213 63.3697 102.309 63.2577 102.43C63.1457 102.551 63.0605 102.694 63.0077 102.85C62.955 103.007 62.9359 103.172 62.9516 103.336C62.9813 103.684 63.1391 104.008 63.3943 104.245C63.6494 104.483 63.9838 104.617 64.3324 104.622H98.3879C98.553 104.627 98.7173 104.596 98.8699 104.533C99.0225 104.47 99.1599 104.375 99.2732 104.255C99.3864 104.134 99.4729 103.991 99.527 103.835C99.581 103.679 99.6014 103.513 99.5867 103.349C99.5599 103 99.4039 102.674 99.1492 102.435C98.8945 102.196 98.5596 102.06 98.2101 102.055Z" fill="#E0E0E0"/>
<g opacity="0.3">
<path d="M48.8219 78.1316C50.343 78.1424 51.801 78.7408 52.8912 79.8017C53.9813 80.8626 54.6192 82.3038 54.6714 83.824C54.6993 84.56 54.5786 85.294 54.3165 85.9822C54.0544 86.6705 53.6563 87.2988 53.146 87.8298C52.6353 88.3587 52.0223 88.7781 51.3442 89.0624C50.6662 89.3467 49.9374 89.4899 49.2022 89.4834C47.6774 89.473 46.2152 88.8758 45.1191 87.8158C44.0229 86.7559 43.377 85.3145 43.3155 83.791C43.2904 83.0539 43.4145 82.3194 43.6804 81.6315C43.9463 80.9436 44.3485 80.3165 44.8627 79.7879C45.377 79.2594 45.9928 78.8402 46.6732 78.5555C47.3535 78.2709 48.0844 78.1267 48.8219 78.1316ZM48.8219 76.9327C47.9262 76.9272 47.0385 77.1027 46.2123 77.4486C45.386 77.7945 44.6382 78.3037 44.0135 78.9457C43.3889 79.5878 42.9004 80.3493 42.5772 81.1847C42.2541 82.0202 42.1031 82.9123 42.1331 83.8075C42.2065 85.6498 42.9874 87.3929 44.3133 88.6742C45.6392 89.9554 47.408 90.6761 49.2518 90.6864C50.1449 90.6899 51.0294 90.5125 51.852 90.1649C52.6747 89.8174 53.4184 89.3068 54.0384 88.664C54.6584 88.0212 55.1418 87.2595 55.4595 86.4249C55.7772 85.5902 55.9225 84.6998 55.8868 83.8075C55.8249 81.971 55.0549 80.2297 53.7379 78.9482C52.421 77.6668 50.6594 76.9445 48.8219 76.9327Z" fill="#DF0031"/>
</g>
<path d="M74.3284 60.1447H62.6087C62.2643 60.1418 61.9342 60.0068 61.6865 59.7676C61.4387 59.5283 61.2924 59.2031 61.2775 58.859C61.272 58.6927 61.3 58.527 61.3598 58.3717C61.4196 58.2165 61.5101 58.0748 61.6258 57.9553C61.7416 57.8357 61.8802 57.7406 62.0334 57.6757C62.1866 57.6108 62.3513 57.5774 62.5177 57.5775H74.2333C74.5779 57.5802 74.9084 57.7144 75.1573 57.9525C75.4062 58.1907 75.5548 58.515 75.5727 58.859C75.5789 59.026 75.5512 59.1926 75.4914 59.3486C75.4315 59.5046 75.3408 59.6469 75.2245 59.767C75.1083 59.8871 74.969 59.9825 74.815 60.0474C74.6611 60.1123 74.4955 60.1454 74.3284 60.1447Z" fill="#E0E0E0"/>
<path d="M87.8547 60.1447H79.9175C79.5727 60.1419 79.2421 60.007 78.9937 59.7679C78.7454 59.5287 78.5981 59.2035 78.5822 58.859C78.5767 58.6927 78.6047 58.527 78.6645 58.3717C78.7243 58.2165 78.8148 58.0748 78.9305 57.9553C79.0462 57.8357 79.1848 57.7406 79.3381 57.6757C79.4913 57.6108 79.656 57.5774 79.8224 57.5775H87.7637C88.1078 57.5803 88.4379 57.7145 88.6861 57.9528C88.9344 58.1911 89.0821 58.5153 89.099 58.859C89.1051 59.026 89.0774 59.1926 89.0176 59.3486C88.9578 59.5046 88.867 59.6469 88.7508 59.767C88.6346 59.8871 88.4953 59.9825 88.3413 60.0474C88.1873 60.1123 88.0218 60.1454 87.8547 60.1447Z" fill="#E0E0E0"/>
<path d="M94.2541 65.5396H62.7947C62.4505 65.5377 62.1202 65.4029 61.873 65.1633C61.6257 64.9238 61.4805 64.598 61.4677 64.2539C61.4622 64.0876 61.4902 63.9219 61.55 63.7666C61.6098 63.6114 61.7003 63.4697 61.816 63.3501C61.9317 63.2306 62.0703 63.1355 62.2236 63.0706C62.3768 63.0057 62.5415 62.9723 62.7079 62.9724H94.1631C94.5063 62.9743 94.8355 63.1087 95.082 63.3474C95.3285 63.5862 95.4732 63.911 95.486 64.2539C95.4921 64.4199 95.4648 64.5854 95.4057 64.7406C95.3466 64.8958 95.257 65.0376 95.1421 65.1575C95.0272 65.2774 94.8894 65.373 94.7369 65.4386C94.5843 65.5043 94.4201 65.5386 94.2541 65.5396Z" fill="#E0E0E0"/>
<g opacity="0.3">
<path d="M49.7189 100.356C51.261 100.386 52.7378 100.984 53.8666 102.035C54.9955 103.086 55.6971 104.516 55.8372 106.052C55.9114 106.772 55.8354 107.499 55.6141 108.188C55.3928 108.877 55.031 109.512 54.5515 110.054C54.0681 110.586 53.4764 111.009 52.8162 111.295C52.156 111.58 51.4425 111.721 50.7235 111.708C49.168 111.682 47.6753 111.09 46.5258 110.042C45.3764 108.994 44.6493 107.562 44.4812 106.015C44.4103 105.29 44.4938 104.558 44.726 103.868C44.9583 103.177 45.3342 102.544 45.8289 102.009C46.3267 101.478 46.9297 101.057 47.5996 100.772C48.2694 100.488 48.9912 100.346 49.7189 100.356ZM49.6611 99.161C48.7757 99.1437 47.8968 99.3136 47.0817 99.6598C46.2667 100.006 45.534 100.52 44.9317 101.17C44.3295 101.819 43.8712 102.588 43.5869 103.426C43.3027 104.265 43.1989 105.154 43.2824 106.036C43.6007 109.831 47.0443 112.911 50.8392 112.911C54.6342 112.911 57.3543 109.831 57.0402 106.036C56.8762 104.182 56.0322 102.454 54.6706 101.185C53.3091 99.9153 51.5262 99.1946 49.6652 99.161H49.6611Z" fill="#DF0031"/>
</g>
<path d="M99.6282 85.2131H63.328C63.1616 85.213 62.9969 85.2464 62.8437 85.3113C62.6905 85.3762 62.5519 85.4712 62.4361 85.5908C62.3204 85.7104 62.23 85.852 62.1701 86.0073C62.1103 86.1626 62.0823 86.3283 62.0878 86.4946C62.1027 86.8376 62.2486 87.1618 62.4956 87.4002C62.7425 87.6387 63.0716 87.7733 63.4148 87.7761H99.7316C99.898 87.7762 100.063 87.7428 100.216 87.6779C100.369 87.613 100.508 87.518 100.623 87.3984C100.739 87.2788 100.83 87.1372 100.89 86.9819C100.949 86.8266 100.977 86.6609 100.972 86.4946C100.959 86.1481 100.811 85.8203 100.56 85.5809C100.309 85.3416 99.975 85.2096 99.6282 85.2131Z" fill="#E0E0E0"/>
<path d="M91.0255 79.8142H63.171C63.0042 79.8141 62.8391 79.8476 62.6856 79.9128C62.5321 79.9779 62.3933 80.0734 62.2775 80.1934C62.1618 80.3134 62.0714 80.4555 62.0118 80.6113C61.9522 80.767 61.9247 80.9332 61.9308 81.0999C61.9425 81.4424 62.0864 81.7672 62.3322 82.0061C62.578 82.245 62.9067 82.3795 63.2495 82.3814H91.1082C91.2746 82.3815 91.4393 82.3481 91.5925 82.2832C91.7457 82.2183 91.8844 82.1232 92.0001 82.0037C92.1158 81.8841 92.2063 81.7424 92.2661 81.5872C92.3259 81.4319 92.3539 81.2662 92.3484 81.0999C92.3387 80.7555 92.195 80.4285 91.948 80.1884C91.701 79.9483 91.37 79.8141 91.0255 79.8142Z" fill="#E0E0E0"/>
<path d="M48.7519 65.614L48.2641 64.812C47.1934 63.0634 44.9569 61.5049 44.188 61.046L44.7667 60.0208C46.2852 60.9399 47.638 62.1083 48.7684 63.4768C50.5253 61.1163 53.0925 58.6896 56.5692 56.0687L57.3174 57.0361C53.5969 59.8348 50.9594 62.4102 49.2686 64.8616C49.0991 65.1138 48.9255 65.366 48.7519 65.614Z" fill="#DF0031"/>
<path d="M49.3718 87.8547C49.2105 87.586 49.0452 87.3173 48.8798 87.0527C47.805 85.3041 45.5727 83.7456 44.812 83.2826L45.399 82.2574C46.9097 83.179 48.2553 84.3472 49.38 85.7133C51.1411 83.357 53.7289 80.9262 57.2593 78.3053L57.991 79.2726C54.2209 82.0713 51.5669 84.6468 49.8844 87.0982L49.3718 87.8547Z" fill="#DF0031"/>
<path d="M50.7898 110.145L50.2442 109.343C49.0536 107.594 46.7468 106.036 45.9531 105.577L46.4905 104.552C48.0527 105.477 49.4601 106.642 50.6617 108.004C52.2822 105.647 54.746 103.216 58.1689 100.6L58.942 101.567C55.2876 104.366 52.7783 106.941 51.2528 109.393L50.7898 110.145Z" fill="#DF0031"/>
<path d="M76.9328 35.5519C76.2052 37.1393 75.4597 38.7254 74.6963 40.3101C76.27 41.0928 77.6156 42.2678 78.6032 43.7218C79.5908 45.1757 80.1873 46.8596 80.335 48.611H85.829C85.4652 42.993 81.8522 38.1025 76.9328 35.5519Z" fill="#DF0031"/>
<path d="M56.0025 48.6194H61.4965C61.3618 47.0654 61.6449 45.5036 62.3165 44.0957C62.9881 42.6879 64.0238 41.4851 65.3163 40.6119C64.247 39.0245 63.1611 37.437 62.0587 35.8496C58.0488 38.4457 55.6511 43.2039 56.0025 48.6194Z" fill="#263238"/>
<path d="M69.4999 33.7082C66.864 33.6821 64.2777 34.4264 62.0588 35.8496C63.1612 37.437 64.2471 39.0244 65.3164 40.6119C66.7487 39.6759 68.4256 39.184 70.1366 39.1981C71.7196 39.2072 73.2779 39.5911 74.6839 40.3184C75.4446 38.7309 76.1901 37.1449 76.9204 35.5602C74.6301 34.3597 72.0858 33.7246 69.4999 33.7082Z" fill="#DF0031"/>
<path opacity="0.5" d="M69.4999 33.7082C66.864 33.6821 64.2777 34.4264 62.0588 35.8496C63.1612 37.437 64.2471 39.0244 65.3164 40.6119C66.7487 39.6759 68.4256 39.184 70.1366 39.1981C71.7196 39.2072 73.2779 39.5911 74.6839 40.3184C75.4446 38.7309 76.1901 37.1449 76.9204 35.5602C74.6301 34.3597 72.0858 33.7246 69.4999 33.7082Z" fill="#263238"/>
<path d="M76.2133 44.8575C76.2133 44.8575 70.6656 47.1271 70.0786 47.5405C69.9384 47.6466 69.8208 47.7798 69.7328 47.9321C69.6448 48.0843 69.5882 48.2527 69.5662 48.4272C69.5443 48.6017 69.5574 48.7788 69.605 48.9481C69.6525 49.1175 69.7334 49.2756 69.8429 49.4132C70.05 49.7072 70.3634 49.9092 70.7168 49.9763C71.0701 50.0435 71.4358 49.9705 71.7363 49.7728C72.344 49.3346 76.2216 44.8575 76.2133 44.8575ZM70.3845 48.9915C70.3305 48.9238 70.2907 48.846 70.2672 48.7626C70.2438 48.6793 70.2373 48.5921 70.2481 48.5062C70.2589 48.4203 70.2867 48.3374 70.33 48.2624C70.3733 48.1874 70.4312 48.1219 70.5002 48.0696C70.649 47.9739 70.829 47.9389 71.0028 47.972C71.1767 48.0051 71.3312 48.1036 71.4345 48.2474C71.4884 48.3151 71.5283 48.3929 71.5517 48.4763C71.5752 48.5596 71.5817 48.6468 71.5709 48.7327C71.5601 48.8186 71.5322 48.9015 71.4889 48.9765C71.4456 49.0514 71.3878 49.117 71.3187 49.1693C71.1719 49.2667 70.9933 49.3044 70.8196 49.2744C70.6458 49.2444 70.4902 49.1491 70.3845 49.008V48.9915Z" fill="#263238"/>
<path d="M82.7907 42.2324C82.8178 42.4813 82.7915 42.733 82.7137 42.9709C82.6358 43.2087 82.5081 43.4273 82.3391 43.6119C82.1701 43.7966 81.9637 43.9431 81.7336 44.0416C81.5036 44.1402 81.2551 44.1886 81.0049 44.1836C80.4746 44.1732 79.9665 43.969 79.5765 43.6095C79.1865 43.25 78.9417 42.7601 78.8883 42.2324C78.86 41.9849 78.8849 41.7342 78.9613 41.4972C79.0377 41.2601 79.1639 41.0421 79.3315 40.8577C79.499 40.6733 79.704 40.5269 79.9327 40.4282C80.1614 40.3295 80.4086 40.2808 80.6576 40.2853C81.1893 40.2943 81.6995 40.4971 82.0923 40.8556C82.485 41.2141 82.7334 41.7037 82.7907 42.2324Z" fill="white"/>
<path d="M80.3723 41.7859C80.3764 41.8252 80.3721 41.8649 80.3598 41.9024C80.3475 41.9399 80.3275 41.9744 80.301 42.0037C80.2744 42.0329 80.2421 42.0563 80.2059 42.0722C80.1698 42.0881 80.1307 42.0962 80.0912 42.096C80.0064 42.0954 79.9248 42.0633 79.8622 42.0061C79.7996 41.9488 79.7604 41.8704 79.7522 41.7859C79.7475 41.7465 79.7513 41.7066 79.7633 41.6688C79.7753 41.631 79.7954 41.5962 79.822 41.5668C79.8487 41.5374 79.8813 41.514 79.9178 41.4984C79.9543 41.4827 79.9937 41.475 80.0333 41.4759C80.1182 41.4765 80.1998 41.5086 80.2624 41.5658C80.325 41.6231 80.3642 41.7015 80.3723 41.7859Z" fill="#263238"/>
<path d="M81.8523 41.7859C81.8564 41.8256 81.852 41.8656 81.8395 41.9034C81.827 41.9412 81.8065 41.9759 81.7796 42.0053C81.7526 42.0346 81.7197 42.0578 81.6831 42.0735C81.6464 42.0891 81.6069 42.0968 81.5671 42.096C81.4828 42.0936 81.4021 42.061 81.3399 42.004C81.2777 41.9471 81.238 41.8697 81.2281 41.7859C81.2233 41.7462 81.2271 41.7059 81.2394 41.6677C81.2517 41.6296 81.2721 41.5946 81.2992 41.5652C81.3263 41.5357 81.3595 41.5124 81.3965 41.497C81.4334 41.4816 81.4733 41.4744 81.5133 41.4759C81.5982 41.4765 81.6798 41.5086 81.7424 41.5658C81.805 41.6231 81.8441 41.7015 81.8523 41.7859Z" fill="#263238"/>
<path d="M80.9304 43.4065C80.5214 43.4032 80.1282 43.2486 79.8266 42.9724C79.7983 42.9438 79.7825 42.9052 79.7825 42.8649C79.7825 42.8247 79.7983 42.7861 79.8266 42.7574C79.8405 42.7429 79.8572 42.7314 79.8756 42.7235C79.8941 42.7156 79.914 42.7115 79.9341 42.7115C79.9542 42.7115 79.974 42.7156 79.9925 42.7235C80.011 42.7314 80.0277 42.7429 80.0416 42.7574C80.2862 42.9829 80.6059 43.1096 80.9386 43.113C81.0931 43.1164 81.2466 43.0873 81.389 43.0274C81.5315 42.9676 81.6597 42.8784 81.7654 42.7657C81.7934 42.7361 81.832 42.7188 81.8727 42.7177C81.8928 42.7171 81.9129 42.7205 81.9317 42.7277C81.9506 42.7348 81.9678 42.7457 81.9825 42.7595C81.9971 42.7733 82.0089 42.7899 82.0171 42.8083C82.0254 42.8267 82.0299 42.8466 82.0305 42.8667C82.0311 42.8869 82.0277 42.907 82.0205 42.9258C82.0133 42.9446 82.0025 42.9619 81.9887 42.9765C81.8525 43.1187 81.6878 43.2305 81.5055 43.3046C81.3231 43.3787 81.1271 43.4134 80.9304 43.4065Z" fill="#263238"/>
<path d="M71.7737 36.4199C71.8079 36.6659 71.7882 36.9164 71.7161 37.1541C71.644 37.3917 71.5212 37.6109 71.3561 37.7964C71.191 37.982 70.9876 38.1294 70.7599 38.2287C70.5322 38.3279 70.2857 38.3765 70.0374 38.3712C69.5027 38.3587 68.9901 38.155 68.5927 37.797C68.1953 37.439 67.9393 36.9505 67.8712 36.4199C67.8343 36.1751 67.8515 35.9251 67.9216 35.6876C67.9917 35.4501 68.1129 35.2308 68.2769 35.0452C68.4408 34.8596 68.6434 34.7122 68.8704 34.6133C69.0975 34.5144 69.3434 34.4665 69.591 34.4729C70.1267 34.4855 70.6405 34.6883 71.0404 35.045C71.4403 35.4017 71.7002 35.8891 71.7737 36.4199Z" fill="white"/>
<path d="M69.3428 35.9653C69.3481 36.0041 69.3451 36.0436 69.3338 36.0812C69.3225 36.1187 69.3032 36.1533 69.2773 36.1828C69.2514 36.2122 69.2195 36.2357 69.1837 36.2517C69.1479 36.2676 69.1091 36.2757 69.0699 36.2753C68.9847 36.2732 68.903 36.2409 68.8394 36.1841C68.7758 36.1273 68.7344 36.0498 68.7227 35.9653C68.7166 35.9264 68.7192 35.8866 68.7302 35.8487C68.7412 35.8109 68.7604 35.7759 68.7865 35.7463C68.8125 35.7168 68.8447 35.6933 68.8809 35.6775C68.917 35.6618 68.9561 35.6542 68.9955 35.6553C69.081 35.6565 69.1632 35.6886 69.227 35.7455C69.2907 35.8025 69.3319 35.8805 69.3428 35.9653Z" fill="#263238"/>
<path d="M70.8187 35.9653C70.8241 36.0045 70.8209 36.0443 70.8094 36.0822C70.7978 36.12 70.7782 36.1548 70.7519 36.1843C70.7255 36.2138 70.6931 36.2372 70.6568 36.253C70.6205 36.2687 70.5812 36.2763 70.5417 36.2753C70.4567 36.2724 70.3754 36.2398 70.312 36.1831C70.2486 36.1265 70.207 36.0494 70.1945 35.9653C70.1891 35.9261 70.1922 35.8862 70.2038 35.8484C70.2153 35.8106 70.2349 35.7757 70.2613 35.7462C70.2876 35.7167 70.32 35.6933 70.3563 35.6776C70.3926 35.6619 70.4319 35.6543 70.4714 35.6552C70.5567 35.6574 70.6384 35.6897 70.702 35.7465C70.7656 35.8033 70.8069 35.8808 70.8187 35.9653Z" fill="#263238"/>
<path d="M70.8601 37.2056H68.9254C68.8886 37.1995 68.8552 37.1806 68.8311 37.1522C68.8069 37.1238 68.7937 37.0878 68.7937 37.0505C68.7937 37.0133 68.8069 36.9772 68.8311 36.9488C68.8552 36.9204 68.8886 36.9015 68.9254 36.8955H70.8601C70.8969 36.9015 70.9303 36.9204 70.9544 36.9488C70.9785 36.9772 70.9918 37.0133 70.9918 37.0505C70.9918 37.0878 70.9785 37.1238 70.9544 37.1522C70.9303 37.1806 70.8969 37.1995 70.8601 37.2056Z" fill="#263238"/>
<path d="M61.9555 42.2324C61.9826 42.4813 61.9563 42.733 61.8784 42.9709C61.8006 43.2087 61.6729 43.4273 61.5039 43.6119C61.3349 43.7966 61.1285 43.9431 60.8984 44.0416C60.6684 44.1402 60.4199 44.1886 60.1697 44.1836C59.6394 44.1732 59.1313 43.969 58.7413 43.6095C58.3513 43.25 58.1065 42.7601 58.0531 42.2324C58.0248 41.9849 58.0497 41.7342 58.1261 41.4972C58.2025 41.2601 58.3287 41.0421 58.4963 40.8577C58.6638 40.6733 58.8688 40.5269 59.0975 40.4282C59.3262 40.3295 59.5734 40.2808 59.8224 40.2853C60.3539 40.2952 60.8635 40.4983 61.2561 40.8566C61.6487 41.215 61.8973 41.7041 61.9555 42.2324Z" fill="white"/>
<path d="M59.5288 41.7859C59.5329 41.8252 59.5286 41.8649 59.5163 41.9024C59.504 41.9399 59.484 41.9744 59.4575 42.0037C59.4309 42.0329 59.3986 42.0563 59.3624 42.0722C59.3263 42.0881 59.2872 42.0962 59.2477 42.096C59.1629 42.0954 59.0813 42.0633 59.0187 42.0061C58.9561 41.9488 58.9169 41.8704 58.9087 41.7859C58.904 41.7465 58.9078 41.7066 58.9198 41.6688C58.9318 41.631 58.9519 41.5962 58.9785 41.5668C59.0052 41.5374 59.0378 41.514 59.0743 41.4984C59.1108 41.4827 59.1502 41.475 59.1898 41.4759C59.2747 41.4765 59.3563 41.5086 59.4189 41.5658C59.4815 41.6231 59.5206 41.7015 59.5288 41.7859Z" fill="#263238"/>
<path d="M61.0088 41.7859C61.0135 41.8253 61.0098 41.8653 60.9977 41.9031C60.9857 41.9409 60.9657 41.9757 60.939 42.0051C60.9124 42.0345 60.8797 42.0579 60.8432 42.0735C60.8068 42.0892 60.7674 42.0969 60.7277 42.096C60.6434 42.0936 60.5628 42.061 60.5005 42.004C60.4383 41.9471 60.3986 41.8697 60.3887 41.7859C60.384 41.7465 60.3877 41.7066 60.3998 41.6688C60.4118 41.631 60.4318 41.5962 60.4585 41.5668C60.4852 41.5374 60.5178 41.514 60.5543 41.4984C60.5907 41.4827 60.6301 41.475 60.6698 41.4759C60.7549 41.4756 60.837 41.5073 60.8998 41.5647C60.9626 41.6222 61.0015 41.7011 61.0088 41.7859Z" fill="#263238"/>
<path d="M59.1155 43.4066C59.0964 43.4068 59.0774 43.4033 59.0597 43.3962C59.042 43.3891 59.0258 43.3786 59.0121 43.3652C58.9839 43.3366 58.968 43.298 58.968 43.2577C58.968 43.2175 58.9839 43.1789 59.0121 43.1503C59.1462 43.0077 59.3084 42.8944 59.4884 42.8176C59.6684 42.7407 59.8623 42.702 60.058 42.7038C60.4675 42.7081 60.8608 42.8643 61.1618 43.142C61.1763 43.1559 61.1879 43.1726 61.1957 43.191C61.2036 43.2095 61.2077 43.2294 61.2077 43.2495C61.2077 43.2696 61.2036 43.2894 61.1957 43.3079C61.1879 43.3264 61.1763 43.3431 61.1618 43.357C61.132 43.3846 61.0929 43.3999 61.0523 43.3999C61.0116 43.3999 60.9725 43.3846 60.9427 43.357C60.6981 43.1288 60.3761 43.0017 60.0415 43.0014C59.8874 42.998 59.7343 43.0267 59.5919 43.0858C59.4495 43.1449 59.3211 43.233 59.2147 43.3446C59.1906 43.3769 59.1552 43.399 59.1155 43.4066Z" fill="#263238"/>
<path d="M90.4258 27.9289C89.136 25.2129 86.1265 23.4146 82.8814 23.4146H76.267C75.8129 23.4347 75.3615 23.3344 74.9586 23.1238C74.5557 22.9133 74.2156 22.6 73.9727 22.2158C73.0508 20.4878 70.8516 19.2559 68.3547 19.2559C65.8578 19.2559 63.8073 20.496 63.0797 22.2158C62.778 22.9433 61.914 23.4146 60.9218 23.4146H54.3075C51.0623 23.4146 48.2554 25.2129 47.2798 27.9289C47.2436 28.0237 47.2295 28.1255 47.2384 28.2265C47.2491 28.4386 47.3408 28.6384 47.4948 28.7846C47.6487 28.9308 47.8529 29.0122 48.0652 29.012H89.7685C89.8959 29.0123 90.0213 28.9796 90.1324 28.9173C90.2435 28.8549 90.3367 28.7649 90.4028 28.6559C90.4689 28.547 90.5058 28.4228 90.5098 28.2954C90.5138 28.168 90.4849 28.0418 90.4258 27.9289ZM68.6234 24.1629C68.13 24.1527 67.6583 23.9582 67.301 23.6178C66.9437 23.2774 66.7268 22.8156 66.6928 22.3232C66.6762 22.0861 66.709 21.8482 66.789 21.6243C66.869 21.4005 66.9945 21.1957 67.1577 21.0228C67.3208 20.85 67.5181 20.7128 67.7369 20.62C67.9557 20.5272 68.1914 20.4808 68.4291 20.4836C68.9256 20.4888 69.402 20.6811 69.7629 21.0221C70.1239 21.3631 70.3429 21.8278 70.3762 22.3232C70.3929 22.5618 70.3597 22.8012 70.2787 23.0261C70.1977 23.2511 70.0706 23.4567 69.9057 23.6298C69.7408 23.8029 69.5415 23.9398 69.3207 24.0315C69.0999 24.1233 68.8624 24.168 68.6234 24.1629Z" fill="#263238"/>
<path d="M133.287 151.348C132.963 151.388 132.636 151.307 132.369 151.121C132.334 151.077 132.312 151.024 132.307 150.968C132.302 150.912 132.313 150.856 132.34 150.806C132.36 150.764 132.389 150.727 132.426 150.697C132.462 150.668 132.505 150.647 132.551 150.637C133.039 150.501 134.167 151.104 134.204 151.133C134.219 151.139 134.23 151.15 134.238 151.163C134.245 151.177 134.248 151.192 134.246 151.207C134.245 151.221 134.24 151.234 134.231 151.245C134.222 151.255 134.21 151.263 134.196 151.265C133.896 151.319 133.592 151.346 133.287 151.348ZM132.741 150.761C132.696 150.754 132.65 150.754 132.605 150.761C132.576 150.766 132.55 150.778 132.527 150.795C132.504 150.812 132.485 150.835 132.472 150.86C132.431 150.951 132.472 150.997 132.472 151.021C132.638 151.216 133.407 151.22 133.961 151.141C133.58 150.942 133.167 150.814 132.741 150.761Z" fill="#DF0031"/>
<path d="M134.196 151.265H134.167C133.783 151.1 132.981 150.438 132.998 150.099C132.998 150.017 133.047 149.918 133.246 149.897C133.394 149.884 133.542 149.929 133.659 150.021C133.968 150.345 134.178 150.751 134.263 151.191C134.268 151.201 134.27 151.212 134.27 151.224C134.27 151.235 134.268 151.247 134.263 151.257C134.253 151.264 134.242 151.268 134.231 151.269C134.219 151.271 134.207 151.269 134.196 151.265ZM133.316 150.025H133.275C133.146 150.025 133.142 150.087 133.142 150.104C133.142 150.31 133.684 150.827 134.085 151.05C134.006 150.697 133.83 150.374 133.576 150.116C133.501 150.06 133.41 150.031 133.316 150.033V150.025Z" fill="#DF0031"/>
<path d="M137.529 151.195H134.49L133.403 144.159H136.441L137.529 151.195Z" fill="#FFC3BD"/>
<path d="M134.469 150.844H137.776C137.839 150.845 137.899 150.866 137.949 150.903C137.999 150.94 138.037 150.991 138.057 151.05L138.959 153.75C138.978 153.81 138.983 153.874 138.973 153.937C138.963 154 138.939 154.059 138.903 154.111C138.867 154.163 138.819 154.206 138.763 154.237C138.708 154.267 138.646 154.284 138.582 154.287C137.383 154.287 135.647 154.2 134.142 154.2C132.386 154.2 132.543 154.295 130.48 154.295C129.24 154.295 128.748 153.035 129.24 152.919C131.559 152.402 131.827 152.344 133.737 151.079C133.951 150.927 134.207 150.845 134.469 150.844Z" fill="#263238"/>
<path opacity="0.2" d="M133.403 144.163L133.965 147.789H137.003L136.441 144.163H133.403Z" fill="black"/>
<path d="M137.181 75.4238L135.114 77.5115L138.281 78.6318C138.281 78.6318 139.521 76.9286 138.649 75.7628L137.181 75.4238Z" fill="#FFC3BD"/>
<path d="M134.419 80.43L137.582 80.893L138.289 78.6318L135.122 77.5115L134.419 80.43Z" fill="#FFC3BD"/>
<path d="M138.562 49.719C138.83 50.2977 139.045 50.7897 139.26 51.3271C139.475 51.8645 139.674 52.3813 139.88 52.9104C140.273 53.9728 140.624 55.0559 140.951 56.1514C141.283 57.2598 141.559 58.3843 141.778 59.5206L141.935 60.3887L142.063 61.2734C142.109 61.5669 142.137 61.8728 142.162 62.1746C142.187 62.4764 142.228 62.7492 142.228 63.1295V63.6669V64.1423L142.204 64.6095L142.158 65.0518C142.104 65.6471 142.026 66.2052 141.951 66.7715C141.786 67.8877 141.596 68.9791 141.385 70.0787C140.947 72.2407 140.467 74.3532 139.889 76.4822L136.123 75.7381C136.362 73.638 136.61 71.5049 136.809 69.4049C136.904 68.3548 137.007 67.3089 137.065 66.2837C137.09 65.7794 137.119 65.2668 137.119 64.7831V64.4193V64.0845V63.7496L137.09 63.4768C137.071 63.259 137.041 63.0423 136.999 62.8277C136.962 62.5962 136.929 62.3647 136.875 62.1291L136.722 61.4222L136.544 60.7112C136.288 59.7604 135.999 58.8054 135.668 57.8505C135.337 56.8955 134.969 55.9447 134.581 55.0022C134.39 54.5268 134.192 54.0555 133.985 53.5925C133.779 53.1295 133.572 52.6458 133.369 52.2448L138.562 49.719Z" fill="#263238"/>
<path d="M124.287 73.944C124.287 73.944 124.792 97.1933 126.156 106.453C127.578 116.085 132.77 147.086 132.77 147.086H137.913C137.913 147.086 136.069 117.582 135.482 108.103C134.841 97.7679 134.982 73.944 134.982 73.944H124.287Z" fill="#DF0031"/>
<path d="M131.534 145.035C131.509 145.035 132.063 147.173 132.063 147.173H138.322L138.277 145.267L131.534 145.035Z" fill="#263238"/>
<path d="M123.128 36.2543C123.144 35.9968 123.02 35.7796 122.852 35.7693C122.683 35.7589 122.534 35.9592 122.518 36.2167C122.502 36.4742 122.626 36.6914 122.794 36.7018C122.963 36.7121 123.113 36.5118 123.128 36.2543Z" fill="#263238"/>
<path d="M123.002 36.7012C122.666 37.4893 122.227 38.229 121.695 38.9004C121.869 39.0266 122.068 39.1127 122.279 39.1527C122.49 39.1928 122.707 39.1857 122.915 39.1319L123.002 36.7012Z" fill="#ED847E"/>
<path d="M124.093 34.8079C124.061 34.808 124.029 34.7994 124.002 34.7831C123.854 34.6667 123.68 34.5879 123.495 34.5533C123.31 34.5188 123.119 34.5295 122.939 34.5847C122.921 34.592 122.901 34.5955 122.881 34.595C122.862 34.5946 122.842 34.5902 122.824 34.5821C122.806 34.574 122.79 34.5624 122.776 34.548C122.762 34.5335 122.752 34.5164 122.745 34.4978C122.739 34.4788 122.736 34.4587 122.737 34.4387C122.738 34.4187 122.744 34.3991 122.752 34.381C122.761 34.363 122.774 34.3468 122.789 34.3336C122.804 34.3203 122.821 34.3101 122.84 34.3036C123.067 34.2299 123.308 34.2124 123.543 34.2528C123.777 34.2931 123.999 34.39 124.188 34.5351C124.219 34.5596 124.24 34.5953 124.245 34.6346C124.25 34.674 124.24 34.7139 124.217 34.7459C124.202 34.765 124.183 34.7806 124.162 34.7913C124.14 34.8021 124.117 34.8077 124.093 34.8079Z" fill="#263238"/>
<path d="M131.17 39.0741C130.658 41.2982 130.079 45.3701 131.584 46.8501C131.584 46.8501 130.898 49.1031 126.768 49.1031C122.22 49.1031 124.68 46.8501 124.68 46.8501C127.16 46.2589 127.181 44.4234 126.809 42.6954L131.17 39.0741Z" fill="#FFC3BD"/>
<path d="M133.184 47.8918C133.63 46.9865 134.122 45.9447 133.184 45.6223C132.158 45.2626 126.491 44.8988 124.502 45.5685C123.971 45.7039 123.515 46.0448 123.235 46.5162C122.956 46.9875 122.874 47.5508 123.01 48.082L133.184 47.8918Z" fill="#DF0031"/>
<path d="M137.532 47.7224C140.149 48.9295 141.48 58.0821 141.48 58.0821L136.21 59.7357C135.268 57.3141 134.504 54.8271 133.923 52.2946C133.113 48.4748 134.854 46.4905 137.532 47.7224Z" fill="#263238"/>
<path d="M105.139 61.9637L102.708 59.8719L100.521 63.0551C100.521 63.0551 102.485 64.6301 104.655 63.9852L105.139 61.9637Z" fill="#FFC3BD"/>
<path d="M99.5043 58.8593L99.1694 62.0052L100.521 63.0552L102.708 59.8721L99.5043 58.8593Z" fill="#FFC3BD"/>
<path d="M131.728 35.6883C131.422 38.8466 131.402 40.7069 129.748 42.3274C129.216 42.855 128.55 43.2278 127.821 43.4059C127.093 43.5841 126.33 43.5608 125.614 43.3387C124.898 43.1166 124.256 42.704 123.757 42.145C123.257 41.586 122.919 40.9017 122.778 40.1654C122.2 37.3295 122.778 32.6416 125.933 31.3848C126.604 31.0953 127.34 30.9874 128.066 31.0719C128.792 31.1564 129.484 31.4303 130.071 31.8662C130.658 32.3021 131.12 32.8846 131.411 33.5555C131.702 34.2263 131.811 34.9618 131.728 35.6883Z" fill="#FFC3BD"/>
<path d="M125.259 36.7012C124.982 34.5185 125.027 33.6917 126.193 33.208C124.982 32.9683 123.932 32.9352 123.431 32.2283C122.931 31.5214 122.811 29.7149 125.242 28.8881C125.019 29.3015 125.726 30.1613 127.962 29.3841C130.199 28.607 133.456 28.5243 133.75 30.7979C134.932 30.3846 136.912 34.0348 134.577 36.7012C132.63 38.9336 131.331 40.4755 130.947 41.662C130.929 41.7175 130.899 41.7687 130.86 41.812C130.821 41.8553 130.773 41.8898 130.72 41.9133C130.666 41.9367 130.608 41.9485 130.55 41.948C130.491 41.9474 130.434 41.9345 130.381 41.91C129.575 41.5338 128.132 41.8563 127.487 42.0299C127.396 42.0534 127.3 42.0454 127.214 42.0071C127.129 41.9688 127.059 41.9025 127.016 41.8191C126.598 40.9592 125.47 38.5036 125.259 36.7012Z" fill="#263238"/>
<path d="M133.312 31.0749C133.312 31.0749 134.271 29.7231 136.11 30.7277C135.165 30.6836 134.218 30.801 133.312 31.0749Z" fill="#263238"/>
<path d="M133.469 31.3643C133.469 31.3643 134.804 30.5375 133.762 28.979C133.826 29.7858 133.726 30.5971 133.469 31.3643Z" fill="#263238"/>
<path d="M126.805 36.7921C126.66 37.5737 126.272 38.2897 125.697 38.8384C124.932 39.5618 124.271 39.0492 124.25 38.1191C124.229 37.2923 124.601 35.895 125.49 35.523C126.379 35.1509 126.962 35.8578 126.805 36.7921Z" fill="#FFC3BD"/>
<path opacity="0.3" d="M124.713 86.8625C125.011 93.7993 125.478 101.852 126.156 106.453C126.416 108.206 126.796 110.662 127.251 113.51C129.078 103.539 130.17 90.6906 124.713 86.8625Z" fill="black"/>
<path d="M122.435 151.348C122.047 151.348 121.671 151.294 121.551 151.121C121.519 151.074 121.503 151.02 121.503 150.964C121.503 150.908 121.519 150.853 121.551 150.806C121.606 150.723 121.69 150.663 121.786 150.637C122.295 150.501 123.337 151.104 123.382 151.133C123.395 151.14 123.405 151.151 123.41 151.165C123.415 151.179 123.416 151.194 123.411 151.207C123.408 151.222 123.401 151.235 123.391 151.245C123.38 151.255 123.367 151.262 123.353 151.265C123.05 151.318 122.743 151.346 122.435 151.348ZM121.976 150.761C121.93 150.754 121.883 150.754 121.836 150.761C121.806 150.767 121.778 150.778 121.753 150.795C121.728 150.813 121.707 150.835 121.691 150.86C121.637 150.951 121.654 150.997 121.671 151.021C121.807 151.216 122.572 151.22 123.142 151.141C122.782 150.939 122.386 150.81 121.976 150.761Z" fill="#DF0031"/>
<path d="M123.357 151.265H123.328C122.968 151.1 122.262 150.439 122.332 150.1C122.332 150.017 122.406 149.918 122.605 149.897C122.678 149.888 122.753 149.894 122.824 149.915C122.896 149.937 122.962 149.973 123.018 150.021C123.394 150.339 123.431 151.158 123.431 151.191C123.431 151.204 123.428 151.216 123.422 151.228C123.417 151.239 123.408 151.249 123.398 151.257C123.386 151.264 123.371 151.266 123.357 151.265ZM122.658 150.025H122.617C122.485 150.025 122.476 150.087 122.472 150.104C122.431 150.31 122.906 150.827 123.274 151.05C123.251 150.708 123.123 150.382 122.906 150.116C122.836 150.06 122.748 150.031 122.658 150.033V150.025Z" fill="#DF0031"/>
<path d="M126.697 151.195H123.663L123.605 144.159H126.643L126.697 151.195Z" fill="#FFC3BD"/>
<path d="M123.692 150.844H126.999C127.058 150.843 127.116 150.863 127.161 150.901C127.207 150.939 127.237 150.992 127.247 151.05L127.756 153.75C127.767 153.816 127.764 153.885 127.746 153.95C127.728 154.015 127.696 154.075 127.652 154.126C127.609 154.178 127.554 154.219 127.493 154.247C127.431 154.274 127.364 154.288 127.297 154.287C126.102 154.287 124.374 154.2 122.873 154.2C121.112 154.2 119.591 154.295 117.528 154.295C116.288 154.295 115.982 153.035 116.507 152.919C118.901 152.402 120.844 152.344 122.94 151.079C123.164 150.934 123.424 150.853 123.692 150.844Z" fill="#263238"/>
<path opacity="0.2" d="M123.609 144.163L123.634 147.789H126.673L126.648 144.163H123.609Z" fill="black"/>
<path d="M118.868 73.944C118.868 73.944 117.627 96.6518 117.652 105.912C117.652 115.544 122.53 147.086 122.53 147.086H127.673C127.673 147.086 126.334 116.106 126.912 106.656C127.528 96.321 130.513 73.9522 130.513 73.9522L118.868 73.944Z" fill="#DF0031"/>
<path d="M121.613 145.035C121.588 145.035 121.824 147.173 121.824 147.173H128.082L128.322 145.267L121.613 145.035Z" fill="#263238"/>
<path d="M119.975 47.6933C119.975 47.6933 114.8 60.769 117.053 83.3693H135.953C136.152 80.8889 134.176 59.2849 136.995 47.5362C135.207 47.19 133.398 46.9608 131.579 46.85C129.28 46.7176 126.975 46.7176 124.676 46.85C123.09 47.0096 121.518 47.2916 119.975 47.6933Z" fill="#263238"/>
<path opacity="0.2" d="M117.301 59.529C117.02 61.5959 116.788 63.9564 116.639 66.5567C120.31 63.1834 121.567 54.7791 121.567 54.7791L117.301 59.529Z" fill="black"/>
<path d="M121.923 53.9192C121.179 55.8538 120.426 57.7183 119.599 59.5909C118.773 61.4636 117.917 63.3115 116.954 65.1635L116.578 65.8539L116.387 66.2011C116.309 66.3417 116.317 66.3499 116.102 66.7096C115.731 67.2925 115.218 67.7707 114.61 68.0986C114.107 68.3629 113.558 68.5285 112.993 68.5864C112.217 68.6575 111.434 68.5946 110.678 68.4004C110.081 68.2525 109.495 68.0619 108.926 67.8299C107.903 67.4064 106.912 66.909 105.962 66.3417C105.494 66.073 105.048 65.7836 104.606 65.5149C104.163 65.2462 103.762 64.9031 103.287 64.5723L105.519 61.1494C107.121 62.0322 108.803 62.7616 110.542 63.328C110.911 63.4421 111.288 63.5278 111.671 63.5843C111.889 63.6308 112.114 63.6308 112.332 63.5843C112.357 63.5843 112.278 63.5595 112.142 63.6298C111.976 63.7145 111.834 63.8396 111.728 63.9936C111.642 64.1383 111.753 63.9233 111.79 63.8406L111.939 63.5141L112.237 62.865C113.022 61.1122 113.75 59.2974 114.457 57.4909C115.164 55.6844 115.85 53.7993 116.482 51.9762L121.923 53.9192Z" fill="#263238"/>
<path d="M123.977 49.0658C124.944 51.7694 118.099 62.6541 118.099 62.6541L114.039 58.6318C114.039 58.6318 115.077 55.213 116.445 51.0956C117.793 47.0485 123.055 46.4821 123.977 49.0658Z" fill="#263238"/>
</g>
<defs>
<clipPath id="clip0_56_637">
<rect width="179" height="154.61" fill="white"/>
</clipPath>
</defs>
</svg>
