<svg width="471" height="425" viewBox="0 0 471 425" fill="none" xmlns="http://www.w3.org/2000/svg">
<path d="M26.4441 265.984C26.4441 265.984 44.5127 339.727 117.728 378.584C190.943 417.44 278.708 406.355 350.173 399.202C421.638 392.05 467.393 343.632 463.007 282.839C458.622 222.046 401.122 213.623 357.607 150.929C314.092 88.2348 312.078 65.5362 241.507 34.3302C170.936 3.12431 79.6429 44.9267 44.0233 124.72C8.4038 204.514 26.4441 265.984 26.4441 265.984Z" fill="#DF0031"/>
<path opacity="0.7" d="M26.4441 265.984C26.4441 265.984 44.5127 339.727 117.728 378.584C190.943 417.44 278.708 406.355 350.173 399.202C421.638 392.05 467.393 343.632 463.007 282.839C458.622 222.046 401.122 213.623 357.607 150.929C314.092 88.2348 312.078 65.5362 241.507 34.3302C170.936 3.12431 79.6429 44.9267 44.0233 124.72C8.4038 204.514 26.4441 265.984 26.4441 265.984Z" fill="white"/>
<path d="M61.8002 62.741V392.266" stroke="#263238" stroke-width="0.941071" stroke-miterlimit="10"/>
<path d="M61.8002 50.0369V56.342" stroke="#263238" stroke-width="0.941071" stroke-miterlimit="10"/>
<path d="M181.796 50.0369V392.267" stroke="#263238" stroke-width="0.941071" stroke-miterlimit="10"/>
<path d="M301.792 50.0369V392.267" stroke="#263238" stroke-width="0.941071" stroke-miterlimit="10"/>
<path d="M421.788 98.8315V392.267" stroke="#263238" stroke-width="0.941071" stroke-miterlimit="10"/>
<path d="M421.788 50.0369V90.6065" stroke="#263238" stroke-width="0.941071" stroke-miterlimit="10"/>
<path d="M358.37 96.8081H83.5861V259.661H358.37V96.8081Z" fill="#263238"/>
<path d="M356.817 101.438H85.1387V255.031H356.817V101.438Z" fill="white" stroke="#263238" stroke-width="0.941071" stroke-linecap="round" stroke-linejoin="round"/>
<path d="M359.913 94.0225H80.4521V102.756H359.913V94.0225Z" fill="#263238"/>
<path d="M224.06 93.9002C228.4 93.9002 231.918 90.3821 231.918 86.0423C231.918 81.7024 228.4 78.1843 224.06 78.1843C219.72 78.1843 216.202 81.7024 216.202 86.0423C216.202 90.3821 219.72 93.9002 224.06 93.9002Z" fill="white" stroke="#263238" stroke-width="0.941071" stroke-linecap="round" stroke-linejoin="round"/>
<path d="M228.2 86.0422C228.202 86.8615 227.961 87.663 227.507 88.3452C227.053 89.0274 226.407 89.5596 225.651 89.8744C224.894 90.1893 224.061 90.2726 223.258 90.1139C222.454 89.9552 221.715 89.5616 221.135 88.9829C220.555 88.4041 220.16 87.6664 219.999 86.8629C219.839 86.0594 219.92 85.2264 220.233 84.4692C220.546 83.712 221.077 83.0648 221.758 82.6094C222.439 82.154 223.24 81.9109 224.06 81.9109C225.156 81.9109 226.208 82.3458 226.984 83.1203C227.761 83.8948 228.198 84.9456 228.2 86.0422Z" fill="#DF0031" stroke="#263238" stroke-width="0.941071" stroke-miterlimit="10"/>
<path d="M134.47 201.182H100.892V167.134H157.996V201.182H140.86" stroke="#263238" stroke-width="0.941071" stroke-miterlimit="10"/>
<path d="M191.527 217.481H145.951V244.66H191.527V217.481Z" stroke="#263238" stroke-width="0.941071" stroke-miterlimit="10"/>
<path d="M241.827 167.134H247.577V201.182H190.473V167.134H236.35" stroke="#263238" stroke-width="0.941071" stroke-miterlimit="10"/>
<path d="M195.225 117.361H262.248V151.418H175.811V117.361H188.835" stroke="#263238" stroke-width="0.941071" stroke-miterlimit="10"/>
<path d="M336.64 167.134H279.536V201.182H336.64V167.134Z" stroke="#263238" stroke-width="0.941071" stroke-miterlimit="10"/>
<path d="M171.096 134.131C171.096 134.131 140.794 138.337 122.989 164.01" stroke="#263238" stroke-width="0.941071" stroke-miterlimit="10"/>
<path d="M151.71 204.853L155.719 216.559" stroke="#263238" stroke-width="0.941071" stroke-miterlimit="10"/>
<path d="M193.098 203.798L189.428 214.799" stroke="#263238" stroke-width="0.941071" stroke-miterlimit="10"/>
<path d="M151.315 212.701L155.719 216.559L156.82 211.327" stroke="#263238" stroke-width="0.941071" stroke-miterlimit="10"/>
<path d="M187.631 211.327L189.278 215.731L193.955 212.974" stroke="#263238" stroke-width="0.941071" stroke-miterlimit="10"/>
<path d="M123.807 158.787L122.989 164.01L128.757 160.434" stroke="#263238" stroke-width="0.941071" stroke-miterlimit="10"/>
<path d="M249.252 183.264H277.861" stroke="#263238" stroke-width="0.941071" stroke-miterlimit="10"/>
<path d="M271.81 179.688L278.143 183.264L272.365 186.84" stroke="#263238" stroke-width="0.941071" stroke-miterlimit="10"/>
<path d="M158.947 183.264H187.555" stroke="#263238" stroke-width="0.941071" stroke-miterlimit="10"/>
<path d="M181.504 179.688L187.828 183.264L182.06 186.84" stroke="#263238" stroke-width="0.941071" stroke-miterlimit="10"/>
<path d="M218.818 154.138V162.843" stroke="#263238" stroke-width="0.941071" stroke-miterlimit="10"/>
<path d="M222.385 156.782L218.808 163.116L215.242 157.337" stroke="#263238" stroke-width="0.941071" stroke-miterlimit="10"/>
<path d="M277.588 193.55H250.071" stroke="#263238" stroke-width="0.941071" stroke-miterlimit="10"/>
<path d="M255.887 189.974L249.807 193.55L255.36 197.126" stroke="#263238" stroke-width="0.941071" stroke-miterlimit="10"/>
<path d="M193.682 127.976H245.403" stroke="#263238" stroke-width="0.941071" stroke-miterlimit="10"/>
<path d="M193.682 132.926H245.403" stroke="#263238" stroke-width="0.941071" stroke-miterlimit="10"/>
<path d="M193.682 137.876H245.403" stroke="#263238" stroke-width="0.941071" stroke-miterlimit="10"/>
<path d="M106.2 179.688H152.698" stroke="#263238" stroke-width="0.941071" stroke-miterlimit="10"/>
<path d="M106.2 184.648H152.698" stroke="#263238" stroke-width="0.941071" stroke-miterlimit="10"/>
<path d="M106.2 189.598H152.698" stroke="#263238" stroke-width="0.941071" stroke-miterlimit="10"/>
<path d="M196.439 179.688H242.928" stroke="#263238" stroke-width="0.941071" stroke-miterlimit="10"/>
<path d="M196.439 184.648H242.928" stroke="#263238" stroke-width="0.941071" stroke-miterlimit="10"/>
<path d="M196.439 189.598H242.928" stroke="#263238" stroke-width="0.941071" stroke-miterlimit="10"/>
<path d="M283.366 179.688H329.855" stroke="#263238" stroke-width="0.941071" stroke-miterlimit="10"/>
<path d="M283.366 184.648H329.855" stroke="#263238" stroke-width="0.941071" stroke-miterlimit="10"/>
<path d="M283.366 189.598H329.855" stroke="#263238" stroke-width="0.941071" stroke-miterlimit="10"/>
<path d="M151.87 226.732H187.358" stroke="#263238" stroke-width="0.941071" stroke-miterlimit="10"/>
<path d="M151.87 231.682H187.358" stroke="#263238" stroke-width="0.941071" stroke-miterlimit="10"/>
<path d="M151.87 236.642H187.358" stroke="#263238" stroke-width="0.941071" stroke-miterlimit="10"/>
<path d="M309.236 132.296C309.135 132.294 309.038 132.259 308.958 132.197C308.879 132.136 308.821 132.05 308.794 131.953C308.766 131.856 308.771 131.753 308.806 131.659C308.842 131.565 308.907 131.485 308.991 131.43L309.349 131.204L309.217 131.279C309.112 131.325 308.995 131.33 308.886 131.295C308.778 131.261 308.686 131.187 308.627 131.09C308.568 130.992 308.547 130.876 308.567 130.764C308.588 130.652 308.648 130.551 308.737 130.479L310.619 129.284L308.972 130.225C308.867 130.278 308.746 130.29 308.632 130.257C308.519 130.225 308.422 130.151 308.36 130.05C308.299 129.95 308.277 129.83 308.3 129.714C308.323 129.598 308.388 129.495 308.483 129.425L311.852 127.223L308.662 129.106C308.556 129.165 308.432 129.182 308.314 129.152C308.197 129.122 308.096 129.048 308.031 128.946C307.969 128.841 307.949 128.717 307.976 128.598C308.002 128.479 308.072 128.375 308.172 128.306L313.424 124.795L308.304 127.741C308.201 127.801 308.079 127.819 307.963 127.791C307.848 127.763 307.747 127.691 307.683 127.59C307.649 127.541 307.626 127.486 307.614 127.427C307.602 127.369 307.601 127.308 307.613 127.25C307.624 127.191 307.647 127.135 307.68 127.085C307.713 127.036 307.756 126.993 307.805 126.96L315.682 121.313L307.815 125.859C307.709 125.918 307.585 125.935 307.468 125.905C307.35 125.876 307.249 125.802 307.184 125.699C307.12 125.597 307.097 125.475 307.122 125.357C307.147 125.239 307.216 125.135 307.316 125.068L312.963 121.153L307.41 124.363C307.308 124.421 307.187 124.439 307.072 124.413C306.957 124.387 306.856 124.318 306.789 124.221C306.724 124.12 306.702 123.997 306.727 123.879C306.751 123.761 306.821 123.658 306.921 123.591L310.121 121.436L307.1 123.177C306.994 123.236 306.87 123.253 306.752 123.223C306.635 123.193 306.533 123.12 306.469 123.017C306.405 122.914 306.384 122.791 306.411 122.673C306.437 122.555 306.509 122.452 306.61 122.386L308.671 120.993L306.789 122.076C306.686 122.124 306.57 122.133 306.461 122.102C306.352 122.071 306.258 122.001 306.196 121.906C306.134 121.811 306.108 121.697 306.124 121.584C306.14 121.472 306.195 121.369 306.281 121.295L311.786 117.22L306.337 120.363C306.234 120.418 306.114 120.433 306 120.405C305.886 120.376 305.787 120.306 305.723 120.208C305.658 120.111 305.632 119.992 305.65 119.876C305.668 119.76 305.729 119.655 305.82 119.582L310.695 115.818L305.848 118.575C305.743 118.633 305.62 118.65 305.504 118.622C305.387 118.594 305.285 118.524 305.218 118.424C305.152 118.324 305.128 118.202 305.151 118.084C305.174 117.967 305.241 117.862 305.34 117.794L307.721 116.034L305.519 117.314C305.414 117.372 305.291 117.389 305.174 117.361C305.057 117.333 304.955 117.263 304.888 117.163C304.824 117.063 304.8 116.943 304.821 116.826C304.842 116.709 304.906 116.604 305.001 116.533L306.949 115.055L305.189 116.072C305.086 116.132 304.964 116.15 304.848 116.121C304.733 116.093 304.632 116.022 304.568 115.921C304.502 115.823 304.475 115.704 304.492 115.587C304.51 115.471 304.57 115.365 304.662 115.291L305.603 114.528L304.851 114.961C304.758 115.016 304.648 115.037 304.542 115.02C304.435 115.003 304.338 114.949 304.267 114.867C304.201 114.783 304.165 114.678 304.165 114.571C304.165 114.463 304.201 114.359 304.267 114.274L305.754 112.392L304.399 113.173C304.322 113.224 304.232 113.251 304.14 113.251C304.048 113.251 303.958 113.224 303.881 113.173C303.809 113.118 303.754 113.044 303.722 112.959C303.691 112.874 303.684 112.782 303.702 112.693L303.844 112.119C303.764 112.114 303.686 112.09 303.618 112.049C303.549 112.008 303.491 111.951 303.448 111.884C303.39 111.775 303.376 111.647 303.409 111.528C303.442 111.409 303.521 111.307 303.627 111.244L304.305 110.849C304.384 110.804 304.475 110.784 304.566 110.791C304.657 110.797 304.744 110.829 304.816 110.884C304.889 110.939 304.944 111.014 304.976 111.099C305.007 111.185 305.012 111.278 304.992 111.366L304.869 111.846L307.354 110.416C307.448 110.364 307.558 110.346 307.664 110.364C307.77 110.383 307.867 110.438 307.937 110.52C308.008 110.602 308.048 110.705 308.052 110.813C308.055 110.921 308.021 111.026 307.956 111.112L306.479 112.994L310.93 110.425C311.033 110.369 311.153 110.352 311.267 110.378C311.382 110.404 311.483 110.471 311.551 110.566C311.616 110.665 311.642 110.785 311.623 110.902C311.603 111.019 311.541 111.124 311.447 111.197L310.506 111.969L312.859 110.604C312.962 110.549 313.083 110.534 313.196 110.562C313.31 110.591 313.409 110.661 313.474 110.759C313.538 110.857 313.564 110.975 313.546 111.091C313.528 111.207 313.468 111.312 313.377 111.385L311.429 112.863L314.638 110.98C314.743 110.922 314.865 110.905 314.982 110.933C315.099 110.961 315.201 111.032 315.268 111.131C315.332 111.231 315.356 111.352 315.336 111.468C315.315 111.585 315.25 111.69 315.155 111.762L312.765 113.521L316.35 111.451C316.401 111.417 316.458 111.393 316.518 111.381C316.578 111.369 316.639 111.369 316.699 111.381C316.759 111.393 316.816 111.416 316.867 111.45C316.917 111.484 316.961 111.527 316.995 111.578C317.029 111.629 317.053 111.686 317.065 111.745C317.077 111.805 317.077 111.867 317.065 111.927C317.053 111.987 317.03 112.044 316.996 112.094C316.962 112.145 316.919 112.189 316.868 112.223L311.993 115.987L318.421 112.223C318.526 112.164 318.649 112.148 318.765 112.175C318.882 112.203 318.984 112.274 319.051 112.373C319.116 112.473 319.14 112.594 319.119 112.711C319.098 112.828 319.033 112.932 318.938 113.004L313.424 117.079L320.218 113.164C320.323 113.103 320.446 113.085 320.564 113.113C320.681 113.141 320.783 113.213 320.849 113.314C320.914 113.417 320.937 113.542 320.912 113.661C320.887 113.78 320.818 113.885 320.717 113.954L318.647 115.338L321.319 113.794C321.423 113.744 321.542 113.735 321.653 113.767C321.764 113.799 321.859 113.87 321.92 113.968C321.982 114.065 322.005 114.182 321.987 114.296C321.968 114.409 321.908 114.512 321.818 114.585L318.628 116.74L322.392 114.557C322.496 114.507 322.615 114.497 322.726 114.529C322.836 114.561 322.932 114.632 322.993 114.73C323.055 114.827 323.078 114.944 323.059 115.058C323.041 115.172 322.981 115.275 322.891 115.347L317.244 119.262L323.663 115.554C323.767 115.504 323.885 115.494 323.996 115.526C324.107 115.558 324.202 115.63 324.264 115.727C324.325 115.825 324.349 115.942 324.33 116.055C324.311 116.169 324.251 116.272 324.161 116.345L316.285 121.991L325.055 116.919C325.161 116.859 325.285 116.842 325.403 116.872C325.52 116.902 325.622 116.976 325.686 117.079C325.719 117.129 325.742 117.185 325.753 117.243C325.765 117.302 325.764 117.363 325.752 117.421C325.74 117.48 325.716 117.536 325.682 117.585C325.648 117.635 325.605 117.677 325.554 117.709L320.293 121.238L326.006 117.935C326.111 117.882 326.233 117.871 326.346 117.903C326.459 117.936 326.556 118.009 326.618 118.11C326.68 118.211 326.701 118.331 326.678 118.446C326.656 118.562 326.59 118.665 326.495 118.735L323.126 120.937L326.73 118.857C326.835 118.795 326.961 118.777 327.079 118.807C327.197 118.837 327.298 118.913 327.361 119.017C327.394 119.068 327.416 119.124 327.427 119.183C327.437 119.243 327.436 119.303 327.423 119.362C327.41 119.421 327.385 119.476 327.35 119.525C327.315 119.575 327.271 119.616 327.22 119.648L325.338 120.852L327.286 119.723C327.391 119.661 327.516 119.643 327.634 119.673C327.752 119.703 327.854 119.778 327.916 119.883C327.978 119.988 327.998 120.112 327.972 120.231C327.946 120.35 327.875 120.454 327.775 120.523L327.417 120.749L327.822 120.514C327.926 120.464 328.045 120.454 328.156 120.486C328.266 120.518 328.362 120.589 328.423 120.687C328.485 120.784 328.508 120.901 328.489 121.015C328.471 121.129 328.411 121.232 328.321 121.304L322.9 125.162L328.547 121.897C328.65 121.834 328.775 121.815 328.893 121.843C329.011 121.871 329.113 121.944 329.177 122.047C329.242 122.15 329.265 122.275 329.241 122.394C329.216 122.513 329.146 122.619 329.045 122.687L328.923 122.763C329.028 122.703 329.151 122.686 329.268 122.714C329.385 122.743 329.487 122.816 329.552 122.917C329.617 123.018 329.641 123.141 329.619 123.259C329.596 123.378 329.529 123.483 329.431 123.553L328.377 124.297L329.375 123.732C329.47 123.671 329.584 123.647 329.695 123.664C329.807 123.681 329.908 123.739 329.98 123.826C330.052 123.913 330.089 124.023 330.085 124.136C330.081 124.249 330.036 124.356 329.958 124.438L328.17 126.499L329.902 125.501C329.985 125.452 330.083 125.43 330.179 125.441C330.276 125.451 330.367 125.492 330.438 125.558C330.512 125.621 330.564 125.706 330.588 125.8C330.611 125.895 330.605 125.994 330.57 126.085L330.382 126.527C330.473 126.517 330.566 126.534 330.648 126.576C330.73 126.617 330.797 126.682 330.843 126.762C330.905 126.87 330.921 126.997 330.89 127.117C330.858 127.237 330.78 127.339 330.674 127.402L329.676 127.976C329.592 128.027 329.494 128.049 329.396 128.04C329.298 128.031 329.206 127.991 329.132 127.926C329.059 127.861 329.008 127.774 328.987 127.678C328.967 127.582 328.977 127.482 329.017 127.393L329.177 126.998L326.213 128.71C326.117 128.761 326.006 128.777 325.899 128.756C325.792 128.734 325.696 128.676 325.628 128.592C325.559 128.508 325.521 128.402 325.522 128.293C325.522 128.184 325.56 128.079 325.629 127.995L327.417 125.934L320.557 129.868C320.454 129.925 320.332 129.942 320.217 129.914C320.102 129.886 320.001 129.816 319.936 129.717C319.902 129.668 319.879 129.612 319.867 129.554C319.854 129.495 319.854 129.435 319.865 129.376C319.877 129.318 319.9 129.262 319.933 129.212C319.966 129.163 320.009 129.12 320.058 129.087L321.112 128.334L317.207 130.583C317.101 130.643 316.977 130.659 316.859 130.63C316.742 130.6 316.641 130.526 316.576 130.423C316.512 130.32 316.492 130.197 316.518 130.079C316.544 129.961 316.616 129.858 316.717 129.792L316.83 129.708L314.224 131.214C314.121 131.274 313.998 131.291 313.883 131.263C313.767 131.235 313.666 131.163 313.602 131.063C313.569 131.014 313.545 130.958 313.533 130.9C313.521 130.841 313.521 130.781 313.532 130.722C313.543 130.664 313.566 130.608 313.599 130.558C313.632 130.508 313.675 130.466 313.725 130.432L319.174 126.602L309.471 132.202C309.404 132.256 309.322 132.289 309.236 132.296Z" fill="#DF0031"/>
<path d="M294.734 145.471C292.607 143.661 290.894 141.416 289.712 138.886C288.53 136.356 287.906 133.601 287.883 130.809C287.883 119.704 297.51 110.708 309.387 110.708C321.263 110.708 330.899 119.704 330.899 130.809C330.899 141.913 321.272 150.91 309.387 150.91C306.275 150.911 303.196 150.27 300.343 149.028" stroke="#263238" stroke-width="0.941071" stroke-miterlimit="10"/>
<path d="M268.939 126.47H282.519" stroke="#263238" stroke-width="0.941071" stroke-miterlimit="10"/>
<path d="M268.939 131.147H282.519" stroke="#263238" stroke-width="0.941071" stroke-miterlimit="10"/>
<path d="M268.939 135.834H282.519" stroke="#263238" stroke-width="0.941071" stroke-miterlimit="10"/>
<path d="M104.788 206.321H128.673" stroke="#263238" stroke-width="0.941071" stroke-miterlimit="10"/>
<path d="M104.788 211.007H128.673" stroke="#263238" stroke-width="0.941071" stroke-miterlimit="10"/>
<path d="M99.8289 145.433H123.713" stroke="#263238" stroke-width="0.941071" stroke-miterlimit="10"/>
<path d="M104.788 215.684H128.673" stroke="#263238" stroke-width="0.941071" stroke-miterlimit="10"/>
<path d="M104.788 225.518H128.673" stroke="#263238" stroke-width="0.941071" stroke-miterlimit="10"/>
<path d="M104.788 230.205H128.673" stroke="#263238" stroke-width="0.941071" stroke-miterlimit="10"/>
<path d="M104.788 234.891H128.673" stroke="#263238" stroke-width="0.941071" stroke-miterlimit="10"/>
<path d="M303.665 111.216L309.471 132.23L330.711 127.383" stroke="#263238" stroke-width="0.941071" stroke-miterlimit="10"/>
<path d="M100.083 116.599V139.994H137.65" stroke="#263238" stroke-width="0.941071" stroke-miterlimit="10"/>
<path d="M111.78 119.789H103.979V139.994H111.78V119.789Z" fill="#DF0031" stroke="#263238" stroke-width="0.941071" stroke-miterlimit="10"/>
<path d="M131.628 124.391H123.826V139.984H131.628V124.391Z" fill="#DF0031" stroke="#263238" stroke-width="0.941071" stroke-miterlimit="10"/>
<path d="M121.709 113.409H113.907V139.994H121.709V113.409Z" fill="#DF0031" stroke="#263238" stroke-width="0.941071" stroke-miterlimit="10"/>
<path d="M54.8551 267.368C54.8551 267.368 54.8551 263.434 49.3498 257.957C43.8445 252.48 40.3061 249.309 40.3061 249.309C40.3061 249.309 37.5488 258.352 42.6682 263.858C46.4267 267.73 50.5033 271.281 54.8551 274.473V267.368Z" fill="#DF0031"/>
<path d="M46.8653 291.93C46.8653 291.93 46.8653 287.996 41.36 282.519C35.8548 277.042 32.3163 273.852 32.3163 273.852C32.3163 273.852 29.559 282.895 34.669 288.401C38.444 292.274 42.5362 295.825 46.9029 299.016L46.8653 291.93Z" fill="#DF0031"/>
<path d="M54.5069 274.068C54.5069 274.068 54.9304 270.153 60.9814 265.26C67.0325 260.366 70.8909 257.618 70.8909 257.618C70.8909 257.618 72.679 266.897 67.0137 271.838C62.8612 275.289 58.4292 278.39 53.7634 281.108L54.5069 274.068Z" fill="#DF0031"/>
<path d="M44.861 303.072C44.861 303.072 45.6797 299.232 52.2202 294.998C58.7606 290.763 62.8731 288.41 62.8731 288.41C62.8731 288.41 63.673 297.821 57.5184 302.14C53.0383 305.137 48.3167 307.756 43.4023 309.97L44.861 303.072Z" fill="#DF0031"/>
<path d="M46.6678 334.701C46.6678 334.701 46.6678 330.768 52.1824 325.291C57.6971 319.814 61.2261 316.642 61.2261 316.642C61.2261 316.642 63.9741 325.686 58.8641 331.191C55.0914 335.067 50.9989 338.618 46.6301 341.807L46.6678 334.701Z" fill="#DF0031"/>
<path d="M46.583 342.418C46.583 342.418 47.1383 338.531 42.4705 332.292C37.8028 326.053 34.7443 322.448 34.7443 322.448C34.7443 322.448 30.7354 331.012 35.0173 337.186C38.1885 341.552 41.7205 345.644 45.5761 349.42L46.583 342.418Z" fill="#DF0031"/>
<path d="M41.1531 365.305C41.1531 365.305 41.1531 361.371 46.6584 355.894C52.1637 350.417 55.7021 347.237 55.7021 347.237C55.7021 347.237 58.4594 356.28 53.34 361.786C49.5682 365.665 45.4757 369.219 41.1061 372.41L41.1531 365.305Z" fill="#DF0031"/>
<path d="M44.8232 386.046C44.8232 386.046 43.8351 382.235 47.7594 375.516C51.6837 368.796 54.3469 364.853 54.3469 364.853C54.3469 364.853 59.2969 372.909 55.7491 379.534C53.0872 384.233 50.0403 388.702 46.6395 392.897L44.8232 386.046Z" fill="#DF0031"/>
<path d="M55.3538 266.323C55.0763 270.426 54.5736 274.51 53.848 278.557C51.6742 289.85 46.2254 297.059 44.0515 307.213C41.8776 317.367 48.1263 330.457 46.4512 343.501C44.7761 356.544 39.7037 363.809 41.153 372.514C42.6022 381.219 50.2249 404.792 50.2249 404.792" stroke="#263238" stroke-width="0.941071" stroke-linecap="round" stroke-linejoin="round"/>
<path d="M54.4598 276.684L60.3886 272.13" stroke="#263238" stroke-width="0.941071" stroke-linecap="round" stroke-linejoin="round"/>
<path d="M54.7327 271.433L52.2483 267.02" stroke="#263238" stroke-width="0.941071" stroke-linecap="round" stroke-linejoin="round"/>
<path d="M44.381 306.789C44.381 306.789 49.3498 303.025 54.4599 299.345" stroke="#263238" stroke-width="0.941071" stroke-linecap="round" stroke-linejoin="round"/>
<path d="M46.8653 299.007C46.8653 299.007 42.7246 290.895 38.0381 285.512" stroke="#263238" stroke-width="0.941071" stroke-linecap="round" stroke-linejoin="round"/>
<path d="M46.8654 340.301C49.702 335.073 53.2807 330.283 57.4901 326.081" stroke="#263238" stroke-width="0.941071" stroke-linecap="round" stroke-linejoin="round"/>
<path d="M45.9055 345.815C44.3965 342.269 42.596 338.854 40.5225 335.605C37.624 331.332 37.21 330.777 37.21 330.777" stroke="#263238" stroke-width="0.941071" stroke-linecap="round" stroke-linejoin="round"/>
<path d="M41.1531 372.533C42.4099 369.405 43.9043 366.379 45.6232 363.48C47.3433 360.796 49.2822 358.259 51.4202 355.895" stroke="#263238" stroke-width="0.941071" stroke-linecap="round" stroke-linejoin="round"/>
<path d="M46.6207 392.897C46.3321 389.912 46.8454 386.904 48.1076 384.183C50.1779 380.183 52.5212 374.932 53.4905 372.89" stroke="#263238" stroke-width="0.941071" stroke-linecap="round" stroke-linejoin="round"/>
<path d="M18.8215 319.908C18.8215 319.908 18.3886 317.442 21.2494 313.396C24.1103 309.349 25.9548 306.987 25.9548 306.987C25.9548 306.987 28.6651 312.36 26.0489 316.398C24.1124 319.235 21.9402 321.905 19.5555 324.378L18.8215 319.908Z" fill="#DF0031"/>
<path d="M26.4817 334.447C26.4817 334.447 26.0488 331.982 28.9097 327.926C31.7706 323.87 33.6151 321.526 33.6151 321.526C33.6151 321.526 36.3159 326.9 33.7092 330.937C31.7713 333.777 29.5993 336.449 27.2158 338.927L26.4817 334.447Z" fill="#DF0031"/>
<path d="M19.7625 324.077C19.7625 324.077 19.0755 321.668 14.7466 319.259C10.4176 316.85 7.70734 315.494 7.70734 315.494C7.70734 315.494 7.59441 321.517 11.6881 323.964C14.6523 325.714 17.7595 327.209 20.9764 328.434L19.7625 324.077Z" fill="#DF0031"/>
<path d="M28.9474 341.214C28.9474 341.214 28.0063 338.899 23.4515 336.951C18.8967 335.003 16.0547 333.996 16.0547 333.996C16.0547 333.996 16.5817 339.99 20.9106 342.023C24.0533 343.405 27.3048 344.526 30.6319 345.373L28.9474 341.214Z" fill="#DF0031"/>
<path d="M31.2436 361.249C31.2436 361.249 30.8201 358.783 26.7641 355.923C22.7081 353.062 20.1766 351.481 20.1766 351.481C20.1766 351.481 19.4237 357.457 23.2351 360.355C26.0015 362.375 28.9322 364.16 31.9964 365.691L31.2436 361.249Z" fill="#DF0031"/>
<path d="M32.1376 366.077C32.1376 366.077 31.3659 363.696 33.615 359.282C35.8642 354.868 37.3793 352.271 37.3793 352.271C37.3793 352.271 40.8237 357.202 38.8098 361.541C37.2997 364.624 35.5304 367.574 33.5209 370.358L32.1376 366.077Z" fill="#DF0031"/>
<path d="M39.0452 385.971C39.0452 385.971 39.3369 383.486 43.2141 380.4C47.0913 377.313 49.5663 375.591 49.5663 375.591C49.5663 375.591 50.6486 381.51 47.016 384.616C44.3609 386.794 41.5278 388.746 38.5464 390.45L39.0452 385.971Z" fill="#DF0031"/>
<path d="M38.0288 379.835C38.0288 379.835 37.6429 377.37 33.5493 374.546C29.4556 371.723 26.9618 370.095 26.9618 370.095C26.9618 370.095 26.2183 376.071 30.0296 378.97C32.8055 380.99 35.7457 382.775 38.8193 384.305L38.0288 379.835Z" fill="#DF0031"/>
<path d="M37.9722 393.245C37.9722 393.245 38.1886 390.751 34.989 386.959C31.7893 383.166 29.719 380.983 29.719 380.983C29.719 380.983 27.4886 386.573 30.4342 390.337C32.6244 393.002 35.0359 395.476 37.6428 397.734L37.9722 393.245Z" fill="#DF0031"/>
<path d="M18.3792 319.334C18.9977 321.883 19.7549 324.396 20.6471 326.862C23.2351 333.685 27.4323 337.638 29.9073 343.802C32.3823 349.966 29.9073 358.859 32.3352 366.82C34.7632 374.782 38.7722 378.819 38.8098 384.437C38.8475 390.055 36.6265 405.602 36.6265 405.602" stroke="#263238" stroke-width="0.941071" stroke-linecap="round" stroke-linejoin="round"/>
<path d="M20.0637 325.705L15.8477 323.493" stroke="#263238" stroke-width="0.941071" stroke-linecap="round" stroke-linejoin="round"/>
<path d="M19.3202 322.449L20.4024 319.409" stroke="#263238" stroke-width="0.941071" stroke-linecap="round" stroke-linejoin="round"/>
<path d="M29.6438 343.491C29.6438 343.491 26.1242 341.694 22.5199 339.906" stroke="#263238" stroke-width="0.941071" stroke-linecap="round" stroke-linejoin="round"/>
<path d="M27.291 338.889C28.3246 335.621 29.69 332.468 31.3659 329.478" stroke="#263238" stroke-width="0.941071" stroke-linecap="round" stroke-linejoin="round"/>
<path d="M31.733 364.778C29.3843 361.81 26.6206 359.195 23.5269 357.014" stroke="#263238" stroke-width="0.941071" stroke-linecap="round" stroke-linejoin="round"/>
<path d="M32.9375 368.138C33.4961 365.749 34.2515 363.41 35.1961 361.145C36.5512 358.153 36.7488 357.758 36.7488 357.758" stroke="#263238" stroke-width="0.941071" stroke-linecap="round" stroke-linejoin="round"/>
<path d="M38.584 388.663C39.9557 386.965 41.4735 385.39 43.1199 383.957C44.1866 383.174 45.1875 382.306 46.1126 381.36" stroke="#263238" stroke-width="0.941071" stroke-linecap="round" stroke-linejoin="round"/>
<path d="M38.8098 384.371C37.6884 382.547 36.43 380.81 35.0455 379.176C33.6741 377.679 32.1822 376.298 30.5848 375.045" stroke="#263238" stroke-width="0.941071" stroke-linecap="round" stroke-linejoin="round"/>
<path d="M37.6429 397.734C37.4971 395.829 36.8476 393.998 35.7608 392.427C34.0292 390.149 31.9965 387.109 31.1589 385.914" stroke="#263238" stroke-width="0.941071" stroke-linecap="round" stroke-linejoin="round"/>
<path d="M443.376 153.625C447.642 135.264 436.215 116.92 417.853 112.654C399.491 108.388 381.148 119.814 376.882 138.176C372.615 156.538 384.042 174.882 402.404 179.148C420.766 183.414 439.11 171.987 443.376 153.625Z" fill="#263238" stroke="#263238" stroke-width="0.941071" stroke-miterlimit="10"/>
<path d="M421.405 172.601C436.15 166.357 443.042 149.341 436.798 134.596C430.554 119.85 413.539 112.958 398.793 119.202C384.048 125.446 377.156 142.462 383.4 157.207C389.644 171.953 406.659 178.845 421.405 172.601Z" fill="white" stroke="#263238" stroke-width="0.941071" stroke-miterlimit="10"/>
<path d="M419.059 127.289L410.1 145.875H422.899" stroke="#263238" stroke-width="0.941071" stroke-miterlimit="10"/>
<path d="M413.356 145.866C413.358 146.51 413.169 147.141 412.812 147.678C412.456 148.214 411.948 148.633 411.353 148.881C410.758 149.129 410.103 149.195 409.471 149.07C408.839 148.946 408.258 148.636 407.801 148.181C407.345 147.726 407.034 147.146 406.907 146.514C406.781 145.882 406.845 145.227 407.091 144.632C407.337 144.036 407.755 143.527 408.29 143.169C408.826 142.811 409.456 142.619 410.1 142.619C410.527 142.618 410.951 142.701 411.346 142.864C411.741 143.026 412.1 143.265 412.402 143.567C412.705 143.869 412.945 144.227 413.108 144.621C413.272 145.016 413.356 145.439 413.356 145.866Z" fill="#DF0031" stroke="#263238" stroke-width="0.941071" stroke-miterlimit="10"/>
<path d="M225.537 234.063L221.152 227.683C221.152 227.683 222.018 217.425 221.039 215.825C220.06 214.226 204.213 212.372 203.272 213.557C202.331 214.743 205.662 215.816 205.662 215.816C205.662 215.816 203.403 216.814 203.639 217.952C203.987 219.627 206.876 219.834 206.876 219.834C206.876 219.834 204.58 221.368 204.862 222.366C205.088 223.156 207.384 223.778 207.384 223.778C207.384 223.778 205.06 224.832 206.961 226.177C208.862 227.523 210.471 228.916 210.471 228.916C210.471 228.916 209.153 231.739 212.72 234.195C216.287 236.651 222.451 241.121 222.451 241.121L225.537 234.063Z" fill="white" stroke="#263238" stroke-width="0.941071" stroke-linecap="round" stroke-linejoin="round"/>
<path d="M203.864 209.285L200.354 208.993V210.076L203.177 211.666C203.338 210.854 203.568 210.058 203.864 209.285Z" fill="#263238" stroke="#263238" stroke-width="0.941071" stroke-linecap="round" stroke-linejoin="round"/>
<path d="M217.661 216.39C217.504 216.396 217.348 216.374 217.199 216.324L203.272 211.929C203.09 211.881 202.92 211.796 202.772 211.68C202.624 211.564 202.501 211.419 202.411 211.254C202.32 211.089 202.264 210.907 202.246 210.72C202.227 210.533 202.247 210.344 202.303 210.165C202.36 209.985 202.452 209.819 202.575 209.677C202.697 209.534 202.848 209.418 203.016 209.334C203.185 209.251 203.369 209.203 203.557 209.193C203.745 209.183 203.932 209.211 204.109 209.276L218.037 213.67C218.35 213.77 218.618 213.977 218.794 214.255C218.969 214.532 219.041 214.863 218.996 215.189C218.951 215.514 218.792 215.814 218.548 216.033C218.303 216.253 217.989 216.38 217.661 216.39Z" fill="white" stroke="#263238" stroke-width="0.941071" stroke-linecap="round" stroke-linejoin="round"/>
<path d="M224.916 219.129C224.706 219.13 224.496 219.098 224.295 219.034L217.105 216.766C216.834 216.729 216.575 216.632 216.345 216.484C216.115 216.335 215.92 216.138 215.774 215.907C215.628 215.675 215.534 215.414 215.499 215.143C215.464 214.871 215.489 214.596 215.571 214.334C215.654 214.073 215.792 213.834 215.977 213.632C216.162 213.43 216.389 213.271 216.641 213.165C216.894 213.06 217.167 213.011 217.44 213.022C217.714 213.033 217.982 213.103 218.225 213.228L225.415 215.496C225.88 215.649 226.267 215.978 226.493 216.412C226.72 216.846 226.769 217.351 226.629 217.82C226.512 218.188 226.285 218.51 225.978 218.744C225.672 218.978 225.301 219.112 224.916 219.129Z" fill="#263238" stroke="#263238" stroke-width="0.941071" stroke-linecap="round" stroke-linejoin="round"/>
<path d="M219.119 221.227C218.471 219.347 217.717 217.506 216.861 215.712C215.873 213.887 213.972 212.315 213.219 210.48C212.466 208.645 210.452 211.487 211.195 212.861C211.939 214.235 213.623 216.277 213.652 217.208C213.68 218.14 213.925 218.827 212.852 221.914C211.779 225.001 211.186 228.501 213.586 230.967" fill="white"/>
<path d="M219.119 221.227C218.471 219.347 217.717 217.506 216.861 215.712C215.873 213.887 213.972 212.315 213.219 210.48C212.466 208.645 210.452 211.487 211.195 212.861C211.939 214.235 213.623 216.277 213.652 217.208C213.68 218.14 213.925 218.827 212.852 221.914C211.779 225.001 211.186 228.501 213.586 230.967" stroke="#263238" stroke-width="0.941071" stroke-linecap="round" stroke-linejoin="round"/>
<path d="M205.7 215.816L213.652 217.209" stroke="#263238" stroke-width="0.941071" stroke-linecap="round" stroke-linejoin="round"/>
<path d="M206.913 219.844C207.855 219.58 212.852 221.877 212.852 221.877" stroke="#263238" stroke-width="0.941071" stroke-linecap="round" stroke-linejoin="round"/>
<path d="M207.422 223.787L211.553 225.17" stroke="#263238" stroke-width="0.941071" stroke-linecap="round" stroke-linejoin="round"/>
<path d="M281.221 221.801C281.221 221.801 278.849 220.399 277.804 224.154C276.76 227.909 273.692 234.506 272.337 235.936C270.982 237.367 257.656 250.56 257.656 250.56C257.656 250.56 251.934 246.071 250.589 247.737C250.022 248.563 249.237 249.215 248.321 249.619L225.471 231.692L217.002 244.5C217.002 244.5 248.057 272.883 250.655 273.739C253.252 274.595 255.087 274.304 256.009 273.814C256.932 273.325 273.984 260.489 273.984 260.489C273.984 260.489 284.383 226.93 285.277 225.744C286.171 224.559 281.221 221.801 281.221 221.801Z" fill="#DF0031" stroke="#263238" stroke-width="0.941071" stroke-linecap="round" stroke-linejoin="round"/>
<path d="M250.532 250.636C250.532 250.636 255.162 255.981 255.162 262.747L250.532 250.636Z" fill="#DF0031"/>
<path d="M250.532 250.636C250.532 250.636 255.162 255.981 255.162 262.747" stroke="#263238" stroke-width="0.941071" stroke-linecap="round" stroke-linejoin="round"/>
<path d="M258.014 252.772C258.014 252.772 259.435 256.338 257.298 264.168L258.014 252.772Z" fill="#DF0031"/>
<path d="M258.014 252.772C258.014 252.772 259.435 256.338 257.298 264.168" stroke="#263238" stroke-width="0.941071" stroke-linecap="round" stroke-linejoin="round"/>
<path d="M291.403 180.385C291.403 180.385 281.315 173.797 282.51 167.539C283.705 161.281 306.328 156.246 319.334 160.471C332.339 164.697 334.984 184.158 333.271 196.166C331.558 208.174 330.523 235.578 330.523 235.578L286.396 236.877C286.396 236.877 290.509 204.787 291.365 194.642C292.222 184.497 291.403 180.385 291.403 180.385Z" fill="#263238" stroke="#263238" stroke-width="0.941071" stroke-linecap="round" stroke-linejoin="round"/>
<path d="M268.817 357.071C269.758 366.66 271.546 408.914 272.581 415.173H318.459C318.365 407.964 318.242 359.273 319.277 355.292C320.585 350.314 322.421 333.713 320.397 324.19C318.374 314.666 315.918 310.074 315.918 310.074L268.3 310.027L268.441 313.932C268.441 313.932 267.547 343.491 268.817 357.071Z" fill="#263238" stroke="#263238" stroke-width="0.941071" stroke-linecap="round" stroke-linejoin="round"/>
<path d="M279 328.312C280.882 329.601 282.764 330.523 282.764 332.387C283.705 349.119 287.413 396.116 288.721 413.046" stroke="#4C4C4C" stroke-width="0.941071" stroke-linecap="round" stroke-linejoin="round"/>
<path d="M292.673 221.152L315.955 222.018C315.955 222.018 297.266 250.786 297.426 266.596C297.586 282.406 300.72 315.174 300.72 315.174C300.72 315.174 290.481 323.277 279.894 321.762C278.746 321.592 278.134 312.106 278.134 312.106C278.134 312.106 277.456 321.32 276.675 321.178C270.746 320.115 268.441 313.989 268.441 313.989L269.674 282.321C269.674 282.321 269.674 261.552 271.989 255.586C274.304 249.619 289.944 223.119 289.944 223.119L292.673 221.152Z" fill="white" stroke="#263238" stroke-width="0.941071" stroke-linecap="round" stroke-linejoin="round"/>
<path d="M291.732 239.484C291.732 239.484 284.533 254.447 281.898 263.218C279.263 271.989 278.134 312.069 278.134 312.069" stroke="#263238" stroke-width="0.941071" stroke-linecap="round" stroke-linejoin="round"/>
<path d="M313.151 221.792C313.151 221.792 296.823 246.146 293.671 254.917C290.518 263.688 288.41 297.265 288.824 311.494C289.238 325.723 293.737 341.421 293.737 341.421C306.975 343.534 320.521 342.604 333.346 338.701C333.346 338.701 327.643 313.452 324.877 305.161C323.149 299.727 321.846 294.168 320.981 288.532C320.981 288.532 339.727 228.755 339.727 227.833C339.727 226.911 339.36 225.951 337.487 225.415C335.614 224.878 313.151 221.792 313.151 221.792Z" fill="#DF0031" stroke="#263238" stroke-width="0.941071" stroke-linecap="round" stroke-linejoin="round"/>
<path d="M298.188 314.958L322.421 313.02L322.741 316.897L312.408 318.186" fill="#DF0031"/>
<path d="M298.188 314.958L322.421 313.02L322.741 316.897L312.408 318.186" stroke="#263238" stroke-width="0.941071" stroke-linecap="round" stroke-linejoin="round"/>
<path d="M292.457 224.258C292.457 224.258 273.005 258.635 272.572 264.846C272.139 271.057 269.259 299.666 267.66 308.709C266.06 317.753 259.143 335.313 259.143 335.313C259.143 335.313 257.364 327.615 257.882 324.19C258.4 320.764 265.89 301.322 266.69 296.955C267.49 292.589 268.572 277.052 268.384 270.238C268.196 263.425 267.726 258.475 269.137 253.478C270.549 248.481 281.22 221.801 281.22 221.801L296.701 221.039L292.457 224.258Z" fill="#DF0031" stroke="#263238" stroke-width="0.941071" stroke-linecap="round" stroke-linejoin="round"/>
<path d="M288.241 221.416L285.004 236.237L293.323 229.782L288.241 221.416Z" fill="white" stroke="#263238" stroke-width="0.941071" stroke-linecap="round" stroke-linejoin="round"/>
<path d="M298.15 214.226L288.241 221.415L291.977 231.193L291.77 239.484L303.006 222.818L298.15 214.226Z" fill="white" stroke="#263238" stroke-width="0.941071" stroke-linecap="round" stroke-linejoin="round"/>
<path d="M297.576 210.33C297.576 210.33 295.694 224.192 295.101 227.881C294.509 231.57 291.732 239.484 291.732 239.484C291.732 239.484 309.396 222.404 310.272 220.992C311.147 219.58 314.196 205.935 314.196 205.935C314.196 205.935 302.865 210.179 297.576 210.33Z" fill="white" stroke="#263238" stroke-width="0.941071" stroke-linecap="round" stroke-linejoin="round"/>
<path d="M297.04 214.216C299.449 215.722 301.322 215.722 304.107 215.289C306.893 214.856 310.695 212.24 313.255 210.179C313.819 207.779 314.196 205.935 314.196 205.935C314.196 205.935 302.828 210.179 297.539 210.33C297.576 210.33 297.379 211.948 297.04 214.216Z" fill="#263238" stroke="#263238" stroke-width="0.941071" stroke-linecap="round" stroke-linejoin="round"/>
<path d="M303.232 168.311L290.198 178.578C290.198 178.578 288.881 188.506 288.391 195.423C288.132 198.269 288.556 201.135 289.628 203.783C290.7 206.432 292.389 208.786 294.555 210.65C298.32 213.99 300.409 214.16 304.07 213.586C307.73 213.012 313.132 208.72 315.146 206.819C317.16 204.918 320.905 199.291 320.905 199.291C320.905 199.291 323.907 199.893 324.792 198.491C325.234 197.833 325.597 197.125 325.874 196.383C325.874 196.383 313.48 189.391 308.389 180.573C303.298 171.755 303.232 168.311 303.232 168.311Z" fill="white" stroke="#263238" stroke-width="0.941071" stroke-linecap="round" stroke-linejoin="round"/>
<path d="M299.176 186.596C298.986 188.048 298.56 189.459 297.915 190.774C297.04 192.177 293.614 192.967 295.497 194.539C296.928 195.526 298.633 196.04 300.371 196.007" stroke="#263238" stroke-width="0.941071" stroke-linecap="round" stroke-linejoin="round"/>
<path d="M295.393 198.669C295.393 198.669 302.376 201.681 306.865 197.634" stroke="#263238" stroke-width="0.941071" stroke-linecap="round" stroke-linejoin="round"/>
<path d="M297.727 199.752C297.727 199.752 298.762 203.629 301.039 202.867C303.317 202.105 305.293 199.103 305.293 199.103C302.789 199.491 300.261 199.708 297.727 199.752Z" stroke="#263238" stroke-width="0.941071" stroke-linecap="round" stroke-linejoin="round"/>
<path d="M307.966 188.403C307.966 189.419 307.561 190.285 307.025 190.285C306.488 190.285 305.971 189.494 305.942 188.478C305.914 187.462 306.347 186.596 306.884 186.596C307.42 186.596 307.938 187.396 307.966 188.403Z" fill="#263238"/>
<path d="M297.002 187.123C297.002 188.139 296.598 189.005 296.061 189.005C295.525 189.005 295.007 188.214 294.979 187.198C294.951 186.181 295.384 185.316 295.92 185.316C296.457 185.316 296.974 186.106 297.002 187.123Z" fill="#263238"/>
<path d="M293.313 182.86C293.657 182.5 294.071 182.215 294.529 182.023C294.988 181.83 295.481 181.735 295.979 181.742C296.476 181.749 296.967 181.858 297.42 182.064C297.873 182.269 298.278 182.566 298.611 182.935" stroke="#263238" stroke-width="0.941071" stroke-linecap="round" stroke-linejoin="round"/>
<path d="M303.91 183.509C303.91 183.509 309.142 181.523 311.344 186.05" stroke="#263238" stroke-width="0.941071" stroke-linecap="round" stroke-linejoin="round"/>
<path d="M301.011 225.415L291.77 239.484L305.35 232.181L301.011 225.415Z" fill="white" stroke="#263238" stroke-width="0.941071" stroke-linecap="round" stroke-linejoin="round"/>
<path d="M316.52 213.219L301.011 225.415L305.528 238.157L320.426 220.926L316.52 213.219Z" fill="white" stroke="#263238" stroke-width="0.941071" stroke-linecap="round" stroke-linejoin="round"/>
<path d="M297.671 285.502C295.576 284.919 293.576 284.038 291.732 282.886C288.26 280.816 284.561 281.54 281.465 281.635C278.369 281.729 276.214 282.416 276.562 283.639C276.911 284.862 280.007 284.778 280.938 284.75C281.87 284.721 283.46 286.227 283.46 286.227L275.715 288.109C275.715 288.109 273.287 289.737 275.198 291.535C277.108 293.332 277.456 292.927 277.456 292.927C277.456 292.927 280.383 297.492 283.489 297.708C286.594 297.925 299.214 294.763 299.214 294.763L297.671 285.502Z" fill="white" stroke="#263238" stroke-width="0.941071" stroke-linecap="round" stroke-linejoin="round"/>
<path d="M319.616 249.93C319.983 251.812 321.988 279.508 321.988 279.508L296.438 285.531L297.802 300.07C297.802 300.07 343.529 294.687 344.376 291.873C345.223 289.06 342.239 240.463 342.494 237.668C342.748 234.873 346.474 225.434 335.313 225.434" fill="#DF0031"/>
<path d="M319.616 249.93C319.983 251.812 321.988 279.508 321.988 279.508L296.438 285.531L297.802 300.07C297.802 300.07 343.529 294.687 344.376 291.873C345.223 289.06 342.239 240.463 342.494 237.668C342.748 234.873 346.474 225.434 335.313 225.434" stroke="#263238" stroke-width="0.941071" stroke-linecap="round" stroke-linejoin="round"/>
<path d="M323.889 245.3C323.889 245.3 331.361 235.682 339.558 236.04L323.889 245.3Z" fill="#DF0031"/>
<path d="M323.889 245.3C323.889 245.3 331.361 235.682 339.558 236.04" stroke="#263238" stroke-width="0.941071" stroke-linecap="round" stroke-linejoin="round"/>
<path d="M323.889 248.857C323.889 248.857 330.297 245.3 336.706 245.3L323.889 248.857Z" fill="#DF0031"/>
<path d="M323.889 248.857C323.889 248.857 330.297 245.3 336.706 245.3" stroke="#263238" stroke-width="0.941071" stroke-linecap="round" stroke-linejoin="round"/>
<path d="M38.264 415.172V360.722C38.264 360.293 38.0934 359.881 37.7899 359.577C37.4863 359.274 37.0746 359.103 36.6453 359.103H29.9731C29.543 359.103 29.1303 359.274 28.8253 359.577C28.5202 359.88 28.3476 360.292 28.3451 360.722V415.172H38.264Z" fill="#4C4C4C" stroke="#263238" stroke-width="0.941071" stroke-linecap="round" stroke-linejoin="round"/>
<path d="M29.9543 415.172V360.722C29.9518 360.292 29.7792 359.88 29.4741 359.577C29.1691 359.274 28.7564 359.103 28.3263 359.103H21.6446C21.2154 359.103 20.8036 359.274 20.5001 359.577C20.1965 359.881 20.026 360.293 20.026 360.722V415.172H29.9543Z" fill="#263238" stroke="#263238" stroke-width="0.941071" stroke-linecap="round" stroke-linejoin="round"/>
<path d="M33.7093 415.172H152.821C151.988 413.068 150.579 411.242 148.755 409.902C143.354 406.496 91.9052 398.534 91.9052 398.534L38.4617 397.678L35.902 398.534C35.902 398.534 33.0788 402.515 33.3517 404.501C33.4929 405.507 33.5588 410.382 33.7093 415.172Z" fill="#263238" stroke="#263238" stroke-width="0.941071" stroke-linecap="round" stroke-linejoin="round"/>
<path d="M82.2402 295.346C82.2402 295.346 69.7334 302.451 65.4704 306.431C61.2073 310.412 54.1022 323.493 53.5282 331.445C52.9541 339.397 46.7054 369.841 46.7054 369.841C46.7054 369.841 33.8786 394.836 35.9019 398.534C37.9252 402.232 90.484 398.534 91.905 398.534C93.3261 398.534 90.484 382.903 90.484 382.903C90.484 382.903 110.378 352.196 111.188 343.952C111.997 335.708 106.068 313.254 104.929 308.135C103.791 303.015 84.8 294.207 82.2402 295.346Z" fill="white" stroke="#263238" stroke-width="0.941071" stroke-linecap="round" stroke-linejoin="round"/>
<path d="M72.4625 338.786C72.4625 338.786 82.4096 348.196 86.5786 351.349" stroke="#263238" stroke-width="0.941071" stroke-linecap="round" stroke-linejoin="round"/>
<path d="M67.7572 346.098C67.7572 346.098 86.0799 352.375 90.7852 352.902" stroke="#263238" stroke-width="0.941071" stroke-linecap="round" stroke-linejoin="round"/>
<path d="M121.182 263.5C121.182 263.5 122.603 274.021 122.321 277.145C122.038 280.27 119.196 291.073 118.34 293.351C117.483 295.628 116.636 298.178 113.512 297.896C111.692 297.754 109.935 297.169 108.393 296.193L105.268 306.704L83.6237 294.198L86.4469 288.551C86.4469 288.551 83.3226 283.441 82.4662 274.906C81.6098 266.37 86.4469 256.715 92.705 253.026C98.9632 249.337 109.757 250.748 112.882 253.308C116.006 255.868 121.182 263.5 121.182 263.5Z" fill="white" stroke="#263238" stroke-width="0.941071" stroke-linecap="round" stroke-linejoin="round"/>
<path d="M82.5225 289.944C83.6612 290.236 108.11 301.321 108.393 304.163C108.675 307.005 109.814 315.814 109.814 315.814C104.797 311.503 99.3696 307.695 93.6083 304.446C89.0454 302.038 84.6753 299.282 80.5369 296.202L82.5225 289.944Z" fill="white" stroke="#263238" stroke-width="0.941071" stroke-linecap="round" stroke-linejoin="round"/>
<path d="M104.13 240.199C104.13 240.199 111.517 237.075 117.483 238.496C123.45 239.917 125.727 246.739 125.727 252.423C125.727 258.107 122.603 264.93 121.464 265.213C120.325 265.495 117.483 251.859 112.053 247.878C109.043 245.729 106.372 243.141 104.13 240.199Z" fill="#DF0031" stroke="#263238" stroke-width="0.941071" stroke-linecap="round" stroke-linejoin="round"/>
<path d="M95.0483 241.912C95.0483 241.912 106.708 235.654 116.938 244.462C127.167 253.271 123.76 262.089 121.483 265.213C119.206 268.337 119.215 274.313 117.502 275.452C115.79 276.59 115.517 270.906 113.531 269.805C111.545 268.704 111.799 272.911 109.531 278.557C107.263 284.204 97.0245 292.485 91.651 291.921C86.2775 291.356 79.7088 285.333 76.0104 272.873C72.312 260.413 74.8811 247.003 81.6568 242.759C83.6434 241.518 85.9077 240.79 88.2455 240.643C90.5833 240.495 92.9211 240.931 95.0483 241.912Z" fill="#DF0031" stroke="#263238" stroke-width="0.941071" stroke-linecap="round" stroke-linejoin="round"/>
<path d="M117.634 247.266C117.634 247.266 119.892 253.797 114.114 261.072C108.336 268.346 100.563 272.365 94.7941 268.855C89.0253 265.344 88.7618 261.326 88.7618 261.326" stroke="#263238" stroke-width="0.941071" stroke-linecap="round" stroke-linejoin="round"/>
<path d="M79.5017 262.559C79.5017 262.559 78.2407 282.162 90.0417 284.204C101.843 286.246 108.364 273.852 108.364 273.852" stroke="#263238" stroke-width="0.941071" stroke-linecap="round" stroke-linejoin="round"/>
<path d="M83.2378 262.944C89.7553 262.944 95.0388 257.598 95.0388 251.002C95.0388 244.407 89.7553 239.06 83.2378 239.06C76.7203 239.06 71.4368 244.407 71.4368 251.002C71.4368 257.598 76.7203 262.944 83.2378 262.944Z" fill="#DF0031" stroke="#263238" stroke-width="0.941071" stroke-linecap="round" stroke-linejoin="round"/>
<path d="M80.7534 249.28C80.7534 249.28 82.2591 241.497 86.5222 240.49" stroke="#263238" stroke-width="0.941071" stroke-linecap="round" stroke-linejoin="round"/>
<path d="M80.2546 250.325C80.2546 250.325 88.7807 247.313 92.7991 250.579" stroke="#263238" stroke-width="0.941071" stroke-linecap="round" stroke-linejoin="round"/>
<path d="M79.7465 251.783C79.7465 251.783 75.9822 254.296 77.2433 260.074" stroke="#263238" stroke-width="0.941071" stroke-linecap="round" stroke-linejoin="round"/>
<path d="M115.215 276.299C115.215 276.299 114.359 267.772 111.799 268.055C109.24 268.337 110.378 281.136 111.799 283.112C111.925 283.366 112.112 283.585 112.345 283.747C112.578 283.909 112.848 284.01 113.13 284.039C113.412 284.068 113.697 284.025 113.958 283.914C114.219 283.803 114.448 283.627 114.623 283.404" fill="white"/>
<path d="M115.215 276.299C115.215 276.299 114.359 267.772 111.799 268.055C109.24 268.337 110.378 281.136 111.799 283.112C111.925 283.366 112.112 283.585 112.345 283.747C112.578 283.909 112.848 284.01 113.13 284.039C113.412 284.068 113.697 284.025 113.958 283.914C114.219 283.803 114.448 283.627 114.623 283.404" stroke="#263238" stroke-width="0.941071" stroke-linecap="round" stroke-linejoin="round"/>
<path d="M355.471 403.625H91.5004L100.403 381.219H296.08L355.471 403.625Z" fill="#B5B5B5" stroke="#263238" stroke-width="0.941071" stroke-linecap="round" stroke-linejoin="round"/>
<path d="M351.848 408.105H94.4272V415.172H351.848V408.105Z" fill="#263238" stroke="#263238" stroke-width="0.941071" stroke-linecap="round" stroke-linejoin="round"/>
<path d="M355.471 403.625H91.5004V411.945H355.471V403.625Z" fill="#4C4C4C" stroke="#263238" stroke-width="0.941071" stroke-linecap="round" stroke-linejoin="round"/>
<path d="M190.943 384.089L198.594 396.163H136.625L142.657 384.089H190.943Z" fill="white"/>
<path d="M179.274 387.712L186.925 399.776H124.946L130.988 387.712H179.274Z" fill="white"/>
<path d="M103.847 321.216L115.752 376.645L162.09 383.185C162.09 383.185 176.018 377.539 177.147 377.539C178.277 377.539 180.272 380.946 181.128 382.084C181.984 383.223 183.396 384.908 183.951 385.783C184.507 386.658 184.798 390.893 183.951 392.031C183.104 393.17 181.392 396.295 179.679 396.012C177.966 395.73 179.679 391.184 179.679 391.184C179.679 391.184 169.732 395.156 166.607 395.156C163.483 395.156 157.197 392.333 157.197 392.333C157.197 392.333 104.459 398.252 101.288 397.132C99.9945 396.733 98.797 396.072 97.7692 395.192C96.7414 394.311 95.905 393.229 95.3118 392.013C94.1825 389.745 75.9822 328.904 75.9822 328.904" fill="white"/>
<path d="M103.847 321.216L115.752 376.645L162.09 383.185C162.09 383.185 176.018 377.539 177.147 377.539C178.277 377.539 180.272 380.946 181.128 382.084C181.984 383.223 183.396 384.908 183.951 385.783C184.507 386.658 184.798 390.893 183.951 392.031C183.104 393.17 181.392 396.295 179.679 396.012C177.966 395.73 179.679 391.184 179.679 391.184C179.679 391.184 169.732 395.156 166.607 395.156C163.483 395.156 157.197 392.333 157.197 392.333C157.197 392.333 104.459 398.252 101.288 397.132C99.9945 396.733 98.797 396.072 97.7692 395.192C96.7414 394.311 95.905 393.229 95.3118 392.013C94.1825 389.745 75.9822 328.904 75.9822 328.904" stroke="#263238" stroke-width="0.941071" stroke-linecap="round" stroke-linejoin="round"/>
<path d="M181.166 382.075C180.309 380.936 178.342 377.53 177.185 377.53C176.027 377.53 162.128 383.176 162.128 383.176L135.721 379.412C137.443 384.216 137.88 389.387 136.992 394.412C148.012 393.283 157.291 392.229 157.291 392.229C157.291 392.229 163.549 395.052 166.701 395.052C169.854 395.052 179.745 391.147 179.745 391.147C179.745 391.147 178.041 395.692 179.745 395.975C181.448 396.257 183.161 393.151 184.017 391.994C184.873 390.836 184.582 386.592 184.017 385.745C183.452 384.898 182.013 383.185 181.166 382.075Z" fill="white" stroke="#263238" stroke-width="0.941071" stroke-linecap="round" stroke-linejoin="round"/>
<path d="M12.9492 415.172H463.007" stroke="#263238" stroke-width="0.941071" stroke-linecap="round" stroke-linejoin="round"/>
<path d="M260.169 396.539H310.196V394.93L235.72 383.788L237.526 385.397L260.169 396.539Z" fill="white" stroke="#263238" stroke-width="0.941071" stroke-linecap="round" stroke-linejoin="round"/>
<path d="M260.169 394.93H310.196L283.771 384.051L237.526 383.788L260.169 394.93Z" fill="white" stroke="#263238" stroke-width="0.941071" stroke-linecap="round" stroke-linejoin="round"/>
<path d="M268.318 386.263H273.005L270.615 385.265L266.022 385.303L268.318 386.263Z" fill="white" stroke="#263238" stroke-width="0.705804" stroke-linecap="round" stroke-linejoin="round"/>
<path d="M277.833 390.244L280.232 391.251H284.919L282.519 390.244H277.833Z" fill="white" stroke="#263238" stroke-width="0.705804" stroke-linecap="round" stroke-linejoin="round"/>
<path d="M286.519 388.738H281.333L282.707 389.312H287.911L286.519 388.738Z" fill="white" stroke="#263238" stroke-width="0.705804" stroke-linecap="round" stroke-linejoin="round"/>
<path d="M275.593 389.312H280.289L278.915 388.738H274.228L275.593 389.312Z" fill="white" stroke="#263238" stroke-width="0.705804" stroke-linecap="round" stroke-linejoin="round"/>
<path d="M279.103 387.806H284.251L282.783 387.204H277.663L279.103 387.806Z" fill="white" stroke="#263238" stroke-width="0.705804" stroke-linecap="round" stroke-linejoin="round"/>
<path d="M261.204 386.263H265.9L263.651 385.322L259.049 385.369L261.204 386.263Z" fill="white" stroke="#263238" stroke-width="0.705804" stroke-linecap="round" stroke-linejoin="round"/>
<path d="M270.549 387.204L271.988 387.806H276.684L275.245 387.204H270.549Z" fill="white" stroke="#263238" stroke-width="0.705804" stroke-linecap="round" stroke-linejoin="round"/>
<path d="M293.539 393.848H298.931L294.904 392.192H289.577L293.539 393.848Z" fill="white" stroke="#263238" stroke-width="0.705804" stroke-linecap="round" stroke-linejoin="round"/>
<path d="M282.463 392.192L286.425 393.848H291.121L287.159 392.192H282.463Z" fill="white" stroke="#263238" stroke-width="0.705804" stroke-linecap="round" stroke-linejoin="round"/>
<path d="M275.348 392.192L279.31 393.848H284.006L280.044 392.192H275.348Z" fill="white" stroke="#263238" stroke-width="0.705804" stroke-linecap="round" stroke-linejoin="round"/>
<path d="M272.93 392.192H263.764L267.038 393.848H276.892L272.93 392.192Z" fill="white" stroke="#263238" stroke-width="0.705804" stroke-linecap="round" stroke-linejoin="round"/>
<path d="M275.433 386.263H280.505L277.917 385.199L272.986 385.247L275.433 386.263Z" fill="white" stroke="#263238" stroke-width="0.705804" stroke-linecap="round" stroke-linejoin="round"/>
<path d="M284.947 390.244L287.347 391.251H292.636L290.189 390.244H284.947Z" fill="white" stroke="#263238" stroke-width="0.705804" stroke-linecap="round" stroke-linejoin="round"/>
<path d="M277.814 391.251L275.405 390.244H270.718L273.118 391.251H277.814Z" fill="white" stroke="#263238" stroke-width="0.705804" stroke-linecap="round" stroke-linejoin="round"/>
<path d="M258.785 386.263L256.677 385.388L250.438 385.435L252.066 386.263H258.785Z" fill="white" stroke="#263238" stroke-width="0.705804" stroke-linecap="round" stroke-linejoin="round"/>
<path d="M271.8 388.738H267.114L268.478 389.312H273.174L271.8 388.738Z" fill="white" stroke="#263238" stroke-width="0.705804" stroke-linecap="round" stroke-linejoin="round"/>
<path d="M263.434 387.204L264.874 387.806H269.57L268.13 387.204H263.434Z" fill="white" stroke="#263238" stroke-width="0.705804" stroke-linecap="round" stroke-linejoin="round"/>
<path d="M266.06 389.312L264.695 388.738H256.95L258.089 389.312H266.06Z" fill="white" stroke="#263238" stroke-width="0.705804" stroke-linecap="round" stroke-linejoin="round"/>
<path d="M255.106 387.806H262.456L261.016 387.204H253.92L255.106 387.806Z" fill="white" stroke="#263238" stroke-width="0.705804" stroke-linecap="round" stroke-linejoin="round"/>
<path d="M268.3 390.244H259.933L261.919 391.251H270.699L268.3 390.244Z" fill="white" stroke="#263238" stroke-width="0.705804" stroke-linecap="round" stroke-linejoin="round"/>
<path d="M260.169 394.93H258.362L223.759 345.034L225.471 344.517H248.123L260.169 394.93Z" fill="white" stroke="#263238" stroke-width="0.941071" stroke-linecap="round" stroke-linejoin="round"/>
<path d="M258.362 394.93L235.72 383.788L223.674 344.517H246.316L258.362 394.93Z" fill="white" stroke="#263238" stroke-width="0.941071" stroke-linecap="round" stroke-linejoin="round"/>
<path d="M456.344 415.173V354.681C456.344 354.249 456.173 353.835 455.867 353.529C455.562 353.224 455.148 353.052 454.716 353.052H432.676C432.245 353.052 431.83 353.224 431.525 353.529C431.22 353.835 431.048 354.249 431.048 354.681V415.173H456.344Z" fill="#263238" stroke="#263238" stroke-width="0.941071" stroke-linecap="round" stroke-linejoin="round"/>
<path d="M448.374 415.173V354.681C448.375 354.466 448.334 354.254 448.252 354.056C448.171 353.858 448.051 353.678 447.899 353.527C447.748 353.375 447.568 353.255 447.37 353.174C447.172 353.093 446.96 353.051 446.745 353.053H424.715C424.501 353.051 424.289 353.093 424.091 353.174C423.892 353.255 423.712 353.375 423.561 353.527C423.41 353.678 423.29 353.858 423.208 354.056C423.127 354.254 423.086 354.466 423.087 354.681V415.173H448.374Z" fill="#4C4C4C" stroke="#263238" stroke-width="0.941071" stroke-linecap="round" stroke-linejoin="round"/>
<path d="M360.073 318.731C360.073 318.731 350.361 325.206 349.137 329.187C347.914 333.167 340.668 355.828 339.924 357.569C339.181 359.31 333.205 368.523 333.205 368.523L301.34 370.01C301.34 370.01 286.904 366.782 285.653 366.782C284.401 366.782 271.96 374.998 270.963 377.238C269.965 379.478 267.735 382.715 268.723 383.458C269.711 384.202 271.217 382.96 271.217 382.96C271.217 382.96 271.715 386.441 277.936 385.199C284.156 383.957 290.386 379.478 290.386 379.478C290.386 379.478 298.103 383.242 301.086 382.461L301.34 382.385V385.698C301.34 385.698 343.416 387.938 345.157 387.439C346.898 386.94 356.111 375.741 356.111 375.741L366.811 317.979C366.811 317.979 366.293 312.502 360.073 318.731Z" fill="#DF0031" stroke="#263238" stroke-width="0.941071" stroke-linecap="round" stroke-linejoin="round"/>
<path d="M302.009 370.876L301.406 370.01H301.322C301.322 370.01 286.886 366.782 285.634 366.782C284.382 366.782 271.941 374.998 270.944 377.238C269.946 379.478 267.716 382.715 268.704 383.458C269.692 384.202 271.198 382.959 271.198 382.959C271.198 382.959 271.697 386.441 277.917 385.199C284.138 383.957 290.368 379.478 290.368 379.478C290.368 379.478 298.084 383.242 301.068 382.461L301.322 382.385V385.698L302.009 370.876Z" fill="#4C4C4C" stroke="#263238" stroke-width="0.941071" stroke-linecap="round" stroke-linejoin="round"/>
<path d="M361.258 415.172H362.247C361.484 413.366 360.816 411.709 360.543 410.806C359.753 408.152 350.191 373.596 349.119 368.552C348.046 363.508 348.582 356.318 351.245 346.22C353.909 336.122 360.073 318.731 360.073 318.731L351.245 331.078C351.245 331.078 343.802 359.781 343.802 363.498C343.802 367.215 347.519 386.084 351.245 395.391C353.4 400.783 357.88 409.112 361.258 415.172Z" fill="#DF0031" stroke="#263238" stroke-width="0.941071" stroke-linecap="round" stroke-linejoin="round"/>
<path d="M364.053 311.758C364.053 311.758 354.85 326.194 352.356 336.16C349.862 346.126 347.876 354.831 347.876 363.79C347.876 372.749 357.833 398.149 359.329 401.386C360.826 404.623 377.003 405.611 381.981 390.178C386.959 374.744 389.199 330.184 386.216 319.974C383.233 309.763 370.283 305.039 364.053 311.758Z" fill="white" stroke="#263238" stroke-width="0.941071" stroke-linecap="round" stroke-linejoin="round"/>
<path d="M361.466 309.669C360.854 310.61 352.582 315.184 352.582 315.184L352.271 323.757L354.727 319.164L358.548 330.542L362.661 309.358L361.466 309.669Z" fill="#808080" stroke="#263238" stroke-width="0.941071" stroke-linecap="round" stroke-linejoin="round"/>
<path d="M362.388 415.172H430.145C427.915 409.206 419.294 386.093 419.031 385.058C418.72 383.825 411.681 329.3 404.322 319.183C396.963 309.067 379.854 305.396 376.146 307.542C376.146 307.542 363.912 332.358 359.292 343.999C354.671 355.64 351.631 378.612 351.631 381.981C351.631 385.35 358.068 406.449 358.068 406.449L362.388 415.172Z" fill="#DF0031" stroke="#263238" stroke-width="0.941071" stroke-linecap="round" stroke-linejoin="round"/>
<path d="M411.192 396.944L381.896 405.668L383.769 409.404L399.974 404.425" stroke="#263238" stroke-width="0.941071" stroke-linecap="round" stroke-linejoin="round"/>
<path d="M346.982 266.539C346.982 266.539 344.63 273.804 344.573 275.301C344.55 276.415 344.585 277.53 344.677 278.642C344.706 279.237 344.562 279.829 344.263 280.345C343.773 281.135 338.268 286.434 338.917 287.497C339.567 288.56 343.369 292.786 343.369 292.786C343.369 292.786 346.032 305.481 349.599 306.949C353.165 308.417 358.2 307.514 358.2 307.514L360.016 312.473L382.263 305.18L381.924 297.868C381.924 297.868 384.155 284.843 381.595 275.489C379.035 266.135 356.779 255.971 346.982 266.539Z" fill="white" stroke="#263238" stroke-width="0.941071" stroke-linecap="round" stroke-linejoin="round"/>
<path d="M347.698 281.465C347.434 282.547 346.879 283.347 346.465 283.243C346.051 283.14 345.919 282.18 346.182 281.098C346.446 280.015 346.992 279.216 347.415 279.319C347.839 279.423 347.952 280.382 347.698 281.465Z" fill="#263238"/>
<path d="M346.117 276.534C346.566 276.41 347.035 276.376 347.498 276.434C347.96 276.491 348.407 276.64 348.812 276.871C349.216 277.102 349.572 277.41 349.857 277.779C350.142 278.147 350.352 278.569 350.474 279.018" fill="white"/>
<path d="M346.117 276.534C346.566 276.41 347.035 276.376 347.498 276.434C347.96 276.491 348.407 276.64 348.812 276.871C349.216 277.102 349.572 277.41 349.857 277.779C350.142 278.147 350.352 278.569 350.474 279.018" stroke="#263238" stroke-width="0.941071" stroke-linecap="round" stroke-linejoin="round"/>
<path d="M343.943 294.555C343.943 294.555 346.427 297.049 350.784 295.496L343.943 294.555Z" fill="white"/>
<path d="M343.943 294.555C343.943 294.555 346.427 297.049 350.784 295.496" stroke="#263238" stroke-width="0.941071" stroke-linecap="round" stroke-linejoin="round"/>
<path d="M360.619 248.735C359.912 246.999 358.783 245.466 357.336 244.275C355.889 243.084 354.168 242.272 352.328 241.912C345.985 240.688 341.449 249.535 343.039 252.932C344.63 256.329 345.345 257.101 342.296 257.27C339.247 257.44 333.403 265.373 338.532 270.238C343.661 275.103 349.881 268.149 350.192 270.633C350.502 273.118 349.665 275.339 352.648 275.442C355.631 275.546 360.534 275.235 359.762 277.164C358.991 279.094 358.821 283.564 361.644 284.251C364.468 284.938 366.237 281.427 368.232 281.926C370.227 282.425 372.937 288.777 371.159 292.278C369.38 295.779 368.204 295.788 367.997 296.645C367.79 297.501 373.314 303.345 378.988 302.291C384.663 301.237 392.041 299.411 392.907 293.294C393.773 287.177 391.966 285.841 394.318 283.695C396.671 281.55 398.92 280.872 398.252 277.409C397.584 273.946 395.429 272.817 396.125 269.965C396.822 267.114 393.989 254.089 381.793 248.443C369.597 242.796 360.619 248.735 360.619 248.735Z" fill="#263238" stroke="#263238" stroke-width="0.941071" stroke-linecap="round" stroke-linejoin="round"/>
<path d="M384.606 298.301L356.562 314.572L358.576 330.542L388.502 306.752L384.606 298.301Z" fill="white" stroke="#263238" stroke-width="0.941071" stroke-linecap="round" stroke-linejoin="round"/>
<path d="M311.231 374C311.231 374 305.585 371.902 302.009 370.876C295.873 369.116 290.123 366.5 287.977 367.112C285.832 367.723 275.386 374.913 275.386 374.913C275.386 374.913 271.706 383.797 272.017 385.03C272.327 386.263 274.567 384.277 274.567 384.277C274.567 384.277 273.24 385.943 274.463 387.175C275.687 388.408 276.92 385.943 276.92 385.943C276.92 385.943 276.609 389.01 278.444 388.7C278.916 388.681 279.369 388.508 279.732 388.207C280.096 387.906 280.351 387.494 280.458 387.034C280.458 387.034 280.59 388.7 282.124 388.7C283.658 388.7 287.027 382.272 287.027 382.272L292.843 382.574C292.843 382.574 297.444 385.03 300.202 385.331C302.959 385.632 306.328 383.797 306.328 383.797L309.998 384.738L313.066 375.854L311.231 374Z" fill="white" stroke="#263238" stroke-width="0.941071" stroke-linecap="round" stroke-linejoin="round"/>
<path d="M274.567 384.277C274.567 384.277 277.701 376.749 278.199 376.259C278.698 375.77 284.966 372.25 284.966 372.25" stroke="#263238" stroke-width="0.941071" stroke-linecap="round" stroke-linejoin="round"/>
<path d="M276.92 385.943C276.92 385.943 280.684 378.264 281.089 377.887C281.493 377.511 286.217 375.139 286.217 375.139" stroke="#263238" stroke-width="0.941071" stroke-linecap="round" stroke-linejoin="round"/>
<path d="M280.439 387.034C280.439 387.034 284.072 380.023 284.703 379.647C285.333 379.27 286.952 378.395 286.952 378.395" stroke="#263238" stroke-width="0.941071" stroke-linecap="round" stroke-linejoin="round"/>
<path d="M392.427 318.553C392.427 318.553 373.125 331.107 373.436 336.01C373.747 340.913 375.271 340.913 375.271 340.913L365.465 377.671C365.465 377.671 362.407 375.224 362.096 378.292L361.795 381.35L310.629 372.777L305.425 385.642C305.425 385.642 326.561 393.914 341.27 399.118C355.979 404.322 371.29 410.147 372.815 407.39C374.339 404.633 404.661 359.292 406.543 355.923C408.425 352.554 408.425 346.427 408.425 346.427" fill="#DF0031"/>
<path d="M392.427 318.553C392.427 318.553 373.125 331.107 373.436 336.01C373.747 340.913 375.271 340.913 375.271 340.913L365.465 377.671C365.465 377.671 362.407 375.224 362.096 378.292L361.795 381.35L310.629 372.777L305.425 385.642C305.425 385.642 326.561 393.914 341.27 399.118C355.979 404.322 371.29 410.147 372.815 407.39C374.339 404.633 404.661 359.292 406.543 355.923C408.425 352.554 408.425 346.427 408.425 346.427" stroke="#263238" stroke-width="0.941071" stroke-linecap="round" stroke-linejoin="round"/>
<path d="M375.252 340.912C375.252 340.912 381.068 328.97 395.165 328.048" stroke="#263238" stroke-width="0.941071" stroke-linecap="round" stroke-linejoin="round"/>
</svg>
