<svg width="24" height="23" viewBox="0 0 24 23" fill="none" xmlns="http://www.w3.org/2000/svg">
<g id="InstagramLogo">
<path id="Vector" d="M12.035 6.94581C11.2123 6.94581 10.408 7.18977 9.72397 7.64685C9.0399 8.10393 8.50673 8.75359 8.19189 9.51369C7.87705 10.2738 7.79468 11.1102 7.95518 11.9171C8.11568 12.724 8.51186 13.4652 9.09361 14.0469C9.67536 14.6287 10.4166 15.0249 11.2235 15.1854C12.0304 15.3459 12.8668 15.2635 13.6269 14.9487C14.387 14.6338 15.0366 14.1006 15.4937 13.4166C15.9508 12.7325 16.1947 11.9283 16.1947 11.1056C16.1936 10.0027 15.755 8.94529 14.9751 8.16544C14.1953 7.38558 13.1379 6.94696 12.035 6.94581ZM12.035 13.8787C11.4865 13.8787 10.9504 13.7161 10.4943 13.4114C10.0383 13.1066 9.68282 12.6735 9.47293 12.1668C9.26303 11.6601 9.20812 11.1025 9.31512 10.5645C9.42212 10.0266 9.68624 9.53246 10.0741 9.14463C10.4619 8.7568 10.956 8.49268 11.494 8.38567C12.0319 8.27867 12.5895 8.33359 13.0962 8.54348C13.603 8.75338 14.0361 9.10882 14.3408 9.56487C14.6455 10.0209 14.8082 10.5571 14.8082 11.1056C14.8082 11.841 14.516 12.5464 13.9959 13.0665C13.4758 13.5865 12.7705 13.8787 12.035 13.8787ZM16.1947 2.09277H7.87525C6.58857 2.09415 5.35498 2.60589 4.44516 3.51571C3.53534 4.42554 3.02359 5.65913 3.02222 6.94581V15.2653C3.02359 16.552 3.53534 17.7856 4.44516 18.6954C5.35498 19.6052 6.58857 20.117 7.87525 20.1183H16.1947C17.4814 20.117 18.715 19.6052 19.6248 18.6954C20.5347 17.7856 21.0464 16.552 21.0478 15.2653V6.94581C21.0464 5.65913 20.5347 4.42554 19.6248 3.51571C18.715 2.60589 17.4814 2.09415 16.1947 2.09277ZM19.6612 15.2653C19.6612 16.1847 19.296 17.0664 18.6459 17.7164C17.9958 18.3665 17.1141 18.7318 16.1947 18.7318H7.87525C6.95589 18.7318 6.07419 18.3665 5.4241 17.7164C4.77401 17.0664 4.4088 16.1847 4.4088 15.2653V6.94581C4.4088 6.02645 4.77401 5.14474 5.4241 4.49466C6.07419 3.84457 6.95589 3.47935 7.87525 3.47935H16.1947C17.1141 3.47935 17.9958 3.84457 18.6459 4.49466C19.296 5.14474 19.6612 6.02645 19.6612 6.94581V15.2653ZM17.5813 6.59916C17.5813 6.80484 17.5203 7.0059 17.4061 7.17692C17.2918 7.34794 17.1294 7.48123 16.9394 7.55994C16.7493 7.63865 16.5402 7.65924 16.3385 7.61912C16.1368 7.57899 15.9515 7.47995 15.806 7.33451C15.6606 7.18907 15.5616 7.00377 15.5214 6.80204C15.4813 6.60032 15.5019 6.39122 15.5806 6.2012C15.6593 6.01117 15.7926 5.84876 15.9636 5.73449C16.1346 5.62022 16.3357 5.55923 16.5414 5.55923C16.8172 5.55923 17.0817 5.66879 17.2767 5.86382C17.4718 6.05884 17.5813 6.32335 17.5813 6.59916Z" fill="#FB5F66"/>
</g>
</svg>
