<svg width="204" height="387" viewBox="0 0 204 387" fill="none" xmlns="http://www.w3.org/2000/svg">
<g opacity="0.08">
<g filter="url(#filter0_b_28_127)">
<path d="M-134.815 385.987C-136.442 385.999 -137.61 386.007 -138.53 385.944C-139.44 385.882 -140.03 385.755 -140.511 385.537C-141.667 385.012 -142.595 384.091 -143.128 382.939C-143.35 382.459 -143.481 381.87 -143.549 380.96C-143.618 380.041 -143.619 378.873 -143.619 377.246L-143.619 161.574C-143.619 159.946 -143.618 158.778 -143.549 157.858C-143.481 156.947 -143.35 156.356 -143.128 155.873C-142.595 154.714 -141.667 153.779 -140.511 153.238C-140.03 153.013 -139.44 152.877 -138.53 152.803C-137.61 152.727 -136.442 152.718 -134.815 152.707L193.384 150.375C195.011 150.363 196.179 150.355 197.099 150.418C198.009 150.48 198.599 150.607 199.08 150.825C200.236 151.35 201.164 152.271 201.697 153.423C201.919 153.903 202.05 154.492 202.118 155.402C202.187 156.321 202.188 157.489 202.188 159.116L202.188 374.788C202.188 376.416 202.187 377.584 202.118 378.504C202.05 379.415 201.919 380.006 201.697 380.489C201.164 381.648 200.236 382.583 199.08 383.124C198.599 383.349 198.009 383.485 197.099 383.559C196.179 383.635 195.011 383.644 193.384 383.655L-134.815 385.987Z" stroke="#FF6600" stroke-width="1.88666"/>
</g>
<g filter="url(#filter1_b_28_127)">
<path d="M-175.506 329.657C-177.133 329.669 -178.302 329.677 -179.221 329.614C-180.131 329.552 -180.721 329.425 -181.203 329.207C-182.359 328.682 -183.287 327.761 -183.819 326.609C-184.041 326.129 -184.173 325.54 -184.241 324.63C-184.31 323.711 -184.31 322.543 -184.31 320.915L-184.31 105.243C-184.31 103.616 -184.31 102.448 -184.241 101.528C-184.173 100.617 -184.041 100.026 -183.819 99.5431C-183.287 98.3835 -182.359 97.449 -181.203 96.908C-180.721 96.6825 -180.131 96.5471 -179.221 96.4724C-178.302 96.397 -177.133 96.388 -175.506 96.3765L152.692 94.0445C154.319 94.0329 155.488 94.0252 156.407 94.0877C157.317 94.1494 157.907 94.2765 158.389 94.495C159.545 95.0197 160.473 95.9409 161.005 97.093C161.227 97.573 161.359 98.1623 161.427 99.0717C161.496 99.9909 161.496 101.159 161.496 102.786L161.496 318.458C161.496 320.086 161.496 321.254 161.427 322.174C161.359 323.084 161.227 323.676 161.005 324.159C160.473 325.318 159.545 326.253 158.389 326.794C157.907 327.019 157.317 327.155 156.407 327.229C155.488 327.305 154.319 327.314 152.692 327.325L-175.506 329.657Z" stroke="#FF6600" stroke-width="1.88666"/>
</g>
<g filter="url(#filter2_b_28_127)">
<path d="M-215.845 273.295C-217.472 273.307 -218.641 273.314 -219.56 273.252C-220.47 273.19 -221.06 273.063 -221.542 272.844C-222.698 272.32 -223.626 271.399 -224.158 270.247C-224.38 269.767 -224.512 269.177 -224.58 268.268C-224.649 267.349 -224.649 266.18 -224.649 264.553L-224.649 48.8811C-224.649 47.254 -224.649 46.0856 -224.58 45.1655C-224.512 44.2551 -224.38 43.6639 -224.158 43.1808C-223.626 42.0211 -222.698 41.0867 -221.542 40.5457C-221.06 40.3202 -220.47 40.1848 -219.56 40.1101C-218.641 40.0346 -217.472 40.0257 -215.845 40.0142L112.353 37.6822C113.98 37.6706 115.149 37.6629 116.068 37.7254C116.978 37.7871 117.568 37.9142 118.05 38.1327C119.206 38.6574 120.134 39.5786 120.666 40.7307C120.888 41.2107 121.02 41.8 121.088 42.7094C121.157 43.6286 121.157 44.7969 121.157 46.424L121.157 262.096C121.157 263.723 121.157 264.892 121.088 265.812C121.02 266.722 120.888 267.313 120.666 267.796C120.134 268.956 119.206 269.89 118.05 270.432C117.568 270.657 116.978 270.792 116.068 270.867C115.149 270.943 113.98 270.951 112.353 270.963L-215.845 273.295Z" stroke="#FF6600" stroke-width="1.88666"/>
</g>
<g filter="url(#filter3_b_28_127)">
<path d="M-264.252 236.625C-265.879 236.637 -267.048 236.644 -267.967 236.582C-268.877 236.52 -269.467 236.393 -269.949 236.175C-271.105 235.65 -272.033 234.729 -272.565 233.577C-272.787 233.097 -272.919 232.507 -272.987 231.598C-273.056 230.679 -273.056 229.51 -273.056 227.883L-273.056 12.2112C-273.056 10.5841 -273.056 9.41572 -272.987 8.4956C-272.919 7.58517 -272.787 6.99403 -272.565 6.51088C-272.033 5.35123 -271.105 4.41682 -269.949 3.87574C-269.467 3.65032 -268.877 3.5149 -267.967 3.44022C-267.048 3.36473 -265.879 3.35581 -264.252 3.34425L63.9463 1.01227C65.5734 1.00071 66.7417 0.993022 67.6613 1.05544C68.5713 1.1172 69.1614 1.24423 69.643 1.46281C70.7988 1.98748 71.7266 2.9087 72.2595 4.06076C72.4815 4.54075 72.6127 5.13003 72.6809 6.03949C72.7499 6.95863 72.7505 8.12699 72.7505 9.75411L72.7504 225.426C72.7504 227.053 72.7498 228.222 72.6809 229.142C72.6127 230.052 72.4814 230.643 72.2594 231.126C71.7266 232.286 70.7988 233.221 69.6429 233.762C69.1614 233.987 68.5712 234.122 67.6613 234.197C66.7417 234.273 65.5733 234.282 63.9463 234.293L-264.252 236.625Z" stroke="#FF6600" stroke-width="1.88666"/>
</g>
</g>
<defs>
<filter id="filter0_b_28_127" x="-163.829" y="130.157" width="386.227" height="276.048" filterUnits="userSpaceOnUse" color-interpolation-filters="sRGB">
<feFlood flood-opacity="0" result="BackgroundImageFix"/>
<feGaussianBlur in="BackgroundImageFix" stdDeviation="9.63327"/>
<feComposite in2="SourceAlpha" operator="in" result="effect1_backgroundBlur_28_127"/>
<feBlend mode="normal" in="SourceGraphic" in2="effect1_backgroundBlur_28_127" result="shape"/>
</filter>
<filter id="filter1_b_28_127" x="-204.52" y="73.8267" width="386.227" height="276.048" filterUnits="userSpaceOnUse" color-interpolation-filters="sRGB">
<feFlood flood-opacity="0" result="BackgroundImageFix"/>
<feGaussianBlur in="BackgroundImageFix" stdDeviation="9.63327"/>
<feComposite in2="SourceAlpha" operator="in" result="effect1_backgroundBlur_28_127"/>
<feBlend mode="normal" in="SourceGraphic" in2="effect1_backgroundBlur_28_127" result="shape"/>
</filter>
<filter id="filter2_b_28_127" x="-244.859" y="17.4644" width="386.227" height="276.048" filterUnits="userSpaceOnUse" color-interpolation-filters="sRGB">
<feFlood flood-opacity="0" result="BackgroundImageFix"/>
<feGaussianBlur in="BackgroundImageFix" stdDeviation="9.63327"/>
<feComposite in2="SourceAlpha" operator="in" result="effect1_backgroundBlur_28_127"/>
<feBlend mode="normal" in="SourceGraphic" in2="effect1_backgroundBlur_28_127" result="shape"/>
</filter>
<filter id="filter3_b_28_127" x="-293.266" y="-19.2055" width="386.227" height="276.048" filterUnits="userSpaceOnUse" color-interpolation-filters="sRGB">
<feFlood flood-opacity="0" result="BackgroundImageFix"/>
<feGaussianBlur in="BackgroundImageFix" stdDeviation="9.63327"/>
<feComposite in2="SourceAlpha" operator="in" result="effect1_backgroundBlur_28_127"/>
<feBlend mode="normal" in="SourceGraphic" in2="effect1_backgroundBlur_28_127" result="shape"/>
</filter>
</defs>
</svg>
