<svg width="209" height="385" viewBox="0 0 209 385" fill="none" xmlns="http://www.w3.org/2000/svg">
<g opacity="0.08">
<g filter="url(#filter0_b_28_122)">
<path d="M139.185 383.988C137.558 383.999 136.39 384.007 135.47 383.944C134.56 383.883 133.97 383.756 133.489 383.537C132.333 383.012 131.405 382.091 130.872 380.939C130.65 380.459 130.519 379.87 130.451 378.96C130.382 378.041 130.381 376.873 130.381 375.246L130.381 160.789C130.381 159.162 130.382 157.993 130.451 157.073C130.519 156.163 130.65 155.572 130.872 155.089C131.405 153.929 132.333 152.995 133.489 152.454C133.97 152.228 134.56 152.093 135.47 152.018C136.39 151.943 137.558 151.934 139.185 151.922L467.384 149.602C469.011 149.591 470.179 149.583 471.099 149.646C472.009 149.707 472.599 149.834 473.08 150.053C474.236 150.578 475.164 151.499 475.697 152.651C475.919 153.131 476.05 153.72 476.118 154.63C476.187 155.549 476.188 156.717 476.188 158.344L476.188 372.801C476.188 374.428 476.187 375.597 476.118 376.517C476.05 377.427 475.919 378.018 475.697 378.502C475.164 379.661 474.236 380.596 473.08 381.137C472.599 381.362 472.009 381.497 471.099 381.572C470.179 381.647 469.011 381.656 467.384 381.668L139.185 383.988Z" stroke="#FF6600" stroke-width="1.88666"/>
</g>
<g filter="url(#filter1_b_28_122)">
<path d="M98.4936 327.949C96.8665 327.961 95.6982 327.968 94.7786 327.906C93.8686 327.844 93.2784 327.717 92.7969 327.498C91.641 326.974 90.7133 326.052 90.1804 324.9C89.9584 324.42 89.8272 323.831 89.759 322.922C89.69 322.003 89.6894 320.834 89.6894 319.207L89.6894 104.75C89.6894 103.123 89.69 101.955 89.759 101.035C89.8272 100.124 89.9584 99.5331 90.1804 99.05C90.7133 97.8904 91.6411 96.956 92.7969 96.415C93.2785 96.1896 93.8687 96.0542 94.7786 95.9795C95.6982 95.904 96.8665 95.8952 98.4936 95.8837L426.692 93.5637C428.319 93.5522 429.488 93.5446 430.407 93.6071C431.317 93.6688 431.907 93.7959 432.389 94.0145C433.545 94.5392 434.472 95.4605 435.005 96.6125C435.227 97.0925 435.359 97.6818 435.427 98.5913C435.496 99.5104 435.496 100.679 435.496 102.306L435.496 316.763C435.496 318.39 435.496 319.558 435.427 320.478C435.359 321.389 435.227 321.98 435.005 322.463C434.472 323.623 433.545 324.557 432.389 325.098C431.907 325.323 431.317 325.459 430.407 325.533C429.488 325.609 428.319 325.618 426.692 325.629L98.4936 327.949Z" stroke="#FF6600" stroke-width="1.88666"/>
</g>
<g filter="url(#filter2_b_28_122)">
<path d="M58.1547 271.878C56.5276 271.889 55.3593 271.897 54.4397 271.835C53.5298 271.773 52.9396 271.646 52.458 271.427C51.3022 270.902 50.3744 269.981 49.8415 268.829C49.6195 268.349 49.4883 267.76 49.4201 266.85C49.3511 265.931 49.3505 264.763 49.3505 263.136L49.3506 48.679C49.3506 47.0519 49.3512 45.8835 49.4201 44.9634C49.4883 44.053 49.6196 43.4618 49.8416 42.9787C50.3744 41.8191 51.3022 40.8847 52.4581 40.3437C52.9396 40.1183 53.5298 39.9829 54.4397 39.9082C55.3593 39.8328 56.5277 39.8239 58.1547 39.8124L386.353 37.4925C387.98 37.481 389.149 37.4733 390.068 37.5358C390.978 37.5976 391.568 37.7246 392.05 37.9432C393.206 38.4679 394.134 39.3892 394.666 40.5413C394.888 41.0213 395.02 41.6105 395.088 42.52C395.157 43.4391 395.157 44.6075 395.157 46.2346L395.157 260.691C395.157 262.318 395.157 263.487 395.088 264.407C395.02 265.317 394.888 265.909 394.666 266.392C394.134 267.551 393.206 268.486 392.05 269.027C391.568 269.252 390.978 269.387 390.068 269.462C389.149 269.538 387.98 269.546 386.353 269.558L58.1547 271.878Z" stroke="#FF6600" stroke-width="1.88666"/>
</g>
<g filter="url(#filter3_b_28_122)">
<path d="M9.74774 235.397C8.12065 235.409 6.95232 235.417 6.03271 235.354C5.12278 235.292 4.53259 235.165 4.05104 234.947C2.8952 234.422 1.96741 233.501 1.43456 232.349C1.21257 231.869 1.08134 231.279 1.01312 230.37C0.944168 229.451 0.94355 228.282 0.943551 226.655L0.943575 12.1985C0.943575 10.5714 0.944193 9.40306 1.01314 8.48294C1.08137 7.57251 1.21259 6.98137 1.43459 6.49824C1.96744 5.3386 2.89523 4.40423 4.05107 3.8632C4.53261 3.63779 5.1228 3.5024 6.03273 3.42774C6.95234 3.35229 8.12067 3.34342 9.74776 3.33192L337.946 1.01199C339.573 1.00049 340.742 0.992839 341.661 1.05529C342.571 1.11708 343.161 1.24414 343.643 1.46273C344.799 1.98745 345.727 2.9087 346.259 4.06078C346.481 4.54078 346.613 5.13006 346.681 6.03953C346.75 6.95867 346.75 8.12703 346.75 9.75415L346.75 224.211C346.75 225.838 346.75 227.006 346.681 227.926C346.613 228.837 346.481 229.428 346.259 229.911C345.727 231.071 344.799 232.005 343.643 232.546C343.161 232.772 342.571 232.907 341.661 232.982C340.742 233.057 339.573 233.066 337.946 233.078L9.74774 235.397Z" stroke="#FF6600" stroke-width="1.88666"/>
</g>
</g>
<defs>
<filter id="filter0_b_28_122" x="110.171" y="129.384" width="386.227" height="274.821" filterUnits="userSpaceOnUse" color-interpolation-filters="sRGB">
<feFlood flood-opacity="0" result="BackgroundImageFix"/>
<feGaussianBlur in="BackgroundImageFix" stdDeviation="9.63327"/>
<feComposite in2="SourceAlpha" operator="in" result="effect1_backgroundBlur_28_122"/>
<feBlend mode="normal" in="SourceGraphic" in2="effect1_backgroundBlur_28_122" result="shape"/>
</filter>
<filter id="filter1_b_28_122" x="69.4795" y="73.3458" width="386.227" height="274.821" filterUnits="userSpaceOnUse" color-interpolation-filters="sRGB">
<feFlood flood-opacity="0" result="BackgroundImageFix"/>
<feGaussianBlur in="BackgroundImageFix" stdDeviation="9.63327"/>
<feComposite in2="SourceAlpha" operator="in" result="effect1_backgroundBlur_28_122"/>
<feBlend mode="normal" in="SourceGraphic" in2="effect1_backgroundBlur_28_122" result="shape"/>
</filter>
<filter id="filter2_b_28_122" x="29.1407" y="17.2745" width="386.227" height="274.821" filterUnits="userSpaceOnUse" color-interpolation-filters="sRGB">
<feFlood flood-opacity="0" result="BackgroundImageFix"/>
<feGaussianBlur in="BackgroundImageFix" stdDeviation="9.63327"/>
<feComposite in2="SourceAlpha" operator="in" result="effect1_backgroundBlur_28_122"/>
<feBlend mode="normal" in="SourceGraphic" in2="effect1_backgroundBlur_28_122" result="shape"/>
</filter>
<filter id="filter3_b_28_122" x="-19.2663" y="-19.206" width="386.227" height="274.821" filterUnits="userSpaceOnUse" color-interpolation-filters="sRGB">
<feFlood flood-opacity="0" result="BackgroundImageFix"/>
<feGaussianBlur in="BackgroundImageFix" stdDeviation="9.63327"/>
<feComposite in2="SourceAlpha" operator="in" result="effect1_backgroundBlur_28_122"/>
<feBlend mode="normal" in="SourceGraphic" in2="effect1_backgroundBlur_28_122" result="shape"/>
</filter>
</defs>
</svg>
