<svg width="25" height="25" viewBox="0 0 25 25" fill="none" xmlns="http://www.w3.org/2000/svg">
<path d="M23 0H2C1.46957 0 0.960859 0.210714 0.585786 0.585786C0.210714 0.960859 0 1.46957 0 2V23C0 23.5304 0.210714 24.0391 0.585786 24.4142C0.960859 24.7893 1.46957 25 2 25H23C23.5304 25 24.0391 24.7893 24.4142 24.4142C24.7893 24.0391 25 23.5304 25 23V2C25 1.46957 24.7893 0.960859 24.4142 0.585786C24.0391 0.210714 23.5304 0 23 0ZM8.5 18.5C8.5 18.7652 8.39464 19.0196 8.20711 19.2071C8.01957 19.3946 7.76522 19.5 7.5 19.5C7.23478 19.5 6.98043 19.3946 6.79289 19.2071C6.60536 19.0196 6.5 18.7652 6.5 18.5V10.5C6.5 10.2348 6.60536 9.98043 6.79289 9.79289C6.98043 9.60536 7.23478 9.5 7.5 9.5C7.76522 9.5 8.01957 9.60536 8.20711 9.79289C8.39464 9.98043 8.5 10.2348 8.5 10.5V18.5ZM7.5 8C7.20333 8 6.91332 7.91203 6.66665 7.7472C6.41997 7.58238 6.22771 7.34811 6.11418 7.07403C6.00065 6.79994 5.97094 6.49834 6.02882 6.20736C6.0867 5.91639 6.22956 5.64912 6.43934 5.43934C6.64912 5.22956 6.91639 5.0867 7.20736 5.02882C7.49834 4.97094 7.79994 5.00065 8.07403 5.11418C8.34811 5.22771 8.58238 5.41997 8.7472 5.66665C8.91203 5.91332 9 6.20333 9 6.5C9 6.89783 8.84197 7.27936 8.56066 7.56066C8.27936 7.84197 7.89782 8 7.5 8ZM19.5 18.5C19.5 18.7652 19.3946 19.0196 19.2071 19.2071C19.0196 19.3946 18.7652 19.5 18.5 19.5C18.2348 19.5 17.9804 19.3946 17.7929 19.2071C17.6054 19.0196 17.5 18.7652 17.5 18.5V14C17.5 13.337 17.2366 12.7011 16.7678 12.2322C16.2989 11.7634 15.663 11.5 15 11.5C14.337 11.5 13.7011 11.7634 13.2322 12.2322C12.7634 12.7011 12.5 13.337 12.5 14V18.5C12.5 18.7652 12.3946 19.0196 12.2071 19.2071C12.0196 19.3946 11.7652 19.5 11.5 19.5C11.2348 19.5 10.9804 19.3946 10.7929 19.2071C10.6054 19.0196 10.5 18.7652 10.5 18.5V10.5C10.4993 10.2539 10.5894 10.0162 10.753 9.83235C10.9166 9.64852 11.1423 9.53147 11.3868 9.50362C11.6313 9.47576 11.8775 9.53905 12.0783 9.68137C12.2791 9.82369 12.4203 10.0351 12.475 10.275C13.1516 9.81631 13.9405 9.55061 14.7567 9.50641C15.573 9.46222 16.3859 9.64121 17.1081 10.0242C17.8303 10.4071 18.4346 10.9796 18.856 11.68C19.2774 12.3805 19.5 13.1825 19.5 14V18.5Z" fill="#DF0031"/>
</svg>
