<svg width="24" height="23" viewBox="0 0 24 23" fill="none" xmlns="http://www.w3.org/2000/svg">
<g id="LinkedinLogo">
<path id="Vector" d="M19.5909 2.09277H4.33849C3.97074 2.09277 3.61806 2.23886 3.35802 2.49889C3.09799 2.75893 2.9519 3.11161 2.9519 3.47935V18.7318C2.9519 19.0995 3.09799 19.4522 3.35802 19.7122C3.61806 19.9722 3.97074 20.1183 4.33849 20.1183H19.5909C19.9586 20.1183 20.3113 19.9722 20.5713 19.7122C20.8314 19.4522 20.9775 19.0995 20.9775 18.7318V3.47935C20.9775 3.11161 20.8314 2.75893 20.5713 2.49889C20.3113 2.23886 19.9586 2.09277 19.5909 2.09277ZM19.5909 18.7318H4.33849V3.47935H19.5909V18.7318ZM9.19152 9.71897V15.2653C9.19152 15.4492 9.11848 15.6255 8.98846 15.7555C8.85844 15.8855 8.6821 15.9586 8.49823 15.9586C8.31436 15.9586 8.13802 15.8855 8.008 15.7555C7.87798 15.6255 7.80494 15.4492 7.80494 15.2653V9.71897C7.80494 9.5351 7.87798 9.35876 8.008 9.22874C8.13802 9.09872 8.31436 9.02568 8.49823 9.02568C8.6821 9.02568 8.85844 9.09872 8.98846 9.22874C9.11848 9.35876 9.19152 9.5351 9.19152 9.71897ZM16.8177 12.1455V15.2653C16.8177 15.4492 16.7447 15.6255 16.6147 15.7555C16.4846 15.8855 16.3083 15.9586 16.1244 15.9586C15.9406 15.9586 15.7642 15.8855 15.6342 15.7555C15.5042 15.6255 15.4311 15.4492 15.4311 15.2653V12.1455C15.4311 11.6858 15.2485 11.245 14.9235 10.9199C14.5984 10.5949 14.1576 10.4123 13.6979 10.4123C13.2382 10.4123 12.7974 10.5949 12.4723 10.9199C12.1473 11.245 11.9647 11.6858 11.9647 12.1455V15.2653C11.9647 15.4492 11.8916 15.6255 11.7616 15.7555C11.6316 15.8855 11.4553 15.9586 11.2714 15.9586C11.0875 15.9586 10.9112 15.8855 10.7812 15.7555C10.6511 15.6255 10.5781 15.4492 10.5781 15.2653V9.71897C10.579 9.54915 10.6421 9.38556 10.7556 9.25922C10.8691 9.13288 11.025 9.05258 11.1937 9.03356C11.3625 9.01453 11.5323 9.05811 11.6711 9.15601C11.8098 9.25392 11.9078 9.39935 11.9465 9.56471C12.4155 9.24656 12.9623 9.06216 13.5282 9.03133C14.0941 9.0005 14.6577 9.12439 15.1585 9.38971C15.6593 9.65503 16.0783 10.0517 16.3706 10.5373C16.663 11.0228 16.8175 11.5788 16.8177 12.1455ZM9.53817 7.29245C9.53817 7.49813 9.47718 7.69919 9.36291 7.87021C9.24864 8.04123 9.08622 8.17452 8.8962 8.25323C8.70617 8.33194 8.49708 8.35253 8.29535 8.31241C8.09362 8.27228 7.90832 8.17324 7.76288 8.0278C7.61745 7.88236 7.5184 7.69706 7.47828 7.49534C7.43815 7.29361 7.45874 7.08451 7.53745 6.89449C7.61616 6.70446 7.74946 6.54205 7.92047 6.42778C8.09149 6.31351 8.29255 6.25252 8.49823 6.25252C8.77404 6.25252 9.03855 6.36208 9.23358 6.55711C9.4286 6.75213 9.53817 7.01665 9.53817 7.29245Z" fill="#FB5F66"/>
</g>
</svg>
