<svg width="25" height="25" viewBox="0 0 25 25" fill="none" xmlns="http://www.w3.org/2000/svg">
<path d="M12.4999 0C7.50742 0 3.4458 4.06162 3.4458 9.054C3.4458 15.2497 11.5483 24.3454 11.8933 24.7295C12.2173 25.0904 12.783 25.0898 13.1064 24.7295C13.4514 24.3454 21.5539 15.2497 21.5539 9.054C21.5538 4.06162 17.4922 0 12.4999 0ZM12.4999 13.6093C9.98804 13.6093 7.94458 11.5658 7.94458 9.054C7.94458 6.54219 9.98809 4.49873 12.4999 4.49873C15.0116 4.49873 17.0551 6.54224 17.0551 9.05405C17.0551 11.5659 15.0116 13.6093 12.4999 13.6093Z" fill="#DF0031"/>
</svg>
