<svg width="39" height="32" viewBox="0 0 39 32" fill="none" xmlns="http://www.w3.org/2000/svg">
<path d="M0.0014089 28.9401L0.631331 23.9945C2.67554 23.7313 4.27169 23.2015 5.41973 22.4055C6.5949 21.6128 7.58441 20.5479 8.38824 19.2104C9.19537 17.8473 9.73017 16.1354 9.99265 14.0747C7.41776 13.7468 5.60907 12.8096 4.56656 11.2633C3.52406 9.71695 3.10287 8.15815 3.30301 6.58686C3.53595 4.75796 4.41041 3.29874 5.92637 2.20916C7.44232 1.11958 9.10829 0.690444 10.9243 0.921743C13.2552 1.21863 15.1379 2.44006 16.5722 4.58602C18.037 6.70966 18.5577 9.43294 18.1345 12.7558C17.7605 15.6924 16.7454 18.364 15.0892 20.7707C13.4363 23.1516 11.3415 25.11 8.80468 26.6453C6.29829 28.1584 3.36386 28.9234 0.0014089 28.9401ZM20.37 31.5344L20.9999 26.5888C23.0441 26.3256 24.6538 25.7976 25.8289 25.005C27.0042 24.2124 27.9936 23.1474 28.7975 21.81C29.6045 20.4469 30.1395 18.735 30.402 16.6743C27.8271 16.3463 26.0048 15.4074 24.9352 13.8576C23.8928 12.3113 23.4715 10.7525 23.6716 9.1812C23.9046 7.35232 24.7791 5.89309 26.2949 4.8035C27.8109 3.71393 29.4633 3.28306 31.2521 3.5109C33.6374 3.81471 35.5471 5.03958 36.9815 7.18554C38.4462 9.30918 38.967 12.0325 38.5438 15.3554C38.1697 18.2919 37.1411 20.9618 35.4579 23.3651C33.805 25.746 31.71 27.7043 29.1732 29.2396C26.667 30.7528 23.7324 31.5178 20.37 31.5344Z" fill="#DF0031"/>
</svg>
