<svg width="18" height="18" viewBox="0 0 18 18" fill="none" xmlns="http://www.w3.org/2000/svg">
<g clip-path="url(#clip0_62_2417)">
<path d="M9 0C4.03725 0 0 4.03725 0 9C0 13.9628 4.03725 18 9 18C13.9628 18 18 13.9628 18 9C18 4.03725 13.9628 0 9 0Z" fill="#DF0031"/>
<path d="M13.561 7.09276L8.68602 11.9678C8.61653 12.0376 8.53391 12.0931 8.44291 12.131C8.35191 12.1688 8.25433 12.1883 8.15577 12.1883C8.05721 12.1883 7.95963 12.1688 7.86863 12.131C7.77763 12.0931 7.69501 12.0376 7.62552 11.9678L5.18802 9.53026C5.11839 9.46063 5.06315 9.37796 5.02547 9.28698C4.98778 9.196 4.96838 9.09849 4.96838 9.00001C4.96838 8.90153 4.98778 8.80402 5.02547 8.71304C5.06315 8.62206 5.11839 8.53939 5.18802 8.46976C5.25765 8.40013 5.34032 8.34489 5.4313 8.3072C5.52228 8.26952 5.61979 8.25012 5.71827 8.25012C5.81675 8.25012 5.91426 8.26952 6.00524 8.3072C6.09622 8.34489 6.17889 8.40013 6.24852 8.46976L8.15577 10.377L12.5005 6.03226C12.6412 5.89163 12.8319 5.81262 13.0308 5.81262C13.2297 5.81262 13.4204 5.89163 13.561 6.03226C13.7017 6.17289 13.7807 6.36363 13.7807 6.56251C13.7807 6.76139 13.7017 6.95213 13.561 7.09276Z" fill="#FAFAFA"/>
</g>
<defs>
<clipPath id="clip0_62_2417">
<rect width="18" height="18" fill="white"/>
</clipPath>
</defs>
</svg>
