<svg width="150" height="127" viewBox="0 0 150 127" fill="none" xmlns="http://www.w3.org/2000/svg">
<path d="M43.0995 17.7217C44.6355 18.8331 45.8804 20.299 46.7282 21.9947C47.5761 23.6904 48.0019 25.5659 47.9694 27.4615C47.9217 29.2971 47.5233 31.4085 48.7833 32.7435C50.0434 34.0785 52.3387 33.9082 53.5511 35.2738C54.9644 36.8778 53.9768 39.4251 54.5727 41.4855C54.8761 42.4458 55.5116 43.2667 56.3653 43.8009C57.2191 44.3352 58.2352 44.5478 59.2315 44.4006C56.9785 46.4318 54.2096 47.8033 51.2285 48.3647L48.7867 45.5415C49.7096 46.5291 49.5598 48.1808 48.7867 49.2876C48.0137 50.3944 46.7434 51.021 45.4698 51.4943C42.4355 52.6014 39.1866 52.993 35.9761 52.6385C32.7657 52.2841 29.6804 51.1933 26.9607 49.451" fill="#263238"/>
<path d="M9.55177 35.6213C9.9366 34.1943 10.6415 32.856 10.8765 31.3984C11.3805 28.2687 9.6948 24.8564 11.0536 21.9889C12.0242 19.9456 14.2548 18.8626 16.3765 18.0896C18.4981 17.3165 20.7832 16.6354 22.3089 14.9701C23.4293 13.7509 24.0117 12.1197 25.1355 10.8835C26.7259 9.13984 29.171 8.45192 31.514 8.18969C33.9252 7.91725 36.435 8.02282 38.6657 8.97978C40.8963 9.93673 42.8068 11.8677 43.304 14.2277C43.5526 15.3822 43.4709 16.6116 43.8932 17.715C44.3597 18.9273 45.378 19.8366 46.0352 20.9604C46.6992 22.1679 46.9431 23.5617 46.7286 24.9228C46.514 26.2839 45.8533 27.5352 44.8501 28.4799L29.3481 50.7486C25.9426 52.2403 17.4083 51.0892 14.5817 48.6406C11.7552 46.192 8.57438 39.2209 9.55177 35.6213Z" fill="#263238"/>
<path d="M44.285 25.7792C43.3519 20.9501 39.3606 15.3889 34.5759 16.5229L19.9151 22.2919C19.2141 22.4596 18.6012 22.8836 18.1972 23.4804C17.7932 24.0773 17.6273 24.8039 17.7321 25.517L24.0358 61.8404L23.9336 61.8778C23.9336 61.8778 31.7663 75.5 41.3972 71.0728C43.3043 70.1975 40.8421 64.1732 40.9544 61.8778L40.3993 56.0884C40.0588 53.1324 39.9021 51.9235 39.9055 51.9507C39.9089 51.9779 45.9946 50.1219 46.2432 41.8397C46.3692 37.7496 45.3169 31.1463 44.285 25.7792Z" fill="#FFBF9D"/>
<path d="M33.0094 34.1704C33.0468 34.4413 32.9769 34.716 32.8147 34.9361C32.6525 35.1562 32.4108 35.3043 32.141 35.3488C31.8765 35.3999 31.6025 35.3445 31.3786 35.1946C31.1548 35.0447 30.9992 34.8125 30.9457 34.5485C30.9082 34.2772 30.978 34.0021 31.1401 33.7814C31.3023 33.5608 31.544 33.412 31.8141 33.3667C32.0791 33.3157 32.3535 33.3715 32.5775 33.5221C32.8015 33.6727 32.9567 33.9058 33.0094 34.1704Z" fill="#263238"/>
<path d="M43.529 33.1625C43.5672 33.4335 43.4977 33.7087 43.3354 33.929C43.173 34.1493 42.9307 34.2971 42.6606 34.3408C42.3966 34.391 42.1234 34.3351 41.9003 34.1853C41.6772 34.0355 41.5221 33.8038 41.4686 33.5405C41.4312 33.2693 41.5009 32.9941 41.6631 32.7735C41.8252 32.5528 42.067 32.4041 42.337 32.3588C42.6015 32.3087 42.8751 32.365 43.0983 32.5155C43.3215 32.666 43.4762 32.8985 43.529 33.1625Z" fill="#263238"/>
<path d="M43.7298 29.4913C43.6276 29.6888 42.623 29.1235 41.414 29.3619C40.2051 29.6003 39.4695 30.4755 39.3026 30.3291C39.2209 30.2644 39.3026 29.9306 39.6159 29.5288C40.0335 29.0182 40.6167 28.67 41.2642 28.5446C41.9104 28.4237 42.5784 28.5346 43.1509 28.8579C43.5936 29.1167 43.7843 29.4028 43.7298 29.4913Z" fill="#263238"/>
<path d="M32.5015 31.3676C32.3653 31.5515 31.3743 30.9044 30.0666 31.027C28.7589 31.1496 27.87 31.9363 27.7134 31.7797C27.635 31.7081 27.7576 31.388 28.1459 31.0236C28.6624 30.5564 29.3181 30.2717 30.0121 30.2131C30.6994 30.152 31.3874 30.3222 31.9669 30.6967C32.3994 30.9896 32.5662 31.279 32.5015 31.3676Z" fill="#263238"/>
<path d="M37.4328 38.8123C37.4328 38.7476 38.1139 38.5399 39.2104 38.2504C39.4931 38.1857 39.7587 38.0938 39.7792 37.8928C39.7669 37.5937 39.6622 37.3058 39.4795 37.0687L38.3557 34.9981C36.7823 32.0489 35.6074 29.6072 35.7266 29.5493C35.8458 29.4914 37.2182 31.8276 38.7916 34.7768L39.8847 36.8644C40.1078 37.1867 40.2103 37.5774 40.1742 37.9677C40.1421 38.0728 40.0864 38.1691 40.0115 38.2493C39.9365 38.3296 39.8443 38.3917 39.7417 38.4309C39.5886 38.4932 39.4285 38.5366 39.2649 38.5603C38.1513 38.7715 37.4464 38.877 37.4328 38.8123Z" fill="#263238"/>
<path d="M39.9055 51.9678C36.0923 52.5155 32.2019 51.9944 28.6672 50.4625C28.6672 50.4625 32.1307 55.8092 40.1575 54.0077L39.9055 51.9678Z" fill="#FF9A6C"/>
<path d="M37.3068 41.5707C37.0586 41.3302 36.7535 41.1565 36.42 41.066C36.0865 40.9755 35.7354 40.971 35.3997 41.053C35.1554 41.1077 34.9245 41.2109 34.7209 41.3566C34.5173 41.5022 34.3451 41.6874 34.2146 41.901C34.09 42.1072 34.0313 42.3465 34.0465 42.5869C34.0618 42.8274 34.1501 43.0574 34.2997 43.2462C34.6403 43.6344 35.3009 43.6515 35.8152 43.4301C36.3202 43.175 36.7694 42.8219 37.1365 42.3914C37.2514 42.2865 37.3451 42.1605 37.4124 42.0202C37.4467 41.9536 37.4598 41.8782 37.4501 41.8039C37.4403 41.7297 37.4082 41.6602 37.3579 41.6047" fill="#DF0031"/>
<path d="M34.2385 40.0075C34.419 39.9769 34.5791 41.1892 35.7267 41.9214C36.8744 42.6536 38.1549 42.3505 38.1855 42.5208C38.2128 42.5923 37.9301 42.7933 37.3852 42.8784C36.6745 42.9779 35.9514 42.8248 35.3419 42.4459C34.7573 42.0812 34.3372 41.5036 34.1704 40.8351C34.0546 40.3311 34.1534 40.0143 34.2385 40.0075Z" fill="#263238"/>
<path d="M32.277 28.33C32.2055 28.6501 31.068 28.6467 29.7773 28.9737C28.4866 29.3006 27.465 29.7944 27.2538 29.5458C27.1619 29.4232 27.3083 29.1133 27.7 28.7625C28.2215 28.3228 28.8402 28.0135 29.5049 27.8601C30.1667 27.6912 30.8593 27.6842 31.5244 27.8396C32.0318 27.9724 32.3077 28.1802 32.277 28.33Z" fill="#263238"/>
<path d="M42.337 25.0233C42.1463 25.3059 41.2302 25.1561 40.1677 25.2787C39.1051 25.4013 38.2299 25.701 37.9915 25.4592C37.8825 25.3434 37.9915 25.0709 38.3525 24.7781C38.8498 24.4109 39.4393 24.1893 40.0553 24.1378C40.6688 24.0631 41.291 24.1634 41.85 24.4273C42.2655 24.6384 42.4221 24.887 42.337 25.0233Z" fill="#263238"/>
<path d="M16.6764 23.6337C17.3575 22.435 18.6924 21.7709 19.9559 21.209C25.413 18.7782 31.1408 17.0073 37.0176 15.9338C37.8179 17.1087 37.2185 18.7911 36.156 19.731C35.0935 20.6709 33.6802 21.0932 32.3793 21.6551C31.0783 22.217 29.7536 23.0548 29.2734 24.3796C28.7626 25.7997 29.3347 27.4241 28.8988 28.868C28.1428 31.3541 24.7747 32.3144 24.0323 34.8039C23.4738 36.6872 24.6453 38.6011 25.0097 40.532C25.1986 41.5124 25.176 42.5219 24.9434 43.4929C24.7109 44.4639 24.2738 45.3741 23.6612 46.1626C23.0487 46.9511 22.275 47.5998 21.3917 48.0653C20.5084 48.5308 19.5359 48.8024 18.5392 48.8619L16.2439 27.9213C16.0804 26.4671 15.9442 24.8972 16.6764 23.6337Z" fill="#263238"/>
<path d="M3.46269 42.044C4.51841 40.9951 5.86359 40.0688 6.23139 38.6385C6.76946 36.5372 4.98837 34.1942 5.95895 32.2599C6.84779 30.4924 9.72206 30.4345 10.5394 28.6364C11.1796 27.2299 10.3044 26.0618 10.5121 24.8426C10.7199 23.6235 12.3716 22.486 13.6044 22.5678L23.872 35.9345C24.9959 40.5421 26.0175 42.9703 25.1559 45.7424C24.686 47.2613 24.0457 48.7529 23.9095 50.3399C23.7733 51.9268 24.2501 53.6909 25.6123 54.5559C19.9182 55.2949 14.4047 52.5739 9.30659 49.9312L3.90882 47.1353C3.32288 46.8892 2.80693 46.5019 2.40698 46.008C1.56241 44.7752 2.40698 43.0929 3.46269 42.044Z" fill="#263238"/>
<path d="M9.09204 48.535C9.29322 48.5891 9.50017 48.6188 9.70844 48.6236C10.308 48.6537 10.9083 48.58 11.4827 48.4056C12.402 48.1353 13.2352 47.6307 13.9007 46.9412C14.7762 46.0068 15.2946 44.7938 15.365 43.5153C15.4125 42.7751 15.3117 42.033 15.0688 41.3323C14.7728 40.5928 14.3787 39.8963 13.8972 39.2617C13.3918 38.6069 12.9846 37.8818 12.6883 37.1094C12.4397 36.3262 12.3886 35.3828 12.8722 34.6711C13.3558 33.9593 14.3161 33.7278 15.1948 33.3089C15.6882 33.1257 16.1047 32.7802 16.3758 32.329C16.6468 31.8779 16.7564 31.3479 16.6864 30.8262C16.6183 29.7773 16.1245 28.8442 15.8827 27.8805C15.744 27.4061 15.716 26.9063 15.8009 26.4195C15.9038 25.9398 16.1757 25.5131 16.5672 25.2173C17.3607 24.5839 18.4096 24.4375 19.421 24.2978C20.4587 24.2068 21.4567 23.8554 22.3225 23.2762C23.1549 22.7014 23.8143 21.91 24.2296 20.9877C24.5746 20.0984 24.7791 19.1609 24.8358 18.2087C24.8887 17.3301 25.0325 16.4593 25.2649 15.6103C25.5246 14.8303 25.9484 14.1149 26.5079 13.5125C27.5335 12.4365 28.8914 11.7371 30.363 11.5271C31.5888 11.3732 32.8332 11.5692 33.9524 12.0924C34.8018 12.4754 35.5766 13.0058 36.2409 13.659C36.8001 14.2272 37.2905 14.8593 37.7019 15.5422C37.7019 15.5422 37.7019 15.4877 37.6406 15.3958C37.5793 15.3038 37.5282 15.1574 37.4193 14.9871C37.1181 14.472 36.7543 13.9962 36.3363 13.5704C35.6757 12.8863 34.8955 12.3288 34.0342 11.9255C32.8881 11.3743 31.6095 11.1583 30.346 11.3023C28.8077 11.5051 27.3844 12.2258 26.3104 13.3456C25.7174 13.9732 25.2667 14.7213 24.9891 15.5388C24.7468 16.4064 24.5939 17.2964 24.5327 18.1951C24.4748 19.1145 24.2761 20.0196 23.9436 20.8787C23.5489 21.745 22.9262 22.4878 22.142 23.0276C21.3156 23.5744 20.3644 23.9036 19.3767 23.9845C18.3755 24.1276 17.2551 24.2706 16.3629 24.9721C15.9106 25.317 15.5965 25.8123 15.4774 26.3684C15.3832 26.9039 15.4134 27.4539 15.566 27.9758C15.8282 28.9975 16.305 29.9033 16.3629 30.8637C16.4131 31.3247 16.3191 31.7899 16.0938 32.1953C15.844 32.5714 15.4886 32.8653 15.0722 33.0398C14.6567 33.2408 14.2037 33.3804 13.7678 33.5983C13.3161 33.7927 12.9254 34.1058 12.6372 34.5042C12.0787 35.342 12.1604 36.3739 12.4261 37.2082C12.7351 38.005 13.1597 38.752 13.6861 39.4252C14.1597 40.0374 14.548 40.7111 14.8406 41.4277C15.1664 42.3388 15.24 43.3211 15.0535 44.2706C14.8671 45.2202 14.4276 46.1017 13.7815 46.822C13.1456 47.5003 12.3475 48.0055 11.4623 48.2898C10.696 48.5267 9.89056 48.61 9.09204 48.535Z" fill="#455A64"/>
<path d="M0.953012 39.0676C0.86425 39.2129 0.807371 39.3754 0.786141 39.5444C0.720428 40.036 0.832769 40.5349 1.10286 40.9509C1.29766 41.2538 1.5629 41.505 1.87591 41.6831C2.25469 41.8862 2.6835 41.9771 3.11212 41.9453C3.63343 41.9106 4.13522 41.7335 4.56278 41.4332C4.99035 41.133 5.32728 40.7211 5.53686 40.2425C5.78109 39.6879 5.89078 39.0835 5.85698 38.4785C5.80305 37.8248 5.62992 37.1865 5.34615 36.5952C4.82851 35.3794 3.94307 34.2113 3.85112 32.7708C3.80522 32.4167 3.83165 32.0569 3.92882 31.7133C4.02599 31.3697 4.19188 31.0494 4.41644 30.7717C4.90002 30.2269 5.67989 30.0634 6.45976 30.0157C7.23962 29.968 8.10122 30.0157 8.92196 29.6343C9.33476 29.4421 9.67582 29.1237 9.89594 28.725C10.1019 28.3271 10.2182 27.8888 10.2365 27.4411C10.2978 26.5421 10.0458 25.7111 9.89594 24.9074C9.72724 24.1286 9.72724 23.3228 9.89594 22.544C10.2307 21.0618 11.1203 19.764 12.382 18.9171C13.5841 18.1066 15.0145 17.9533 16.3017 17.8103C17.589 17.6673 18.8525 17.531 19.8912 17.0543C20.8277 16.6478 21.6723 16.0558 22.3738 15.314C22.9044 14.7607 23.3466 14.1289 23.6849 13.441C23.9915 12.8641 24.1911 12.2364 24.2741 11.5884C24.0945 12.2058 23.8585 12.8055 23.5692 13.3797C22.7586 14.9232 21.4454 16.1439 19.8469 16.8397C18.8252 17.2824 17.6231 17.4118 16.3188 17.5208C15.0145 17.6298 13.5467 17.7933 12.2594 18.648C10.9259 19.534 9.98357 20.8981 9.6269 22.4588C9.44133 23.2799 9.43437 24.1312 9.60647 24.9551C9.75631 25.7758 9.99129 26.5897 9.94702 27.4037C9.90275 28.2176 9.52814 29.0043 8.80957 29.321C8.09101 29.6377 7.26687 29.6105 6.46657 29.6615C5.66627 29.7126 4.7638 29.8863 4.2087 30.5299C3.95605 30.84 3.76927 31.1984 3.65978 31.5831C3.55028 31.9678 3.52037 32.3707 3.57187 32.7674C3.64232 33.5027 3.8576 34.2168 4.2053 34.8686C4.5152 35.5054 4.85575 36.0912 5.11798 36.6803C5.3895 37.2357 5.55796 37.8357 5.61519 38.4512C5.65216 39.0171 5.55654 39.5839 5.33593 40.1063C5.14892 40.554 4.84333 40.9421 4.45207 41.229C4.06081 41.5158 3.5987 41.6905 3.11553 41.7341C2.74997 41.7738 2.38053 41.7126 2.04732 41.5571C1.71411 41.4016 1.42987 41.1578 1.22545 40.8521C0.957122 40.465 0.830802 39.997 0.867874 39.5274C0.888917 39.3728 0.917329 39.2194 0.953012 39.0676Z" fill="#263238"/>
<path d="M61.4009 39.4252C61.5909 39.9022 61.6114 40.43 61.4588 40.9202C61.3763 41.2016 61.2324 41.4612 61.0375 41.6803C60.8426 41.8994 60.6015 42.0724 60.3316 42.1871C59.9685 42.3148 59.577 42.3388 59.201 42.2564C58.825 42.174 58.4795 41.9884 58.2031 41.7205C57.8868 41.4059 57.6914 40.9899 57.6514 40.5456C57.6075 40.0551 57.656 39.5607 57.7944 39.088C58.0499 38.1038 58.6152 37.0175 58.4756 35.7608C58.3987 35.1218 58.1894 34.5059 57.861 33.9523C57.5326 33.3988 57.0924 32.9198 56.5685 32.546C56.0161 32.1505 55.3947 31.8617 54.7363 31.6946C54.0661 31.5446 53.3793 31.4817 52.693 31.5073C52.0282 31.5331 51.3624 31.4978 50.7041 31.4018C50.0884 31.3042 49.5267 30.9931 49.1172 30.5231C48.75 30.0397 48.5269 29.4625 48.4735 28.8578C48.4125 28.2676 48.4319 27.6719 48.5314 27.0869C48.7085 25.9325 48.9946 24.8052 48.872 23.7155C48.7624 22.7126 48.3583 21.7646 47.7107 20.991C47.1601 20.3808 46.5006 19.8784 45.7661 19.5096C45.229 19.2303 44.7134 18.9116 44.2234 18.5561C43.8166 18.2423 43.4772 17.8496 43.2256 17.4016C43.2256 17.4016 43.2256 17.4357 43.2528 17.5004C43.289 17.5943 43.3322 17.6854 43.3822 17.7728C43.5764 18.1139 43.8342 18.4144 44.1417 18.6583C44.6233 19.039 45.1347 19.3806 45.6708 19.6799C46.3748 20.0503 47.0041 20.5479 47.5268 21.1477C48.1334 21.891 48.5056 22.7978 48.5961 23.7529C48.6983 24.7746 48.4156 25.8746 48.2249 27.0495C48.1152 27.6619 48.0911 28.2865 48.1534 28.9055C48.2119 29.5702 48.4562 30.2051 48.8583 30.7377C49.3138 31.2706 49.9439 31.6242 50.636 31.7355C51.312 31.8379 51.9961 31.8766 52.6793 31.8513C53.3404 31.8247 54.0021 31.8842 54.6477 32.0284C55.2594 32.1838 55.8369 32.4517 56.3505 32.8185C56.8401 33.1649 57.2525 33.6093 57.5614 34.1234C57.8703 34.6375 58.0691 35.2102 58.1452 35.8051C58.3053 36.9562 57.7808 37.9949 57.522 39.0301C57.3787 39.5368 57.3336 40.0663 57.3892 40.5899C57.4427 41.0891 57.6706 41.5534 58.0328 41.901C58.3425 42.1928 58.7281 42.3917 59.1454 42.4748C59.5627 42.5579 59.995 42.5219 60.3929 42.371C60.8634 42.1531 61.2407 41.7743 61.4567 41.3029C61.6727 40.8315 61.7133 40.2985 61.5712 39.7998C61.5366 39.666 61.479 39.5392 61.4009 39.4252Z" fill="#263238"/>
<path d="M41.1892 58.9729C41.1892 58.9729 52.2878 64.8917 53.8237 69.2814C55.3596 73.6712 54.6955 102.874 54.6955 102.874L58.6528 126.164H53.5274L41.1892 58.9729Z" fill="#455A64"/>
<path d="M12.838 58.2169C9.73214 59.1126 7.9238 62.6032 6.79657 65.6478C6.05416 67.6638 5.79875 72.3056 6.39812 75.9461C7.84207 84.6609 15.2219 111.193 15.2219 111.193L9.86496 126.178H55.1006C55.1006 126.178 54.5421 89.5308 54.1675 82.2463C53.7929 74.9619 40.5454 57.8355 40.5454 57.8355L41.5296 67.9874L22.9763 55.7377C22.9763 55.7377 17.8577 56.773 12.838 58.2169Z" fill="#455A64"/>
<path d="M54.8146 93.3826C54.8185 93.4108 54.8185 93.4395 54.8146 93.4677C54.8146 93.5324 54.8146 93.6141 54.8146 93.7163C54.8146 93.9479 54.7874 94.268 54.7704 94.6699C54.7329 95.5144 54.6784 96.7132 54.6103 98.181C54.4911 101.147 54.389 105.247 54.4298 109.777C54.4707 114.306 54.6546 118.403 54.8249 121.356C54.9134 122.823 54.9849 124.019 55.0394 124.863C55.0633 125.265 55.0803 125.585 55.0939 125.817V126.065C55.0977 126.094 55.0977 126.122 55.0939 126.151C55.0891 126.124 55.0891 126.096 55.0939 126.069L55.0667 125.82C55.0462 125.589 55.0156 125.272 54.9747 124.867C54.8998 124.043 54.8044 122.844 54.7057 121.362C54.5047 118.4 54.3072 114.299 54.2595 109.763C54.2119 105.227 54.3413 101.13 54.4945 98.1639C54.5695 96.6791 54.6444 95.4804 54.7091 94.6528C54.7397 94.251 54.767 93.9309 54.784 93.6993L54.8112 93.4507C54.8084 93.428 54.8096 93.4049 54.8146 93.3826Z" fill="#263238"/>
<path opacity="0.3" d="M11.5576 85.0559C11.5576 85.0559 24.8392 111.585 35.0558 111.895C45.2724 112.205 47.5064 106.95 49.9346 103.241C52.3627 99.5328 53.6806 95.0239 53.6806 95.0239L39.3774 103.936L11.5576 85.0559Z" fill="black"/>
<path d="M7.23267 77.3663C12.828 90.154 29.9339 107.202 35.0286 108.898C41.2335 110.965 44.0022 108.016 46.008 105.574C48.0139 103.133 57.529 89.5138 57.529 89.5138L45.5619 78.6876L38.7883 87.5999C38.7883 87.5999 23.9811 64.6534 23.0548 63.676" fill="#455A64"/>
<path d="M23.0547 63.676C23.0547 63.676 23.1671 63.8088 23.3953 64.0779C23.6235 64.3469 23.8959 64.759 24.2705 65.3141C25.0265 66.4073 26.1129 68.0385 27.4921 70.1091C30.2472 74.2706 34.1602 80.2678 38.8802 87.559H38.7202L45.4836 78.6467L45.5381 78.5752L45.6062 78.6331C49.3114 81.9842 53.3538 85.6417 57.5766 89.4559L57.6345 89.5104L57.5902 89.5717L52.1823 97.2512C50.8745 99.0947 49.5747 100.911 48.2829 102.7C47.6359 103.589 46.9922 104.471 46.3213 105.326C45.6688 106.188 44.9355 106.986 44.1316 107.71C43.3486 108.423 42.4264 108.967 41.423 109.307C40.4196 109.647 39.3568 109.775 38.3013 109.685C38.0425 109.685 37.7871 109.63 37.5317 109.606L37.1536 109.555L36.779 109.477C36.5304 109.423 36.2784 109.378 36.0332 109.314L35.3078 109.099C34.357 108.786 33.4608 108.326 32.6515 107.737C31.0867 106.64 29.5932 105.444 28.1801 104.158C26.7906 102.925 25.4897 101.682 24.2603 100.449C21.8049 97.9833 19.6288 95.5756 17.7285 93.2973C14.691 89.7421 11.957 85.9384 9.55521 81.9263C8.71405 80.4994 8.14873 79.3449 7.7639 78.5616L7.35865 77.6591C7.2667 77.4548 7.22583 77.3492 7.22583 77.3492C7.22583 77.3492 7.27691 77.4514 7.37227 77.6523C7.46762 77.8533 7.61065 78.1563 7.79455 78.548C8.18959 79.321 8.76513 80.4721 9.61651 81.8888C12.0351 85.8835 14.779 89.672 17.8204 93.2156C19.7207 95.4769 21.9071 97.8778 24.3557 100.337C25.5885 101.563 26.8894 102.802 28.2754 104.028C29.6882 105.302 31.1818 106.482 32.7469 107.563C33.5425 108.14 34.4239 108.588 35.3589 108.891L36.0775 109.102C36.3193 109.167 36.5679 109.211 36.8131 109.266L37.1843 109.344L37.5589 109.392C37.8109 109.416 38.0595 109.463 38.3149 109.47C39.3474 109.562 40.3876 109.44 41.3708 109.112C42.354 108.784 43.259 108.257 44.0294 107.563C44.8239 106.849 45.5491 106.061 46.1953 105.21C46.8764 104.359 47.5031 103.48 48.1501 102.591C49.4442 100.813 50.7428 99.0027 52.046 97.1592L57.4506 89.4695V89.5853L45.504 78.7523H45.6266L38.8462 87.6544L38.7815 87.7361L38.727 87.651C34.0206 80.3461 30.1246 74.3387 27.39 70.167C26.0278 68.0794 24.9482 66.4481 24.2024 65.3481C23.8346 64.7964 23.5213 64.3844 23.3476 64.1017C23.1739 63.8191 23.0547 63.676 23.0547 63.676Z" fill="#263238"/>
<path d="M12.8384 58.217C12.9696 58.1617 13.1067 58.1217 13.247 58.0978C13.4082 58.0553 13.5721 58.0234 13.7374 58.0024C13.9538 57.9634 14.172 57.9361 14.3913 57.9207C14.9651 57.8755 15.5419 57.8823 16.1145 57.9411C16.8142 58.0204 17.5044 58.1687 18.1748 58.3838C18.8419 58.6127 19.4852 58.9059 20.0956 59.2591C20.5897 59.5553 21.0549 59.8974 21.485 60.2807C21.6529 60.4244 21.8131 60.5767 21.9652 60.7371C22.0869 60.8518 22.2007 60.9747 22.3058 61.1049C22.4043 61.2077 22.4901 61.322 22.5612 61.4454C22.5339 61.4693 22.1559 60.9959 21.4101 60.3761C20.9743 60.0145 20.5083 59.6909 20.0172 59.4089C19.4153 59.0675 18.7824 58.7836 18.1272 58.5609C17.4616 58.3477 16.7775 58.1972 16.0839 58.1114C15.519 58.0429 14.9493 58.0235 14.3811 58.0535C13.4378 58.1012 12.8384 58.2544 12.8384 58.217Z" fill="#263238"/>
<path d="M38.737 97.9186C38.6893 97.9186 38.6586 95.6097 38.6757 92.7592C38.6927 89.9088 38.7404 87.5999 38.788 87.5999C38.8357 87.5999 38.8664 89.9088 38.8527 92.7592C38.8391 95.6097 38.788 97.9186 38.737 97.9186Z" fill="#263238"/>
<path d="M55.5744 55.169C55.1555 55.0328 52.9453 57.6006 52.3527 58.4554C51.9407 59.0547 51.171 61.8098 50.7453 63.4104C50.5476 64.1613 50.582 64.9544 50.8441 65.6853L53.0236 71.7404L61.7724 74.6998C61.7724 74.6998 64.204 72.7927 64.7318 70.4905C65.2597 68.1884 67.0306 61.1526 67.0306 61.1526L64.7965 60.6247L63.482 62.0721L62.7566 59.5724C62.7566 59.5724 61.8371 58.8504 61.1118 59.6405C61.1118 59.6405 60.5873 58.1285 58.7279 59.0479C58.7279 59.0479 58.5985 57.4031 57.7437 57.1408C57.4805 57.0663 57.205 57.0454 56.9336 57.0793C56.6621 57.1133 56.4003 57.2013 56.1635 57.3384C56.1635 57.3384 57.0217 55.6288 55.5744 55.169Z" fill="#FFBF9D"/>
<path d="M67.7762 59.6268C67.7762 59.6268 68.9239 58.6664 70.2282 59.8992C70.2282 59.8992 71.0728 59.1364 71.931 59.2726C72.4944 59.4002 73.0011 59.7074 73.3749 60.1478C73.3749 60.1478 74.4681 59.1023 75.1015 59.2556C75.735 59.4088 76.4058 60.359 76.4058 60.359C76.9931 60.4466 77.5711 60.5879 78.1325 60.7813C78.5547 60.9924 79.0485 62.6849 79.0485 62.8246C79.0485 62.9642 79.825 66.3868 79.0485 67.4084C78.2721 68.4301 75.2718 74.1378 75.2718 74.1378L65.1982 73.2932L64.7283 70.4904L66.5741 60.4986L67.7762 59.6268Z" fill="#BF6259"/>
<path d="M70.2827 60.1411C70.3592 60.3261 70.4229 60.5161 70.4734 60.7098C70.5858 61.081 70.7458 61.6157 70.9263 62.2832C71.1068 62.9507 71.3043 63.7476 71.4814 64.6466C71.5665 65.0962 71.6551 65.5627 71.7062 66.0667C71.735 66.3253 71.7281 66.5865 71.6857 66.8432C71.6406 67.1205 71.5096 67.3766 71.3111 67.5754C71.1018 67.7549 70.8428 67.8667 70.5686 67.8958C70.2943 67.925 70.0177 67.8703 69.7752 67.7389C69.3385 67.4968 68.991 67.1207 68.7842 66.6661C68.6005 66.2707 68.4502 65.8606 68.3347 65.4401C68.2189 65.0519 68.1167 64.6875 68.0282 64.3503C67.8511 63.6692 67.7251 63.1414 67.64 62.7634C67.5897 62.5697 67.5521 62.3728 67.5276 62.1742C67.6032 62.3597 67.6635 62.5511 67.7081 62.7463L68.1508 64.3197C68.2462 64.6603 68.3517 65.0008 68.4914 65.3958C68.6085 65.8074 68.76 66.2084 68.9443 66.5946C69.1401 67.0129 69.4631 67.3586 69.8672 67.5822C70.0774 67.6971 70.3175 67.7455 70.5558 67.7212C70.7941 67.6969 71.0195 67.601 71.2022 67.446C71.5427 67.1054 71.587 66.5537 71.5427 66.0838C71.4984 65.6138 71.4065 65.1234 71.3282 64.6807C71.1613 63.785 70.9876 62.9779 70.8105 62.3173C70.6334 61.6566 70.5142 61.1355 70.4155 60.7337C70.3548 60.5402 70.3104 60.342 70.2827 60.1411Z" fill="#DF0031"/>
<path d="M71.2395 67.5242C71.3327 67.629 71.4149 67.7431 71.4847 67.8648C71.5904 68.0106 71.7245 68.1335 71.8791 68.226C72.0336 68.3184 72.2053 68.3786 72.3838 68.4029C72.5043 68.422 72.6276 68.4148 72.7451 68.3819C72.8627 68.349 72.9718 68.2911 73.0649 68.2121C73.2411 67.9933 73.351 67.7286 73.3816 67.4493C73.4328 67.1318 73.4556 66.8105 73.4497 66.4889C73.4497 66.1484 73.4497 65.8078 73.4497 65.4366C73.4497 63.9995 73.4122 62.6952 73.4054 61.7484C73.4054 61.2751 73.4054 60.8936 73.4054 60.628C73.3988 60.4912 73.408 60.3541 73.4327 60.2194C73.463 60.3534 73.4768 60.4906 73.4735 60.628C73.4735 60.9277 73.5042 61.3091 73.5246 61.745C73.5621 62.6884 73.62 63.9927 73.6234 65.4366C73.6234 65.7976 73.6234 66.1518 73.6234 66.4923C73.6276 66.8234 73.6002 67.1541 73.5416 67.4799C73.5023 67.7917 73.3706 68.0847 73.1636 68.3211C73.0562 68.4097 72.9308 68.4738 72.7962 68.5091C72.6615 68.5444 72.5208 68.5499 72.3838 68.5254C72.1923 68.4942 72.0097 68.4225 71.8482 68.315C71.6866 68.2076 71.55 68.0668 71.4472 67.9022C71.3622 67.7856 71.2924 67.6585 71.2395 67.5242Z" fill="#DF0031"/>
<path d="M75.987 63.4308C76.0556 64.1955 76.0556 64.9648 75.987 65.7295C75.9455 66.2289 75.7993 66.7139 75.5579 67.153C75.4128 67.3816 75.203 67.5619 74.9551 67.6707C74.8367 67.7213 74.7093 67.7473 74.5805 67.7473C74.4517 67.7473 74.3243 67.7213 74.2059 67.6707C74.0198 67.5743 73.8584 67.4363 73.7344 67.2673C73.6104 67.0984 73.527 66.9031 73.4907 66.6967C73.4411 66.4283 73.4296 66.1543 73.4567 65.8828C73.4572 65.7832 73.4733 65.6844 73.5043 65.5899C73.5267 65.687 73.5347 65.7868 73.5282 65.8862C73.5262 66.1497 73.5547 66.4125 73.6133 66.6695C73.6532 66.854 73.7355 67.0267 73.8538 67.1738C73.972 67.321 74.1229 67.4387 74.2944 67.5174C74.5099 67.5839 74.7419 67.573 74.9503 67.4866C75.1586 67.4001 75.3301 67.2436 75.4353 67.0441C75.6652 66.6231 75.8066 66.1595 75.8507 65.6818C75.9019 65.2911 75.9292 64.8976 75.9325 64.5035C75.9167 64.145 75.9349 63.7858 75.987 63.4308Z" fill="#DF0031"/>
<path d="M77.4785 63.2912C77.4027 63.3521 77.3142 63.3951 77.2196 63.4173C76.9705 63.5019 76.7096 63.5467 76.4466 63.5501C76.0537 63.5556 75.6644 63.4754 75.3057 63.3151C74.8626 63.1154 74.4823 62.7987 74.2057 62.399C73.6064 61.551 73.5961 60.4953 73.9435 59.9061C74.0718 59.6713 74.2628 59.4768 74.4952 59.3442C74.6621 59.2557 74.7677 59.2421 74.7677 59.2523C74.7677 59.2625 74.6791 59.3034 74.5327 59.4021C74.3286 59.5468 74.1636 59.7399 74.0525 59.964C73.8965 60.3456 73.8421 60.7611 73.8946 61.17C73.9471 61.5788 74.1048 61.9671 74.3522 62.2968C74.6106 62.6718 74.9629 62.9725 75.3738 63.1687C75.7123 63.3237 76.078 63.4105 76.45 63.4241C76.7968 63.4197 77.1419 63.3752 77.4785 63.2912Z" fill="#DF0031"/>
<path d="M56.3985 57.2225C56.4155 57.2498 56.0579 57.4916 55.5505 57.9752C54.8978 58.6078 54.3465 59.3372 53.9158 60.1377C53.4425 61.0946 53.0304 61.9801 52.7682 62.6271C52.6417 62.9853 52.4939 63.3356 52.3254 63.676C52.3292 63.572 52.3511 63.4694 52.3901 63.3729C52.448 63.1856 52.5332 62.9132 52.649 62.5794C52.9728 61.7187 53.3435 60.8763 53.7592 60.0559C54.1949 59.2374 54.7713 58.502 55.4619 57.8832C55.6761 57.6964 55.9038 57.5257 56.143 57.3724C56.2197 57.3092 56.3059 57.2586 56.3985 57.2225Z" fill="#FF9A6C"/>
<path d="M58.7313 59.048C58.4955 59.5217 58.2246 59.977 57.9207 60.4102C57.4508 61.1492 57.1477 61.7724 57.1102 61.7724C57.0728 61.7724 57.2975 61.064 57.7709 60.3182C58.0271 59.8501 58.3507 59.4221 58.7313 59.048Z" fill="#FF9A6C"/>
<path d="M61.0981 59.6404C61.0522 60.0195 60.9666 60.3928 60.8427 60.754C60.7765 61.1361 60.6315 61.5003 60.417 61.8233C60.463 61.4431 60.5486 61.0688 60.6724 60.7063C60.7417 60.3262 60.8865 59.9637 61.0981 59.6404Z" fill="#FF9A6C"/>
<path d="M64.5273 63.4172C64.3142 63.3554 64.1281 63.2234 63.9995 63.0426C63.6702 62.6353 63.4134 62.1745 63.24 61.6804C63.055 61.2 62.9125 60.7043 62.8143 60.199C62.7579 59.9916 62.7338 59.7768 62.7428 59.5621C62.7973 59.5621 62.9812 60.5089 63.4239 61.6055C63.6184 62.2965 64.0073 62.917 64.5443 63.3934L64.5273 63.4172Z" fill="#FF9A6C"/>
<path d="M61.7585 74.6997L55.809 87.7531L46.3655 79.5253L52.4273 70.109L61.7585 74.6997Z" fill="#FFBF9D"/>
<path d="M75.9869 76.4808C75.5576 74.9985 75.3095 73.4696 75.2479 71.9276L65.188 73.2898C65.5285 73.7768 67.0168 85.0525 67.0168 85.0525L76.8622 78.8272C76.5181 78.0656 76.2257 77.2817 75.9869 76.4808Z" fill="#BF6259"/>
<path d="M63.5226 61.9869C63.5226 61.9869 62.6713 61.2683 62.7087 60.4203C62.7223 59.9332 62.8262 59.4528 63.0152 59.0036C63.3612 58.7023 63.7716 58.4842 64.2149 58.3662C64.6583 58.2481 65.1228 58.2332 65.5728 58.3225C67.0508 58.6631 68.4981 60.3658 68.4981 60.3658C68.4981 60.3658 68.3142 61.5407 67.2619 61.3296C66.4234 61.1408 65.5958 60.9067 64.7827 60.628L63.5226 61.9869Z" fill="#BF6259"/>
<path d="M63.5227 61.9868C63.6269 61.8485 63.7407 61.7176 63.8632 61.5952C64.088 61.3398 64.3877 60.9992 64.7555 60.5735L64.7793 60.5463H64.8133C65.3344 60.7131 65.9576 60.9039 66.6694 61.0809C66.8465 61.1252 67.0269 61.1695 67.2142 61.2069C67.3941 61.2529 67.5827 61.2529 67.7625 61.2069C67.9416 61.1316 68.0972 61.0098 68.2134 60.8542C68.3295 60.6985 68.402 60.5146 68.4232 60.3215L68.4436 60.3896C68.0692 59.9633 67.6553 59.5733 67.2074 59.2249C66.5263 58.7039 65.7703 58.2918 65.0007 58.302C64.2952 58.3116 63.6155 58.5683 63.0799 59.0274V59.007C62.9089 59.4157 62.8043 59.8491 62.77 60.2909C62.7414 60.6273 62.8188 60.9643 62.9914 61.2546C63.1455 61.5061 63.3234 61.7421 63.5227 61.9596C63.4539 61.921 63.3918 61.8715 63.3387 61.8131C63.1785 61.6584 63.0378 61.4845 62.9199 61.2955C62.7229 60.9929 62.6308 60.6339 62.6576 60.2738C62.6793 59.8144 62.7783 59.3619 62.9505 58.9355C63.5074 58.4388 64.224 58.1585 64.97 58.1454C65.7941 58.1284 66.5944 58.5643 67.2858 59.0955C67.7425 59.4521 68.1644 59.8512 68.5458 60.2875L68.5731 60.3181V60.359C68.5303 60.5812 68.4422 60.7922 68.3142 60.9788C68.1881 61.1665 68.002 61.3058 67.7864 61.3738C67.5811 61.4284 67.3651 61.4284 67.1598 61.3738C66.969 61.333 66.7852 61.2887 66.6081 61.241C65.8929 61.0503 65.2731 60.8494 64.752 60.6655H64.8133C64.4217 61.0707 64.0982 61.4045 63.853 61.6531C63.7501 61.7713 63.6398 61.8828 63.5227 61.9868Z" fill="#DF0031"/>
<path d="M76.9678 67.2892C76.9678 67.3199 76.5557 67.3505 75.9018 67.4868C74.1969 67.8519 72.6287 68.6885 71.3759 69.9013C70.8957 70.3644 70.6403 70.6914 70.613 70.6743C70.6533 70.5845 70.706 70.5008 70.7697 70.4257C70.9264 70.2095 71.0983 70.0047 71.2839 69.8127C72.5154 68.5306 74.1256 67.6771 75.878 67.3778C76.1414 67.3314 76.4076 67.303 76.6749 67.2927C76.7715 67.2741 76.8707 67.273 76.9678 67.2892Z" fill="#DF0031"/>
<path d="M127.288 2.67278C127.775 2.2395 128.356 1.92488 128.985 1.75355C129.614 1.58222 130.275 1.55881 130.914 1.68517C131.432 1.79415 131.991 1.99507 132.464 1.76009C132.805 1.58982 133.002 1.23905 133.268 0.966603C133.478 0.772145 133.724 0.621675 133.993 0.52407C134.262 0.426464 134.548 0.383699 134.833 0.3983C135.119 0.412902 135.399 0.484572 135.656 0.609083C135.914 0.733594 136.144 0.908424 136.333 1.12326C136.482 1.36757 136.67 1.58514 136.891 1.7669C137.872 2.3799 139.146 0.554535 140.12 1.18115C139.645 1.31892 139.224 1.59953 138.914 1.98486C138.763 2.18082 138.683 2.42179 138.686 2.66892C138.689 2.91605 138.776 3.15494 138.931 3.34707C139.82 4.25975 141.533 2.50931 142.544 3.28577C143.086 3.70465 143.089 4.68544 143.743 4.89659C144.004 4.9426 144.272 4.9426 144.533 4.89659C144.98 4.89838 145.409 5.07012 145.733 5.3769C146.058 5.68369 146.253 6.10251 146.28 6.54827C146.297 7.31111 145.844 8.20676 146.372 8.75506C146.713 9.09561 147.237 9.09561 147.707 9.05474C147.644 9.75099 147.422 10.4234 147.057 11.0197C147.634 11.4439 148.023 12.0759 148.143 12.7819C148.262 13.488 148.102 14.2129 147.697 14.8033C148.292 15.2857 148.788 15.879 149.158 16.5503C149.481 17.2314 149.498 18.1339 149.005 18.7128C148.871 18.8311 148.756 18.9688 148.664 19.1215C148.598 19.2989 148.583 19.491 148.62 19.6766C148.708 20.3952 148.96 21.1069 148.889 21.8255C148.817 22.5441 148.208 23.3001 147.496 23.1877C147.329 23.1605 147.155 23.0889 146.999 23.1707C146.946 23.2066 146.902 23.253 146.868 23.3069C146.834 23.3608 146.811 23.421 146.801 23.484C146.712 23.9985 146.706 24.524 146.784 25.0403C146.863 25.5605 146.741 26.0912 146.444 26.5251C146.103 26.9236 145.385 27.0155 145.082 26.583L145.511 29.0452C145.596 29.5322 145.65 30.118 145.272 30.4415C144.782 30.8672 143.985 30.4415 143.682 29.8659C143.379 29.2904 143.341 28.6025 143.021 28.0372C142.869 27.8243 142.74 27.596 142.636 27.3561C142.572 27.1551 142.565 26.9236 142.412 26.7771C142.108 26.4843 141.577 26.8963 141.587 27.3186C141.598 27.7409 141.904 28.0815 142.143 28.4288C142.381 28.7762 142.561 29.2564 142.316 29.6037C142.2 29.7672 142.003 29.8694 141.891 30.0362C141.502 30.622 142.354 31.2895 142.405 31.991C142.442 32.5086 142.034 32.9445 141.639 33.2817C141.155 33.6938 140.276 33.9866 140.021 33.3975C139.98 33.1813 139.952 32.963 139.936 32.7436C139.837 32.5044 139.682 32.2929 139.483 32.1272C139.038 31.6561 138.743 31.0635 138.635 30.4245C139.115 31.126 139.609 32.0387 139.173 32.7675C138.957 33.0504 138.7 33.2995 138.41 33.5065C137.889 33.9696 137.538 34.5962 137.024 35.0662C136.51 35.5362 135.699 35.8222 135.12 35.4374C135.204 35.7832 135.167 36.147 135.017 36.4693C134.867 36.7917 134.611 37.0535 134.293 37.2117C133.974 37.37 133.611 37.4154 133.264 37.3405C132.916 37.2657 132.604 37.075 132.379 36.7996C132.277 36.6356 132.141 36.4951 131.98 36.3875C131.783 36.3197 131.571 36.3079 131.367 36.3535C130.746 36.4073 130.121 36.2894 129.562 36.0125C129.003 35.7357 128.531 35.3105 128.197 34.7835L128.837 34.6133C127.628 34.3612 126.372 34.0854 125.411 33.3089C124.451 32.5325 123.899 31.0988 124.515 30.0294C124.781 29.5663 125.258 29.1065 125.098 28.5957C124.989 28.2551 124.614 28.0576 124.277 27.9146L120.044 26.0415C119.363 25.7384 118.641 25.4081 118.219 24.7917C117.796 24.1753 117.83 23.1775 118.484 22.8131C118.198 22.1106 117.719 21.5037 117.102 21.0626C116.421 20.5723 115.583 20.31 114.874 19.8503C114.166 19.3905 113.543 18.6141 113.662 17.7763C113.781 16.9386 114.994 16.38 115.525 17.0373C115.525 15.7602 113.253 15.5048 113.158 14.2312C113.08 13.2095 114.432 12.7668 115.167 12.0346C115.055 11.6668 114.711 11.4114 114.592 11.047C114.336 10.2875 115.161 9.60984 115.906 9.32378C116.652 9.03771 117.561 8.75846 117.8 7.99222C118.038 7.22597 117.425 6.25199 117.905 5.58451C118.046 5.40541 118.248 5.28543 118.472 5.24823C118.697 5.21103 118.927 5.25932 119.118 5.38358C119.799 3.96688 122.479 5.28141 123.388 3.99072C123.464 3.89327 123.506 3.77365 123.507 3.65016C123.497 3.54265 123.457 3.44016 123.392 3.35388C123.106 2.92819 122.632 2.67278 122.251 2.33222C121.869 1.99167 121.57 1.43997 121.794 0.970009C122.019 0.500046 122.918 0.591995 122.867 1.10282C123.011 1.00478 123.175 0.941196 123.347 0.917024C123.519 0.892851 123.694 0.908748 123.859 0.963472C124.024 1.0182 124.174 1.11027 124.297 1.2325C124.42 1.35474 124.514 1.50383 124.57 1.66814C124.955 1.2697 125.646 1.32759 126.102 1.64771C126.531 2.0056 126.869 2.45944 127.09 2.97246" fill="#263238"/>
<path d="M132.955 19.3597C132.614 17.2347 131.16 15.4468 129.519 14.0505C128.863 13.4236 128.063 12.9675 127.189 12.7223C126.307 12.535 125.272 12.7939 124.778 13.5499L124.819 15.0585C124.499 17.4424 126.236 19.5504 126.992 21.8287C127.332 22.8197 127.571 24.0015 128.504 24.468C129.012 24.6873 129.582 24.7127 130.108 24.5395C132.182 23.9606 133.295 21.5018 132.955 19.3597Z" fill="#DF0031"/>
<path d="M132.57 30.4381C133.268 29.5512 133.631 28.4473 133.598 27.3193C133.564 26.1913 133.135 25.111 132.386 24.2673C133.312 23.1979 133.067 21.4782 132.212 20.3509C131.357 19.2237 130.06 18.5426 128.807 17.8989C128.231 14.6398 124.693 12.2219 121.444 12.8724C119.867 10.3421 116.312 9.8074 113.42 10.5328C112.722 10.7634 111.993 10.8918 111.258 10.9142C110.727 10.8537 110.2 10.7592 109.681 10.6315C106.786 10.1241 103.82 12.0584 102.577 14.7182C102.406 15.1585 102.177 15.5742 101.896 15.9544C101.501 16.4243 100.915 16.69 100.415 17.0441C99.872 17.4349 99.4198 17.938 99.0889 18.5192C98.7581 19.1004 98.5563 19.746 98.4974 20.4122C98.4055 21.5395 98.7188 22.7518 98.2011 23.7599C97.9423 24.2639 97.4962 24.6623 97.2885 25.1902C96.6891 26.7227 98.3476 28.3778 97.9696 29.975C97.8912 30.3155 97.7312 30.6016 97.629 30.9217C97.4146 31.5807 97.4485 32.2953 97.7244 32.931C97.9355 33.4179 98.2863 33.8675 98.2965 34.3987C98.2553 34.7976 98.1614 35.1893 98.0172 35.5634C97.7823 36.517 99.72 40.3107 100.52 40.8658L125.353 42.0714C126.301 41.8969 127.17 41.4321 127.841 40.7413C128.513 40.0506 128.952 39.1682 129.1 38.2163C129.103 37.8962 129.196 37.5834 129.369 37.3139C129.565 37.1308 129.797 36.9895 130.05 36.8984C131.684 36.1049 131.964 33.9152 131.865 32.1C131.837 31.8473 131.852 31.5917 131.909 31.344C132.067 31.001 132.291 30.693 132.57 30.4381Z" fill="#263238"/>
<path d="M125.49 30.1962C125.738 25.8031 123.181 20.6403 118.897 18.3177C116.2 16.8533 114.051 16.7614 112.61 16.5332C110.585 16.2598 108.525 16.6078 106.702 17.531C105.322 17.7967 100.122 22.1932 99.6623 27.1687C99.1549 32.6959 98.753 39.4661 99.2877 43.614C100.367 51.961 106.705 53.2006 106.705 53.2006L106.289 58.1454L103.837 59.1671C103.708 59.1671 105.782 67.9704 105.782 67.9704L120.106 68.3109L124.747 58.9082L122.115 58.2578L125.49 30.1962Z" fill="#BF6259"/>
<path d="M111.745 42.7285C111.717 42.3032 111.536 41.9025 111.234 41.6013C110.958 41.3215 110.597 41.14 110.208 41.0847C109.819 41.0293 109.422 41.1031 109.079 41.2948C108.72 41.5262 108.43 41.8489 108.238 42.2295C108.046 42.6102 107.959 43.0352 107.985 43.4607C108.144 43.7269 108.358 43.9558 108.613 44.1321C108.868 44.3083 109.158 44.4278 109.463 44.4824C109.559 44.5005 109.656 44.5118 109.753 44.5164C110.242 44.5548 110.728 44.409 111.115 44.1078C111.318 43.9407 111.48 43.7296 111.589 43.4907C111.698 43.2518 111.751 42.9912 111.745 42.7285Z" fill="#DF0031"/>
<path d="M101.651 33.3906C101.641 33.6683 101.739 33.9391 101.926 34.1452C102.112 34.3513 102.372 34.4765 102.649 34.494C102.784 34.5081 102.921 34.4951 103.051 34.4558C103.181 34.4165 103.301 34.3516 103.406 34.2651C103.511 34.1785 103.597 34.072 103.66 33.9516C103.723 33.8313 103.761 33.6996 103.773 33.5643C103.784 33.287 103.686 33.0162 103.5 32.81C103.315 32.6038 103.055 32.4785 102.778 32.4609C102.643 32.4464 102.506 32.459 102.376 32.4981C102.245 32.5372 102.124 32.602 102.019 32.6886C101.914 32.7752 101.827 32.8819 101.764 33.0025C101.701 33.123 101.663 33.255 101.651 33.3906Z" fill="#263238"/>
<path d="M101.443 30.4107C101.569 30.5537 102.393 29.9782 103.541 30.0157C104.689 30.0531 105.51 30.6491 105.639 30.5129C105.704 30.4516 105.574 30.1961 105.217 29.9203C104.73 29.5625 104.145 29.3628 103.541 29.3482C102.945 29.3296 102.358 29.5013 101.866 29.8386C101.505 30.0974 101.382 30.346 101.443 30.4107Z" fill="#263238"/>
<path d="M107.89 39.6568C107.89 39.5921 107.188 39.449 106.037 39.2685C105.744 39.2277 105.468 39.163 105.424 38.962C105.408 38.659 105.485 38.3583 105.646 38.1004L106.575 35.8937C107.869 32.7572 108.816 30.1724 108.69 30.1043C108.564 30.0361 107.41 32.5562 106.115 35.6961L105.223 37.9131C105.029 38.2609 104.963 38.6658 105.036 39.0574C105.076 39.1617 105.139 39.2556 105.221 39.3323C105.302 39.4089 105.399 39.4662 105.506 39.5001C105.666 39.5487 105.832 39.5761 106 39.5819C107.171 39.6976 107.883 39.7215 107.89 39.6568Z" fill="#263238"/>
<path d="M106.705 53.2005C110.615 53.3746 114.496 52.4585 117.916 50.5544C117.916 50.5544 114.807 56.5073 106.514 55.4891L106.705 53.2005Z" fill="#DF0031"/>
<path d="M111.258 40.5491C111.071 40.5321 111.033 41.7751 109.944 42.6299C108.854 43.4847 107.529 43.311 107.515 43.4813C107.495 43.5562 107.805 43.7299 108.363 43.7605C109.092 43.7912 109.808 43.5646 110.386 43.1203C110.941 42.6931 111.308 42.0664 111.408 41.3733C111.456 40.8556 111.326 40.5423 111.258 40.5491Z" fill="#263238"/>
<path d="M102.029 26.1266C102.213 26.4127 103.098 26.2492 104.12 26.365C105.142 26.4808 105.986 26.7737 106.218 26.5285C106.323 26.4093 106.218 26.1334 105.877 25.8474C105.402 25.4813 104.831 25.2612 104.232 25.214C103.638 25.1462 103.037 25.2539 102.502 25.5239C102.101 25.7384 101.951 25.9904 102.029 26.1266Z" fill="#263238"/>
<path d="M114.415 34.1399C114.399 34.4172 114.276 34.6774 114.071 34.865C113.866 35.0526 113.596 35.1529 113.319 35.1445C113.048 35.1445 112.788 35.0368 112.596 34.8452C112.405 34.6536 112.297 34.3938 112.297 34.1228C112.313 33.8461 112.436 33.5864 112.64 33.3989C112.844 33.2113 113.113 33.1107 113.39 33.1182C113.525 33.1177 113.658 33.1438 113.782 33.195C113.906 33.2461 114.019 33.3213 114.115 33.4162C114.21 33.5111 114.285 33.6239 114.337 33.7481C114.389 33.8723 114.415 34.0054 114.415 34.1399Z" fill="#263238"/>
<path d="M117.116 31.3131C116.976 31.4425 116.21 30.7921 115.072 30.7206C113.935 30.6491 113.053 31.1633 112.937 31.0134C112.879 30.9487 113.032 30.7069 113.414 30.4652C113.933 30.1556 114.534 30.013 115.137 30.0565C115.732 30.0939 116.3 30.3206 116.758 30.7035C117.081 30.9964 117.184 31.2552 117.116 31.3131Z" fill="#263238"/>
<path d="M118.365 27.9622C118.123 28.2074 117.258 27.877 116.196 27.7953C115.133 27.7136 114.224 27.8396 114.037 27.5535C113.952 27.4139 114.112 27.1653 114.52 26.9439C115.078 26.6747 115.7 26.5673 116.315 26.634C116.932 26.6817 117.522 26.9037 118.018 27.2743C118.369 27.5637 118.474 27.8396 118.365 27.9622Z" fill="#263238"/>
<path d="M123.889 38.0255C123.906 37.4091 124.666 35.9822 125.279 35.8936C126.917 35.6859 129.856 35.8936 129.76 40.045C129.634 45.7118 123.971 44.4143 123.971 44.2542C123.971 44.0942 123.821 40.1642 123.889 38.0255Z" fill="#BF6259"/>
<path d="M125.561 42.2177C125.589 42.2007 125.66 42.2892 125.824 42.3709C126.057 42.4731 126.321 42.484 126.563 42.4016C127.165 42.1939 127.69 41.2573 127.741 40.2357C127.766 39.7499 127.683 39.2646 127.496 38.8156C127.447 38.6374 127.355 38.4738 127.229 38.3391C127.102 38.2043 126.945 38.1025 126.77 38.0425C126.658 38.0106 126.537 38.0186 126.43 38.0652C126.323 38.1117 126.235 38.1939 126.181 38.2979C126.103 38.4546 126.137 38.5704 126.106 38.5806C126.076 38.5908 125.987 38.4818 126.038 38.24C126.074 38.1033 126.156 37.9831 126.27 37.8995C126.348 37.8422 126.436 37.8009 126.53 37.7781C126.625 37.7553 126.722 37.7514 126.818 37.7667C127.052 37.8163 127.268 37.9255 127.447 38.0836C127.626 38.2417 127.761 38.4434 127.84 38.6691C128.07 39.165 128.175 39.71 128.146 40.2561C128.085 41.397 127.465 42.4493 126.651 42.6706C126.498 42.7101 126.338 42.7152 126.183 42.6858C126.027 42.6564 125.88 42.5931 125.752 42.5004C125.582 42.3539 125.561 42.2279 125.561 42.2177Z" fill="#DF0031"/>
<path d="M98.3682 27.2096C99.5329 26.5285 100.292 25.5749 100.262 24.2263C101.014 24.4749 101.811 23.518 102.274 22.8641C102.737 22.2103 103.296 21.9072 103.279 21.1137C103.261 20.9582 103.285 20.8009 103.347 20.6573C103.47 20.4428 103.742 20.3815 103.977 20.3168C104.587 20.1394 105.143 19.8116 105.593 19.3636C106.044 18.9155 106.374 18.3615 106.555 17.7524C107.759 18.3226 109.087 18.5825 110.417 18.5085C110.699 18.9453 111.087 19.3033 111.545 19.5489C112.003 19.7945 112.516 19.9196 113.035 19.9124C113.555 19.9053 114.064 19.7661 114.515 19.508C114.966 19.2499 115.344 18.8813 115.614 18.4369C115.796 18.7873 116.05 19.0945 116.361 19.3377C116.672 19.581 117.032 19.7546 117.415 19.8468C118.187 20.0269 118.981 20.0923 119.772 20.0409C119.603 20.8068 119.717 21.6079 120.092 22.2965C120.468 22.985 121.08 23.5144 121.815 23.787C122.013 23.8551 122.244 23.9232 122.333 24.1276C122.382 24.3433 122.344 24.5695 122.227 24.7576C122.11 25.0803 122.059 25.4234 122.077 25.7663C122.095 26.1092 122.182 26.445 122.333 26.7536C122.483 27.0622 122.694 27.3373 122.954 27.5625C123.213 27.7877 123.515 27.9584 123.842 28.0644C123.621 28.2493 123.445 28.4817 123.327 28.7441C123.209 29.0066 123.152 29.2924 123.161 29.58C123.169 29.8676 123.242 30.1497 123.375 30.405C123.507 30.6604 123.696 30.8824 123.927 31.0544C124.128 31.1872 124.393 31.3439 124.356 31.5823C124.331 31.6713 124.286 31.7531 124.223 31.8207C123.784 32.3656 123.344 32.9649 123.273 33.6631C123.201 34.3612 123.651 35.1615 124.352 35.2126C124.15 35.3535 123.978 35.5343 123.848 35.744C123.718 35.9537 123.633 36.1877 123.596 36.4318C123.573 36.9256 124.056 37.4534 124.519 37.2763C124.717 37.2082 127.554 36.7349 127.683 36.5714C129.352 34.4429 127.404 31.9773 127.325 29.2767C127.191 26.5653 126.431 23.9217 125.105 21.553C124.587 20.5426 123.937 19.6048 123.174 18.7639C122.252 17.8558 121.23 17.056 120.126 16.38C118.723 15.4469 117.276 14.5138 115.648 14.0779C112.614 13.2673 109.402 14.2822 106.514 15.515C105.399 15.947 104.346 16.5266 103.385 17.2382C102.296 18.1721 101.384 19.2931 100.691 20.5484C99.6282 22.3192 98.7292 24.2366 98.4703 26.2867" fill="#263238"/>
<path d="M97.3159 25.1935C97.3924 24.9783 97.5015 24.7761 97.6394 24.5941C97.7655 24.4102 97.9425 24.1957 98.1094 23.913C98.2969 23.5919 98.413 23.2341 98.45 22.8641C98.4955 22.3989 98.5012 21.9306 98.467 21.4644C98.4227 20.9019 98.4548 20.336 98.5623 19.7821C98.7829 18.7934 99.3168 17.9024 100.085 17.2416C100.372 17.0043 100.678 16.7913 101.001 16.6047C101.332 16.4149 101.63 16.1721 101.883 15.8862C102.118 15.5634 102.309 15.2107 102.451 14.8373C103.197 13.1835 104.509 11.8502 106.15 11.0776C106.591 10.8712 107.054 10.7125 107.529 10.6042C108.019 10.5028 108.521 10.4627 109.021 10.485C109.276 10.4971 109.531 10.5244 109.784 10.5667C110.036 10.6144 110.284 10.6757 110.533 10.7268C111.028 10.8492 111.543 10.8666 112.045 10.7779C112.556 10.6927 113.067 10.5259 113.588 10.4101C114.118 10.2885 114.658 10.2099 115.202 10.1751C115.755 10.1417 116.309 10.1542 116.86 10.2126C117.421 10.2721 117.974 10.3862 118.512 10.5531C119.626 10.9022 120.604 11.5904 121.308 12.5215C121.373 12.6203 121.441 12.7156 121.509 12.8076L121.417 12.7701C123.078 12.5076 124.776 12.8905 126.164 13.8404C127.551 14.7903 128.522 16.2351 128.878 17.8784L128.834 17.8205C129.508 18.148 130.16 18.5188 130.785 18.9307C131.398 19.3293 131.933 19.8372 132.362 20.4291C132.764 21.0148 133 21.6987 133.043 22.4078C133.094 23.0941 132.878 23.7737 132.441 24.3046V24.2127C133.177 25.0225 133.606 26.0649 133.653 27.1585C133.716 28.1381 133.479 29.1136 132.972 29.9544C132.854 30.1469 132.723 30.3312 132.58 30.5061C132.434 30.673 132.291 30.8296 132.172 30.9965C132.056 31.1602 131.981 31.3494 131.954 31.5482C131.938 31.7432 131.938 31.939 131.954 32.134C131.996 32.8527 131.954 33.574 131.828 34.2829C131.733 34.8569 131.525 35.4066 131.218 35.9005C130.99 36.2656 130.678 36.5714 130.309 36.7927C130.012 36.9766 129.75 37.0447 129.604 37.1333C129.526 37.1794 129.455 37.2355 129.393 37.3001C129.445 37.2247 129.514 37.1619 129.594 37.1163C129.737 37.0073 129.999 36.9324 130.275 36.7485C130.631 36.5223 130.931 36.2184 131.153 35.8596C131.446 35.3674 131.644 34.8244 131.736 34.259C131.851 33.5558 131.886 32.8418 131.841 32.1306C131.826 31.9288 131.826 31.7261 131.841 31.5244C131.87 31.3102 131.949 31.1059 132.073 30.9284C132.202 30.7525 132.339 30.5831 132.485 30.421C132.624 30.2526 132.751 30.0739 132.863 29.8863C133.35 29.0649 133.576 28.1147 133.51 27.1619C133.46 26.0989 133.039 25.0869 132.321 24.3012L132.277 24.2536L132.321 24.2059C132.732 23.7005 132.932 23.0566 132.88 22.4078C132.84 21.7275 132.614 21.0712 132.226 20.5109C131.806 19.9358 131.284 19.4419 130.687 19.0533C130.064 18.6483 129.417 18.2821 128.749 17.9567H128.715V17.9159C128.365 16.3188 127.418 14.9158 126.068 13.9941C124.717 13.0723 123.066 12.7015 121.451 12.9574H121.396L121.362 12.9097L121.168 12.6339C120.486 11.7314 119.54 11.0637 118.461 10.7234C117.934 10.5584 117.392 10.4443 116.843 10.3828C116.301 10.3262 115.756 10.3137 115.212 10.3454C114.678 10.379 114.147 10.4565 113.625 10.5769C113.104 10.6859 112.603 10.8528 112.072 10.9413C111.81 10.9878 111.544 11.0072 111.279 10.9992C111.016 10.9845 110.755 10.9469 110.499 10.8868C110.247 10.8358 110.002 10.7745 109.753 10.7268C109.508 10.6859 109.262 10.6586 109.014 10.6451C108.526 10.6235 108.038 10.6624 107.56 10.7608C107.09 10.8619 106.633 11.015 106.198 11.2172C104.586 11.9723 103.298 13.2794 102.567 14.902C102.417 15.2846 102.218 15.6463 101.975 15.9781C101.711 16.2721 101.402 16.5216 101.059 16.7171C100.739 16.8982 100.436 17.1067 100.153 17.3403C99.8874 17.5632 99.6495 17.817 99.4444 18.0964C99.0663 18.6037 98.7962 19.1833 98.6509 19.7991C98.5406 20.3446 98.5039 20.9024 98.5419 21.4576C98.5726 21.9288 98.5612 22.4018 98.5079 22.8709C98.4618 23.2487 98.3352 23.6122 98.1367 23.9368C97.9596 24.2161 97.7961 24.4238 97.6497 24.618C97.5487 24.7531 97.4576 24.8954 97.3772 25.0436C97.3398 25.1492 97.3193 25.1969 97.3159 25.1935Z" fill="#455A64"/>
<path d="M118.818 11.5441C118.818 11.5441 118.672 11.4521 118.4 11.3091C118.018 11.1068 117.604 10.972 117.177 10.9106C116.546 10.813 115.901 10.8859 115.307 11.1218C114.584 11.4191 113.974 11.9377 113.564 12.6032C113.44 12.801 113.339 13.0124 113.264 13.2332C113.224 13.3286 113.205 13.4317 113.208 13.5351C113.212 13.6386 113.238 13.7401 113.284 13.8326L113.417 14.0301L113.193 13.9586C112.608 13.7782 111.976 13.8332 111.432 14.1118C110.999 14.3359 110.65 14.6943 110.437 15.1335C110.296 15.4236 110.212 15.738 110.189 16.0598C110.172 16.288 110.189 16.4004 110.189 16.4004C110.189 16.4004 110.189 16.3697 110.165 16.3118C110.151 16.224 110.144 16.1351 110.145 16.0462C110.145 15.6218 110.261 15.2055 110.478 14.8411C110.696 14.4767 111.008 14.1777 111.381 13.9756C111.956 13.6691 112.63 13.6029 113.254 13.7917L113.162 13.9177C113.099 13.8053 113.062 13.6803 113.054 13.5519C113.046 13.4235 113.066 13.2948 113.114 13.1753C113.194 12.937 113.3 12.7085 113.431 12.4942C113.86 11.797 114.502 11.2571 115.263 10.9549C115.883 10.7135 116.557 10.6498 117.211 10.771C117.649 10.8441 118.068 11.0002 118.447 11.2308C118.55 11.291 118.648 11.3593 118.74 11.4351C118.791 11.5066 118.822 11.527 118.818 11.5441Z" fill="#455A64"/>
<path d="M127.802 18.3382C127.802 18.3382 127.741 18.4199 127.598 18.5357C127.394 18.6984 127.175 18.841 126.944 18.9614C126.59 19.1436 126.201 19.247 125.803 19.2645C125.296 19.2861 124.8 19.1186 124.41 18.7946L124.536 18.7775L124.362 19.0057C124.301 19.0806 124.23 19.1487 124.162 19.2237C123.792 19.5759 123.351 19.8441 122.869 20.0098C122.386 20.1756 121.873 20.235 121.366 20.184C121.059 20.1519 120.76 20.0738 120.477 19.9524C120.372 19.9127 120.274 19.8564 120.187 19.7856C120.57 19.9277 120.97 20.0215 121.376 20.0648C121.814 20.0931 122.254 20.04 122.673 19.9082C123.184 19.7499 123.651 19.4734 124.036 19.1011L124.226 18.8967C124.281 18.8218 124.335 18.7503 124.39 18.6822L124.448 18.6072L124.516 18.6685C124.873 18.9668 125.327 19.1242 125.793 19.1113C126.172 19.1045 126.545 19.0186 126.889 18.8593C127.482 18.58 127.785 18.311 127.802 18.3382Z" fill="#455A64"/>
<path d="M130.629 23.6815C130.629 23.6815 130.629 23.7189 130.612 23.7871C130.582 23.8831 130.537 23.9739 130.479 24.0561C130.25 24.3582 129.918 24.5646 129.546 24.635C128.998 24.7147 128.439 24.6355 127.935 24.4069C127.633 24.2954 127.338 24.1681 127.049 24.0254C126.718 23.8774 126.449 23.6168 126.29 23.2898L126.259 23.1979L126.392 23.2422C125.876 23.6443 125.302 23.9658 124.689 24.1957C124.178 24.3839 123.625 24.4241 123.092 24.3115C122.735 24.2392 122.403 24.0748 122.128 23.8347C122.054 23.7708 121.987 23.6976 121.931 23.6168C121.89 23.5623 121.873 23.535 121.876 23.5316C121.88 23.5282 121.975 23.6304 122.169 23.7837C122.447 23.9942 122.772 24.1344 123.116 24.1923C123.627 24.2824 124.153 24.233 124.638 24.0493C125.235 23.8152 125.795 23.4963 126.3 23.1025L126.392 23.0378L126.433 23.1502L126.46 23.2251C126.604 23.5163 126.845 23.7477 127.141 23.879C127.421 24.0205 127.707 24.1478 128 24.2604C128.477 24.486 129.007 24.5744 129.532 24.5158C129.883 24.4614 130.203 24.2839 130.435 24.0152C130.509 23.9101 130.574 23.7984 130.629 23.6815Z" fill="#455A64"/>
<path d="M137.334 3.65008C137.334 3.65008 137.235 3.65008 137.062 3.68754C136.814 3.75117 136.59 3.88616 136.418 4.07577C136.149 4.37008 135.987 4.74698 135.958 5.14511C135.932 5.66809 135.987 6.19199 136.122 6.69803L136.139 6.78998H136.044C135.344 6.74855 134.65 6.93756 134.068 7.32805C133.74 7.54107 133.465 7.82831 133.268 8.16664C133.07 8.50497 132.955 8.88496 132.931 9.27602C132.903 9.63242 132.958 9.99036 133.091 10.3222C133.224 10.6541 133.431 10.9509 133.697 11.1899L133.881 11.3432H133.639C133.236 11.3315 132.834 11.4035 132.459 11.5547C132.085 11.7059 131.746 11.9331 131.463 12.2218C131.015 12.683 130.74 13.2843 130.683 13.9246C130.646 14.3495 130.699 14.7776 130.836 15.1812C130.935 15.4639 131.02 15.6035 131.007 15.6103C130.993 15.6171 130.98 15.5797 130.939 15.5115C130.877 15.4135 130.824 15.3097 130.782 15.2016C130.619 14.7931 130.55 14.3531 130.581 13.9143C130.62 13.2397 130.897 12.6005 131.361 12.1094C131.655 11.8021 132.011 11.5596 132.404 11.3971C132.798 11.2347 133.221 11.156 133.646 11.1661L133.592 11.3125C133.305 11.0592 133.08 10.7429 132.936 10.3884C132.792 10.0339 132.732 9.65082 132.761 9.26921C132.782 8.84122 132.911 8.42554 133.135 8.06024C133.351 7.71564 133.638 7.42081 133.976 7.19524C134.59 6.78945 135.32 6.59788 136.054 6.65035L135.979 6.73549C135.851 6.21453 135.805 5.67682 135.843 5.1417C135.881 4.72178 136.064 4.32821 136.36 4.02809C136.543 3.83691 136.781 3.70723 137.041 3.65689C137.11 3.64924 137.18 3.64924 137.249 3.65689C137.277 3.64959 137.306 3.64728 137.334 3.65008Z" fill="#455A64"/>
<path d="M147.054 16.2403C147.054 16.2403 147.027 16.2607 146.962 16.2914C146.869 16.3363 146.773 16.3761 146.676 16.4106C146.305 16.5421 145.917 16.6179 145.525 16.6353C144.922 16.666 144.32 16.5745 143.754 16.3663C143.022 16.1065 142.375 15.6534 141.881 15.0552H142.01C141.727 15.5093 141.346 15.8947 140.896 16.1834C140.445 16.472 139.936 16.6567 139.405 16.7239C138.835 16.7848 138.26 16.6642 137.762 16.3793C137.264 16.0943 136.869 15.6595 136.633 15.1369H136.779C136.629 15.5077 136.384 15.8321 136.068 16.0768C135.786 16.2981 135.466 16.4666 135.124 16.574C134.563 16.7393 133.973 16.7823 133.394 16.7C133.021 16.6558 132.651 16.5841 132.287 16.4855C132.156 16.4591 132.027 16.4203 131.903 16.3697C132.036 16.3813 132.168 16.4041 132.298 16.4378C132.663 16.5135 133.033 16.5692 133.404 16.6047C133.968 16.6667 134.538 16.6134 135.08 16.448C135.422 16.3472 135.738 16.1731 136.006 15.9379C136.275 15.7027 136.488 15.4119 136.633 15.0858L136.704 14.8951L136.779 15.0824C137.007 15.57 137.381 15.9744 137.849 16.2393C138.317 16.5043 138.856 16.6165 139.391 16.5604C139.896 16.4949 140.381 16.319 140.811 16.0454C141.24 15.7717 141.604 15.4069 141.877 14.9768L141.935 14.8849L142.007 14.97C142.479 15.5495 143.098 15.9926 143.798 16.2539C144.348 16.4648 144.933 16.5654 145.521 16.5502C146.045 16.5237 146.561 16.4192 147.054 16.2403Z" fill="#455A64"/>
<path d="M140.855 24.3387C140.855 24.3387 140.855 24.383 140.787 24.4409C140.689 24.518 140.571 24.5643 140.447 24.5737C140.018 24.5953 139.591 24.5099 139.204 24.3251C138.617 24.0657 138.126 23.6285 137.801 23.0753C137.406 22.3901 137.285 21.5815 137.46 20.8106L137.579 20.9059C136.864 21.2285 136.065 21.3144 135.298 21.1511C134.676 21.0204 134.093 20.7477 133.595 20.3543C133.262 20.0935 132.967 19.7888 132.716 19.4484C132.62 19.3272 132.538 19.1945 132.474 19.0533C132.821 19.5017 133.221 19.9055 133.666 20.2555C134.155 20.6234 134.721 20.8761 135.321 20.9945C136.055 21.1439 136.818 21.0594 137.501 20.7527L137.654 20.6812L137.62 20.8515C137.468 21.5147 137.546 22.2102 137.843 22.8227C138.139 23.4352 138.636 23.928 139.251 24.2195C139.62 24.4049 140.027 24.5039 140.44 24.509C140.517 24.5107 140.594 24.4965 140.665 24.4672C140.737 24.4379 140.802 24.3941 140.855 24.3387Z" fill="#455A64"/>
<path d="M124.945 3.46606C124.738 4.0204 124.633 4.60769 124.635 5.19948C124.663 6.1351 125.027 7.02923 125.662 7.71746C126.296 8.4057 127.158 8.84179 128.088 8.94556H128.194L128.16 9.04092C127.96 9.62791 127.87 10.2467 127.894 10.8663C127.917 11.3597 128.011 11.8472 128.173 12.3136C128.232 12.489 128.304 12.6597 128.388 12.8245C128.415 12.8843 128.456 12.9371 128.507 12.9789C128.557 13.0208 128.617 13.0507 128.681 13.0663C128.722 13.0732 128.764 13.0709 128.804 13.0598C128.844 13.0486 128.881 13.0287 128.912 13.0016C128.953 12.9641 128.96 12.93 128.967 12.9334C128.974 12.9368 128.967 12.9709 128.933 13.022C128.9 13.0578 128.86 13.0855 128.815 13.1027C128.77 13.1198 128.722 13.126 128.674 13.1207C128.598 13.1106 128.526 13.0824 128.464 13.0385C128.402 12.9947 128.351 12.9364 128.316 12.8687C128.22 12.7023 128.138 12.528 128.071 12.3477C127.657 11.2707 127.633 10.0827 128.003 8.98984L128.071 9.09881C127.095 9.00848 126.188 8.55539 125.53 7.82903C124.872 7.10268 124.51 6.15588 124.516 5.17564C124.514 4.73359 124.589 4.29458 124.737 3.87813C124.777 3.76166 124.825 3.64791 124.88 3.53758C124.899 3.51154 124.921 3.48757 124.945 3.46606Z" fill="#455A64"/>
<path d="M127.22 44.0907C127.22 44.0907 127.319 44.1486 127.431 44.3223C127.618 44.6402 127.678 45.0175 127.597 45.3775C127.516 45.7375 127.301 46.0531 126.995 46.2601C126.767 46.407 126.506 46.4946 126.235 46.5148C125.964 46.535 125.693 46.4873 125.446 46.3759C125.204 46.2545 124.995 46.0783 124.834 45.8612C124.673 45.6441 124.565 45.3923 124.519 45.126C124.448 44.6912 124.548 44.2456 124.799 43.883C124.963 43.643 125.183 43.4458 125.439 43.3075C125.528 43.253 125.628 43.2171 125.732 43.2019C125.732 43.2189 125.636 43.2598 125.473 43.3688C125.243 43.5192 125.049 43.7179 124.904 43.9511C124.785 44.1374 124.706 44.3465 124.673 44.5651C124.639 44.7837 124.652 45.0068 124.71 45.2201C124.768 45.4334 124.87 45.6323 125.01 45.8037C125.149 45.9752 125.323 46.1156 125.52 46.2158C125.742 46.3147 125.984 46.3578 126.225 46.3411C126.467 46.3245 126.701 46.2487 126.907 46.1204C127.074 46.0147 127.215 45.8719 127.319 45.7031C127.423 45.5342 127.487 45.3438 127.506 45.1465C127.535 44.8756 127.488 44.6019 127.37 44.3564C127.281 44.1827 127.206 44.101 127.22 44.0907Z" fill="#263238"/>
<path d="M90.1643 64.1563L103.786 58.7687C103.786 58.7687 108.595 66.203 114.299 66.203C120.841 66.203 123.218 58.1455 123.218 58.1455L137.239 63.6318L130.966 96.3249C130.966 96.3249 139.524 115.055 139.524 119.517V126.239H90.4844L94.881 107.223C94.881 107.223 91.7717 84.5486 91.564 83.1149C91.7547 75.6942 90.1643 64.1563 90.1643 64.1563Z" fill="#DF0031"/>
<path d="M137.239 63.6317C138.407 64.5103 142.17 65.1233 143.873 69.84C145.545 74.4715 144.319 94.4041 144.959 99.4375C145.599 104.471 147.282 126.239 147.282 126.239H133.455L124.26 99.8427L137.239 63.6317Z" fill="#DF0031"/>
<path d="M90.1642 64.1561C90.1642 64.1561 87.2218 64.9939 85.0014 72.1455C83.8299 75.9154 80.0498 85.1989 80.0498 85.1989L77.4786 78.4321L64.5376 86.6394C64.5376 86.6394 70.8072 101.11 71.587 102.645C72.8369 105.131 76.0994 109.821 80.3665 109.732C84.6336 109.644 87.5828 106.691 89.0336 103.943C90.4843 101.195 94.3326 94.387 94.3326 94.387L90.1642 64.1561Z" fill="#DF0031"/>
<path d="M91.0325 74.87C91.041 74.8966 91.0468 74.924 91.0496 74.9517C91.0496 75.0198 91.0734 75.0982 91.087 75.1969C91.1177 75.4285 91.1619 75.7418 91.2164 76.1403C91.3186 76.9712 91.4684 78.1529 91.6523 79.6037C91.9929 82.5461 92.4901 86.585 93.0145 91.0463C93.539 95.5075 94.0124 99.5601 94.3768 102.492C94.5402 103.946 94.673 105.128 94.7684 105.962C94.8093 106.361 94.8399 106.678 94.8637 106.906C94.8637 107.008 94.8808 107.086 94.8876 107.154C94.8921 107.181 94.8921 107.209 94.8876 107.236C94.8876 107.236 94.8876 107.209 94.8672 107.154C94.8467 107.1 94.8467 107.011 94.8297 106.913C94.7991 106.681 94.7548 106.368 94.7003 105.969C94.5913 105.138 94.4381 103.957 94.2508 102.506C93.8796 99.5805 93.3755 95.5382 92.8545 91.0667C92.3334 86.5952 91.8737 82.5529 91.5331 79.6207C91.3731 78.1631 91.2437 76.9814 91.1551 76.1471C91.1143 75.7486 91.0836 75.4319 91.0598 75.2003C91.0598 75.1004 91.053 75.0187 91.0393 74.9551C91.0327 74.9273 91.0304 74.8986 91.0325 74.87Z" fill="#263238"/>
<path d="M139.524 126.239C139.506 126.203 139.493 126.166 139.483 126.127C139.456 126.045 139.425 125.936 139.381 125.786C139.292 125.487 139.163 125.061 139.003 124.513C138.662 123.392 138.209 121.788 137.641 119.789C136.493 115.771 134.899 110.202 133.115 103.95V103.933V103.912C133.224 103.191 133.343 102.421 133.455 101.644C134.525 94.6937 135.499 88.4037 136.197 83.8403C136.554 81.5688 136.844 79.7298 137.048 78.4459C137.15 77.8159 137.229 77.3255 137.287 76.9815C137.314 76.8215 137.338 76.6955 137.355 76.6001C137.359 76.5561 137.368 76.5127 137.382 76.4707C137.386 76.5149 137.386 76.5594 137.382 76.6035C137.382 76.6989 137.355 76.8249 137.331 76.9849C137.283 77.3255 137.215 77.8261 137.126 78.4561C136.936 79.74 136.663 81.5858 136.33 83.8573C135.648 88.4241 134.692 94.7175 133.643 101.672C133.523 102.448 133.408 103.218 133.302 103.94V103.902L137.774 119.755C138.329 121.757 138.778 123.372 139.088 124.496C139.238 125.044 139.354 125.476 139.429 125.779C139.466 125.919 139.493 126.028 139.517 126.12C139.523 126.159 139.525 126.199 139.524 126.239Z" fill="#263238"/>
<path d="M123.906 99.3591C123.853 99.3922 123.796 99.4175 123.736 99.4341L123.245 99.6111C122.816 99.761 122.19 99.9687 121.417 100.217C119.867 100.715 117.715 101.355 115.317 101.988C112.92 102.622 110.727 103.122 109.133 103.453C108.336 103.619 107.692 103.749 107.243 103.827L106.729 103.916C106.669 103.932 106.607 103.939 106.545 103.936C106.601 103.911 106.661 103.893 106.722 103.882L107.229 103.759L109.106 103.333C110.689 102.969 112.872 102.448 115.27 101.818C117.667 101.188 119.823 100.561 121.379 100.098L123.222 99.5464L123.726 99.4C123.784 99.3811 123.845 99.3674 123.906 99.3591Z" fill="#263238"/>
<path d="M127.176 97.6427C127.096 97.6508 127.016 97.6508 126.937 97.6427H126.256C125.663 97.6427 124.805 97.6223 123.746 97.5848C121.631 97.5065 118.709 97.3226 115.498 96.9616C112.287 96.6006 109.395 96.1273 107.325 95.7288C106.283 95.5313 105.445 95.3576 104.866 95.2282L104.202 95.0749C104.124 95.0606 104.047 95.0389 103.974 95.0103C104.053 95.0113 104.132 95.0216 104.209 95.0409L104.89 95.1601L107.355 95.6062C109.44 95.9706 112.331 96.4201 115.529 96.7845C118.726 97.1489 121.659 97.3499 123.763 97.4656L126.266 97.5814L126.947 97.6121C127.024 97.6149 127.101 97.6252 127.176 97.6427Z" fill="#263238"/>
<path d="M85.0016 98.1946C84.9648 98.1322 84.9351 98.066 84.9131 97.997L84.6985 97.4181L83.9118 95.3033C83.2307 93.512 82.3078 91.0395 81.2555 88.3185C80.2032 85.5975 79.2463 83.1353 78.5651 81.3406C78.2246 80.462 77.959 79.7434 77.758 79.2223C77.6729 78.984 77.6014 78.7932 77.5469 78.6434C77.5188 78.5766 77.4983 78.507 77.4856 78.4357C77.5238 78.497 77.5558 78.562 77.5809 78.6298C77.6457 78.7762 77.724 78.9703 77.8227 79.1951L78.6809 81.2929C79.3995 83.0672 80.3837 85.526 81.4292 88.2504C82.4747 90.9748 83.401 93.4541 84.0378 95.259C84.3546 96.1615 84.6032 96.8937 84.77 97.4045L84.9539 97.9902C84.9774 98.0564 84.9934 98.1249 85.0016 98.1946Z" fill="#263238"/>
<path d="M86.3977 96.4032C86.3241 96.2777 86.2625 96.1454 86.2138 96.0082C86.1083 95.7494 85.9516 95.3748 85.7507 94.915C85.2308 93.719 84.6476 92.5516 84.0037 91.4175C83.3546 90.2871 82.6452 89.1923 81.8786 88.138C81.5857 87.7328 81.3405 87.4058 81.1702 87.1845C81.0759 87.0732 80.9937 86.9522 80.925 86.8235C81.0347 86.9194 81.1351 87.0254 81.2247 87.1402C81.412 87.3513 81.6709 87.6647 81.9774 88.0597C82.7776 89.0984 83.5059 90.1908 84.1569 91.329C84.8067 92.4671 85.3757 93.6495 85.8597 94.8674C86.047 95.3339 86.2002 95.7153 86.2717 95.9844C86.3303 96.1185 86.3726 96.2591 86.3977 96.4032Z" fill="#263238"/>
<g opacity="0.3">
<path d="M98.8652 94.5881L99.0287 95.0513C99.5702 95.7324 100.333 95.8618 101.167 96.1002C108.755 98.2763 118.856 98.9404 126.644 97.6327C116.516 97.4386 107.171 95.7222 98.8652 94.5881Z" fill="black"/>
</g>
<g opacity="0.3">
<path d="M91.5061 78.9329L93.5699 96.4441C91.4005 91.1519 90.3516 84.9164 91.5265 79.3177" fill="black"/>
</g>
<path opacity="0.3" d="M137.089 78.4287C137.089 78.4287 137.569 93.2666 136.367 99.3591L134.538 108.663L133.203 103.936L137.089 78.4287Z" fill="black"/>
<path d="M125.292 59.2454C125.296 59.2703 125.296 59.2955 125.292 59.3203L125.221 59.5451C125.19 59.6473 125.153 59.7664 125.109 59.9061C125.062 60.0711 125.004 60.2327 124.935 60.3897C124.532 61.4115 123.982 62.3694 123.304 63.2333C123.106 63.5193 122.847 63.7782 122.602 64.0676C122.357 64.3571 122.054 64.6193 121.761 64.902C121.108 65.4799 120.401 65.9932 119.649 66.4345C117.929 67.4745 115.966 68.046 113.956 68.092C111.946 68.138 109.96 67.6569 108.193 66.6967C107.422 66.29 106.692 65.8087 106.014 65.2596C105.707 64.9905 105.404 64.7351 105.139 64.4661C104.873 64.197 104.611 63.9416 104.396 63.6658C103.682 62.8318 103.091 61.8993 102.642 60.8971C102.566 60.7425 102.5 60.5832 102.445 60.4203L102.319 60.0798L102.244 59.8584C102.233 59.8349 102.226 59.8095 102.223 59.7835C102.223 59.7835 102.223 59.8039 102.261 59.8516L102.353 60.0661C102.391 60.1638 102.439 60.2773 102.496 60.4067C102.554 60.5671 102.623 60.723 102.704 60.8732C103.173 61.8583 103.775 62.7748 104.491 63.5977C104.706 63.8701 104.975 64.1119 105.234 64.3843C105.493 64.6568 105.803 64.8952 106.109 65.1608C106.782 65.6982 107.505 66.1692 108.268 66.5673C110.013 67.5072 111.972 67.9778 113.953 67.9331C115.935 67.8883 117.871 67.3297 119.571 66.3119C120.316 65.8803 121.018 65.3774 121.666 64.81C121.958 64.5342 122.251 64.272 122.503 63.9961C122.752 63.7358 122.987 63.463 123.208 63.1788C123.89 62.3281 124.45 61.3872 124.874 60.3828C124.948 60.2285 125.012 60.0692 125.064 59.9061C125.112 59.7698 125.156 59.6541 125.19 59.5655L125.272 59.351C125.279 59.2692 125.289 59.242 125.292 59.2454Z" fill="#263238"/>
</svg>
