<svg width="76" height="12" viewBox="0 0 76 12" fill="none" xmlns="http://www.w3.org/2000/svg">
<path d="M5.71468 0.878115C5.80449 0.601722 6.19551 0.601722 6.28532 0.878115L7.27973 3.9386C7.31989 4.06221 7.43508 4.1459 7.56505 4.1459H10.783C11.0737 4.1459 11.1945 4.51778 10.9594 4.6886L8.35596 6.58009C8.25082 6.65648 8.20682 6.79189 8.24698 6.9155L9.24139 9.97599C9.3312 10.2524 9.01486 10.4822 8.77974 10.3114L6.17634 8.41991C6.07119 8.34352 5.92881 8.34352 5.82366 8.41991L3.22026 10.3114C2.98514 10.4822 2.6688 10.2524 2.75861 9.97599L3.75302 6.9155C3.79318 6.79189 3.74918 6.65648 3.64404 6.58009L1.04063 4.6886C0.805517 4.51778 0.926349 4.1459 1.21697 4.1459H4.43495C4.56492 4.1459 4.68011 4.06221 4.72027 3.9386L5.71468 0.878115Z" fill="#DF0031"/>
<path d="M21.7147 0.878115C21.8045 0.601722 22.1955 0.601722 22.2853 0.878115L23.2797 3.9386C23.3199 4.06221 23.4351 4.1459 23.565 4.1459H26.783C27.0737 4.1459 27.1945 4.51778 26.9594 4.6886L24.356 6.58009C24.2508 6.65648 24.2068 6.79189 24.247 6.9155L25.2414 9.97599C25.3312 10.2524 25.0149 10.4822 24.7797 10.3114L22.1763 8.41991C22.0712 8.34352 21.9288 8.34352 21.8237 8.41991L19.2203 10.3114C18.9851 10.4822 18.6688 10.2524 18.7586 9.97599L19.753 6.9155C19.7932 6.79189 19.7492 6.65648 19.644 6.58009L17.0406 4.6886C16.8055 4.51778 16.9263 4.1459 17.217 4.1459H20.435C20.5649 4.1459 20.6801 4.06221 20.7203 3.9386L21.7147 0.878115Z" fill="#DF0031"/>
<path d="M37.7147 0.878115C37.8045 0.601722 38.1955 0.601722 38.2853 0.878115L39.2797 3.9386C39.3199 4.06221 39.4351 4.1459 39.565 4.1459H42.783C43.0737 4.1459 43.1945 4.51778 42.9594 4.6886L40.356 6.58009C40.2508 6.65648 40.2068 6.79189 40.247 6.9155L41.2414 9.97599C41.3312 10.2524 41.0149 10.4822 40.7797 10.3114L38.1763 8.41991C38.0712 8.34352 37.9288 8.34352 37.8237 8.41991L35.2203 10.3114C34.9851 10.4822 34.6688 10.2524 34.7586 9.97599L35.753 6.9155C35.7932 6.79189 35.7492 6.65648 35.644 6.58009L33.0406 4.6886C32.8055 4.51778 32.9263 4.1459 33.217 4.1459H36.435C36.5649 4.1459 36.6801 4.06221 36.7203 3.9386L37.7147 0.878115Z" fill="#DF0031"/>
<path d="M53.7147 0.878115C53.8045 0.601722 54.1955 0.601722 54.2853 0.878115L55.2797 3.9386C55.3199 4.06221 55.4351 4.1459 55.565 4.1459H58.783C59.0737 4.1459 59.1945 4.51778 58.9594 4.6886L56.356 6.58009C56.2508 6.65648 56.2068 6.79189 56.247 6.9155L57.2414 9.97599C57.3312 10.2524 57.0149 10.4822 56.7797 10.3114L54.1763 8.41991C54.0712 8.34352 53.9288 8.34352 53.8237 8.41991L51.2203 10.3114C50.9851 10.4822 50.6688 10.2524 50.7586 9.97599L51.753 6.9155C51.7932 6.79189 51.7492 6.65648 51.644 6.58009L49.0406 4.6886C48.8055 4.51778 48.9263 4.1459 49.217 4.1459H52.435C52.5649 4.1459 52.6801 4.06221 52.7203 3.9386L53.7147 0.878115Z" fill="#DF0031"/>
<path d="M69.7147 0.878115C69.8045 0.601722 70.1955 0.601722 70.2853 0.878115L71.2797 3.9386C71.3199 4.06221 71.4351 4.1459 71.565 4.1459H74.783C75.0737 4.1459 75.1945 4.51778 74.9594 4.6886L72.356 6.58009C72.2508 6.65648 72.2068 6.79189 72.247 6.9155L73.2414 9.97599C73.3312 10.2524 73.0149 10.4822 72.7797 10.3114L70.1763 8.41991C70.0712 8.34352 69.9288 8.34352 69.8237 8.41991L67.2203 10.3114C66.9851 10.4822 66.6688 10.2524 66.7586 9.97599L67.753 6.9155C67.7932 6.79189 67.7492 6.65648 67.644 6.58009L65.0406 4.6886C64.8055 4.51778 64.9263 4.1459 65.217 4.1459H68.435C68.5649 4.1459 68.6801 4.06221 68.7203 3.9386L69.7147 0.878115Z" fill="#DF0031"/>
</svg>
