<svg width="49" height="60" viewBox="0 0 49 60" fill="none" xmlns="http://www.w3.org/2000/svg">
<path d="M45.2359 0H4.93984C2.67257 0 0.828003 1.85542 0.828003 4.13603V18.1985C0.828003 18.96 1.44176 19.5772 2.19862 19.5772C2.95547 19.5772 3.56923 18.96 3.56923 18.1985V4.13603C3.56923 3.37583 4.18409 2.75735 4.93984 2.75735H45.2359C45.9917 2.75735 46.6065 3.37583 46.6065 4.13603V55.4228C46.6065 56.183 45.9917 56.8015 45.2359 56.8015H4.93984C4.18409 56.8015 3.56923 56.183 3.56923 55.4228V29.8253C3.56923 29.0639 2.95547 28.4466 2.19862 28.4466C1.44176 28.4466 0.828003 29.0639 0.828003 29.8253V55.4228C0.828003 57.7034 2.67257 59.5588 4.93984 59.5588H45.2359C47.5032 59.5588 49.3477 57.7034 49.3477 55.4228V4.13603C49.3477 1.85542 47.5032 0 45.2359 0Z" fill="#DF0031"/>
<path d="M3.41635 22.1223C3.19013 21.8892 2.87617 21.7565 2.55613 21.7565C2.23608 21.7565 1.92212 21.8892 1.69578 22.1223C1.46875 22.358 1.34071 22.676 1.33923 23.0079C1.3403 23.3403 1.46838 23.6589 1.69578 23.8949C1.92212 24.1279 2.23608 24.2619 2.55613 24.2619C2.87605 24.2619 3.19 24.1279 3.41635 23.8949C3.64404 23.6591 3.7722 23.3404 3.77302 23.0079C3.77302 22.6785 3.64269 22.3565 3.41635 22.1223ZM8.29122 57.8612C8.06264 57.6269 7.75344 57.495 7.43087 57.4941C7.11083 57.4941 6.79687 57.6282 6.57065 57.8612C6.34319 58.0966 6.21504 58.4148 6.21398 58.7469C6.21398 59.0776 6.34431 59.3995 6.57065 59.6325C6.799 59.8671 7.10828 59.9991 7.43087 59.9996C7.75225 59.9996 8.06487 59.8668 8.29122 59.6325C8.51884 59.3973 8.64698 59.0789 8.64777 58.7469C8.64777 58.4174 8.51756 58.0942 8.29122 57.8612Z" fill="#DF0031"/>
<path d="M23.0319 10.2021H9.87403C9.11718 10.2021 8.50342 10.8194 8.50342 11.5808V24.8161C8.50342 25.5776 9.11718 26.1948 9.87403 26.1948H23.0319C23.7888 26.1948 24.4025 25.5776 24.4025 24.8161V11.5808C24.4025 10.8194 23.7888 10.2021 23.0319 10.2021ZM21.6613 23.4374H11.2446V12.9595H21.6613V23.4374ZM18.6218 32.4543C18.0865 31.916 17.2189 31.9159 16.6834 32.4543L13.0399 36.1192L11.3458 34.415C10.8106 33.8766 9.94297 33.8768 9.40734 34.415C8.87211 34.9534 8.87211 35.8264 9.40734 36.3647L12.0707 39.0438C12.3278 39.3023 12.6764 39.4475 13.0399 39.4475C13.4035 39.4475 13.7521 39.3023 14.0092 39.0438L18.6218 34.404C19.1571 33.8656 19.1571 32.9926 18.6218 32.4543Z" fill="#DF0031"/>
<path d="M41.0784 34.329H25.0879C24.3311 34.329 23.7173 34.9462 23.7173 35.7077C23.7173 36.4691 24.3311 37.0863 25.0879 37.0863H41.0784C41.8353 37.0863 42.4491 36.4691 42.4491 35.7077C42.4491 34.9462 41.8353 34.329 41.0784 34.329ZM40.3017 10.2021H30.7074C29.9506 10.2021 29.3368 10.8194 29.3368 11.5808C29.3368 12.3423 29.9506 12.9595 30.7074 12.9595H40.3017C41.0586 12.9595 41.6723 12.3423 41.6723 11.5808C41.6723 10.8194 41.0586 10.2021 40.3017 10.2021ZM40.3017 16.8198H30.7074C29.9506 16.8198 29.3368 17.437 29.3368 18.1985C29.3368 18.9599 29.9506 19.5771 30.7074 19.5771H40.3017C41.0586 19.5771 41.6723 18.9599 41.6723 18.1985C41.6723 17.437 41.0586 16.8198 40.3017 16.8198ZM40.3017 23.4374H30.7074C29.9506 23.4374 29.3368 24.0547 29.3368 24.8161C29.3368 25.5776 29.9506 26.1948 30.7074 26.1948H40.3017C41.0586 26.1948 41.6723 25.5776 41.6723 24.8161C41.6723 24.0547 41.0586 23.4374 40.3017 23.4374ZM18.6219 42.9828C18.0865 42.4446 17.2189 42.4444 16.6834 42.9828L13.0399 46.6477L11.3459 44.9436C10.8106 44.4052 9.94304 44.4053 9.4074 44.9436C8.87218 45.4819 8.87218 46.3549 9.4074 46.8933L12.0708 49.5723C12.3279 49.8308 12.6765 49.976 13.04 49.976C13.4035 49.976 13.7521 49.8308 14.0092 49.5723L18.6219 44.9325C19.1571 44.3942 19.1571 43.5212 18.6219 42.9828ZM41.0784 44.8069H25.0879C24.3311 44.8069 23.7173 45.4242 23.7173 46.1856C23.7173 46.947 24.3311 47.5643 25.0879 47.5643H41.0784C41.8353 47.5643 42.4491 46.947 42.4491 46.1856C42.4491 45.4242 41.8353 44.8069 41.0784 44.8069Z" fill="#DF0031"/>
</svg>
