<svg width="60" height="60" viewBox="0 0 60 60" fill="none" xmlns="http://www.w3.org/2000/svg">
<path d="M57 49.8C51.0316 46.635 46.4536 44.8603 42.3783 44.1799L42.8 43.6001C43.0001 43.4 43.1 43.1 43.0001 42.8L42.0629 39.0516C42.4037 38.5696 42.724 38.0735 43.023 37.5647C46.7496 36.2964 48.6341 34.1524 48.9507 30.9959C50.5876 30.9105 52 29.4496 52 27.8V20.3C52 18.658 50.6937 17.2029 48.9824 17.1055C48.7622 11.3286 46.215 0 30 0C13.7846 0 11.2377 11.3291 11.0175 17.1059C9.3941 17.2017 8.00004 18.5647 8.00004 20.2999V27.7999C8.00004 29.5 9.50004 31 11.3 31H12.8C13.3513 31 13.8811 30.8415 14.3426 30.5704C14.9096 33.5803 16.1611 36.5408 17.9372 39.0514L17 42.7999C17 43 17 43.3 17.2001 43.6L17.6218 44.1798C13.5465 44.8603 8.96848 46.6349 3.00012 49.7999C1.10004 50.7 0 52.6 0 54.7V58.9999C0 59.6 0.399961 60 0.999961 60H58.9999C59.5999 60 59.9999 59.6 59.9999 59V54.7001C60 52.7 58.8 50.8 57 49.8ZM30.0055 47.5126L32.4 53H27.5666L30.0055 47.5126ZM26.84 55H33.1561L33.7414 58H26.2399L26.84 55ZM40.5 41L40.9 42.8L39.8784 44.2027C39.8094 44.2592 39.7493 44.3257 39.7 44.4L35.5404 50.1594L34.2206 51.9716L31.5247 45.9059C34.8128 45.5048 37.7408 43.8291 40.0884 41.4279C40.2279 41.2875 40.3651 41.1449 40.5 41ZM44.4048 34.7794C44.9688 33.407 45.394 31.9805 45.6628 30.5426C46.0532 30.7796 46.4905 30.9288 46.9444 30.9796C46.7711 32.3931 46.143 33.7276 44.4048 34.7794ZM49.9 20.2V27.7C49.9 28.3 49.3999 28.9 48.7 28.9H47.2C46.6 28.9 46 28.3999 46 27.7V20.2C46 19.6 46.5 19 47.2 19H48.7C49.3 19 49.9 19.5 49.9 20.2ZM30 2.00004C36.1637 2.00004 46.5373 4.01215 46.9833 17.1163C46.5686 17.1596 46.1665 17.2839 45.7998 17.4824C44.5829 9.86742 37.9438 3.99996 30 3.99996C22.0573 3.99996 15.4188 9.86578 14.2007 17.4791C13.834 17.2806 13.4315 17.1572 13.0166 17.1159C13.4629 4.01215 23.8364 2.00004 30 2.00004ZM13.9 27.7C13.9 28.3 13.3999 28.9 12.7 28.9H11.2C10.6 28.9 9.99996 28.3999 9.99996 27.7V20.2C9.99996 19.6 10.5 19 11.2 19H12.7C13.3 19 13.9 19.5 13.9 20.2V27.7ZM16 20C16 12.3 22.3 6 30 6C37.7 6 44 12.3 44 20V27C44 30.3084 43.1387 33.3374 41.7423 35.893C39.3554 36.5854 35.9217 37 31.0001 37C30.4001 37 30.0001 37.3999 30.0001 37.9999C30.0001 38.5999 30.4001 38.9999 31.0001 38.9999C34.603 38.9999 37.6163 38.7786 40.0839 38.3161L39.9 38.5C39.3969 39.1707 38.8659 39.7823 38.3112 40.3338C35.9565 42.5275 33.1481 43.8563 30.4418 43.9879C30.3056 43.9294 30.1529 43.9 30 43.9C29.8463 43.9 29.7077 43.9301 29.5835 43.9891C27.927 43.9132 26.2316 43.3881 24.6246 42.49C22.9965 41.5546 21.465 40.2061 20.1 38.5L19.8 38.2L19.7416 38.1805C17.4959 35.2351 16 31.3603 16 27V20ZM28.4752 45.9059L25.7793 51.9716L24.4595 50.1594L20.2999 44.4C20.2667 44.3671 20.2321 44.3356 20.1963 44.3055L19.0999 42.8L19.4999 41C19.6346 41.1448 19.7717 41.2874 19.9111 41.4277C22.2588 43.8288 25.1871 45.5047 28.4752 45.9059ZM2.00004 54.7C2.00004 53.4 2.7 52.2 3.9 51.6C10.2742 48.2138 14.8627 46.5142 18.9502 46.0065L24.9176 54.2118L24.16 58H2.00004V54.7ZM58 58H35.84L35.0824 54.2118L41.1145 45.9176C45.1876 46.5322 49.8585 48.2305 56.1001 51.4999C57.3001 52.1999 58.0001 53.3999 58.0001 54.7L58 58Z" fill="#DF0031"/>
</svg>
