<svg width="54" height="54" viewBox="0 0 54 54" fill="none" xmlns="http://www.w3.org/2000/svg">
<path d="M53.0719 44.1094C52.9125 43.4648 52.5308 42.8971 51.9941 42.5062C51.4574 42.1152 50.8 41.926 50.1375 41.9719L47.5594 35.1094C47.5147 34.9899 47.446 34.8809 47.3575 34.7889C47.269 34.697 47.1626 34.6242 47.0449 34.575C46.9272 34.5259 46.8006 34.5013 46.6731 34.5029C46.5455 34.5045 46.4196 34.5323 46.3032 34.5844L27.6188 42.9938C27.4125 42.9657 27.2063 42.9375 27 42.9375C26.7938 42.9375 26.5875 42.9657 26.3813 42.9938L7.69691 34.5844C7.58076 34.5319 7.45503 34.504 7.32758 34.5024C7.20013 34.5008 7.07373 34.5255 6.95629 34.575C6.71254 34.6782 6.52504 34.8657 6.44066 35.1094L3.87191 41.9625C3.315 41.9318 2.76204 42.0725 2.28754 42.3657C1.64961 42.7545 1.19178 43.3803 1.01431 44.106C0.836838 44.8317 0.954188 45.5982 1.34066 46.2375C1.532 46.5525 1.78375 46.8264 2.08141 47.0436C2.37907 47.2608 2.71676 47.417 3.07504 47.5032L26.3344 53.1469C26.55 53.2032 26.775 53.2219 27 53.2219C27.225 53.2219 27.4407 53.1938 27.6657 53.1469L51.0094 47.5032C51.7407 47.325 52.3594 46.875 52.7438 46.2375C53.1375 45.5907 53.25 44.8407 53.0719 44.1094ZM46.1625 36.7032L46.8282 38.4844L39.7969 41.1188C39.3094 41.2969 39.0657 41.8407 39.2438 42.3282C39.3326 42.5605 39.5092 42.7486 39.7353 42.8521C39.9615 42.9555 40.2193 42.966 40.4532 42.8813L47.4844 40.2469L48.2813 42.3844L32.1375 46.2844C31.7076 45.3218 31.0115 44.5021 30.1313 43.9219L46.1625 36.7032ZM27 47.5219L23.7375 46.7344C24.3844 45.5719 25.6125 44.8219 27 44.8219C28.3875 44.8219 29.6157 45.5813 30.2625 46.7438L27 47.5219ZM7.83754 36.7032L23.8594 43.9125C22.9969 44.4938 22.2938 45.3 21.8625 46.275L5.71879 42.3563L6.51566 40.2375L13.5469 42.8719C13.65 42.9188 13.7625 42.9375 13.875 42.9375C14.25 42.9375 14.6157 42.7032 14.7563 42.3282C14.9344 41.8407 14.6907 41.3063 14.2032 41.1188L7.17191 38.4844L7.83754 36.7032ZM2.93441 45.2625C2.80316 45.0469 2.76566 44.7938 2.82191 44.55C2.87816 44.3063 3.03754 44.0907 3.25316 43.9688C3.39379 43.875 3.56254 43.8282 3.72191 43.8282C3.79691 43.8282 3.87191 43.8375 3.95629 43.8563L22.2 48.2813C22.2094 48.2813 22.2188 48.2907 22.2282 48.2907H22.2657L22.6313 48.375L22.8188 50.3532L3.51566 45.6844C3.27191 45.6188 3.06566 45.4688 2.93441 45.2625ZM27.225 51.3282C27.075 51.3657 26.925 51.3657 26.7844 51.3282L24.75 50.8313L24.5625 48.8532L26.7844 49.3969C26.9344 49.4344 27.0844 49.4344 27.225 49.3969L29.4469 48.8625L29.2594 50.8407L27.225 51.3282ZM51.1407 45.2625C51.0771 45.3683 50.9928 45.4601 50.893 45.5326C50.7931 45.6051 50.6797 45.6567 50.5594 45.6844L31.1813 50.3719L31.3688 48.3938L31.7438 48.3H31.7625C31.7625 48.3 31.7719 48.3 31.7719 48.2907L50.1094 43.8563C50.6157 43.7344 51.1219 44.0438 51.2438 44.55C51.3094 44.7938 51.2719 45.0469 51.1407 45.2625Z" fill="#DF0031"/>
<path d="M19.5 24.6281V31.6875C19.5 32.9344 20.3156 33.975 21.4406 34.35C21.8156 37.0781 24.1688 39.1875 27 39.1875C29.8313 39.1875 32.1844 37.0781 32.5594 34.35C33.6844 33.975 34.5 32.9344 34.5 31.6875V24.6281C38.5594 21.7969 40.6688 17.0344 40.0031 12.0844C39.225 6.22499 34.3875 1.49061 28.5094 0.834363C24.7782 0.412488 21.0375 1.60311 18.2531 4.08749C16.8767 5.31977 15.7755 6.82828 15.0211 8.51469C14.2667 10.2011 13.8762 12.0275 13.875 13.875C13.875 18.1875 15.9657 22.1719 19.5 24.6281ZM32.625 27V28.875H21.375V27H32.625ZM27 37.3125C25.2563 37.3125 23.8032 36.1125 23.3813 34.5H30.6188C30.1969 36.1125 28.7438 37.3125 27 37.3125ZM31.6875 32.625H22.3125C21.7969 32.625 21.375 32.2031 21.375 31.6875V30.75H32.625V31.6875C32.625 32.2031 32.2031 32.625 31.6875 32.625ZM19.5 5.48436C21.5907 3.61874 24.2063 2.62499 26.9813 2.62499C27.4125 2.62499 27.8532 2.65311 28.2938 2.69999C33.3282 3.26249 37.4719 7.31249 38.1375 12.3375C38.7281 16.7344 36.7688 20.9531 33.0469 23.3437C32.9166 23.4295 32.8098 23.5465 32.7361 23.684C32.6625 23.8215 32.6243 23.9752 32.625 24.1312V25.125H27.9375V14.8125H30.75C31.2656 14.8125 31.6875 14.3906 31.6875 13.875C31.6875 13.3594 31.2656 12.9375 30.75 12.9375H23.25C22.7344 12.9375 22.3125 13.3594 22.3125 13.875C22.3125 14.3906 22.7344 14.8125 23.25 14.8125H26.0625V25.125H21.375V24.1312C21.375 23.8125 21.2157 23.5125 20.9438 23.3437C17.6907 21.2531 15.75 17.7187 15.75 13.875C15.75 10.6781 17.1188 7.62186 19.5 5.48436ZM44.8125 14.8125H48.5625C49.0781 14.8125 49.5 14.3906 49.5 13.875C49.5 13.3594 49.0781 12.9375 48.5625 12.9375H44.8125C44.2969 12.9375 43.875 13.3594 43.875 13.875C43.875 14.3906 44.2969 14.8125 44.8125 14.8125ZM44.8125 9.18749C44.9531 9.18749 45.0938 9.15936 45.2344 9.08436L48.9844 7.20936C49.4438 6.97499 49.6313 6.41249 49.4063 5.95311C49.2937 5.73243 49.0991 5.56465 48.8643 5.48579C48.6294 5.40692 48.373 5.42323 48.15 5.53124L44.4 7.40624C43.9407 7.64061 43.7531 8.20311 43.9781 8.66249C44.1375 8.99999 44.4656 9.18749 44.8125 9.18749ZM45.2344 18.6656C45.1245 18.6094 45.0045 18.5756 44.8813 18.5664C44.7582 18.5572 44.6345 18.5727 44.5174 18.612C44.4004 18.6514 44.2924 18.7137 44.1998 18.7953C44.1072 18.877 44.0318 18.9763 43.9781 19.0875C43.9225 19.1975 43.8893 19.3175 43.8805 19.4405C43.8716 19.5634 43.8872 19.6869 43.9265 19.8038C43.9657 19.9207 44.0278 20.0286 44.1091 20.1213C44.1904 20.214 44.2893 20.2896 44.4 20.3437L48.15 22.2187C48.2813 22.2844 48.4219 22.3125 48.5625 22.3125C48.9094 22.3125 49.2375 22.125 49.4063 21.7969C49.4619 21.6868 49.4951 21.5669 49.504 21.4439C49.5128 21.3209 49.4972 21.1974 49.4579 21.0805C49.4187 20.9637 49.3566 20.8558 49.2753 20.7631C49.194 20.6704 49.0951 20.5948 48.9844 20.5406L45.2344 18.6656ZM5.43752 14.8125H9.18752C9.70315 14.8125 10.125 14.3906 10.125 13.875C10.125 13.3594 9.70315 12.9375 9.18752 12.9375H5.43752C4.9219 12.9375 4.50002 13.3594 4.50002 13.875C4.50002 14.3906 4.9219 14.8125 5.43752 14.8125ZM5.01565 7.20936L8.76565 9.08436C8.98832 9.19673 9.2464 9.21643 9.48354 9.13914C9.72067 9.06185 9.91759 8.89386 10.0313 8.67186C10.0869 8.56183 10.1201 8.44186 10.129 8.31889C10.1378 8.19592 10.1222 8.07242 10.0829 7.95555C10.0437 7.83868 9.98163 7.73077 9.90033 7.63808C9.81904 7.54539 9.72015 7.46977 9.6094 7.41561L5.8594 5.54061C5.74994 5.48467 5.63047 5.45096 5.50791 5.44143C5.38535 5.4319 5.26212 5.44674 5.14532 5.48509C5.02852 5.52344 4.92048 5.58454 4.82742 5.66487C4.73437 5.7452 4.65814 5.84317 4.60315 5.95311C4.36877 6.42186 4.55627 6.98436 5.01565 7.20936ZM8.76565 18.6656L5.01565 20.5406C4.55627 20.775 4.36878 21.3375 4.59378 21.7969C4.70746 22.0189 4.90438 22.1868 5.14151 22.2641C5.37865 22.3414 5.63673 22.3217 5.8594 22.2094L9.6094 20.3344C10.0688 20.1 10.2563 19.5375 10.0313 19.0781C9.7969 18.6187 9.2344 18.4312 8.76565 18.6656Z" fill="#DF0031"/>
</svg>
