<svg width="40" height="60" viewBox="0 0 40 60" fill="none" xmlns="http://www.w3.org/2000/svg">
<path d="M35.0449 6.59022H34.5361V3.21346C34.5361 2.22955 34.0948 1.31373 33.3251 0.700726C32.5553 0.0877184 31.5639 -0.137633 30.6052 0.0824449L2.0693 6.63006C2.06719 6.63053 2.0652 6.63123 2.06309 6.63182C0.892266 6.84194 0.000117123 7.86592 0.000117123 9.09627V23.6948C0.000117123 23.9284 0.0929015 24.1524 0.258058 24.3175C0.423215 24.4827 0.647214 24.5755 0.880781 24.5755C1.11435 24.5755 1.33835 24.4827 1.5035 24.3175C1.66866 24.1524 1.76145 23.9284 1.76145 23.6948V9.09627C1.76166 8.8988 1.84021 8.70947 1.97984 8.56983C2.11948 8.43019 2.30881 8.35165 2.50629 8.35143H23.8874C24.003 8.35143 24.1175 8.32865 24.2244 8.28439C24.3312 8.24014 24.4283 8.17527 24.5101 8.09349C24.5919 8.01171 24.6568 7.91463 24.701 7.80778C24.7453 7.70093 24.768 7.58642 24.768 7.47077C24.768 7.35512 24.7453 7.2406 24.701 7.13375C24.6568 7.0269 24.5919 6.92982 24.5101 6.84804C24.4283 6.76626 24.3312 6.7014 24.2244 6.65714C24.1175 6.61288 24.003 6.5901 23.8874 6.5901H10.1184L30.9991 1.79901C31.2117 1.74963 31.4327 1.74912 31.6455 1.79751C31.8583 1.8459 32.0574 1.94194 32.2277 2.07838C32.3988 2.21393 32.5369 2.38649 32.6316 2.5831C32.7264 2.7797 32.7753 2.99522 32.7748 3.21346V6.5901H27.4097C27.294 6.5901 27.1795 6.61288 27.0727 6.65714C26.9658 6.7014 26.8687 6.76626 26.787 6.84804C26.7052 6.92982 26.6403 7.0269 26.5961 7.13375C26.5518 7.2406 26.529 7.35512 26.529 7.47077C26.529 7.58642 26.5518 7.70093 26.5961 7.80778C26.6403 7.91463 26.7052 8.01171 26.787 8.09349C26.8687 8.17527 26.9658 8.24014 27.0727 8.28439C27.1795 8.32865 27.294 8.35143 27.4097 8.35143H35.0449C36.3518 8.35143 37.415 9.41467 37.415 10.7217V47.12C37.415 47.3536 37.5078 47.5776 37.673 47.7427C37.8381 47.9079 38.0621 48.0007 38.2957 48.0007C38.5293 48.0007 38.7533 47.9079 38.9184 47.7427C39.0836 47.5776 39.1764 47.3536 39.1764 47.12V10.7217C39.1764 8.44354 37.323 6.59022 35.0449 6.59022ZM38.2957 49.7619C38.0621 49.7619 37.8381 49.8546 37.673 50.0198C37.5078 50.185 37.415 50.409 37.415 50.6425V55.8685C37.415 57.1755 36.3518 58.2387 35.0449 58.2387H2.50617C2.30869 58.2385 2.11937 58.16 1.97973 58.0203C1.84009 57.8807 1.76154 57.6914 1.76133 57.4939V27.2173C1.75756 26.9863 1.66312 26.7659 1.49837 26.6038C1.33362 26.4418 1.11177 26.3509 0.880664 26.3509C0.649555 26.3509 0.427705 26.4418 0.262958 26.6038C0.098212 26.7659 0.00376985 26.9863 0 27.2173V57.4939C0 58.8758 1.12418 60 2.50605 60H35.0448C37.3228 60 39.1761 58.1466 39.1761 55.8685V50.6425C39.1762 50.5269 39.1535 50.4124 39.1092 50.3055C39.065 50.1986 39.0002 50.1015 38.9184 50.0197C38.8366 49.938 38.7396 49.8731 38.6327 49.8288C38.5259 49.7846 38.4113 49.7618 38.2957 49.7619Z" fill="#DF0031"/>
<path d="M19.5535 39.1862C25.7174 39.1862 30.7324 34.1714 30.7324 28.0073C30.7324 21.8432 25.7174 16.8283 19.5535 16.8283C13.3894 16.8283 8.37463 21.8432 8.37463 28.0073C8.37463 34.1714 13.3894 39.1862 19.5535 39.1862ZM19.5535 37.4249C18.6744 37.4249 17.5148 35.5924 16.9094 32.4908H22.1976C21.5921 35.5924 20.4326 37.4249 19.5535 37.4249ZM22.5412 36.9363C22.763 36.5404 22.9693 36.0957 23.1574 35.6034C23.5086 34.6837 23.7881 33.6305 23.99 32.4908H27.8339C26.7042 34.5685 24.8142 36.1737 22.5412 36.9363ZM28.9712 28.0073C28.9712 28.9537 28.8294 29.8672 28.5684 30.7296H24.2323C24.3226 29.825 24.3676 28.9164 24.3671 28.0073C24.3671 27.1667 24.3289 26.3406 24.2565 25.5401H28.641C28.8601 26.3442 28.9711 27.1739 28.9712 28.0073ZM27.9646 23.7789H24.0333C23.829 22.541 23.5346 21.399 23.1573 20.4111C22.9693 19.9188 22.763 19.4739 22.5411 19.0782C24.9059 19.8715 26.8539 21.5784 27.9646 23.7789ZM19.5535 18.5895C20.4565 18.5895 21.6556 20.5224 22.2459 23.7788H16.861C17.4514 20.5225 18.6505 18.5895 19.5535 18.5895ZM22.4887 25.5401C22.5637 26.3112 22.6059 27.1348 22.6059 28.0073C22.6059 28.977 22.5535 29.8858 22.462 30.7296H16.6451C16.5536 29.8858 16.5012 28.977 16.5012 28.0073C16.5012 27.1348 16.5434 26.3112 16.6184 25.5401H22.4887ZM16.5659 19.0782C16.3441 19.474 16.1378 19.9188 15.9498 20.4111C15.5725 21.399 15.278 22.541 15.0737 23.7789H11.1424C12.2532 21.5784 14.2011 19.8715 16.5659 19.0782ZM10.1358 28.0073C10.1358 27.1536 10.2521 26.3271 10.466 25.5401H14.8505C14.7766 26.3604 14.7397 27.1837 14.7399 28.0073C14.7399 28.9374 14.7863 29.8501 14.8747 30.7296H10.5385C10.2713 29.8468 10.1356 28.9296 10.1358 28.0073ZM15.1171 32.4908C15.319 33.6305 15.5985 34.6837 15.9498 35.6034C16.1378 36.0957 16.344 36.5405 16.5659 36.9363C14.2928 36.1736 12.4028 34.5684 11.2733 32.4908H15.1171ZM9.2553 44.6496H29.9213C30.037 44.6496 30.1515 44.6268 30.2583 44.5825C30.3652 44.5383 30.4623 44.4734 30.544 44.3916C30.6258 44.3098 30.6907 44.2128 30.7349 44.1059C30.7792 43.9991 30.802 43.8845 30.802 43.7689C30.802 43.6532 30.7792 43.5387 30.7349 43.4319C30.6907 43.325 30.6258 43.2279 30.544 43.1462C30.4623 43.0644 30.3652 42.9995 30.2583 42.9553C30.1515 42.911 30.037 42.8882 29.9213 42.8882H9.2553C9.02422 42.892 8.80388 42.9864 8.6418 43.1512C8.47972 43.3159 8.38888 43.5378 8.38888 43.7689C8.38888 44 8.47972 44.2218 8.6418 44.3866C8.80388 44.5513 9.02422 44.6458 9.2553 44.6496ZM13.1562 48.0005C12.9227 48.0005 12.6987 48.0933 12.5335 48.2585C12.3684 48.4236 12.2756 48.6476 12.2756 48.8812C12.2756 49.1148 12.3684 49.3388 12.5335 49.5039C12.6987 49.6691 12.9227 49.7619 13.1562 49.7619H26.0203C26.5067 49.7619 26.9009 49.3676 26.9009 48.8812C26.9009 48.3948 26.5067 48.0005 26.0203 48.0005H13.1562Z" fill="#DF0031"/>
</svg>
