<svg width="60" height="46" viewBox="0 0 60 46" fill="none" xmlns="http://www.w3.org/2000/svg">
<path d="M1.9507 42.9431H58.7649V45.4133H1.9507V42.9431ZM57.9047 4.02961C53.7785 1.62476 49.0901 2.90222 45.8841 4.39717L36.3273 8.85363L19.8907 0.58667L10.1022 1.00722L23.675 14.7671L15.025 18.8762L6.02552 15.4511L0 18.2607L5.44539 25.0227C4.87009 25.709 4.34876 26.6754 4.82204 27.6904C5.44021 29.0159 7.26728 29.6839 10.2642 29.6838C10.8788 29.6838 11.5427 29.6558 12.2552 29.5995C15.545 29.3396 19.1117 28.4999 21.3419 27.4599L55.504 11.5298C58.4547 10.1538 59.9244 8.709 59.9973 7.11252C60.0351 6.28452 59.7027 5.07722 57.9047 4.02961ZM54.4599 9.29098L20.2979 25.2212C18.3978 26.1072 15.2783 26.8497 12.3507 27.1125C9.35829 27.3811 7.75835 27.0438 7.22504 26.7574C7.33484 26.6071 7.53986 26.3709 7.91817 26.038L8.80546 25.257L3.90116 19.167L6.1226 18.131L15.1317 21.56L27.874 15.5069L15.7701 3.23606L19.3545 3.08205L36.2862 11.5979L46.9278 6.63578C50.8143 4.82353 54.0887 4.66494 56.6607 6.1636L56.6608 6.16373C57.3089 6.54129 57.5354 6.87069 57.5294 6.99988C57.5292 7.00877 57.455 7.89458 54.4599 9.29098Z" fill="#DF0031"/>
</svg>
