<svg width="48" height="60" viewBox="0 0 48 60" fill="none" xmlns="http://www.w3.org/2000/svg">
<path d="M42.7878 14.0906C42.5547 14.0906 42.3312 14.1832 42.1664 14.348C42.0015 14.5128 41.9089 14.7364 41.9089 14.9695V54.4243C41.9089 54.4403 41.9026 54.4557 41.8912 54.4671C41.8799 54.4784 41.8645 54.4848 41.8485 54.4848H10.8486C10.6155 54.4848 10.392 54.5774 10.2272 54.7422C10.0623 54.907 9.96973 55.1306 9.96973 55.3637C9.96973 55.5968 10.0623 55.8203 10.2272 55.9851C10.392 56.15 10.6155 56.2426 10.8486 56.2426H41.8485C42.8511 56.2426 43.6668 55.4269 43.6668 54.4243V14.9695C43.6668 14.7364 43.5742 14.5128 43.4093 14.348C43.2445 14.1832 43.021 14.0906 42.7878 14.0906Z" fill="#DF0031"/>
<path d="M45.6059 3.75751H37.5154L34.5657 0.807784C34.3102 0.55089 34.0063 0.347221 33.6716 0.208567C33.3369 0.0699117 32.978 -0.000974829 32.6157 1.01249e-05H2.39396C1.39131 1.01249e-05 0.575684 0.815635 0.575684 1.81829V54.4241C0.575684 55.4268 1.39131 56.2424 2.39396 56.2424H4.33318V58.1816C4.33318 59.1843 5.14881 59.9999 6.15146 59.9999H45.6059C46.6086 59.9999 47.4242 59.1843 47.4242 58.1816V5.57591C47.4242 4.57325 46.6086 3.75751 45.6059 3.75751ZM33.3333 2.06134L41.6053 10.3333H33.3938C33.3778 10.3333 33.3624 10.3269 33.351 10.3155C33.3397 10.3042 33.3333 10.2888 33.3333 10.2728V2.06134ZM45.6664 58.1817C45.6664 58.1978 45.66 58.2132 45.6487 58.2245C45.6373 58.2358 45.622 58.2422 45.6059 58.2422H6.15146C6.14352 58.2422 6.13566 58.2406 6.12832 58.2376C6.12099 58.2346 6.11432 58.2301 6.10871 58.2245C6.10309 58.2189 6.09864 58.2122 6.0956 58.2049C6.09256 58.1975 6.091 58.1897 6.091 58.1817V56.2425H7.09061C7.32371 56.2425 7.54726 56.1499 7.71209 55.9851C7.87691 55.8203 7.96951 55.5967 7.96951 55.3636C7.96951 55.1305 7.87691 54.9069 7.71209 54.7421C7.54726 54.5773 7.32371 54.4847 7.09061 54.4847H2.39396C2.37793 54.4847 2.36255 54.4783 2.35121 54.467C2.33987 54.4557 2.3335 54.4403 2.3335 54.4242V1.81829C2.3335 1.78489 2.36057 1.75782 2.39396 1.75782H31.5755V10.2728C31.5755 11.2754 32.3912 12.0911 33.3938 12.0911H42.7878C43.0209 12.0911 43.2444 11.9985 43.4093 11.8336C43.5741 11.6688 43.6667 11.4453 43.6667 11.2122V11.051C43.6677 10.6887 43.5968 10.3298 43.4581 9.99512C43.3195 9.6604 43.1158 9.35651 42.8589 9.10103L39.2732 5.51532H45.6059C45.6393 5.51532 45.6664 5.54239 45.6664 5.57579V58.1817Z" fill="#DF0031"/>
<path d="M18.0457 10.0403C17.8809 9.87554 17.6573 9.78296 17.4242 9.78296C17.1911 9.78296 16.9676 9.87554 16.8028 10.0403L11.8306 15.0125C11.8193 15.0238 11.8039 15.0302 11.7879 15.0302C11.7718 15.0302 11.7564 15.0238 11.7451 15.0125L9.76298 13.0304H11.2888C11.5219 13.0304 11.7454 12.9378 11.9102 12.773C12.0751 12.6081 12.1677 12.3846 12.1677 12.1515C12.1677 11.9184 12.0751 11.6948 11.9102 11.53C11.7454 11.3652 11.5219 11.2726 11.2888 11.2726H8.96962C8.68861 11.2726 8.42329 11.3386 8.1854 11.4529L7.71232 10.9798C7.54749 10.815 7.32395 10.7225 7.09087 10.7225C6.85779 10.7225 6.63425 10.815 6.46943 10.9798C6.30462 11.1447 6.21204 11.3682 6.21204 11.6013C6.21204 11.8344 6.30462 12.0579 6.46943 12.2227L7.16036 12.9137C7.15455 12.9725 7.15158 13.0316 7.15146 13.0907V18.7271C7.15146 19.7298 7.96708 20.5454 8.96974 20.5454H14.6061C15.6088 20.5454 16.4244 19.7298 16.4244 18.7271V12.9045L18.0457 11.2832C18.2105 11.1184 18.3031 10.8949 18.3031 10.6618C18.3031 10.4287 18.2105 10.2052 18.0457 10.0403ZM14.6666 18.7272C14.6666 18.7433 14.6602 18.7586 14.6489 18.77C14.6375 18.7813 14.6221 18.7877 14.6061 18.7877H8.96974C8.9537 18.7877 8.93832 18.7813 8.92698 18.77C8.91564 18.7586 8.90927 18.7433 8.90927 18.7272V14.6623L10.5022 16.2553C10.6709 16.4242 10.8714 16.5582 11.092 16.6495C11.3127 16.7407 11.5492 16.7875 11.788 16.7871C12.2536 16.7871 12.7192 16.6098 13.0736 16.2553L14.6666 14.6623V18.7272ZM14.6061 23.4846H8.96974C7.96708 23.4846 7.15146 24.3002 7.15146 25.3028V30.9392C7.15146 31.9419 7.96708 32.7575 8.96974 32.7575H14.6061C15.6088 32.7575 16.4244 31.9419 16.4244 30.9392V25.3028C16.4244 24.3003 15.6088 23.4846 14.6061 23.4846ZM14.6666 30.9392C14.6666 30.9553 14.6602 30.9706 14.6489 30.982C14.6375 30.9933 14.6221 30.9997 14.6061 30.9997H8.96974C8.9618 30.9997 8.95393 30.9981 8.9466 30.9951C8.93926 30.992 8.9326 30.9876 8.92698 30.982C8.92137 30.9764 8.91691 30.9697 8.91387 30.9624C8.91083 30.955 8.90927 30.9472 8.90927 30.9392V25.3028C8.90927 25.2695 8.93634 25.2424 8.96974 25.2424H14.6061C14.6395 25.2424 14.6666 25.2695 14.6666 25.3028V30.9392ZM14.6061 35.6967H8.96974C7.96708 35.6967 7.15146 36.5123 7.15146 37.515V43.1513C7.15146 44.154 7.96708 44.9696 8.96974 44.9696H14.6061C15.6088 44.9696 16.4244 44.1539 16.4244 43.1513V37.515C16.4244 36.5123 15.6088 35.6967 14.6061 35.6967ZM14.6666 43.1513C14.6666 43.1674 14.6602 43.1827 14.6489 43.1941C14.6375 43.2054 14.6221 43.2118 14.6061 43.2118H8.96974C8.95371 43.2118 8.93835 43.2054 8.92702 43.194C8.91568 43.1827 8.9093 43.1674 8.90927 43.1513V37.515C8.90927 37.4816 8.93634 37.4545 8.96974 37.4545H14.6061C14.6395 37.4545 14.6666 37.4816 14.6666 37.515V43.1513ZM28.697 13.1513H20.2425C20.0094 13.1513 19.7858 13.2439 19.621 13.4088C19.4562 13.5736 19.3636 13.7971 19.3636 14.0302C19.3636 14.2633 19.4562 14.4869 19.621 14.6517C19.7858 14.8165 20.0094 14.9091 20.2425 14.9091H28.697C28.9301 14.9091 29.1536 14.8165 29.3184 14.6517C29.4833 14.4869 29.5759 14.2633 29.5759 14.0302C29.5759 13.7971 29.4833 13.5736 29.3184 13.4088C29.1536 13.2439 28.9301 13.1513 28.697 13.1513ZM36.2121 16.9089H20.2425C20.0094 16.9089 19.7858 17.0015 19.621 17.1664C19.4562 17.3312 19.3636 17.5547 19.3636 17.7878C19.3636 18.0209 19.4562 18.2445 19.621 18.4093C19.7858 18.5742 20.0094 18.6668 20.2425 18.6668H36.2121C36.4452 18.6668 36.6687 18.5742 36.8336 18.4093C36.9984 18.2445 37.091 18.0209 37.091 17.7878C37.091 17.5547 36.9984 17.3312 36.8336 17.1664C36.6687 17.0015 36.4452 16.9089 36.2121 16.9089ZM28.697 25.3634H20.2425C20.0094 25.3634 19.7858 25.456 19.621 25.6209C19.4562 25.7857 19.3636 26.0092 19.3636 26.2423C19.3636 26.4754 19.4562 26.699 19.621 26.8638C19.7858 27.0286 20.0094 27.1212 20.2425 27.1212H28.697C28.9301 27.1212 29.1536 27.0286 29.3184 26.8638C29.4833 26.699 29.5759 26.4754 29.5759 26.2423C29.5759 26.0092 29.4833 25.7857 29.3184 25.6209C29.1536 25.456 28.9301 25.3634 28.697 25.3634ZM36.2121 29.1209H20.2425C20.0094 29.1209 19.7858 29.2135 19.621 29.3784C19.4562 29.5432 19.3636 29.7667 19.3636 29.9998C19.3636 30.2329 19.4562 30.4565 19.621 30.6213C19.7858 30.7861 20.0094 30.8787 20.2425 30.8787H36.2121C36.4452 30.8787 36.6687 30.7861 36.8336 30.6213C36.9984 30.4565 37.091 30.2329 37.091 29.9998C37.091 29.7667 36.9984 29.5432 36.8336 29.3784C36.6687 29.2135 36.4452 29.1209 36.2121 29.1209ZM28.697 37.5754H20.2425C20.0094 37.5754 19.7858 37.668 19.621 37.8329C19.4562 37.9977 19.3636 38.2212 19.3636 38.4543C19.3636 38.6874 19.4562 38.911 19.621 39.0758C19.7858 39.2406 20.0094 39.3332 20.2425 39.3332H28.697C28.9301 39.3332 29.1536 39.2406 29.3184 39.0758C29.4833 38.911 29.5759 38.6874 29.5759 38.4543C29.5759 38.2212 29.4833 37.9977 29.3184 37.8329C29.1536 37.668 28.9301 37.5754 28.697 37.5754ZM36.2121 41.3329H20.2425C20.0094 41.3329 19.7858 41.4255 19.621 41.5904C19.4562 41.7552 19.3636 41.9787 19.3636 42.2118C19.3636 42.4449 19.4562 42.6685 19.621 42.8333C19.7858 42.9981 20.0094 43.0907 20.2425 43.0907H36.2121C36.4452 43.0907 36.6687 42.9981 36.8336 42.8333C36.9984 42.6685 37.091 42.4449 37.091 42.2118C37.091 41.9787 36.9984 41.7552 36.8336 41.5904C36.6687 41.4255 36.4452 41.3329 36.2121 41.3329Z" fill="#DF0031"/>
</svg>
