<svg width="25" height="25" viewBox="0 0 25 25" fill="none" xmlns="http://www.w3.org/2000/svg">
<path d="M18.4044 11.9958C18.071 11.2124 17.3044 10.7124 16.4544 10.7124H15.1585V9.3016C15.1585 9.08058 15.0707 8.86862 14.9145 8.71234C14.7582 8.55606 14.5462 8.46826 14.3252 8.46826C14.1042 8.46826 13.8922 8.55606 13.736 8.71234C13.5797 8.86862 13.4919 9.08058 13.4919 9.3016V10.7124H11.511V9.3016C11.511 9.08058 11.4232 8.86862 11.267 8.71234C11.1107 8.55606 10.8987 8.46826 10.6777 8.46826C10.4567 8.46826 10.2447 8.55606 10.0885 8.71234C9.93217 8.86862 9.84437 9.08058 9.84437 9.3016V10.7124H8.53854C7.68854 10.7124 6.92188 11.2124 6.58854 11.9874L4.63854 16.4624C4.41354 16.9624 4.29688 17.5124 4.29688 18.0624V19.7124C4.29688 20.8874 5.25521 21.8458 6.43021 21.8458H18.5635C19.7385 21.8458 20.6969 20.8874 20.6969 19.7124V18.0624C20.6969 17.5124 20.5802 16.9624 20.3635 16.4708L18.4044 11.9958ZM12.496 18.4708C11.9137 18.4708 11.3552 18.2394 10.9434 17.8276C10.5316 17.4158 10.3002 16.8573 10.3002 16.2749C10.3002 15.6926 10.5316 15.134 10.9434 14.7222C11.3552 14.3104 11.9137 14.0791 12.496 14.0791C13.0784 14.0791 13.6369 14.3104 14.0487 14.7222C14.4605 15.134 14.6919 15.6926 14.6919 16.2749C14.6919 16.8573 14.4605 17.4158 14.0487 17.8276C13.6369 18.2394 13.0784 18.4708 12.496 18.4708Z" fill="#DF0031"/>
<path d="M21.0792 4.57513C20.6282 4.12444 20.0929 3.76699 19.5038 3.5232C18.9147 3.27941 18.2834 3.15406 17.6458 3.1543L7.3625 3.1618C6.72495 3.15698 6.09286 3.27952 5.5033 3.52221C4.91373 3.76491 4.37856 4.12288 3.92917 4.57513C3.47646 5.02617 3.11771 5.56253 2.87368 6.15315C2.62965 6.74377 2.50519 7.37692 2.5075 8.01596L2.5 8.48596C2.50833 9.1318 3.0375 9.66096 3.68333 9.6693H7.30833C7.62042 9.66394 7.91821 9.53752 8.13885 9.31673C8.35948 9.09594 8.48569 8.79805 8.49083 8.48596L8.4825 8.13846C8.4825 7.37846 9.0975 6.76346 9.8575 6.76346L15.1425 6.7718C15.895 6.76346 16.5092 7.37846 16.5092 8.13846L16.5175 8.48596C16.5092 9.1318 17.0392 9.66096 17.6842 9.66096L21.3175 9.6693C21.9467 9.66096 22.4925 9.11596 22.5 8.48596V8.00846C22.4984 6.72129 21.9876 5.48703 21.0792 4.57513Z" fill="#DF0031"/>
</svg>
