<svg width="25" height="25" viewBox="0 0 25 25" fill="none" xmlns="http://www.w3.org/2000/svg">
<g clip-path="url(#clip0_128_25)">
<path d="M12.6935 25H12.6863C8.95625 24.9747 6.08877 23.745 4.16211 21.3438C2.44702 19.2073 1.56289 16.2345 1.5332 12.509V12.491C1.56294 8.7646 2.44702 5.79263 4.16211 3.6562C6.08784 1.25503 8.95625 0.0251953 12.6854 0H12.6998C15.5591 0.0188965 17.9513 0.754443 19.8104 2.18418C21.5579 3.52837 22.7878 5.44424 23.4666 7.87959L21.3419 8.47202C20.1922 4.34766 17.2824 2.23911 12.6926 2.20581C9.66211 2.22739 7.3708 3.17993 5.88081 5.03643C4.4853 6.77495 3.76416 9.28594 3.73804 12.4991C3.76504 15.7132 4.48618 18.2242 5.88081 19.9619C7.37085 21.8183 9.66211 22.7708 12.6926 22.7924C15.4241 22.7726 17.232 22.1361 18.7355 20.6632C20.4515 18.9822 20.42 16.9206 19.8708 15.6665C19.5476 14.9272 18.9605 14.3115 18.1691 13.8451C17.9703 15.2514 17.5227 16.393 16.8313 17.2528C15.9093 18.4007 14.6021 19.0283 12.9473 19.1173C11.695 19.1848 10.4886 18.8887 9.55225 18.2828C8.44482 17.5661 7.79663 16.4695 7.72729 15.1947C7.65977 13.955 8.15137 12.8151 9.11108 11.985C10.0285 11.1918 11.3187 10.7264 12.8429 10.6409C13.9665 10.5778 15.0171 10.6274 15.9886 10.7894C15.8598 10.016 15.5988 9.40293 15.2098 8.95996C14.675 8.35044 13.8476 8.03897 12.752 8.03174H12.7213C11.8417 8.03174 10.647 8.273 9.88535 9.40561L8.05503 8.1749C9.07417 6.65967 10.7299 5.82598 12.7205 5.82598H12.7655C16.0939 5.84668 18.0756 7.88228 18.2728 11.4376C18.3861 11.4854 18.4969 11.5348 18.6067 11.5862C20.1598 12.3164 21.2951 13.422 21.8911 14.7833C22.7212 16.6811 22.7977 19.7737 20.2777 22.2405C18.3528 24.1257 16.0156 24.9766 12.6998 24.9991H12.6926L12.6935 25ZM13.7378 12.8214C13.4857 12.8214 13.23 12.8286 12.9689 12.8439C11.0558 12.952 9.86372 13.828 9.93125 15.0758C10.0024 16.3831 11.4447 16.9907 12.8303 16.9161C14.106 16.8476 15.7663 16.3515 16.0444 13.0509C15.3403 12.9006 14.5661 12.8214 13.7378 12.8214H13.7378Z" fill="#DF0031"/>
</g>
<defs>
<clipPath id="clip0_128_25">
<rect width="25" height="25" fill="white"/>
</clipPath>
</defs>
</svg>
