<svg width="304" height="296" viewBox="0 0 304 296" fill="none" xmlns="http://www.w3.org/2000/svg">
<g clip-path="url(#clip0_158_80)">
<path d="M45.8516 261.472V266.766H85.4868V261.472H45.8516Z" fill="#E0E0E0"/>
<path d="M51.2583 261.683C51.3921 261.683 51.5047 262.795 51.5047 264.168C51.5047 265.541 51.3921 266.646 51.2583 266.646C51.1246 266.646 51.0049 265.534 51.0049 264.168C51.0049 262.802 51.1175 261.683 51.2583 261.683Z" fill="#FAFAFA"/>
<path d="M50.3919 261.578C50.5327 261.578 50.6383 262.69 50.6383 264.056C50.6383 265.421 50.5327 266.541 50.3919 266.541C50.2511 266.541 50.1455 265.428 50.1455 264.056C50.1455 262.683 50.2511 261.578 50.3919 261.578Z" fill="#FAFAFA"/>
<path d="M82.4241 261.683C82.5649 261.683 82.6776 262.795 82.6776 264.168C82.6776 265.541 82.5649 266.646 82.4241 266.646C82.2833 266.646 82.1777 265.534 82.1777 264.168C82.1777 262.802 82.2904 261.683 82.4241 261.683Z" fill="#FAFAFA"/>
<path d="M81.565 261.578C81.6987 261.578 81.8114 262.69 81.8114 264.056C81.8114 265.421 81.6987 266.541 81.565 266.541C81.4312 266.541 81.3115 265.428 81.3115 264.056C81.3115 262.683 81.4242 261.578 81.565 261.578Z" fill="#FAFAFA"/>
<path d="M76.3836 264.274C76.3836 264.415 71.8428 264.52 66.246 264.52C60.6492 264.52 56.1084 264.415 56.1084 264.274C56.1084 264.133 60.6492 264.027 66.246 264.027C71.8428 264.027 76.3836 264.133 76.3836 264.274Z" fill="#FAFAFA"/>
<path d="M45.6826 285.309V295.898H85.3178V285.309H45.6826Z" fill="#E0E0E0"/>
<path d="M85.825 292.92C85.825 292.92 85.7616 292.969 85.6138 293.039C85.4659 293.11 85.2477 293.215 84.952 293.342C84.0905 293.707 83.1873 293.965 82.2627 294.109C80.7813 294.378 79.2528 294.161 77.905 293.49C77.0713 293.046 76.3603 292.402 75.8352 291.617C75.2326 290.723 74.9818 289.637 75.1312 288.569C75.2178 287.989 75.4612 287.444 75.8352 286.992C76.0355 286.745 76.2905 286.547 76.58 286.415C76.8695 286.284 77.1857 286.221 77.5037 286.232C77.831 286.258 78.1492 286.352 78.4387 286.507C78.7281 286.662 78.9826 286.875 79.1863 287.133C79.6198 287.644 79.8874 288.275 79.9536 288.942C80.0076 289.629 79.9136 290.319 79.678 290.966C79.4424 291.614 79.0707 292.203 78.5879 292.694C77.5848 293.755 76.2322 294.418 74.7792 294.56C73.2831 294.704 71.7736 294.516 70.3581 294.011C68.8453 293.538 67.5026 292.635 66.4931 291.413C65.9725 290.757 65.6588 289.96 65.592 289.125C65.5499 288.691 65.6037 288.253 65.7497 287.841C65.8957 287.43 66.1303 287.056 66.4368 286.746C66.7723 286.423 67.2115 286.231 67.6759 286.203C68.1348 286.191 68.5866 286.319 68.9712 286.57C69.7142 287.056 70.2372 287.814 70.4285 288.682C70.5942 289.528 70.5374 290.404 70.2634 291.222C69.9895 292.04 69.5078 292.773 68.8656 293.349C67.6073 294.411 66.0447 295.047 64.4023 295.165C62.8455 295.344 61.2685 295.188 59.777 294.708C58.3129 294.247 57.0635 293.275 56.257 291.969C55.8559 291.35 55.6073 290.644 55.5314 289.91C55.4555 289.175 55.5546 288.434 55.8205 287.745C55.9522 287.4 56.169 287.094 56.4509 286.855C56.7328 286.616 57.0705 286.453 57.4327 286.379C57.7809 286.317 58.1383 286.327 58.4824 286.41C58.8266 286.492 59.1499 286.645 59.432 286.858C59.9261 287.292 60.2798 287.863 60.4478 288.499C60.6158 289.135 60.5906 289.806 60.3754 290.427C59.99 291.537 59.2965 292.514 58.376 293.243C56.8513 294.535 54.9379 295.279 52.9411 295.355C51.7258 295.399 50.5149 295.186 49.387 294.731C48.2592 294.276 47.2394 293.59 46.3939 292.715C46.2246 292.541 46.0648 292.358 45.9152 292.166C45.8624 292.103 45.8153 292.034 45.7744 291.962C46.6113 292.886 47.6112 293.647 48.7242 294.208C50.0355 294.852 51.489 295.152 52.9482 295.081C54.8745 294.972 56.7108 294.229 58.1719 292.969C59.0294 292.274 59.6736 291.352 60.0304 290.308C60.2169 289.764 60.2382 289.176 60.0916 288.62C59.945 288.064 59.6372 287.564 59.2067 287.182C58.9702 287.006 58.7002 286.88 58.4133 286.812C58.1263 286.745 57.8286 286.736 57.5383 286.788C57.2439 286.849 56.9701 286.984 56.7433 287.182C56.5164 287.379 56.3441 287.631 56.2429 287.914C56.0114 288.536 55.9297 289.204 56.0043 289.863C56.0789 290.522 56.3078 291.154 56.6723 291.709C57.4282 292.915 58.5925 293.81 59.953 294.229C61.3801 294.682 62.8871 294.826 64.3741 294.651C65.9111 294.537 67.3736 293.944 68.5559 292.955C69.1358 292.433 69.5703 291.769 69.8171 291.029C70.0639 290.288 70.1144 289.497 69.9639 288.731C69.8051 287.986 69.3634 287.333 68.7319 286.907C68.447 286.697 68.0972 286.592 67.7435 286.613C67.3897 286.634 67.0543 286.778 66.7959 287.02C66.5399 287.279 66.3441 287.591 66.2224 287.934C66.1007 288.277 66.0562 288.643 66.0919 289.005C66.1512 289.745 66.4279 290.45 66.8874 291.033C67.8362 292.178 69.0949 293.027 70.513 293.476C71.8647 293.962 73.3063 294.147 74.737 294.018C76.0761 293.889 77.3248 293.284 78.257 292.314C78.7013 291.869 79.045 291.334 79.2649 290.745C79.4847 290.156 79.5755 289.527 79.5312 288.9C79.5075 288.33 79.2912 287.785 78.9179 287.354C78.5445 286.923 78.036 286.632 77.4755 286.527C77.2146 286.519 76.9552 286.57 76.7173 286.678C76.4793 286.785 76.2691 286.946 76.1027 287.147C75.7594 287.547 75.5328 288.034 75.448 288.555C75.304 289.54 75.5324 290.544 76.0887 291.371C76.5768 292.123 77.2415 292.744 78.0247 293.18C79.3254 293.848 80.8054 294.082 82.2487 293.849C83.1621 293.724 84.0591 293.5 84.9239 293.18C85.5152 293.032 85.8179 292.899 85.825 292.92Z" fill="#FAFAFA"/>
<path d="M49.2236 266.914V285.288H85.3177V266.914H49.2236Z" fill="#EBEBEB"/>
<path d="M55.2222 267.547C55.356 267.547 55.4686 271.525 55.4686 276.439C55.4686 281.353 55.356 285.33 55.2222 285.33C55.0884 285.33 54.9688 281.353 54.9688 276.439C54.9688 271.525 55.0814 267.547 55.2222 267.547Z" fill="#E0E0E0"/>
<path d="M57.9605 267.315C58.0942 267.315 58.2069 271.25 58.2069 276.094C58.2069 280.937 58.0942 284.873 57.9605 284.873C57.8267 284.873 57.707 280.945 57.707 276.094C57.707 271.243 57.8197 267.315 57.9605 267.315Z" fill="#E0E0E0"/>
<path d="M81.2417 266.752C81.3755 266.752 81.4881 270.891 81.4881 276.003C81.4881 281.114 81.3755 285.246 81.2417 285.246C81.108 285.246 80.9883 281.107 80.9883 276.003C80.9883 270.899 81.1009 266.752 81.2417 266.752Z" fill="#E0E0E0"/>
<path d="M78.0239 266.977C78.1577 266.977 78.2703 271.004 78.2703 275.981C78.2703 280.959 78.1577 284.986 78.0239 284.986C77.8902 284.986 77.7705 280.959 77.7705 275.981C77.7705 271.004 77.8831 266.977 78.0239 266.977Z" fill="#E0E0E0"/>
<path d="M272.321 226.807C276.066 224.871 280.466 224.625 284.627 225.307C286.858 225.681 289.182 226.342 290.702 228.025C292.223 229.707 292.504 232.65 290.766 234.086C289.724 234.945 288.28 235.079 286.929 235.058C283.676 235.023 280.072 234.452 277.474 236.41C275.989 237.522 275.003 239.38 273.25 239.93C271.497 240.479 269.561 239.444 268.646 237.881C267.8 236.251 267.613 234.358 268.125 232.594C268.332 231.372 268.819 230.214 269.546 229.21C270.274 228.206 271.223 227.384 272.321 226.807Z" fill="#EBEBEB"/>
<path d="M263.746 210.256C266.034 213.522 270.484 212.438 272.546 210.446C274.609 208.454 275.482 205.56 276.27 202.801C278.087 196.507 279.91 189.896 278.565 183.483C278.243 181.537 277.388 179.719 276.094 178.231C275.44 177.497 274.606 176.947 273.673 176.636C272.741 176.325 271.743 176.263 270.779 176.457C268.54 177.055 267.147 179.273 266.14 181.336C263.173 187.505 261.617 194.258 261.585 201.104C261.585 204.286 261.951 207.623 263.746 210.256Z" fill="#EBEBEB"/>
<path d="M257.488 214.945C259.973 211.995 260.445 207.693 259.34 204.004C258.234 200.315 255.735 197.162 252.856 194.599C249.468 191.583 245.525 189.256 241.247 187.749C239.592 187.083 237.813 186.78 236.03 186.862C235.139 186.914 234.274 187.182 233.511 187.645C232.748 188.108 232.109 188.75 231.651 189.516C230.426 191.846 231.602 194.669 232.869 196.979C235.103 201.038 237.649 204.917 240.487 208.58C242.775 211.53 245.415 214.438 248.871 215.768C252.328 217.099 255.975 216.937 257.819 214.522" fill="#EBEBEB"/>
<path d="M263.591 259.55C263.712 259.063 263.783 258.566 263.802 258.065C263.908 256.987 264.035 255.629 264.197 254.017C264.398 252.02 264.701 250.034 265.105 248.068C265.634 245.667 266.357 243.312 267.266 241.028C268.158 238.758 269.364 236.626 270.849 234.692C272.06 233.116 273.606 231.829 275.376 230.925C276.579 230.334 277.866 229.933 279.192 229.736C279.691 229.72 280.187 229.649 280.67 229.524C280.169 229.469 279.664 229.469 279.164 229.524C277.787 229.629 276.439 229.98 275.186 230.559C273.324 231.44 271.691 232.738 270.413 234.354C268.86 236.317 267.607 238.5 266.696 240.831C265.786 243.142 265.08 245.528 264.584 247.962C264.2 249.951 263.935 251.961 263.788 253.981C263.662 255.699 263.612 257.093 263.591 258.057C263.539 258.554 263.539 259.054 263.591 259.55Z" fill="#E0E0E0"/>
<path d="M263.874 256.431C263.916 256.199 263.93 255.963 263.916 255.727C263.916 255.213 263.916 254.559 263.916 253.756C263.916 252.052 263.916 249.574 264 246.519C264.155 240.408 264.704 233.847 265.697 224.554C266.661 215.839 267.95 205.687 269.315 199.09C269.604 197.591 269.9 196.239 270.181 195.057C270.463 193.874 270.667 192.853 270.885 192.029C271.104 191.206 271.223 190.621 271.343 190.114C271.406 189.884 271.449 189.648 271.47 189.41C271.362 189.615 271.282 189.833 271.23 190.058C271.075 190.551 270.885 191.178 270.653 191.945C270.421 192.712 270.139 193.775 269.843 194.958C269.548 196.141 269.21 197.485 268.893 198.985C267.202 206.786 265.93 214.673 265.084 222.611C264.071 231.904 263.613 240.366 263.571 246.491C263.536 249.553 263.571 252.031 263.676 253.742C263.726 254.545 263.768 255.199 263.796 255.713C263.792 255.955 263.818 256.196 263.874 256.431Z" fill="#E0E0E0"/>
<path d="M263.915 240.113C263.969 239.428 263.969 238.741 263.915 238.057C263.838 236.733 263.655 234.818 263.282 232.481C262.833 229.741 262.229 227.029 261.473 224.357C260.585 221.07 259.448 217.855 258.072 214.74C255.717 208.999 252.336 203.734 248.097 199.203C247.357 198.429 246.572 197.7 245.745 197.021C245.386 196.718 245.041 196.415 244.745 196.176L243.837 195.549C243.289 195.131 242.708 194.759 242.098 194.437C242 194.571 244.555 196.07 247.78 199.506C251.881 204.077 255.171 209.315 257.509 214.994C258.854 218.087 259.99 221.267 260.909 224.512C261.803 227.497 262.395 230.242 262.845 232.552C263.296 234.861 263.514 236.776 263.662 238.078C263.692 238.762 263.776 239.442 263.915 240.113Z" fill="#E0E0E0"/>
<path d="M247.048 266.421L248.688 288.822H277.461L279.101 266.421H247.048Z" fill="#EBEBEB"/>
<path d="M282.529 257.593H244.267V266.421H282.529V257.593Z" fill="#EBEBEB"/>
<path d="M244.267 287.963V290.413H246.069H281.902V287.963H244.267Z" fill="#E0E0E0"/>
<path d="M247.83 294.447L246.07 290.146H280.531L278.475 294.447H247.83Z" fill="#E0E0E0"/>
<path d="M278.566 273.743C278.531 273.816 278.486 273.885 278.432 273.947C278.312 274.102 278.172 274.285 278.003 274.517L276.32 276.664L276.25 276.763L276.179 276.657C275.123 275.2 273.715 273.257 272.061 270.962H272.272L268.217 276.706L268.09 276.882L267.95 276.713L263.162 270.976H263.437L263.176 271.307L258.896 276.713L258.748 276.897L258.622 276.706C257.157 274.644 255.806 272.708 254.559 270.969H254.799L249.8 276.664L249.716 276.763L249.646 276.65L248.083 274.024C247.914 273.736 247.787 273.503 247.681 273.32C247.629 273.243 247.587 273.161 247.555 273.074C247.62 273.139 247.676 273.213 247.724 273.292L248.167 273.996L249.807 276.58H249.653L254.581 270.814L254.7 270.673L254.813 270.828L258.91 276.545H258.629L262.923 271.145L263.183 270.807L263.324 270.638L263.465 270.807L268.259 276.537H267.992L272.089 270.821L272.209 270.652L272.321 270.821L276.355 276.58H276.207C276.947 275.693 277.524 274.996 277.953 274.468L278.418 273.926C278.503 273.792 278.559 273.736 278.566 273.743Z" fill="#F5F5F5"/>
<path d="M279.502 266.273C279.502 266.372 272.286 266.449 263.395 266.449C254.503 266.449 247.287 266.372 247.287 266.273C247.287 266.175 254.496 266.097 263.395 266.097C272.293 266.097 279.502 266.175 279.502 266.273Z" fill="#F5F5F5"/>
<path d="M115.428 32.9113C115.428 32.9113 115.365 32.9113 115.259 32.862L114.795 32.6789L113.021 31.9397L106.509 29.1237L85.1071 19.8028L84.3609 19.4719H84.5158L63.5436 28.4761L57.2076 31.1372L55.4758 31.8412C55.2784 31.9318 55.0735 32.0048 54.8633 32.0594C55.0502 31.948 55.2455 31.8515 55.4476 31.7708L57.1513 30.9964L63.4873 28.2156L84.4102 19.141H84.4876H84.565L85.3113 19.4649L106.671 28.8985L113.126 31.7919L114.872 32.6015L115.323 32.8197C115.361 32.846 115.397 32.8767 115.428 32.9113Z" fill="#E0E0E0"/>
<path d="M148.811 29.8419H11.3271V132.788H148.811V29.8419Z" fill="#E0E0E0"/>
<path d="M144.524 34.629H16.1357V128.557H144.524V34.629Z" fill="#FAFAFA"/>
<path d="M44.4922 75.6652C44.4922 75.6652 44.6259 91.4277 45.4285 96.2431L65.2039 95.3068C65.2039 95.3068 63.472 79.8188 64.1408 75.6652H44.4922Z" fill="#E0E0E0"/>
<path d="M54.2363 77.8898H54.5249C54.8002 77.8796 55.0758 77.8938 55.3486 77.9321C55.7819 77.9964 56.2038 78.122 56.6017 78.3052C57.1284 78.5661 57.5939 78.9355 57.9675 79.3893C58.4267 79.9412 58.7519 80.5917 58.9179 81.2901C59.0725 82.1079 59.002 82.9523 58.7137 83.733C58.5664 84.1576 58.3802 84.5676 58.1576 84.958C57.9213 85.3553 57.7097 85.7667 57.524 86.19C57.1297 87.0878 56.8597 88.0352 56.7214 89.006V89.0693H56.658H54.708H52.6593H52.5819V88.9989C52.4941 88.033 52.1675 87.104 51.6315 86.2956C51.3921 85.8873 51.1316 85.5141 50.9275 85.1269C50.6719 84.7625 50.4369 84.3841 50.2235 83.9935C49.8624 83.2456 49.7537 82.4008 49.9137 81.5858C50.0286 80.8823 50.2901 80.2107 50.6811 79.6146C51.0149 79.1356 51.453 78.7385 51.9624 78.453C52.5912 78.1195 53.2807 77.9159 53.9899 77.8546H54.2715C54.2715 77.8546 54.2715 77.8546 54.2011 77.8546H53.9899C53.7212 77.8863 53.4553 77.9381 53.1944 78.0095C52.7781 78.1182 52.378 78.2815 52.0046 78.4953C51.5065 78.7768 51.08 79.1695 50.7585 79.6428C50.3949 80.2337 50.1554 80.8924 50.0545 81.5788C49.9009 82.3685 50.0097 83.1868 50.3643 83.909C50.5798 84.2938 50.8148 84.6674 51.0683 85.0284C51.3147 85.4015 51.5752 85.7887 51.8145 86.197C52.3702 87.0239 52.7069 87.9783 52.7931 88.9708L52.7156 88.8933H54.7643H56.7214L56.644 88.9638C56.7847 87.9805 57.0595 87.0212 57.4606 86.1125C57.6538 85.6858 57.87 85.2698 58.1083 84.8665C58.3269 84.4849 58.5107 84.0843 58.6574 83.6697C58.9424 82.9129 59.0178 82.0932 58.8756 81.2972C58.7151 80.6156 58.4049 79.9783 57.9675 79.4316C57.6043 78.9833 57.151 78.6163 56.6369 78.3545C56.2473 78.1661 55.8323 78.0356 55.4049 77.9673C55.1369 77.9262 54.8664 77.9027 54.5953 77.8969H54.3771C54.2644 77.8969 54.2363 77.8969 54.2363 77.8898Z" fill="white"/>
<path d="M55.2508 88.8793C55.2493 88.8582 55.2493 88.8371 55.2508 88.816V88.6329C55.2508 88.471 55.1874 88.2316 55.1452 87.9289C55.0536 87.3094 54.9199 86.4224 54.8354 85.3171C54.8354 85.0425 54.7932 84.7539 54.7861 84.4512C54.7684 84.1346 54.7684 83.8173 54.7861 83.5008C54.7937 83.1611 54.8679 82.8263 55.0043 82.5152C55.1565 82.1791 55.4272 81.9109 55.7647 81.7619C55.9444 81.6864 56.1424 81.6655 56.334 81.7018C56.5255 81.7381 56.7021 81.83 56.8418 81.966C56.9161 82.0349 56.9747 82.1189 57.0136 82.2125C57.0525 82.306 57.0707 82.4069 57.0671 82.5081C57.063 82.712 56.994 82.9094 56.87 83.0713C56.7427 83.2359 56.5787 83.3684 56.3912 83.4585C56.2052 83.546 56.0089 83.6099 55.8069 83.6486C54.9822 83.8173 54.1349 83.8458 53.3007 83.7331C53.0943 83.705 52.8929 83.6481 52.7023 83.5641C52.5163 83.4805 52.3489 83.3609 52.2095 83.2121C52.0666 83.0632 51.9669 82.8783 51.9208 82.6771C51.8765 82.48 51.9014 82.2737 51.9912 82.0928C52.0728 81.9104 52.2216 81.7667 52.4066 81.6915C52.4944 81.6537 52.5891 81.6342 52.6847 81.6342C52.7803 81.6342 52.8749 81.6537 52.9628 81.6915C53.1327 81.7686 53.2787 81.8902 53.3852 82.0435C53.4843 82.1939 53.5558 82.3608 53.5963 82.5363C53.656 82.8711 53.689 83.21 53.6949 83.55L53.7935 85.3593C53.8428 86.4646 53.892 87.3587 53.9202 87.9852C53.9202 88.288 53.9202 88.5273 53.9202 88.6892V88.9356C53.9217 88.9145 53.9217 88.8934 53.9202 88.8723C53.9202 88.83 53.9202 88.7667 53.9202 88.6892C53.9202 88.6118 53.9202 88.2809 53.878 87.9852C53.878 87.3587 53.7864 86.4646 53.7231 85.3593C53.7231 84.8102 53.6597 84.2048 53.6245 83.55C53.62 83.2143 53.5846 82.8797 53.5189 82.5504C53.4845 82.3818 53.4175 82.2216 53.3218 82.0787C53.2173 81.9353 53.0796 81.8193 52.9205 81.7408C52.8393 81.7061 52.7519 81.6882 52.6636 81.6882C52.5752 81.6882 52.4878 81.7061 52.4066 81.7408C52.2353 81.8121 52.097 81.9453 52.0194 82.1139C51.9383 82.2849 51.9161 82.478 51.956 82.663C52.0035 82.8503 52.098 83.0223 52.2306 83.1628C52.5163 83.4447 52.888 83.6231 53.2866 83.6697C53.6996 83.7239 54.1165 83.7427 54.5327 83.726C54.949 83.7151 55.3636 83.668 55.7717 83.5852C55.9694 83.5475 56.1612 83.4836 56.3419 83.3952C56.5203 83.3095 56.6768 83.1843 56.7996 83.0291C56.9158 82.8769 56.9822 82.6925 56.9896 82.5011C56.9892 82.4079 56.9704 82.3158 56.9341 82.23C56.8979 82.1442 56.845 82.0664 56.7784 82.0012C56.646 81.8749 56.4801 81.7892 56.3004 81.7543C56.1207 81.7193 55.9348 81.7366 55.7647 81.8041C55.4521 81.9452 55.2018 82.1955 55.0607 82.5081C54.9268 82.8151 54.8527 83.1449 54.8424 83.4796C54.8424 83.8035 54.8424 84.1132 54.8424 84.416C54.8424 84.7187 54.8424 85.0073 54.8917 85.2889C54.9762 86.3942 55.1029 87.2812 55.1803 87.8937C55.2226 88.2035 55.2578 88.4358 55.2789 88.5977V88.7808C55.2734 88.8146 55.264 88.8477 55.2508 88.8793Z" fill="white"/>
<path d="M52.624 88.9849C52.6561 89.2018 52.6749 89.4204 52.6803 89.6396C52.6803 90.1089 52.7085 90.6792 52.7648 91.3503V91.3081L54.1024 92.8639H54.032L55.5738 92.7794H55.5104L56.2707 91.8501L56.6579 91.3785V91.4418C56.6579 90.5337 56.6157 89.6818 56.6016 88.9074L56.6861 88.9849H53.8067H52.624C52.7151 88.9719 52.8075 88.9719 52.8986 88.9849L53.7082 88.9426L56.6368 88.83H56.7213V88.9145C56.7213 89.6959 56.7706 90.5477 56.7987 91.4489V91.4559C56.672 91.6108 56.5453 91.7727 56.4115 91.9276L55.6442 92.8639H55.6019L54.0602 92.9413H54.032L52.7226 91.3855C52.7226 90.6815 52.7226 90.1183 52.7226 89.6255C52.6771 89.4141 52.6442 89.2002 52.624 88.9849Z" fill="white"/>
<path d="M56.6226 91.2095C56.6226 91.2095 56.5663 91.2095 56.4748 91.1461C56.3438 91.0875 56.2099 91.0358 56.0735 90.9912C55.6215 90.8334 55.1439 90.7618 54.6655 90.78C54.1819 90.7906 53.7045 90.8909 53.2575 91.0757L52.8703 91.2588L52.7295 91.3292C52.7658 91.2912 52.8087 91.2601 52.8562 91.2376C52.981 91.1618 53.1103 91.0936 53.2434 91.0335C53.6874 90.8364 54.1658 90.7287 54.6514 90.7167C55.1316 90.6989 55.6104 90.7779 56.0594 90.949C56.1951 90.9975 56.3269 91.0563 56.4537 91.125L56.6226 91.2095Z" fill="white"/>
<path d="M56.6156 90.5971L56.4748 90.5337L56.0735 90.3718C55.6205 90.2182 55.1437 90.1466 54.6655 90.1606C54.1827 90.1779 53.7065 90.2779 53.2575 90.4563C53.0885 90.5267 52.9618 90.59 52.8703 90.6393L52.7295 90.7097L52.8562 90.6182C52.9799 90.5423 53.1093 90.4764 53.2434 90.4211C53.6868 90.2214 54.1653 90.1113 54.6514 90.0972C55.1311 90.0864 55.6086 90.1652 56.0594 90.3295C56.2284 90.3999 56.3621 90.4633 56.4537 90.5126C56.5452 90.5619 56.6226 90.59 56.6156 90.5971Z" fill="white"/>
<path d="M56.5804 90.0056L56.4396 89.9493C56.3411 89.9071 56.2073 89.8437 56.0383 89.7874C55.5852 89.6341 55.1085 89.5626 54.6303 89.5762C54.1466 89.5858 53.669 89.6861 53.2223 89.8719C53.0534 89.9423 52.9267 90.0056 52.8351 90.0549L52.6943 90.1253L52.8211 90.0338C52.945 89.9565 53.0744 89.8882 53.2083 89.8296C53.6534 89.6361 54.1311 89.5286 54.6163 89.5128C55.0959 89.5027 55.5733 89.5815 56.0243 89.7452C56.1598 89.797 56.2915 89.8581 56.4185 89.9282C56.4771 89.9431 56.5321 89.9694 56.5804 90.0056Z" fill="white"/>
<path d="M22.4717 49.9199C22.4717 49.9199 22.6054 65.6895 23.408 70.4978L43.1834 69.5615C43.1834 69.5615 41.4445 54.0735 42.1133 49.9199H22.4717Z" fill="#EBEBEB"/>
<path d="M39.1349 56.5093C36.9399 56.8342 34.728 57.0317 32.5102 57.1007C30.2989 57.3046 28.0771 57.3727 25.8574 57.3048C28.0529 56.9841 30.2645 56.7867 32.4821 56.7135C34.6939 56.5181 36.9152 56.4499 39.1349 56.5093Z" fill="white"/>
<path d="M39.1356 59.8464C36.9412 60.1769 34.7291 60.3767 32.511 60.4448C30.3015 60.6402 28.0826 60.7083 25.8652 60.6489C28.0601 60.3235 30.2721 60.1261 32.4899 60.0576C34.6991 59.858 36.9182 59.7874 39.1356 59.8464Z" fill="white"/>
<path d="M35.7778 63.127C34.5374 63.3945 33.2731 63.536 32.0043 63.5494C30.7451 63.6775 29.4761 63.6775 28.2168 63.5494C29.4548 63.2821 30.7167 63.1406 31.9832 63.127C33.2448 62.9987 34.5162 62.9987 35.7778 63.127Z" fill="white"/>
<path d="M21.5352 96.2783C21.5352 96.2783 21.6689 112.041 22.4715 116.856L42.2468 115.92C42.2468 115.92 40.508 100.432 41.1768 96.2783H21.5352Z" fill="#EBEBEB"/>
<path d="M38.1991 102.896C36.0046 103.225 33.7925 103.425 31.5745 103.494C29.365 103.69 27.146 103.758 24.9287 103.698C27.1212 103.373 29.3308 103.175 31.5463 103.107C33.7579 102.907 35.9793 102.837 38.1991 102.896Z" fill="white"/>
<path d="M38.1991 106.24C36.0043 106.566 33.7923 106.763 31.5745 106.831C29.365 107.027 27.146 107.095 24.9287 107.035C27.1236 106.71 29.3355 106.513 31.5533 106.444C33.7629 106.249 35.9818 106.181 38.1991 106.24Z" fill="white"/>
<path d="M34.8412 109.521C33.6033 109.787 32.3412 109.927 31.0748 109.936C29.8144 110.076 28.5431 110.088 27.2803 109.971C28.5183 109.704 29.7802 109.562 31.0467 109.549C32.3072 109.409 33.5788 109.399 34.8412 109.521Z" fill="white"/>
<path d="M75.5811 54.0664L77.5382 99.5448L134.309 100.228L131.76 54.6648L75.5811 54.0664Z" fill="#EBEBEB"/>
<path d="M131.317 53.7426H74.9199V96.3276H131.317V53.7426Z" fill="#F5F5F5"/>
<path d="M131.317 96.3276C131.317 96.3276 131.317 96.0531 131.317 95.5321C131.317 95.0111 131.317 94.2508 131.317 93.2652C131.317 91.2659 131.317 88.3372 131.275 84.6483C131.275 77.2211 131.226 66.5977 131.191 53.7427L131.353 53.8976H74.9622L75.1593 53.7075C75.1593 69.0195 75.1593 83.5219 75.1593 96.2924L74.9833 96.1164L115.66 96.2009L127.234 96.2502H130.311H131.106H131.381H130.346L127.248 96.3839L115.724 96.4332L74.8918 96.5177H74.7158V96.3487C74.7158 83.5782 74.7158 69.0758 74.7158 53.7638V53.5667H74.9129H131.303H131.472V53.7286C131.472 66.6188 131.409 77.2844 131.388 84.7046C131.388 88.4006 131.388 91.294 131.346 93.2864C131.346 94.2579 131.346 95.0041 131.346 95.5251C131.331 96.0742 131.317 96.3276 131.317 96.3276Z" fill="#E0E0E0"/>
<path d="M104.586 62.7609H81.7275V91.5333H104.586V62.7609Z" fill="#F5F5F5"/>
<path d="M104.586 91.5334C104.578 91.4845 104.578 91.4346 104.586 91.3856V90.9773C104.586 90.5971 104.586 90.0761 104.586 89.4073C104.586 87.9993 104.586 86.0211 104.544 83.5008C104.544 78.439 104.488 71.2723 104.452 62.7609L104.628 62.9369H81.7696C81.7203 62.9369 82.1357 62.5709 81.9597 62.7469V70.5683C81.9597 73.1238 81.9597 75.616 81.9597 78.0307C81.9597 82.8672 81.9597 87.3939 81.9597 91.5053L81.8048 91.3433L98.3558 91.4278L102.995 91.4701H104.227H104.664C104.53 91.4798 104.396 91.4798 104.262 91.4701H103.066L98.4544 91.5123L81.8048 91.5968H81.6429V91.4349C81.6429 87.3235 81.6429 82.7968 81.6429 77.9603C81.6429 75.5456 81.6429 73.0323 81.6429 70.4979V62.775C81.4669 62.944 81.8752 62.5286 81.84 62.5779H104.699H104.875V62.7539C104.84 71.3075 104.804 78.5165 104.783 83.6064L104.741 89.4707C104.741 90.1278 104.741 90.6417 104.741 91.0125C104.741 91.1673 104.741 91.2941 104.741 91.3997C104.695 91.4502 104.643 91.4951 104.586 91.5334Z" fill="#E0E0E0"/>
<path d="M126.41 56.1785H82.5996V60.325H126.41V56.1785Z" fill="#F5F5F5"/>
<path d="M126.41 60.3251C126.41 60.3251 126.41 60.2195 126.41 60.0435C126.41 59.8675 126.41 59.5718 126.41 59.2339C126.41 58.5299 126.41 57.495 126.361 56.1786L126.438 56.256C119.053 56.3264 102.214 56.3757 82.6283 56.3757C83.0155 55.9814 82.7339 56.263 82.8255 56.1786V60.311L82.6354 60.1139L113.689 60.1984L123.01 60.2547H125.544H126.213C126.29 60.249 126.368 60.249 126.445 60.2547H126.241H125.601H123.108L113.83 60.3181L82.6354 60.3955H82.4453V60.2054C82.4453 59.5437 82.4453 58.8608 82.4453 58.1709V56.0589L82.6424 55.8618C102.228 55.8618 119.067 55.911 126.452 55.9814H126.537V56.0589C126.537 57.3894 126.537 58.4314 126.495 59.1635C126.495 59.4944 126.495 59.7478 126.495 59.945C126.489 60.0756 126.46 60.2043 126.41 60.3251Z" fill="#E0E0E0"/>
<path d="M126.41 62.7609H107.381V80.1004H126.41V62.7609Z" fill="#F5F5F5"/>
<path d="M126.41 80.1004C126.41 80.1004 126.41 79.9807 126.41 79.7695V78.8261C126.41 77.9813 126.41 76.7916 126.368 75.3061C126.368 72.2508 126.319 67.9493 126.283 62.7749L126.445 62.9439H107.437L107.627 62.7538V67.4072C107.627 68.9279 107.627 70.4204 107.627 71.8777C107.627 74.7852 107.627 77.5097 107.627 80.0863L107.451 79.9173L121.179 80.0018L125.073 80.0511H126.115C126.236 80.0408 126.359 80.0408 126.481 80.0511C126.371 80.0612 126.26 80.0612 126.15 80.0511H125.143L121.292 80.0933L107.451 80.1778H107.283V80.0018C107.283 77.4604 107.283 74.7007 107.283 71.7932C107.283 70.3359 107.283 68.8434 107.283 67.3228V62.6693C107.107 62.8383 107.515 62.43 107.48 62.4722H126.488H126.657V62.6341C126.621 67.8508 126.593 72.1945 126.572 75.3061C126.572 76.7845 126.537 77.9602 126.53 78.8261C126.53 79.1969 126.53 79.4996 126.53 79.7343C126.507 79.8612 126.467 79.9844 126.41 80.1004Z" fill="#E0E0E0"/>
<path d="M126.41 82.8179H107.381V91.5334H126.41V82.8179Z" fill="#F5F5F5"/>
<path d="M126.41 91.5333C126.41 91.5333 126.41 91.3081 126.41 90.8997L126.375 89.1538C126.375 87.612 126.333 85.4648 126.297 82.8178L126.438 82.9586L107.43 83.0149C107.254 83.1909 107.663 82.7756 107.62 82.8249V87.3093C107.62 88.7666 107.62 90.1817 107.62 91.5333L107.43 91.3503L121.039 91.4348L125.009 91.4911H126.079H126.459C126.347 91.5014 126.234 91.5014 126.121 91.4911H125.087L121.165 91.5474L107.43 91.6319H107.247V91.4489C107.247 90.0972 107.247 88.6821 107.247 87.2249V82.7404C107.205 82.7404 107.613 82.3672 107.444 82.5432L126.452 82.5925H126.544V82.7333C126.544 85.4156 126.488 87.598 126.473 89.1538C126.473 89.8578 126.473 90.4421 126.473 90.8716C126.474 91.0937 126.453 91.3153 126.41 91.5333Z" fill="#E0E0E0"/>
<path d="M104.016 62.8102C96.9341 72.5887 88.7959 81.7548 81.7207 91.5334L104.016 62.8102Z" fill="white"/>
<path d="M81.7275 91.5333C81.7275 91.5333 81.7768 91.4136 81.9106 91.2095L82.509 90.3365C83.0299 89.5762 83.8114 88.4991 84.797 87.1826C86.7611 84.5355 89.5701 80.9592 92.724 77.052C95.8779 73.1448 98.7151 69.5967 100.729 66.9989L103.115 63.9224L103.77 63.0847C103.925 62.9016 104.009 62.8031 104.023 62.8101C103.972 62.9248 103.908 63.0335 103.833 63.1339L103.235 64.0069C102.714 64.7672 101.932 65.8443 100.947 67.1679C98.9826 69.8079 96.1736 73.3842 93.0197 77.2914C89.8658 81.1986 87.0357 84.7467 85.0152 87.3445L82.6287 90.428L81.9739 91.2587C81.9028 91.3595 81.8201 91.4517 81.7275 91.5333Z" fill="#E0E0E0"/>
<path d="M104.586 91.5334C104.502 91.5967 99.3135 85.1974 93.0057 77.2703C86.6978 69.3433 81.6431 62.8313 81.7417 62.7609C81.8402 62.6905 87.0076 69.0969 93.3224 77.031C99.6373 84.965 104.671 91.4559 104.586 91.5334Z" fill="#E0E0E0"/>
<path d="M77.5384 62.8242C77.5384 63.5315 77.3286 64.223 76.9357 64.8111C76.5427 65.3992 75.9841 65.8576 75.3307 66.1283C74.6772 66.399 73.9581 66.4698 73.2644 66.3318C72.5706 66.1938 71.9334 65.8532 71.4332 65.353C70.9331 64.8529 70.5925 64.2156 70.4545 63.5219C70.3165 62.8281 70.3873 62.1091 70.658 61.4556C70.9287 60.8021 71.387 60.2435 71.9752 59.8506C72.5633 59.4576 73.2547 59.2479 73.9621 59.2479C74.91 59.2497 75.8186 59.6271 76.4889 60.2974C77.1591 60.9677 77.5365 61.8763 77.5384 62.8242Z" fill="#E0E0E0"/>
<path d="M136.033 54.1438C136.033 54.8512 135.824 55.5426 135.431 56.1307C135.038 56.7189 134.479 57.1772 133.826 57.4479C133.172 57.7186 132.453 57.7894 131.759 57.6514C131.066 57.5134 130.428 57.1728 129.928 56.6727C129.428 56.1725 129.088 55.5353 128.95 54.8415C128.812 54.1478 128.882 53.4287 129.153 52.7752C129.424 52.1217 129.882 51.5632 130.47 51.1702C131.058 50.7773 131.75 50.5675 132.457 50.5675C133.405 50.5694 134.314 50.9468 134.984 51.6171C135.654 52.2873 136.032 53.1959 136.033 54.1438Z" fill="#E0E0E0"/>
<path d="M275.933 79.0514H234.721V138.793H275.933V79.0514Z" fill="#E0E0E0"/>
<path d="M273.87 79.0514H232.658V138.793H273.87V79.0514Z" fill="#F5F5F5"/>
<path d="M268.752 85.5212H237.776V132.323H268.752V85.5212Z" fill="white"/>
<path d="M268.752 132.323C268.752 132.323 268.752 132.239 268.752 132.091C268.752 131.943 268.752 131.718 268.752 131.429C268.752 130.838 268.752 129.979 268.752 128.859C268.752 126.621 268.752 123.347 268.752 119.222C268.752 110.971 268.752 99.2844 268.703 85.5212L268.808 85.6268H237.776L237.889 85.5142C237.889 103.17 237.889 119.447 237.889 132.316L237.797 132.225L260.325 132.274H266.555H268.189H268.759H268.21H266.591H260.381L237.783 132.316H237.691V132.232C237.691 119.362 237.691 103.086 237.691 85.4297V85.3171H237.776H268.752H268.85V85.4156C268.85 99.207 268.815 110.914 268.801 119.208C268.801 123.326 268.801 126.586 268.801 128.824C268.801 129.93 268.801 130.781 268.801 131.366C268.801 131.654 268.801 131.866 268.801 132.02L268.752 132.323Z" fill="#E0E0E0"/>
<path d="M273.983 79.0514C273.784 79.4305 273.549 79.789 273.279 80.1215C272.8 80.7621 272.118 81.628 271.343 82.5714C270.569 83.5148 269.844 84.3455 269.309 84.9439C269.035 85.279 268.731 85.5877 268.4 85.8661C268.635 85.5029 268.899 85.1592 269.189 84.8383L271.174 82.4306L273.152 80.0229C273.405 79.6792 273.683 79.3545 273.983 79.0514Z" fill="#E0E0E0"/>
<path d="M268.906 132.168C270.444 134.619 272.255 136.886 274.306 138.927L268.906 132.168Z" fill="white"/>
<path d="M274.306 138.927C273.963 138.676 273.649 138.388 273.37 138.068C272.65 137.339 271.968 136.573 271.328 135.773C270.688 134.973 270.089 134.141 269.533 133.281C269.285 132.933 269.075 132.56 268.906 132.168C269.183 132.49 269.437 132.832 269.667 133.189C270.117 133.83 270.758 134.696 271.504 135.632C272.25 136.568 272.961 137.378 273.482 137.962C273.782 138.262 274.057 138.584 274.306 138.927Z" fill="#E0E0E0"/>
<path d="M232.65 138.744L238.05 132.084L232.65 138.744Z" fill="white"/>
<path d="M238.05 132.084C238.092 132.084 236.924 133.647 235.438 135.484C234.558 136.62 233.618 137.708 232.622 138.744C234.304 136.431 236.106 134.208 238.022 132.084H238.05Z" fill="#E0E0E0"/>
<path d="M232.658 79.0514C233.583 80.0511 234.457 81.0967 235.277 82.1842C236.151 83.2295 236.967 84.3224 237.72 85.4578C236.792 84.4534 235.918 83.4006 235.101 82.3039C234.225 81.2676 233.409 80.1816 232.658 79.0514Z" fill="#E0E0E0"/>
<path d="M259.1 95.0252H248.73V124.473H259.1V95.0252Z" fill="#E0E0E0"/>
<path d="M266.435 15.5731L260.535 15.605L260.694 44.9614L266.593 44.9294L266.435 15.5731Z" fill="#E0E0E0"/>
<path d="M224.702 15.6511L209.426 15.7338L209.513 31.9396L224.79 31.857L224.702 15.6511Z" fill="#EBEBEB"/>
<path d="M239.902 15.5759L224.625 15.6586L224.713 31.8644L239.989 31.7817L239.902 15.5759Z" fill="#F5F5F5"/>
<path d="M209.447 20.2252C219.599 20.3096 229.779 20.2252 239.931 20.0844C239.974 20.0844 240.015 20.0673 240.045 20.0369C240.075 20.0066 240.093 19.9654 240.093 19.9224C240.093 19.8795 240.075 19.8383 240.045 19.808C240.015 19.7776 239.974 19.7605 239.931 19.7605C229.77 19.7042 219.609 19.7652 209.447 19.9436C209.41 19.9436 209.374 19.9584 209.348 19.9848C209.321 20.0112 209.307 20.047 209.307 20.0844C209.307 20.1217 209.321 20.1575 209.348 20.1839C209.374 20.2103 209.41 20.2252 209.447 20.2252Z" fill="#E0E0E0"/>
<path d="M227.655 31.5947L199.896 31.7449L199.968 44.9518L227.726 44.8016L227.655 31.5947Z" fill="#EBEBEB"/>
<path d="M255.285 31.4452L227.526 31.5953L227.598 44.8022L255.356 44.652L255.285 31.4452Z" fill="#F5F5F5"/>
<path d="M199.915 35.4246C218.36 35.6358 236.861 35.4246 255.299 35.15C255.342 35.15 255.383 35.133 255.413 35.1026C255.444 35.0722 255.461 35.0311 255.461 34.9881C255.461 34.9452 255.444 34.904 255.413 34.8736C255.383 34.8433 255.342 34.8262 255.299 34.8262C236.854 34.7276 218.353 34.7417 199.915 35.143C199.878 35.143 199.842 35.1578 199.816 35.1842C199.789 35.2106 199.774 35.2465 199.774 35.2838C199.774 35.3211 199.789 35.357 199.816 35.3834C199.842 35.4098 199.878 35.4246 199.915 35.4246Z" fill="#E0E0E0"/>
<path d="M297.081 44.9567H189.538V49.6876H297.081V44.9567Z" fill="#E0E0E0"/>
<path d="M211.508 47.2306H207.144V63.3734H211.508V47.2306Z" fill="#E0E0E0"/>
<path d="M276.679 47.2306H272.314V63.3734H276.679V47.2306Z" fill="#E0E0E0"/>
<path d="M272.19 4.62988L266.291 4.6618L266.509 45.0356L272.409 45.0037L272.19 4.62988Z" fill="#EBEBEB"/>
<path d="M281.411 12.148L272.245 12.1976L272.422 44.9191L281.588 44.8695L281.411 12.148Z" fill="#F5F5F5"/>
<path d="M281.347 18.4582C278.3 18.6734 275.242 18.6734 272.195 18.4582C275.243 18.2523 278.3 18.2523 281.347 18.4582Z" fill="#E0E0E0"/>
<path d="M281.347 17.0853C278.3 17.3005 275.242 17.3005 272.195 17.0853C275.243 16.8794 278.3 16.8794 281.347 17.0853Z" fill="#E0E0E0"/>
<path d="M281.347 39.9513C278.3 40.1665 275.242 40.1665 272.195 39.9513C275.243 39.7455 278.3 39.7455 281.347 39.9513Z" fill="#E0E0E0"/>
<path d="M281.347 38.5785C278.3 38.7937 275.242 38.7937 272.195 38.5785C275.243 38.3726 278.3 38.3726 281.347 38.5785Z" fill="#E0E0E0"/>
<path d="M276.911 35.5794C276.819 35.5794 276.749 32.2777 276.749 28.2086C276.749 24.1395 276.819 20.8377 276.911 20.8377C277.002 20.8377 277.066 24.1395 277.066 28.2086C277.066 32.2777 276.995 35.5794 276.911 35.5794Z" fill="#E0E0E0"/>
<path d="M291.421 20.19H281.445V44.8863H291.421V20.19Z" fill="#EBEBEB"/>
<path d="M286.718 38.4869C286.421 38.5042 286.124 38.4586 285.846 38.353C285.568 38.2474 285.315 38.0842 285.104 37.8742C284.894 37.6642 284.73 37.412 284.623 37.1342C284.517 36.8564 284.47 36.5593 284.487 36.2622C284.47 35.9385 284.536 35.6159 284.678 35.3243C284.819 35.0327 285.032 34.7814 285.296 34.5938L285.521 34.9106C285.31 35.065 285.14 35.269 285.025 35.5047C284.911 35.7404 284.857 36.0005 284.867 36.2622C284.867 36.7533 285.062 37.2242 285.409 37.5715C285.756 37.9187 286.227 38.1138 286.718 38.1138C287.209 38.1138 287.68 37.9187 288.028 37.5715C288.375 37.2242 288.57 36.7533 288.57 36.2622C288.58 35.9997 288.525 35.7387 288.41 35.5028C288.294 35.2668 288.122 35.0633 287.908 34.9106L288.14 34.5938C288.401 34.784 288.611 35.036 288.751 35.3271C288.891 35.6182 288.957 35.9395 288.943 36.2622C288.959 36.5587 288.913 36.8552 288.807 37.1325C288.701 37.4097 288.537 37.6615 288.328 37.8715C288.118 38.0814 287.866 38.2447 287.588 38.3507C287.311 38.4568 287.015 38.5032 286.718 38.4869Z" fill="#FAFAFA"/>
<path d="M288.38 33.9814L288.049 33.7913C288.395 33.336 288.581 32.7791 288.577 32.2073C288.577 31.285 288.246 30.9119 287.753 30.9119C286.472 30.9119 287.415 33.8265 285.691 33.8265C285.029 33.8265 284.487 33.2703 284.487 32.158C284.478 31.6244 284.627 31.1002 284.916 30.6514L285.254 30.8486C284.989 31.2356 284.851 31.6959 284.86 32.165C284.86 33.0239 285.212 33.4041 285.683 33.4041C287 33.4041 286.071 30.4895 287.746 30.4895C288.45 30.4895 288.943 31.109 288.943 32.2284C288.964 32.8604 288.765 33.4801 288.38 33.9814Z" fill="#FAFAFA"/>
<path d="M288.38 29.9615L288.049 29.7714C288.395 29.3161 288.581 28.7592 288.577 28.1874C288.577 27.2652 288.246 26.892 287.753 26.892C286.472 26.892 287.415 29.7996 285.691 29.7996C285.029 29.7996 284.487 29.2504 284.487 28.1381C284.478 27.6046 284.627 27.0804 284.916 26.6316L285.254 26.8216C284.989 27.2117 284.852 27.6739 284.86 28.1452C284.86 29.004 285.212 29.3842 285.683 29.3842C287 29.3842 286.071 26.4696 287.746 26.4696C288.45 26.4696 288.943 27.0821 288.943 28.2015C288.965 28.8358 288.766 29.4581 288.38 29.9615Z" fill="#FAFAFA"/>
<path d="M269.153 13.2345C270.09 13.2345 270.849 12.4749 270.849 11.5378C270.849 10.6008 270.09 9.84119 269.153 9.84119C268.216 9.84119 267.456 10.6008 267.456 11.5378C267.456 12.4749 268.216 13.2345 269.153 13.2345Z" fill="#E0E0E0"/>
<path d="M269.674 16.1983H268.625V40.2188H269.674V16.1983Z" fill="#E0E0E0"/>
<path d="M309.451 295.616C309.451 295.715 241.451 295.799 157.591 295.799C73.7302 295.799 5.7168 295.729 5.7168 295.616C5.7168 295.503 73.7021 295.433 157.591 295.433C241.479 295.433 309.451 295.532 309.451 295.616Z" fill="#263238"/>
<path d="M87.9507 53.6089C76.6515 71.3778 77.3907 96.0178 89.7388 113.076C97.9686 124.452 110.31 132.084 120.109 142.123C129.909 152.162 137.357 166.981 132.183 180.033C126.917 193.318 111.492 198.717 99.9468 207.137C87.2082 216.415 78.5604 230.268 75.8194 245.787C73.0785 261.306 76.4576 277.284 85.2473 290.364H205.223C205.223 290.364 226.301 250.201 199.204 219.584C172.107 188.967 157.555 188.474 158.555 168.396C159.554 148.318 173.606 141.806 181.639 134.273C189.672 126.74 228.807 109.19 205.723 53.6018L87.9507 53.6089Z" fill="#FAFAFA"/>
<path d="M87.9502 53.6089H90.013H96.0955H119.511L205.722 53.5456H205.814V53.63C207.581 57.839 209.086 62.1534 210.32 66.5484C211.615 71.15 212.468 75.8647 212.868 80.6284C213.283 85.608 213.028 90.6207 212.108 95.5321C211.097 100.623 209.267 105.516 206.687 110.02C205.35 112.318 203.839 114.509 202.167 116.575C200.461 118.668 198.614 120.644 196.641 122.488C194.642 124.366 192.549 126.14 190.368 127.803C188.186 129.493 185.905 131.084 183.68 132.774C182.568 133.611 181.568 134.555 180.484 135.498C179.4 136.442 178.323 137.322 177.21 138.209C174.993 139.983 172.754 141.729 170.642 143.693C166.234 147.513 162.847 152.372 160.786 157.829C159.796 160.628 159.171 163.543 158.928 166.502C158.864 167.206 158.766 167.981 158.737 168.727C158.709 169.473 158.681 170.22 158.737 170.966C158.753 172.464 158.904 173.958 159.188 175.429C159.746 178.41 160.963 181.229 162.75 183.68C164.589 186.13 166.672 188.388 168.967 190.417C173.521 194.578 178.358 198.556 182.983 202.85C187.608 207.144 192.135 211.622 196.5 216.36C198.727 218.705 200.81 221.183 202.737 223.78C204.677 226.409 206.362 229.217 207.771 232.164C210.62 238.139 212.371 244.578 212.938 251.172C213.513 257.859 213.119 264.592 211.77 271.166C211.114 274.487 210.253 277.765 209.193 280.98C208.151 284.222 206.881 287.386 205.392 290.449L205.342 290.547H85.1483L85.099 290.47C79.4728 281.999 76.0223 272.271 75.053 262.148C74.0777 252.424 75.504 242.609 79.2065 233.565C82.7255 224.921 88.1439 217.178 95.0606 210.911C98.4171 207.948 102.042 205.303 105.888 203.012C109.633 200.689 113.414 198.534 116.983 196.183C120.556 193.95 123.838 191.282 126.755 188.242C129.54 185.256 131.606 181.673 132.795 177.766C133.837 173.955 134.001 169.957 133.274 166.073C132.579 162.325 131.329 158.701 129.564 155.323C127.875 152.07 125.851 149.002 123.523 146.171C121.277 143.455 118.834 140.906 116.216 138.547C111.14 133.872 105.937 129.782 101.263 125.579C98.9186 123.467 96.701 121.355 94.6523 119.194C92.6667 117.078 90.8363 114.821 89.1752 112.442C86.1723 108.079 83.8573 103.28 82.3112 98.2144C80.9569 93.8394 80.1713 89.3083 79.9739 84.7328C79.8754 83.6908 79.9176 82.663 79.9176 81.6563C79.9176 80.6496 79.9176 79.671 80.0091 78.7206C80.1006 77.7702 80.1499 76.8409 80.2203 75.9046C80.2907 74.9683 80.4808 74.1305 80.6005 73.2787C81.3783 68.093 82.9651 63.0615 85.3032 58.368C85.6199 57.6419 85.982 56.9365 86.3874 56.256L87.2533 54.7846C87.7109 54.0032 87.9573 53.6089 87.9573 53.6089L87.2533 54.8057L86.4155 56.256C86.0198 56.9395 85.6626 57.6446 85.3454 58.368C83.0285 63.0729 81.4608 68.1109 80.699 73.2998C80.5794 74.1446 80.4386 75.0176 80.333 75.9116C80.2274 76.8057 80.1922 77.742 80.1218 78.6924C80.0514 79.6428 80.0514 80.6214 80.0443 81.6211C80.0373 82.6208 80.0091 83.6486 80.1077 84.6905C80.3113 89.2509 81.104 93.7658 82.4661 98.1228C84.0103 103.171 86.3231 107.951 89.323 112.294C90.98 114.664 92.8082 116.908 94.7931 119.011C96.8347 121.179 99.0523 123.291 101.397 125.347C106.071 129.571 111.253 133.619 116.364 138.3C119.002 140.677 121.464 143.244 123.728 145.981C126.068 148.833 128.104 151.921 129.803 155.196C131.585 158.596 132.847 162.243 133.548 166.017C134.286 169.942 134.122 173.984 133.07 177.837C131.875 181.789 129.789 185.414 126.973 188.432C124.042 191.49 120.746 194.176 117.159 196.429C113.576 198.788 109.795 200.942 106.057 203.265C102.227 205.551 98.6167 208.186 95.2718 211.136C88.3977 217.371 83.011 225.069 79.5093 233.664C75.8291 242.662 74.4149 252.426 75.3909 262.099C76.3603 272.164 79.7937 281.835 85.3877 290.259L85.2469 290.181H205.223L205.061 290.28C206.547 287.225 207.813 284.068 208.848 280.832C209.903 277.631 210.759 274.367 211.411 271.06C212.754 264.519 213.145 257.818 212.572 251.165C212.016 244.607 210.277 238.203 207.44 232.263C206.041 229.337 204.37 226.548 202.449 223.935C200.526 221.351 198.452 218.883 196.24 216.543C191.898 211.817 187.4 207.32 182.744 203.054C178.126 198.767 173.303 194.796 168.734 190.614C166.421 188.568 164.32 186.294 162.462 183.828C160.64 181.347 159.392 178.493 158.808 175.471C158.526 173.978 158.373 172.464 158.35 170.945C158.315 170.191 158.35 169.438 158.35 168.685C158.35 167.932 158.477 167.185 158.533 166.439C158.792 163.462 159.43 160.531 160.434 157.716C162.513 152.211 165.932 147.311 170.382 143.46C172.494 141.503 174.753 139.729 176.971 137.962C178.083 137.075 179.175 136.181 180.238 135.266C181.301 134.351 182.35 133.365 183.448 132.52C185.687 130.831 187.96 129.24 190.136 127.557C192.31 125.901 194.399 124.137 196.394 122.27C198.355 120.434 200.192 118.47 201.893 116.392C203.551 114.333 205.055 112.154 206.391 109.873C208.956 105.4 210.778 100.54 211.784 95.4828C212.699 90.6113 212.958 85.639 212.551 80.6988C212.158 75.9359 211.311 71.2213 210.024 66.6188C208.807 62.2117 207.321 57.8833 205.575 53.6582L205.694 53.7356L119.532 53.6723H96.1025H90.0059L87.9502 53.6089Z" fill="#263238"/>
<path d="M200.935 86.1971C218.606 89.1046 190.748 120.404 174.972 132.753C165.82 139.898 156.034 147.656 151.697 158.413C146.769 170.621 150.423 184.335 148.044 196.612C147.967 197.036 147.733 197.414 147.389 197.672C147.044 197.93 146.615 198.049 146.187 198.003C145.759 197.958 145.365 197.752 145.082 197.427C144.8 197.103 144.65 196.683 144.664 196.253C144.777 188.193 144.566 180.139 143.256 172.205C141.363 160.941 137.04 149.825 129.176 141.581C122.735 134.843 114.294 130.373 107.43 124.079C97.4049 114.892 87.1054 103.044 86.0986 89.4848C86.0986 89.4848 105.346 73.9968 116.033 75.9328C128.522 78.2208 140.814 97.4892 160.159 95.2857C173.62 93.744 180.442 82.832 200.935 86.1971Z" fill="#DF0031"/>
<path d="M202.506 253.714C202.062 249.293 200.88 244.294 196.958 242.211C194.586 240.943 191.692 241.084 189.088 241.767C186.483 242.45 184.04 243.64 181.463 244.407C176.341 245.913 170.871 245.738 165.856 243.907C161.061 242.147 156.95 238.979 152.48 236.459C148.009 233.939 142.821 232.094 137.865 233.326C129.318 235.438 124.869 245.745 116.421 248.23C112.661 249.328 108.628 248.708 104.812 247.85C100.996 246.991 97.1594 245.871 93.2522 246.019C90.1827 246.132 86.9936 247.195 84.8464 249.293L84.7901 249.356C84.4326 249.706 84.1075 250.088 83.8186 250.497C81.1997 254.017 80.7773 258.684 81.5869 262.95C82.488 267.731 84.7197 272.145 87.1133 276.376C89.9293 281.36 93.1395 286.316 97.8 289.639C103.559 293.743 110.789 290.913 117.836 291.469C134.26 292.765 151.931 293.645 168.362 292.378C177.042 291.674 185.173 292.645 192.059 287.316C196.902 283.571 200.056 277.924 201.577 271.997C203.097 266.069 203.118 259.803 202.506 253.714Z" fill="#DF0031"/>
<g opacity="0.24">
<path d="M171.502 245.252C170.58 246.66 170.178 248.575 171.073 250.011C171.967 251.447 173.185 252.763 173.565 254.418C174.177 257.009 172.614 259.543 171.453 261.944C169.303 266.236 168.491 271.075 169.122 275.834C169.788 280.608 172.254 284.947 176.015 287.963C177.683 289.252 179.851 290.251 181.865 289.618C183.759 289.026 184.977 287.105 185.385 285.154C185.793 283.204 185.448 281.198 185.202 279.234C184.055 270.08 184.293 260.805 185.906 251.722C186.173 250.208 186.427 248.476 185.469 247.272C184.779 246.571 183.902 246.083 182.942 245.864C179.281 244.646 175.332 245.998 171.537 245.28" fill="black"/>
</g>
<path d="M76.4399 295.813C76.4399 295.813 76.109 290.308 83.2898 287.238H209.482C209.482 287.238 216.064 290.575 216.874 295.686L76.4399 295.813Z" fill="#263238"/>
<path d="M206.801 54.2777L206.597 54.3693L87.9374 53.6089C87.9374 53.6089 87.515 53.3414 86.8884 52.8416C86.1487 52.2621 85.609 51.4655 85.3451 50.5637C85.0812 49.6618 85.1063 48.7 85.417 47.8132C85.7276 46.9263 86.3081 46.159 87.0771 45.619C87.846 45.0789 88.7648 44.7932 89.7044 44.8019L204.879 45.7312C209.617 45.7734 211.109 52.2502 206.801 54.2777Z" fill="#263238"/>
<g opacity="0.24">
<path d="M187.792 99.5449C188.032 100.003 187.138 100.953 185.441 102.502C183.744 104.051 181.217 106.085 178.077 108.641C174.307 111.755 170.306 114.579 166.109 117.089C163.502 118.598 160.758 119.859 157.915 120.855C156.374 121.388 154.8 121.823 153.205 122.157C151.528 122.513 149.826 122.735 148.115 122.819C144.646 123.008 141.174 122.53 137.886 121.411C134.978 120.354 132.216 118.935 129.663 117.187C127.298 115.624 125.263 114.075 123.327 112.59C121.391 111.105 119.666 109.675 118.103 108.324C111.873 102.924 108.592 98.9535 109.226 98.1862C109.859 97.4188 114.295 99.918 121.194 104.142L126.826 107.592C128.846 108.817 131.008 110.175 133.218 111.428C135.412 112.716 137.736 113.766 140.153 114.561C142.625 115.302 145.207 115.606 147.784 115.462C153.191 115.181 158.435 113.28 162.976 111.083C167.517 108.887 171.628 106.324 175.191 104.325C178.01 102.661 180.957 101.225 184.005 100.031C186.236 99.2492 187.588 99.1014 187.792 99.5449Z" fill="black"/>
</g>
<path d="M144.749 211.319C145.248 211.121 145.805 211.127 146.299 211.336C146.793 211.545 147.185 211.94 147.39 212.437C147.595 212.933 147.597 213.49 147.394 213.987C147.191 214.484 146.801 214.881 146.308 215.093C145.814 215.304 145.257 215.313 144.758 215.117C144.258 214.92 143.856 214.535 143.638 214.045C143.42 213.554 143.404 212.998 143.593 212.495C143.783 211.993 144.163 211.586 144.65 211.361" fill="#DF0031"/>
<path d="M102.312 119.179C102.158 119.053 102.016 118.911 101.89 118.757L100.742 117.504C100.256 116.948 99.6158 116.3 98.9611 115.476L96.7224 112.66C95.955 111.576 95.0891 110.408 94.2162 109.14L92.9278 107.092C92.7096 106.74 92.4773 106.388 92.2661 106.015L91.6466 104.874C89.773 101.554 88.3052 98.0201 87.2747 94.3494C86.2393 90.6817 85.6809 86.8958 85.6133 83.0854C85.6133 82.2054 85.6626 81.3536 85.6766 80.5158C85.6766 80.1004 85.6766 79.6921 85.733 79.2908C85.7893 78.8896 85.8174 78.4953 85.8597 78.1081C85.9512 77.3337 86.0075 76.5804 86.1131 75.8624C86.2187 75.1443 86.3666 74.4544 86.4862 73.8137C86.6834 72.4972 87.0354 71.3497 87.2818 70.2937C87.4155 69.7868 87.5211 69.3081 87.6549 68.8857L88.0421 67.71L88.5842 66.0979C88.636 65.9059 88.7067 65.7196 88.7954 65.5417C88.7664 65.7381 88.7193 65.9313 88.6546 66.119C88.5349 66.5273 88.38 67.0694 88.1758 67.7523L87.8238 68.928C87.7042 69.3574 87.6056 69.8361 87.4789 70.336C87.2536 71.3568 86.9227 72.5113 86.7749 73.856C86.6622 74.5036 86.5496 75.1865 86.4299 75.8975C86.3102 76.6086 86.2821 77.3548 86.1976 78.1292C86.1976 78.5164 86.1202 78.9036 86.0779 79.3049C86.0357 79.7062 86.0779 80.1145 86.0357 80.5228C86.0357 81.3536 85.9794 82.1984 85.9864 83.0713C86.0551 86.8594 86.6063 90.6233 87.6267 94.272C88.6516 97.9157 90.1 101.427 91.9422 104.733C92.1464 105.114 92.3506 105.494 92.5477 105.874C92.7448 106.254 92.9912 106.578 93.2024 106.944L94.4696 108.993C95.3285 110.288 96.1803 111.457 96.9266 112.513L99.123 115.329C99.7566 116.166 100.383 116.821 100.848 117.398L101.946 118.701C102.078 118.852 102.2 119.012 102.312 119.179Z" fill="#263238"/>
<path d="M95.6309 223.766C95.6657 223.684 95.7081 223.607 95.7576 223.533L96.18 222.872C96.3701 222.576 96.6024 222.224 96.884 221.802L97.3275 221.098C97.5035 220.865 97.7077 220.633 97.9118 220.394L99.3198 218.704C99.8619 218.12 100.481 217.514 101.136 216.852C102.654 215.391 104.268 214.031 105.966 212.783C109.704 209.967 114.526 207.151 119.75 203.85C122.497 202.157 125.137 200.297 127.656 198.281C130.358 196.128 132.744 193.607 134.745 190.79C138.407 185.164 140.397 178.614 140.483 171.902C140.572 166.431 139.656 160.991 137.779 155.851C136.537 152.382 134.976 149.036 133.119 145.854C132.464 144.721 131.929 143.862 131.563 143.277L131.148 142.616C131.056 142.468 131.014 142.383 131.014 142.383C131.077 142.447 131.131 142.517 131.176 142.595L131.626 143.242C132.014 143.805 132.57 144.65 133.239 145.784C135.154 148.948 136.757 152.292 138.026 155.766C139.952 160.927 140.907 166.401 140.842 171.909C140.812 173.497 140.683 175.082 140.455 176.654C140.226 178.298 139.881 179.924 139.42 181.519C138.458 184.895 136.963 188.097 134.992 191.002C132.97 193.849 130.558 196.396 127.825 198.57C125.291 200.588 122.637 202.45 119.877 204.145C114.632 207.419 109.802 210.207 106.064 213.002C104.367 214.233 102.749 215.571 101.221 217.007C100.566 217.662 99.9393 218.253 99.3902 218.831L97.9822 220.485C97.771 220.739 97.5669 220.971 97.3909 221.189L96.9333 221.858L96.2293 222.907L95.7787 223.547C95.7354 223.624 95.6859 223.697 95.6309 223.766Z" fill="#263238"/>
<path d="M89.0844 236.205C89.042 236.32 88.9902 236.43 88.9296 236.536L88.4227 237.43C88.1974 237.811 87.9299 238.289 87.6553 238.838C87.3807 239.387 87.0288 240.035 86.7331 240.774C86.5782 241.14 86.4092 241.521 86.2403 241.915C86.0713 242.309 85.9305 242.746 85.7616 243.182C85.4236 244.055 85.1561 245.012 84.8464 245.998C83.6218 250.411 83.1998 255.009 83.6003 259.571C83.72 260.613 83.8044 261.613 83.9875 262.528C84.0649 262.986 84.1283 263.436 84.2198 263.859C84.3113 264.281 84.4099 264.689 84.5014 265.076C84.6563 265.858 84.8886 266.541 85.0576 267.146C85.2265 267.752 85.3955 268.273 85.5504 268.695L85.8812 269.667C85.9287 269.776 85.9596 269.893 85.9728 270.011C85.9049 269.914 85.8505 269.807 85.8108 269.695C85.7052 269.434 85.5785 269.124 85.4166 268.744C85.2038 268.243 85.0182 267.731 84.8604 267.21C84.6703 266.604 84.424 265.921 84.248 265.14C84.1494 264.753 84.0508 264.344 83.9452 263.922C83.8396 263.499 83.7763 263.042 83.6848 262.584C83.4876 261.655 83.3891 260.655 83.2624 259.606C82.8217 255.016 83.2467 250.383 84.5155 245.949C84.8323 244.935 85.1139 243.97 85.4729 243.098C85.6489 242.661 85.7897 242.232 85.9728 241.83L86.4937 240.683C86.8035 239.979 87.1977 239.324 87.4723 238.761C87.7204 238.277 87.9954 237.807 88.296 237.353L88.8592 236.487C89 236.297 89.0703 236.198 89.0844 236.205Z" fill="#263238"/>
<path d="M176.119 253.129L175.979 253.228L175.542 253.503L173.831 254.53L172.592 255.234C172.128 255.495 171.614 255.734 171.065 256.009C169.952 256.544 168.727 257.227 167.277 257.776L165.024 258.698C164.243 259.008 163.391 259.254 162.532 259.55C160.821 260.177 158.921 260.627 156.942 261.141C148.256 263.175 139.247 263.415 130.465 261.845C128.452 261.437 126.537 261.085 124.791 260.55C123.918 260.296 123.059 260.099 122.256 259.846L119.961 259.008C118.49 258.536 117.223 257.924 116.089 257.445C115.526 257.199 114.998 256.98 114.526 256.741L113.245 256.072L111.485 255.136L111.035 254.882L110.887 254.791C110.887 254.791 110.95 254.791 111.056 254.854L111.52 255.073L113.308 255.945L114.597 256.579C115.076 256.804 115.611 257.009 116.174 257.248C117.307 257.698 118.574 258.297 120.053 258.747L122.32 259.571C123.122 259.839 123.981 260.029 124.854 260.275C126.593 260.796 128.501 261.127 130.486 261.528C139.227 263.042 148.182 262.803 156.83 260.824C158.801 260.317 160.695 259.888 162.405 259.275C163.264 258.987 164.109 258.754 164.891 258.445L167.143 257.551C168.594 257.016 169.826 256.354 170.938 255.84C171.487 255.572 172.008 255.34 172.473 255.136L173.726 254.432L175.465 253.46L175.922 253.221C176.063 253.144 176.119 253.122 176.119 253.129Z" fill="#263238"/>
<path d="M183.462 104.128C183.419 104.179 183.369 104.224 183.314 104.262L182.85 104.642C182.42 104.987 181.822 105.473 181.054 106.05C179.492 107.289 177.225 109.084 174.359 111.224C171.025 113.777 167.528 116.11 163.891 118.208C161.728 119.418 159.473 120.457 157.147 121.313C154.637 122.226 152.02 122.808 149.36 123.044C144.19 123.335 139.033 122.262 134.407 119.933C132.407 118.917 130.476 117.769 128.628 116.497C126.91 115.286 125.34 114.111 123.953 112.977C121.137 110.739 118.983 108.845 117.462 107.549L115.723 106.043L115.28 105.649L115.132 105.501C115.132 105.501 115.195 105.501 115.301 105.613L115.772 105.987L117.554 107.437C119.102 108.704 121.313 110.563 124.115 112.773C125.523 113.878 127.079 115.04 128.804 116.237C130.646 117.487 132.567 118.615 134.555 119.616C139.135 121.899 144.23 122.949 149.339 122.664C151.967 122.431 154.553 121.859 157.034 120.961C159.344 120.116 161.585 119.092 163.736 117.898C167.368 115.838 170.869 113.555 174.219 111.062C177.091 108.95 179.379 107.19 180.977 105.987L182.814 104.579L183.3 104.227C183.349 104.186 183.403 104.152 183.462 104.128Z" fill="#263238"/>
<g opacity="0.24">
<path d="M119.969 259.043C123.306 256.466 127.994 257.086 132.12 257.959C136.245 258.832 140.399 260.233 144.574 259.649C147.72 259.205 150.607 257.663 153.726 256.987C156.844 256.312 160.597 256.811 162.321 259.48C148.536 263.922 133.681 263.768 119.99 259.043" fill="black"/>
</g>
<path d="M236.367 239.937L221.231 222.963L221.076 243.597L225.638 256.833L180.286 264.696L178.364 228.912L175.098 201.456C174.904 199.819 175.257 198.164 176.103 196.749C176.948 195.334 178.239 194.239 179.772 193.635L192.254 188.707L209.854 191.931L216.93 194.62C219.896 195.75 222.54 197.589 224.631 199.978L245.92 224.322" fill="#DF0031"/>
<path d="M220.175 218.88C221.029 218.868 221.883 218.807 222.73 218.697C224.772 218.385 226.675 217.471 228.194 216.071C229.712 214.671 230.779 212.85 231.256 210.84C231.431 210.001 231.56 209.152 231.643 208.299C231.7 208.529 231.721 208.766 231.706 209.003C231.712 209.642 231.645 210.279 231.509 210.904C231.083 212.994 230.01 214.897 228.442 216.344C226.874 217.791 224.89 218.708 222.773 218.964C222.14 219.046 221.5 219.06 220.865 219.007C220.629 219.002 220.396 218.959 220.175 218.88Z" fill="white"/>
<path d="M221.491 242.717C221.597 242.717 221.625 235.565 221.555 226.751C221.484 217.937 221.337 210.791 221.231 210.791C221.125 210.791 221.097 217.937 221.168 226.758C221.238 235.579 221.386 242.717 221.491 242.717Z" fill="#263238"/>
<path d="M219.831 247.962L192.431 236.931C191.348 236.495 190.408 235.765 189.718 234.823C189.027 233.881 188.614 232.765 188.524 231.601L186.518 205.328C186.518 205.328 186.757 194.148 179.773 193.606L175.824 195.169C170.692 197.894 169.424 205.37 170.121 211.136C171.114 219.331 171.529 230.932 172.635 238.043C173.55 243.865 176.859 248.983 182.575 250.483L216.325 257.79L219.831 247.962Z" fill="#DF0031"/>
<path d="M186.911 209.334C186.957 209.53 186.985 209.73 186.995 209.932C187.037 210.362 187.101 210.939 187.171 211.664C187.312 213.206 187.509 215.374 187.749 218.035C187.988 220.696 188.255 223.942 188.565 227.49C188.636 228.384 188.713 229.292 188.79 230.221C188.845 231.167 188.962 232.108 189.142 233.037C189.334 233.978 189.811 234.836 190.508 235.494C191.259 236.154 192.113 236.687 193.036 237.071C200.59 240.338 207.552 243.041 212.607 244.935L218.612 247.145L220.245 247.744C220.436 247.807 220.622 247.885 220.801 247.976C220.602 247.94 220.407 247.886 220.217 247.814L218.563 247.279C217.155 246.801 215.043 246.09 212.522 245.167C207.432 243.337 200.463 240.676 192.881 237.423C191.922 237.02 191.035 236.464 190.255 235.776C189.506 235.065 188.995 234.141 188.79 233.129C188.609 232.185 188.493 231.23 188.445 230.271C188.368 229.334 188.298 228.426 188.227 227.532C187.953 224.012 187.699 220.774 187.523 218.07C187.347 215.367 187.171 213.234 187.059 211.692C187.009 210.988 186.974 210.383 186.953 209.953C186.921 209.748 186.907 209.541 186.911 209.334Z" fill="#263238"/>
<path d="M171.212 223.618C171.241 223.733 171.257 223.851 171.262 223.97L171.353 224.984C171.438 225.92 171.543 227.18 171.677 228.715C171.811 230.25 172.022 232.157 172.297 234.227C172.566 236.469 172.977 238.691 173.529 240.88C173.788 242.008 174.24 243.082 174.866 244.055C175.478 244.948 176.163 245.789 176.915 246.568C178.196 247.886 179.676 248.996 181.301 249.856C182.815 250.626 184.439 251.158 186.116 251.433C185.997 251.448 185.876 251.448 185.757 251.433C185.417 251.41 185.078 251.366 184.743 251.299C183.505 251.068 182.305 250.663 181.181 250.095C179.511 249.254 177.989 248.146 176.675 246.815C175.897 246.027 175.19 245.172 174.563 244.259C173.906 243.259 173.429 242.151 173.155 240.985C172.597 238.78 172.19 236.538 171.938 234.276C171.684 232.164 171.515 230.32 171.402 228.743C171.29 227.166 171.226 225.885 171.191 224.998C171.191 224.589 171.191 224.251 171.191 223.977C171.179 223.857 171.186 223.736 171.212 223.618Z" fill="#263238"/>
<path d="M182.927 241.999C182.999 241.486 183.168 240.991 183.427 240.542C183.991 239.42 184.774 238.422 185.729 237.606C186.684 236.79 187.792 236.173 188.988 235.79C189.473 235.605 189.99 235.516 190.509 235.53C190.048 235.722 189.578 235.891 189.101 236.036C187.969 236.474 186.919 237.1 185.996 237.888C185.075 238.677 184.292 239.615 183.68 240.662C183.187 241.471 182.983 242.02 182.927 241.999Z" fill="#263238"/>
<path d="M188.319 222.02C188.379 222.037 188.436 222.063 188.488 222.097L188.981 222.358C189.617 222.671 190.27 222.946 190.938 223.181C193.402 224.046 196.044 224.273 198.619 223.843C202.444 223.161 205.861 221.037 208.165 217.908C209.542 216.102 210.406 213.956 210.664 211.699C210.792 210.513 210.667 209.313 210.298 208.179C209.909 207.021 209.23 205.982 208.327 205.159C207.437 204.326 206.315 203.781 205.11 203.596C204.539 203.494 203.952 203.522 203.393 203.68C202.835 203.837 202.319 204.119 201.885 204.504C201.493 204.889 201.265 205.412 201.252 205.962C201.264 206.508 201.452 207.036 201.787 207.468C202.136 207.885 202.565 208.229 203.049 208.479C203.532 208.729 204.06 208.881 204.603 208.925C206.509 209.163 208.445 208.918 210.232 208.213C212.019 207.509 213.601 206.366 214.832 204.891C215.765 203.744 216.468 202.427 216.902 201.012C217.225 199.941 217.401 198.83 217.423 197.711C217.43 197.004 217.379 196.297 217.268 195.599C217.226 195.38 217.19 195.197 217.169 195.057C217.163 194.993 217.163 194.93 217.169 194.866C217.46 195.776 217.603 196.727 217.592 197.682C217.599 198.818 217.442 199.949 217.127 201.041C216.343 203.671 214.651 205.937 212.353 207.437C210.054 208.936 207.298 209.571 204.575 209.228C203.993 209.177 203.428 209.011 202.911 208.74C202.394 208.47 201.935 208.1 201.562 207.651C201.179 207.159 200.967 206.556 200.956 205.933C200.957 205.293 201.21 204.678 201.66 204.223C202.133 203.8 202.695 203.49 203.305 203.314C203.914 203.139 204.555 203.103 205.18 203.209C206.461 203.399 207.652 203.976 208.595 204.863C209.548 205.725 210.261 206.819 210.664 208.038C211.048 209.218 211.177 210.466 211.044 211.699C210.77 214.005 209.877 216.194 208.461 218.035C206.506 220.702 203.732 222.655 200.563 223.596C197.393 224.537 194.003 224.413 190.91 223.245C189.996 222.952 189.125 222.54 188.319 222.02Z" fill="white"/>
<path d="M170.368 215.015C170.487 214.804 170.639 214.614 170.819 214.452C171.269 213.976 171.764 213.544 172.297 213.163C174.094 211.929 176.185 211.188 178.359 211.016C179.551 210.882 180.757 210.932 181.935 211.164C182.892 211.363 183.818 211.69 184.688 212.136C185.271 212.43 185.832 212.769 186.363 213.149C186.569 213.275 186.754 213.432 186.912 213.614C186.87 213.67 186.053 213.051 184.575 212.368C182.648 211.474 180.51 211.133 178.401 211.382C176.283 211.55 174.238 212.234 172.445 213.375C171.086 214.283 170.417 215.064 170.368 215.015Z" fill="white"/>
<path d="M174.753 196.225C175.421 196.854 176.166 197.396 176.971 197.837C177.849 198.288 178.804 198.57 179.787 198.668C180.982 198.788 182.19 198.619 183.307 198.175C184.402 197.708 185.368 196.984 186.123 196.063C186.746 195.295 187.223 194.42 187.531 193.48C187.784 192.597 187.928 191.687 187.96 190.769C188.028 191.012 188.059 191.263 188.051 191.515C188.063 192.206 187.971 192.894 187.777 193.557C187.49 194.546 187.012 195.47 186.369 196.274C185.597 197.284 184.572 198.071 183.397 198.556C182.222 199.041 180.94 199.206 179.681 199.034C178.66 198.919 177.672 198.603 176.773 198.105C176.168 197.773 175.618 197.35 175.14 196.852C174.974 196.668 174.842 196.456 174.753 196.225Z" fill="white"/>
<path d="M198.633 239.43C198.634 239.255 198.653 239.08 198.689 238.909C198.788 238.42 198.951 237.946 199.175 237.501C200.07 235.861 201.524 234.597 203.272 233.939C205.845 232.915 208.693 232.813 211.333 233.65C212.783 234.079 214.445 234.614 215.557 236.029C215.837 236.391 216.013 236.821 216.068 237.275C216.122 237.729 216.053 238.189 215.867 238.606C215.442 239.42 214.755 240.068 213.917 240.443C213.108 240.844 212.221 241.065 211.319 241.091C210.423 241.135 209.54 240.86 208.827 240.317C208.497 240.036 208.229 239.69 208.037 239.302C207.846 238.913 207.736 238.489 207.714 238.057C207.668 237.249 207.796 236.44 208.088 235.684C209.148 233.118 211.169 231.067 213.72 229.968C215.412 229.214 217.265 228.895 219.112 229.039C219.785 229.09 220.447 229.229 221.083 229.454C221.083 229.503 220.379 229.271 219.098 229.179C217.568 229.096 216.037 229.326 214.599 229.855C213.161 230.384 211.846 231.201 210.735 232.256C209.703 233.244 208.898 234.446 208.376 235.776C208.103 236.487 207.985 237.248 208.031 238.008C208.052 238.393 208.151 238.769 208.323 239.115C208.495 239.46 208.736 239.766 209.031 240.014C209.675 240.508 210.473 240.758 211.284 240.718C212.13 240.696 212.961 240.489 213.72 240.113C214.485 239.771 215.114 239.184 215.508 238.444C215.666 238.084 215.725 237.689 215.678 237.299C215.631 236.908 215.48 236.538 215.24 236.227C214.749 235.607 214.12 235.11 213.403 234.776C212.707 234.444 211.984 234.173 211.241 233.967C208.671 233.135 205.894 233.207 203.371 234.171C201.661 234.79 200.221 235.988 199.302 237.557C198.997 238.149 198.772 238.779 198.633 239.43Z" fill="white"/>
<path d="M180.385 249.321C180.385 249.251 181.427 249.166 183.011 248.617C185.079 247.889 186.931 246.654 188.399 245.026C189.868 243.398 190.905 241.428 191.416 239.296C191.818 237.663 191.804 236.6 191.874 236.607C191.923 236.85 191.935 237.099 191.909 237.346C191.893 238.021 191.813 238.693 191.67 239.352C191.214 241.553 190.178 243.592 188.671 245.259C187.164 246.926 185.239 248.16 183.095 248.835C182.453 249.044 181.793 249.193 181.124 249.279C180.881 249.328 180.632 249.343 180.385 249.321Z" fill="white"/>
<path d="M171.501 228.898C171.605 228.839 171.716 228.795 171.832 228.764C172.057 228.694 172.381 228.595 172.81 228.483C174.029 228.162 175.29 228.034 176.549 228.102C177.422 228.168 178.279 228.38 179.083 228.729C180.019 229.133 180.835 229.773 181.449 230.587C182.122 231.511 182.449 232.643 182.371 233.784C182.326 234.391 182.14 234.979 181.829 235.501C181.514 236.053 181.015 236.476 180.421 236.698C180.107 236.805 179.771 236.828 179.446 236.763C179.121 236.699 178.818 236.55 178.569 236.332C178.147 235.866 177.917 235.257 177.929 234.628C177.892 233.507 178.114 232.392 178.576 231.369C179.219 229.912 180.33 228.711 181.733 227.957C183.136 227.203 184.75 226.94 186.32 227.208C186.658 227.261 186.99 227.343 187.313 227.455C187.531 227.539 187.644 227.588 187.637 227.603C187.63 227.617 187.165 227.455 186.299 227.349C185.075 227.201 183.834 227.361 182.688 227.814C180.989 228.495 179.63 229.822 178.907 231.503C178.477 232.48 178.273 233.541 178.309 234.607C178.294 235.146 178.485 235.67 178.844 236.072C179.046 236.243 179.289 236.36 179.549 236.409C179.81 236.458 180.078 236.439 180.329 236.353C180.851 236.16 181.289 235.792 181.568 235.311C181.848 234.837 182.017 234.305 182.061 233.755C182.135 232.698 181.839 231.648 181.223 230.785C180.652 230.01 179.887 229.398 179.006 229.011C178.235 228.661 177.412 228.442 176.57 228.363C175.339 228.271 174.101 228.359 172.895 228.623C171.987 228.799 171.515 228.926 171.501 228.898Z" fill="white"/>
<g opacity="0.3">
<path d="M211.953 244.829C209.024 243.175 206.159 241.901 203.097 240.514C200.034 239.127 197.028 237.332 195.022 234.628C191.241 229.531 191.671 222.175 187.806 217.148C188.059 220.527 188.31 223.909 188.559 227.293C188.791 230.39 188.32 233.46 190.312 235.565C191.994 237.339 195.275 238.698 197.598 239.465C202.266 241.007 207.292 243.295 211.953 244.829Z" fill="black"/>
</g>
<path d="M259.599 283.444C259.599 283.444 282.528 289.78 283.451 290.118C284.859 290.603 284.598 295.665 282.451 295.581C281.43 295.546 264.851 296.2 262.739 296.074C260.627 295.947 254.291 293.448 254.291 293.448L259.599 283.444Z" fill="#DF0031"/>
<path d="M269.125 292.195C269.408 291.352 269.746 290.529 270.138 289.731C270.632 288.992 271.173 288.287 271.757 287.619C270.942 288.065 270.264 288.728 269.8 289.534C269.336 290.34 269.102 291.258 269.125 292.187V292.195Z" fill="#263238"/>
<path d="M266.731 291.11C266.844 291.11 267.076 290.047 267.689 288.851C268.301 287.654 269.019 286.816 268.942 286.739C268.273 287.26 267.727 287.923 267.345 288.68C266.963 289.437 266.753 290.269 266.731 291.117V291.11Z" fill="#263238"/>
<path d="M264.527 290.512C264.64 289.692 264.819 288.882 265.062 288.09C265.422 287.343 265.838 286.626 266.308 285.943C265.581 286.432 265.021 287.132 264.703 287.949C264.385 288.765 264.323 289.66 264.527 290.512Z" fill="#263238"/>
<path d="M264.9 287.548C265.102 287.004 265.186 286.423 265.146 285.844C265.139 285.214 265.061 284.585 264.914 283.972C264.826 283.609 264.71 283.254 264.569 282.909C264.502 282.69 264.376 282.495 264.203 282.346C264.087 282.26 263.945 282.217 263.801 282.225C263.657 282.233 263.52 282.29 263.414 282.388C263.237 282.559 263.129 282.79 263.112 283.036C263.094 283.237 263.094 283.44 263.112 283.641C263.114 284.018 263.161 284.394 263.252 284.76C263.405 285.374 263.642 285.964 263.956 286.513C264.209 287.042 264.557 287.52 264.984 287.921C265.041 287.921 264.653 287.351 264.196 286.415C263.928 285.873 263.727 285.301 263.597 284.711C263.523 284.366 263.486 284.015 263.485 283.662C263.485 283.31 263.485 282.874 263.696 282.705C263.737 282.667 263.791 282.646 263.847 282.646C263.903 282.646 263.957 282.667 263.999 282.705C264.113 282.817 264.2 282.954 264.252 283.106C264.387 283.437 264.502 283.775 264.597 284.12C264.758 284.704 264.86 285.303 264.9 285.908C264.942 286.893 264.836 287.541 264.9 287.548Z" fill="#263238"/>
<path d="M264.872 287.316C264.405 287.121 263.899 287.039 263.394 287.076C262.846 287.076 262.3 287.143 261.768 287.274C261.44 287.348 261.123 287.464 260.824 287.619C260.636 287.714 260.485 287.868 260.392 288.057C260.299 288.246 260.271 288.461 260.31 288.667C260.363 288.865 260.467 289.045 260.611 289.19C260.756 289.335 260.936 289.439 261.134 289.491C261.471 289.576 261.824 289.576 262.162 289.491C262.704 289.367 263.214 289.127 263.654 288.787C264.072 288.508 264.432 288.152 264.717 287.738C264.294 287.986 263.887 288.261 263.499 288.562C263.074 288.854 262.596 289.062 262.091 289.174C261.812 289.245 261.519 289.245 261.24 289.174C261.107 289.141 260.986 289.073 260.889 288.978C260.791 288.883 260.72 288.764 260.683 288.632C260.662 288.503 260.683 288.371 260.744 288.255C260.806 288.139 260.903 288.047 261.021 287.992C261.283 287.848 261.562 287.739 261.852 287.668C262.357 287.524 262.877 287.434 263.401 287.4C264.295 287.288 264.858 287.379 264.872 287.316Z" fill="#263238"/>
<path d="M272.645 292.441C272.744 291.74 272.897 291.048 273.103 290.371C273.425 289.742 273.799 289.142 274.222 288.576C273.555 288.94 273.033 289.523 272.746 290.228C272.458 290.932 272.423 291.714 272.645 292.441Z" fill="#263238"/>
<path d="M256.649 293.504C256.927 293.68 257.225 293.822 257.536 293.926C258.369 294.242 259.22 294.506 260.085 294.715C262.96 295.342 265.901 295.621 268.843 295.546C272.278 295.503 275.376 295.348 277.622 295.257L280.276 295.116C280.602 295.111 280.927 295.078 281.247 295.018C280.924 294.967 280.596 294.95 280.269 294.968H277.615L268.843 295.137C265.928 295.212 263.013 294.976 260.148 294.433C257.952 293.99 256.678 293.427 256.649 293.504Z" fill="#263238"/>
<path d="M255.974 294.025C255.974 294.074 256.628 293.708 257.691 293.243C259.042 292.606 260.545 292.362 262.028 292.539C263.486 292.856 264.803 293.636 265.78 294.764C266.187 295.245 266.627 295.696 267.097 296.116C266.795 295.556 266.418 295.04 265.977 294.581C265.526 294.056 265.015 293.583 264.457 293.173C263.757 292.655 262.944 292.312 262.084 292.173C260.528 291.985 258.952 292.282 257.572 293.025C256.989 293.27 256.449 293.608 255.974 294.025Z" fill="#263238"/>
<path d="M235.234 277.115C235.234 277.115 213.537 291.322 212.762 291.899C211.594 292.779 212.931 296.982 214.959 296.257C215.916 295.912 234.122 290.843 236.079 290.083C238.036 289.322 243.309 285.056 243.309 285.056L235.234 277.115Z" fill="#DF0031"/>
<path d="M228.792 288.351C228.53 287.457 228.028 286.653 227.34 286.026C226.652 285.399 225.805 284.973 224.892 284.795C225.654 285.253 226.386 285.761 227.081 286.316C227.693 286.958 228.264 287.637 228.792 288.351Z" fill="#263238"/>
<path d="M230.736 286.591C230.46 285.787 230.009 285.055 229.416 284.446C228.823 283.837 228.103 283.368 227.307 283.071C227.251 283.169 228.201 283.775 229.137 284.704C230.074 285.633 230.637 286.647 230.736 286.591Z" fill="#263238"/>
<path d="M232.692 285.338C232.689 284.452 232.352 283.599 231.749 282.951C231.244 282.235 230.491 281.733 229.637 281.543C230.29 282.053 230.904 282.611 231.474 283.211C231.936 283.887 232.343 284.598 232.692 285.338Z" fill="#263238"/>
<path d="M231.44 282.641C231.496 282.641 231.2 282.029 230.954 281.015C230.806 280.427 230.719 279.826 230.693 279.22C230.669 278.864 230.669 278.506 230.693 278.15C230.691 277.989 230.732 277.831 230.813 277.692C230.844 277.644 230.892 277.61 230.947 277.597C231.002 277.584 231.06 277.593 231.109 277.622C231.355 277.72 231.482 278.143 231.602 278.481C231.705 278.816 231.776 279.16 231.813 279.508C231.867 280.112 231.848 280.719 231.757 281.318C231.609 282.346 231.405 282.972 231.461 282.993C231.751 282.49 231.942 281.935 232.024 281.36C232.159 280.743 232.207 280.11 232.165 279.48C232.137 279.103 232.068 278.73 231.961 278.368C231.903 278.174 231.832 277.983 231.749 277.798C231.656 277.567 231.48 277.379 231.257 277.27C231.126 277.209 230.978 277.196 230.839 277.233C230.7 277.271 230.579 277.356 230.496 277.474C230.38 277.67 230.319 277.894 230.32 278.122C230.243 279.124 230.358 280.133 230.658 281.092C230.806 281.658 231.073 282.186 231.44 282.641Z" fill="#263238"/>
<path d="M231.361 282.409C231.361 282.465 231.896 282.212 232.769 281.993C233.28 281.871 233.801 281.8 234.325 281.782C234.624 281.762 234.925 281.781 235.219 281.839C235.349 281.856 235.469 281.915 235.563 282.006C235.657 282.098 235.719 282.216 235.74 282.345C235.746 282.485 235.715 282.624 235.649 282.748C235.584 282.872 235.486 282.976 235.367 283.049C235.125 283.202 234.85 283.294 234.565 283.317C234.05 283.367 233.531 283.315 233.037 283.162C232.578 282.99 232.107 282.851 231.629 282.747C232.026 283.064 232.48 283.303 232.966 283.451C233.489 283.651 234.049 283.735 234.607 283.697C234.954 283.679 235.291 283.572 235.585 283.387C235.76 283.28 235.902 283.129 235.997 282.948C236.092 282.767 236.137 282.564 236.127 282.36C236.103 282.15 236.01 281.954 235.864 281.802C235.718 281.649 235.526 281.548 235.318 281.515C234.988 281.456 234.652 281.442 234.318 281.473C233.771 281.509 233.229 281.611 232.706 281.775C232.215 281.88 231.755 282.097 231.361 282.409Z" fill="#263238"/>
<path d="M217.719 295.475C217.719 295.51 218.085 295.257 218.254 294.637C218.423 293.828 218.277 292.985 217.846 292.279C217.637 291.901 217.402 291.539 217.142 291.195C216.93 290.901 216.682 290.636 216.402 290.406C216.202 290.241 215.957 290.14 215.698 290.118C215.515 290.118 215.424 290.153 215.424 290.174C215.424 290.195 215.811 290.209 216.212 290.618C216.449 290.857 216.659 291.121 216.839 291.406C217.091 291.746 217.326 292.098 217.543 292.462C217.932 293.094 218.1 293.836 218.022 294.574C217.939 294.88 217.838 295.181 217.719 295.475Z" fill="#263238"/>
<path d="M225.512 289.653C225.541 289.272 225.488 288.889 225.355 288.531C225.223 288.172 225.015 287.847 224.745 287.576C224.528 287.261 224.245 286.998 223.915 286.805C223.586 286.611 223.217 286.493 222.837 286.457C223.412 286.865 223.952 287.322 224.449 287.823C224.854 288.402 225.21 289.014 225.512 289.653Z" fill="#263238"/>
<path d="M241.077 285.809C240.739 285.997 240.419 286.214 240.119 286.457C239.259 287.054 238.366 287.602 237.444 288.097C236.079 288.821 234.668 289.454 233.22 289.991C231.573 290.603 229.7 291.181 227.785 291.744C223.878 292.87 220.344 293.898 217.795 294.666L214.761 295.616C214.387 295.715 214.021 295.847 213.67 296.01C214.054 295.958 214.433 295.876 214.803 295.764L217.852 294.912C220.421 294.208 223.962 293.222 227.87 292.096C229.82 291.526 231.671 290.934 233.319 290.301C234.785 289.743 236.208 289.08 237.578 288.315C238.498 287.794 239.378 287.206 240.211 286.555C240.52 286.331 240.809 286.082 241.077 285.809Z" fill="#263238"/>
<path d="M241.879 286.098C241.295 285.841 240.676 285.675 240.042 285.605C238.499 285.32 236.906 285.516 235.48 286.168C234.709 286.572 234.047 287.157 233.551 287.872C233.143 288.437 232.8 289.046 232.53 289.688C232.248 290.258 232.046 290.865 231.932 291.491C232.25 290.947 232.533 290.382 232.776 289.801C233.363 288.426 234.381 287.28 235.677 286.534C237.04 285.921 238.547 285.704 240.028 285.908C241.154 285.999 241.865 286.154 241.879 286.098Z" fill="#263238"/>
<path d="M280.325 242.471C280.325 242.471 286.837 244.794 286.858 252.095C286.914 266.069 258.613 281.48 258.613 281.48L220.949 256.53L218.591 255.572C218.591 255.572 269.455 236.48 280.325 242.471Z" fill="#263238"/>
<path d="M240.028 269.131C240.375 268.939 240.705 268.718 241.014 268.47C241.626 268.019 242.506 267.357 243.584 266.52C245.745 264.858 248.673 262.493 251.834 259.782C254.995 257.072 257.769 254.53 259.74 252.651C260.726 251.714 261.514 250.94 262.056 250.398C262.349 250.134 262.618 249.844 262.859 249.532C262.535 249.759 262.231 250.013 261.951 250.292L259.557 252.454C257.537 254.277 254.735 256.79 251.581 259.494C248.427 262.197 245.527 264.591 243.422 266.308L240.922 268.35C240.604 268.586 240.305 268.848 240.028 269.131Z" fill="#455A64"/>
<path d="M269.696 247.695C267.233 247.434 264.767 248.161 262.839 249.715C262.902 249.821 264.247 248.941 266.176 248.392C268.105 247.843 269.696 247.814 269.696 247.695Z" fill="#455A64"/>
<path d="M266.449 245.491C265.578 245.861 264.811 246.44 264.217 247.177C263.623 247.913 263.219 248.785 263.042 249.715C263.155 249.715 263.563 248.582 264.513 247.42C265.464 246.258 266.513 245.59 266.449 245.491Z" fill="#455A64"/>
<path d="M282.395 289.759C282.395 289.716 281.945 289.625 281.424 290.054C280.81 290.626 280.425 291.402 280.34 292.237C280.216 293.057 280.334 293.896 280.678 294.651C280.945 295.222 281.241 295.489 281.276 295.461C281.183 295.148 281.068 294.842 280.931 294.546C280.685 293.822 280.612 293.05 280.72 292.293C280.804 291.539 281.113 290.827 281.607 290.251C282.008 289.836 282.402 289.822 282.395 289.759Z" fill="#263238"/>
<path d="M271.658 219.626L258.247 253.629L200.498 254.573L199.428 251.447L219.668 250.715L229.397 220.548L271.658 219.626Z" fill="#455A64"/>
<path d="M244.688 234.368C245.132 234.145 245.63 234.055 246.123 234.109C246.616 234.163 247.084 234.358 247.469 234.671C247.796 234.978 248.022 235.377 248.119 235.815C248.216 236.254 248.178 236.711 248.011 237.128C247.83 237.544 247.536 237.9 247.163 238.158C246.79 238.416 246.352 238.563 245.899 238.585C245.422 238.615 244.948 238.49 244.549 238.227C244.15 237.964 243.848 237.578 243.688 237.128C243.538 236.624 243.55 236.086 243.725 235.59C243.9 235.094 244.227 234.666 244.66 234.368" fill="#EBEBEB"/>
<path d="M262.175 283.183C262.175 283.183 208.967 248.279 206.799 247.554C204.63 246.829 199.35 243.379 194.091 244.829C188.833 246.28 184.102 251.003 181.743 257.903C180.392 261.845 179.758 268.568 179.455 273.616C179.052 279.652 181.008 285.609 184.911 290.23C186.64 292.387 188.937 294.018 191.543 294.94C192.099 295.116 192.676 295.264 193.268 295.391C203.328 297.573 213.684 293.053 219.316 284.451L220.555 282.564C220.555 282.564 255.368 295.348 255.91 295.172L262.175 283.183Z" fill="#263238"/>
<path d="M196.353 273.574C196.446 273.621 196.543 273.663 196.641 273.7L197.514 274.045L200.886 275.348L213.425 280.072C218.747 282.057 225.125 284.422 232.285 287.027C239.444 289.632 247.371 292.483 255.848 295.348L255.995 295.405L256.073 295.257L260.233 287.316L262.345 283.268L262.423 283.113L262.275 283.021L221.689 257.255L209.496 249.567L206.187 247.498L205.321 246.97C205.124 246.85 205.019 246.801 205.019 246.801L205.3 247.005L206.145 247.561L209.419 249.673L221.584 257.48L262.106 283.345L262.036 283.092C261.367 284.38 260.628 285.753 259.924 287.14L255.77 295.081L256.002 294.989C247.554 292.131 239.599 289.287 232.433 286.703L213.544 279.832L200.936 275.2L197.542 273.961L196.655 273.651L196.353 273.574Z" fill="#455A64"/>
<path d="M201.872 149.634C202.78 147.178 204.786 146.114 207.328 145.502C208.606 145.205 209.937 145.22 211.208 145.547C212.479 145.875 213.652 146.504 214.628 147.382C215.916 148.557 216.86 150.198 218.451 150.902C221.077 152.091 224.435 150.353 226.899 151.81C227.639 152.246 228.205 152.925 228.501 153.731C228.798 154.538 228.805 155.422 228.523 156.233C228.241 157.045 227.687 157.733 226.954 158.182C226.222 158.631 225.356 158.812 224.505 158.695C226.216 159.498 226.533 162.074 225.357 163.553C224.181 165.031 222.006 165.432 220.183 164.918C218.385 164.299 216.791 163.201 215.571 161.743C214.29 160.335 213.164 158.822 211.77 157.519C210.432 156.16 208.656 155.317 206.757 155.14C204.202 155.041 201.829 156.766 200.499 158.941C199.168 161.117 198.654 163.7 198.281 166.235C197.908 168.769 197.626 171.346 196.648 173.711C196.535 173.993 196.366 174.296 196.078 174.359C195.648 174.45 195.338 173.979 195.169 173.578C193.243 169.056 192.224 164.201 192.17 159.286C192.135 156.47 192.459 153.774 194.226 151.542C195.993 149.311 200.069 147.924 201.85 149.599" fill="#263238"/>
<path d="M195.874 160.99L191.96 189.418C191.803 190.566 191.881 191.733 192.19 192.85C192.499 193.967 193.031 195.009 193.756 195.913C194.48 196.818 195.381 197.565 196.404 198.11C197.426 198.655 198.549 198.986 199.704 199.083C201.889 199.274 204.065 198.616 205.779 197.246C207.493 195.877 208.615 193.9 208.912 191.727C209.2 189.615 209.447 187.805 209.496 187.587C209.496 187.587 216.825 187.904 218.331 180.815C219.035 177.386 219.986 170.205 220.753 163.7C221.14 160.334 220.248 156.945 218.252 154.207C216.257 151.468 213.305 149.58 209.982 148.916L209.278 148.783C201.78 147.713 196.712 153.485 195.874 160.99Z" fill="#FFBE9D"/>
<path d="M209.49 187.489C206.194 186.884 203.153 185.313 200.753 182.976C200.753 182.976 201.922 188.523 209.138 189.312L209.49 187.489Z" fill="#EB996E"/>
<path d="M217.689 168.051C217.64 168.316 217.488 168.551 217.267 168.705C217.045 168.859 216.772 168.92 216.507 168.875C216.376 168.86 216.249 168.819 216.134 168.755C216.02 168.69 215.919 168.603 215.839 168.498C215.759 168.394 215.7 168.274 215.668 168.146C215.635 168.019 215.628 167.886 215.648 167.755C215.696 167.489 215.847 167.253 216.068 167.097C216.29 166.942 216.564 166.88 216.831 166.925C216.962 166.94 217.089 166.982 217.203 167.047C217.318 167.113 217.419 167.201 217.499 167.306C217.579 167.411 217.637 167.531 217.67 167.659C217.703 167.787 217.709 167.92 217.689 168.051Z" fill="#263238"/>
<path d="M218.493 166.882C218.338 166.995 217.683 166.27 216.592 166.052C215.501 165.833 214.586 166.228 214.48 166.052C214.374 165.876 214.614 165.77 215.015 165.587C215.55 165.349 216.147 165.288 216.719 165.411C217.287 165.52 217.806 165.809 218.197 166.235C218.5 166.573 218.563 166.84 218.493 166.882Z" fill="#263238"/>
<path d="M206.904 166.277C206.856 166.543 206.705 166.78 206.484 166.935C206.262 167.091 205.988 167.153 205.722 167.108C205.591 167.091 205.464 167.049 205.349 166.983C205.235 166.918 205.134 166.83 205.054 166.725C204.973 166.62 204.914 166.501 204.88 166.373C204.846 166.245 204.838 166.112 204.856 165.981C204.909 165.718 205.061 165.484 205.281 165.33C205.501 165.175 205.772 165.111 206.039 165.151C206.17 165.166 206.297 165.208 206.412 165.273C206.527 165.339 206.628 165.426 206.709 165.531C206.789 165.636 206.848 165.756 206.882 165.884C206.916 166.013 206.923 166.146 206.904 166.277Z" fill="#263238"/>
<path d="M207.714 164.946C207.56 165.052 206.905 164.327 205.814 164.109C204.723 163.89 203.807 164.285 203.702 164.109C203.596 163.933 203.835 163.827 204.237 163.644C204.773 163.41 205.368 163.348 205.94 163.468C206.509 163.583 207.027 163.871 207.426 164.292C207.722 164.672 207.785 164.897 207.714 164.946Z" fill="#263238"/>
<path d="M210.059 173.824C210.67 173.756 211.288 173.768 211.896 173.859C212.185 173.859 212.459 173.859 212.544 173.697C212.633 173.418 212.633 173.118 212.544 172.838C212.417 172.134 212.283 171.346 212.142 170.543C211.6 167.291 211.269 164.644 211.396 164.623C211.523 164.602 212.1 167.22 212.614 170.473C212.741 171.275 212.868 172.036 212.98 172.768C213.09 173.141 213.063 173.54 212.903 173.894C212.843 173.983 212.764 174.057 212.671 174.111C212.578 174.165 212.475 174.197 212.368 174.204C212.207 174.227 212.043 174.227 211.882 174.204C211.261 174.154 210.648 174.026 210.059 173.824Z" fill="#263238"/>
<path d="M206.694 173.951C206.877 173.951 206.637 175.162 207.482 176.203C208.327 177.245 209.594 177.372 209.594 177.541C209.594 177.71 209.27 177.71 208.735 177.618C208.038 177.49 207.408 177.121 206.954 176.577C206.524 176.049 206.315 175.375 206.37 174.697C206.426 174.19 206.616 173.922 206.694 173.951Z" fill="#263238"/>
<path d="M208.849 160.715C208.687 160.997 207.624 160.638 206.307 160.532C204.991 160.427 203.893 160.575 203.773 160.272C203.724 160.131 203.963 159.892 204.435 159.688C205.061 159.441 205.736 159.344 206.406 159.406C207.08 159.457 207.732 159.67 208.307 160.026C208.736 160.307 208.912 160.589 208.849 160.715Z" fill="#263238"/>
<path d="M218.717 163.644C218.478 163.855 217.781 163.447 216.873 163.25C215.965 163.053 215.169 163.088 215.05 162.792C214.993 162.651 215.162 162.426 215.549 162.257C216.054 162.059 216.607 162.022 217.133 162.152C217.664 162.264 218.145 162.542 218.506 162.947C218.767 163.264 218.83 163.539 218.717 163.644Z" fill="#263238"/>
<path d="M195.401 166.369C195.288 166.291 190.804 163.947 189.987 168.84C189.171 173.732 194.253 173.542 194.282 173.402C194.31 173.261 195.401 166.369 195.401 166.369Z" fill="#FFBE9D"/>
<path d="M193.099 171.297C193.099 171.297 193.007 171.346 192.852 171.388C192.635 171.44 192.406 171.407 192.212 171.297C191.927 171.045 191.715 170.722 191.598 170.36C191.482 169.998 191.465 169.611 191.55 169.241C191.606 168.818 191.758 168.414 191.994 168.058C192.06 167.912 192.161 167.784 192.287 167.685C192.413 167.586 192.561 167.518 192.719 167.488C192.822 167.479 192.925 167.507 193.009 167.566C193.094 167.625 193.156 167.712 193.183 167.812C193.226 167.953 193.183 168.051 193.183 168.058C193.183 168.065 193.303 167.995 193.296 167.791C193.288 167.665 193.239 167.546 193.155 167.453C193.098 167.39 193.029 167.339 192.951 167.304C192.874 167.269 192.79 167.25 192.705 167.249C192.498 167.255 192.296 167.313 192.119 167.419C191.941 167.525 191.794 167.675 191.691 167.854C191.411 168.244 191.23 168.696 191.163 169.171C191.029 170.163 191.381 171.17 192.057 171.487C192.182 171.547 192.319 171.579 192.458 171.579C192.597 171.579 192.734 171.547 192.859 171.487C193.071 171.416 193.113 171.311 193.099 171.297Z" fill="#EB996E"/>
<path d="M222.512 162.56C220.858 162.649 219.206 162.345 217.692 161.672C216.178 160.999 214.846 159.976 213.804 158.688C212.396 156.872 211.459 154.499 209.425 153.401C208.724 153.056 207.962 152.854 207.183 152.805C206.403 152.757 205.622 152.864 204.884 153.119C203.415 153.644 202.069 154.464 200.928 155.527C201.575 159.413 199.851 163.271 198.168 166.791C198.023 167.206 197.743 167.561 197.372 167.798C196.711 168.129 195.922 167.608 195.521 166.981C194.959 165.931 194.714 164.74 194.817 163.553C194.832 160.848 195.382 158.173 196.436 155.682C197.506 153.184 199.286 151.054 201.554 149.557C204.464 147.781 207.949 147.203 211.276 147.945C214.585 148.715 217.567 150.505 219.802 153.063C220.891 154.197 221.682 155.583 222.104 157.097" fill="#263238"/>
<path d="M25.4923 277.206C25.5231 277.103 25.5657 277.004 25.6191 276.911L26.0133 276.059C26.4988 274.957 26.892 273.818 27.189 272.651C27.9634 269.624 28.2309 264.999 27.0834 259.508C26.466 256.512 25.6523 253.561 24.6475 250.673C23.6127 247.54 22.4159 244.217 21.4373 240.619C20.3325 236.867 19.7985 232.971 19.8533 229.06C20.0011 224.97 21.212 220.886 22.5426 216.824C23.8731 212.762 25.2459 208.778 25.6543 204.779C26.1157 200.931 25.3442 197.037 23.4507 193.656C21.6837 190.403 19.4731 187.629 17.8187 184.75C16.2681 182.084 15.1244 179.201 14.4255 176.196C13.4282 171.841 13.3563 167.325 14.2143 162.94C14.5299 161.337 15.0014 159.769 15.6223 158.258C15.6057 158.366 15.5798 158.472 15.5448 158.575L15.2632 159.469C13.6068 164.876 13.4293 170.628 14.7493 176.126C15.4548 179.096 16.6009 181.943 18.1496 184.574C19.804 187.39 22.0287 190.206 23.8239 193.466C25.7467 196.913 26.5326 200.88 26.0696 204.8C25.6543 208.869 24.2674 212.875 22.9439 216.937C21.6203 220.999 20.4165 225.033 20.2687 229.053C20.2074 232.924 20.7271 236.783 21.8104 240.5C22.7749 244.076 23.9647 247.399 24.9784 250.546C25.9747 253.451 26.7767 256.419 27.3791 259.43C28.4984 264.964 28.1746 269.638 27.3791 272.673C27.0687 273.843 26.6492 274.981 26.1259 276.073C25.9429 276.425 25.7951 276.699 25.6895 276.911C25.6334 277.015 25.5674 277.114 25.4923 277.206Z" fill="#263238"/>
<path d="M20.0653 187.587C20.0653 187.587 16.6932 176.816 22.7405 170.508C22.7874 170.457 22.8474 170.421 22.9139 170.402C22.9804 170.383 23.0508 170.383 23.1172 170.402C23.1836 170.421 23.2435 170.458 23.2901 170.509C23.3367 170.56 23.3682 170.623 23.3812 170.691C23.705 172.472 24.1063 177.893 20.0653 187.587Z" fill="#DF0031"/>
<path d="M22.0855 174.099C22.0742 174.766 21.9964 175.431 21.8532 176.084C21.6349 177.492 21.3744 179.062 21.0858 180.836C20.7972 182.61 20.5508 184.222 20.3325 185.588C20.2756 186.255 20.1554 186.915 19.9735 187.559C19.9166 186.89 19.9378 186.217 20.0368 185.553C20.1495 184.321 20.3677 182.631 20.6704 180.772C20.9732 178.914 21.297 177.252 21.5645 176.035C21.6633 175.371 21.8381 174.722 22.0855 174.099Z" fill="#263238"/>
<path d="M24.0205 213.002C24.0205 213.002 26.0832 201.899 34.3763 199.168C34.4417 199.145 34.5121 199.141 34.5797 199.156C34.6473 199.171 34.7094 199.204 34.7591 199.252C34.8088 199.301 34.8441 199.362 34.861 199.429C34.878 199.496 34.8759 199.567 34.8551 199.633C34.32 201.336 32.1306 206.321 24.0205 213.002Z" fill="#DF0031"/>
<path d="M32.1162 202.019C31.7942 202.605 31.4145 203.156 30.9828 203.666C30.1521 204.779 29.1665 206.074 28.0823 207.51L25.1678 211.361C24.8039 211.921 24.3891 212.447 23.9287 212.931C24.1905 212.312 24.5236 211.727 24.9214 211.185C25.6254 210.15 26.5758 208.756 27.7374 207.257C28.899 205.757 29.9479 204.441 30.7434 203.483C31.143 202.944 31.6037 202.453 32.1162 202.019Z" fill="#263238"/>
<path d="M21.7819 240.845C21.7819 240.845 20.5288 229.623 27.6673 224.582C27.7235 224.542 27.7899 224.518 27.8591 224.513C27.9282 224.508 27.9974 224.522 28.0588 224.554C28.1202 224.587 28.1714 224.635 28.2067 224.695C28.242 224.754 28.26 224.823 28.2587 224.892C28.2376 226.694 27.5969 232.094 21.7819 240.845Z" fill="#DF0031"/>
<path d="M26.3368 227.983C26.2029 228.638 25.9999 229.278 25.7313 229.89C25.2526 231.193 24.6965 232.706 24.0699 234.41L22.4296 238.93C22.2551 239.573 22.0194 240.198 21.7256 240.795C21.8001 240.129 21.9489 239.472 22.1691 238.838C22.5141 237.649 23.0491 236.022 23.7038 234.262C24.3585 232.502 24.9992 230.918 25.4849 229.785C25.6998 229.154 25.9855 228.549 26.3368 227.983Z" fill="#263238"/>
<path d="M28.0275 268.864C28.0275 268.864 27.1756 257.6 34.4902 252.827C34.5474 252.787 34.6144 252.765 34.6837 252.761C34.753 252.758 34.8219 252.774 34.8826 252.808C34.9433 252.841 34.9935 252.891 35.0273 252.952C35.0612 253.012 35.0776 253.081 35.0745 253.151C34.983 254.946 34.1523 260.317 28.0275 268.864Z" fill="#DF0031"/>
<path d="M33.0391 256.192C32.8702 256.843 32.6343 257.476 32.3351 258.079C31.8071 259.36 31.1946 260.895 30.5117 262.528L28.7025 266.991C28.518 267.613 28.2776 268.216 27.9844 268.794C28.079 268.13 28.2515 267.48 28.4983 266.858C28.8785 265.682 29.4769 264.084 30.1949 262.345C30.913 260.606 31.6029 259.043 32.1309 257.931C32.3689 257.32 32.6734 256.736 33.0391 256.192Z" fill="#263238"/>
<path d="M15.2209 178.125C15.2209 178.125 5.21702 172.902 5.0199 164.165C5.01683 164.096 5.03316 164.027 5.06706 163.966C5.10096 163.906 5.15107 163.856 5.21178 163.822C5.27249 163.789 5.34138 163.772 5.4107 163.776C5.48003 163.779 5.54704 163.802 5.60421 163.841C7.08965 164.869 11.2081 168.41 15.2209 178.125Z" fill="#DF0031"/>
<path d="M7.09766 167.164C7.56527 167.641 7.98281 168.165 8.34373 168.727L11.1597 172.627L13.9757 176.52C14.4047 177.031 14.7865 177.58 15.1162 178.161C14.5868 177.737 14.1137 177.247 13.7082 176.703C12.9127 175.76 11.8637 174.408 10.7655 172.881C9.66726 171.353 8.70981 169.938 8.04101 168.896C7.66153 168.357 7.34502 167.775 7.09766 167.164Z" fill="#263238"/>
<path d="M25.9637 201.28C25.9637 201.28 15.6642 196.676 14.932 187.967C14.9262 187.899 14.9393 187.83 14.97 187.769C15.0007 187.707 15.0478 187.656 15.106 187.619C15.1643 187.583 15.2314 187.563 15.3001 187.562C15.3687 187.562 15.4363 187.58 15.4952 187.615C17.044 188.523 21.3736 191.811 25.9637 201.28Z" fill="#DF0031"/>
<path d="M17.1914 190.818C17.6857 191.268 18.1338 191.765 18.529 192.304L21.5844 196.028L24.6468 199.738C25.1038 200.211 25.514 200.728 25.8717 201.28C25.3349 200.866 24.8461 200.394 24.4144 199.872C23.5626 198.971 22.4362 197.69 21.2464 196.232C20.0567 194.775 19.0148 193.416 18.2896 192.424C17.8641 191.932 17.4956 191.393 17.1914 190.818Z" fill="#263238"/>
<path d="M20.0356 227.074C20.0356 227.074 12.9604 218.274 16.2833 210.178C16.3086 210.114 16.351 210.059 16.406 210.017C16.461 209.976 16.5263 209.951 16.5948 209.944C16.6632 209.938 16.7322 209.95 16.794 209.98C16.8558 210.01 16.9081 210.057 16.945 210.115C17.8954 211.671 20.2398 216.564 20.0356 227.074Z" fill="#DF0031"/>
<path d="M16.98 213.776C17.2168 214.4 17.3891 215.046 17.494 215.705C17.7896 217.064 18.1346 218.655 18.5218 220.415C18.909 222.175 19.2258 223.759 19.5567 225.11C19.745 225.752 19.8746 226.409 19.9439 227.075C19.6313 226.478 19.3948 225.844 19.2399 225.188C18.8879 223.998 18.4725 222.372 18.0783 220.499C17.684 218.626 17.3743 216.979 17.1772 215.768C17.0388 215.113 16.9727 214.445 16.98 213.776Z" fill="#263238"/>
<path d="M27.0484 257.445C27.0484 257.445 16.8193 252.672 16.242 243.942C16.2376 243.875 16.2518 243.807 16.283 243.746C16.3143 243.686 16.3615 243.635 16.4194 243.6C16.4774 243.564 16.544 243.545 16.612 243.545C16.68 243.544 16.7468 243.563 16.8052 243.597C18.3399 244.562 22.6132 247.92 27.0484 257.445Z" fill="#DF0031"/>
<path d="M18.4443 246.85C18.9331 247.306 19.3742 247.811 19.7608 248.356C20.6197 249.448 21.6335 250.722 22.7528 252.13L25.7519 255.896C26.2028 256.389 26.6081 256.921 26.9627 257.487C26.439 257.076 25.9663 256.603 25.5547 256.079C24.724 255.171 23.6187 253.869 22.4571 252.39C21.2955 250.912 20.2395 249.546 19.5355 248.539C19.1124 248.017 18.7465 247.45 18.4443 246.85Z" fill="#263238"/>
<path d="M47.4157 213.058C47.4255 213.142 47.4255 213.227 47.4157 213.311C47.4157 213.508 47.4157 213.741 47.4157 214.015C47.4157 214.719 47.3453 215.613 47.296 216.754C47.1622 219.162 46.9792 222.513 46.761 226.532C46.057 230.616 43.945 235.142 41.129 239.535C39.0803 242.774 36.905 245.723 35.0816 248.462C33.3959 250.853 31.8786 253.358 30.5408 255.96C29.6661 257.725 28.959 259.568 28.4288 261.465C28.2458 262.134 28.112 262.662 28.0346 263.021C28.0035 263.206 27.9539 263.387 27.8867 263.563C27.889 263.376 27.9102 263.189 27.9501 263.007C27.9994 262.641 28.112 262.105 28.2669 261.423C28.7446 259.482 29.4193 257.595 30.2803 255.791C31.5888 253.158 33.0876 250.623 34.7648 248.209C36.6022 245.449 38.7424 242.499 40.784 239.282C43.6 234.903 45.6275 230.447 46.416 226.427C46.6976 222.421 46.9299 219.07 47.12 216.662C47.2115 215.522 47.289 214.607 47.3382 213.931C47.3382 213.649 47.3946 213.41 47.4157 213.227C47.4096 213.171 47.4096 213.114 47.4157 213.058Z" fill="#263238"/>
<path d="M41.3611 238.733C41.3611 238.733 45.6907 228.306 40.2418 221.478C40.1995 221.423 40.1429 221.381 40.0782 221.356C40.0135 221.332 39.9432 221.326 39.8753 221.339C39.8074 221.352 39.7445 221.384 39.6936 221.431C39.6427 221.478 39.6058 221.538 39.587 221.604C39.0731 223.35 38.179 228.736 41.3611 238.733Z" fill="#DF0031"/>
<path d="M40.5375 225.117C40.7242 225.76 40.8399 226.421 40.8825 227.089C41.0373 228.314 41.2063 230.01 41.3401 231.89C41.4738 233.77 41.5372 235.473 41.5372 236.705C41.5806 237.374 41.5404 238.046 41.4175 238.705C41.2951 238.05 41.2362 237.385 41.2415 236.719C41.15 235.311 41.0373 233.713 40.9177 231.918C40.798 230.123 40.6783 228.497 40.5868 227.117C40.5047 226.454 40.4882 225.784 40.5375 225.117Z" fill="#263238"/>
<g opacity="0.3">
<path d="M41.3611 238.733C41.3611 238.733 45.6907 228.306 40.2418 221.478C40.1995 221.423 40.1429 221.381 40.0782 221.356C40.0135 221.332 39.9432 221.326 39.8753 221.339C39.8074 221.352 39.7445 221.384 39.6936 221.431C39.6427 221.478 39.6058 221.538 39.587 221.604C39.0731 223.35 38.179 228.736 41.3611 238.733Z" fill="black"/>
</g>
<path d="M27.9132 263.851C27.9132 263.851 31.384 253.115 25.4 246.751C25.3536 246.701 25.2941 246.664 25.2281 246.645C25.1621 246.626 25.0921 246.625 25.0258 246.643C24.9596 246.662 24.8996 246.698 24.8526 246.748C24.8056 246.798 24.7733 246.86 24.7593 246.927C24.4144 248.701 23.9638 254.115 27.9132 263.851Z" fill="#DF0031"/>
<path d="M26.0195 250.342C26.2587 250.968 26.4264 251.62 26.5194 252.285C26.7728 253.489 27.0826 255.164 27.3712 257.03C27.6599 258.895 27.857 260.585 27.9555 261.817C28.0512 262.481 28.0654 263.155 27.9978 263.823C27.8263 263.178 27.7132 262.518 27.6599 261.852C27.4557 260.444 27.2163 258.874 26.9559 257.093C26.6954 255.312 26.4419 253.707 26.2519 252.334C26.1091 251.679 26.0313 251.012 26.0195 250.342Z" fill="#263238"/>
<g opacity="0.3">
<path d="M27.9132 263.851C27.9132 263.851 31.384 253.115 25.4 246.751C25.3536 246.701 25.2941 246.664 25.2281 246.645C25.1621 246.626 25.0921 246.625 25.0258 246.643C24.9596 246.662 24.8996 246.698 24.8526 246.748C24.8056 246.798 24.7733 246.86 24.7593 246.927C24.4144 248.701 23.9638 254.115 27.9132 263.851Z" fill="black"/>
</g>
<path d="M46.8379 225.997C46.8379 225.997 56.0884 219.521 55.1521 210.833C55.1461 210.764 55.121 210.698 55.0798 210.643C55.0385 210.588 54.9826 210.545 54.9183 210.519C54.8541 210.493 54.784 210.486 54.7159 210.498C54.6478 210.51 54.5843 210.541 54.5326 210.587C53.195 211.84 49.5624 215.846 46.8379 225.997Z" fill="#DF0031"/>
<g opacity="0.3">
<path d="M46.8379 225.997C46.8379 225.997 56.0884 219.521 55.1521 210.833C55.1461 210.764 55.121 210.698 55.0798 210.643C55.0385 210.588 54.9826 210.545 54.9183 210.519C54.8541 210.493 54.784 210.486 54.7159 210.498C54.6478 210.51 54.5843 210.541 54.5326 210.587C53.195 211.84 49.5624 215.846 46.8379 225.997Z" fill="black"/>
</g>
<path d="M53.4839 214.079C53.2971 214.72 53.0397 215.339 52.7166 215.923C52.1886 217.042 51.4212 218.563 50.5271 220.225C49.633 221.886 48.7742 223.357 48.1054 224.399C47.7856 224.988 47.3904 225.532 46.9297 226.018C47.1836 225.401 47.4923 224.807 47.8519 224.244L50.154 220.02L52.449 215.796C52.734 215.19 53.0808 214.614 53.4839 214.079Z" fill="#263238"/>
<path d="M31.6377 253.207C31.6377 253.207 42.7679 251.468 45.7811 243.259C45.806 243.195 45.8123 243.124 45.7995 243.056C45.7866 242.988 45.755 242.925 45.7082 242.874C45.6614 242.823 45.6013 242.785 45.5346 242.766C45.4678 242.748 45.3972 242.748 45.3305 242.767C43.5916 243.259 38.5439 245.294 31.6377 253.207Z" fill="#DF0031"/>
<g opacity="0.3">
<path d="M31.6377 253.207C31.6377 253.207 42.7679 251.468 45.7811 243.259C45.806 243.195 45.8123 243.124 45.7995 243.056C45.7866 242.988 45.755 242.925 45.7082 242.874C45.6614 242.823 45.6013 242.785 45.5346 242.766C45.4678 242.748 45.3972 242.748 45.3305 242.767C43.5916 243.259 38.5439 245.294 31.6377 253.207Z" fill="black"/>
</g>
<path d="M42.8539 245.435C42.4042 245.925 41.9039 246.366 41.3614 246.751C40.3969 247.526 39.0382 248.554 37.5035 249.645C35.9688 250.736 34.5467 251.686 33.4977 252.334C32.9462 252.716 32.3506 253.031 31.7236 253.27C32.2215 252.826 32.7587 252.428 33.3288 252.081L37.2641 249.307L41.1854 246.491C41.7034 246.082 42.2626 245.728 42.8539 245.435Z" fill="#263238"/>
<path d="M21.0015 273.736L17.749 295.63H38.0242L35.3913 273.736H21.0015Z" fill="#455A64"/>
<path d="M36.2074 280.515C36.2074 280.635 32.5466 280.726 28.027 280.726C23.5073 280.726 19.8535 280.635 19.8535 280.515C22.5727 280.307 25.3007 280.236 28.027 280.304C30.7556 280.236 33.4859 280.307 36.2074 280.515Z" fill="#263238"/>
<path d="M36.6089 282.24C36.6089 282.353 32.8284 282.451 28.1609 282.451C23.4934 282.451 19.7129 282.353 19.7129 282.24C19.7129 282.127 23.4934 282.029 28.1609 282.029C32.8284 282.029 36.6089 282.141 36.6089 282.24Z" fill="#263238"/>
</g>
<defs>
<clipPath id="clip0_158_80">
<rect width="304" height="296" fill="white"/>
</clipPath>
</defs>
</svg>
