<svg width="23" height="23" viewBox="0 0 23 23" fill="none" xmlns="http://www.w3.org/2000/svg">
<g id="TwitterLogo">
<path id="Vector" d="M21.4518 5.98733C21.3994 5.86064 21.3105 5.75235 21.1965 5.67614C21.0825 5.59994 20.9485 5.55925 20.8114 5.55923H18.1743C17.8056 4.93195 17.2808 4.41075 16.6511 4.0463C16.0213 3.68184 15.308 3.48653 14.5804 3.47935C14.0384 3.47224 13.5004 3.57362 12.9981 3.77751C12.4958 3.98141 12.0393 4.2837 11.6556 4.66661C11.2607 5.05418 10.9472 5.5168 10.7336 6.02727C10.5201 6.53774 10.4107 7.08576 10.412 7.6391V8.16687C6.92303 7.24652 4.06928 4.40836 4.03894 4.37803C3.94593 4.2842 3.82804 4.21889 3.69916 4.18981C3.57028 4.16073 3.43577 4.16908 3.31147 4.21388C3.18718 4.25868 3.07827 4.33807 2.99758 4.44269C2.91689 4.54731 2.86777 4.67281 2.85602 4.80441C2.48251 8.94595 3.68537 11.7174 4.76257 13.3128C5.2878 14.1015 5.92676 14.8082 6.65872 15.41C5.33886 16.9292 3.26073 17.7273 3.23819 17.736C3.14037 17.7727 3.05208 17.8309 2.97994 17.9065C2.9078 17.982 2.85366 18.0729 2.82158 18.1723C2.7895 18.2717 2.78029 18.3771 2.79466 18.4806C2.80903 18.5841 2.84659 18.683 2.90455 18.7699C2.96954 18.8669 3.22953 19.2075 3.86476 19.5256C4.64991 19.919 5.68724 20.1183 6.94557 20.1183C13.0699 20.1183 18.1873 15.4022 18.7098 9.33419L21.3019 6.74302C21.3988 6.64601 21.4648 6.52243 21.4915 6.38792C21.5182 6.25341 21.5044 6.114 21.4518 5.98733ZM17.552 8.53604C17.4332 8.6552 17.3617 8.81352 17.351 8.98148C16.9983 14.4489 12.4295 18.7317 6.94557 18.7317C6.03042 18.7317 5.38566 18.6104 4.93329 18.4648C5.93076 17.9232 7.32168 16.9916 8.21602 15.6501C8.26851 15.5712 8.30428 15.4824 8.32111 15.3891C8.33794 15.2959 8.33547 15.2002 8.31387 15.1079C8.29227 15.0157 8.25199 14.9288 8.19551 14.8528C8.13903 14.7767 8.06756 14.713 7.9855 14.6656C7.94477 14.6422 4.1802 12.3829 4.1724 6.34611C5.55898 7.47271 8.09383 9.22067 10.9901 9.7077C11.0893 9.72444 11.191 9.71936 11.2881 9.69282C11.3852 9.66627 11.4754 9.6189 11.5523 9.554C11.6293 9.4891 11.6912 9.40822 11.7337 9.31698C11.7762 9.22574 11.7984 9.12634 11.7986 9.02568V7.6391C11.7978 7.26927 11.871 6.90302 12.0139 6.56191C12.1568 6.22079 12.3664 5.9117 12.6306 5.65282C12.8837 5.39916 13.1852 5.19883 13.5171 5.06368C13.8491 4.92852 14.2047 4.86128 14.5631 4.86594C15.6602 4.8798 16.6854 5.54883 17.1144 6.5307C17.1685 6.65415 17.2574 6.75915 17.3702 6.83288C17.483 6.9066 17.6149 6.94585 17.7496 6.94581H19.1362L17.552 8.53604Z" fill="white"/>
</g>
</svg>
